<!-- Generated by readme-aura https://github.com/collectioneur/readme-aura -->
<svg width="860" height="150" viewBox="0 0 860 150" xmlns="http://www.w3.org/2000/svg"><defs><clipPath id="satori_bc-id"><path x="0" y="0" width="860" height="150" d="M16,0 h828 a16,16 0 0 1 16,16 v118 a16,16 0 0 1 -16,16 h-828 a16,16 0 0 1 -16,-16 v-118 a16,16 0 0 1 16,-16"/></clipPath></defs><clipPath id="satori_cp-id"><path x="0" y="0" width="860" height="150" d="M16,0 h828 a16,16 0 0 1 16,16 v118 a16,16 0 0 1 -16,16 h-828 a16,16 0 0 1 -16,-16 v-118 a16,16 0 0 1 16,-16"/></clipPath><mask id="satori_om-id"><rect x="1" y="1" width="858" height="148" fill="#fff"/><path width="860" height="150" fill="none" stroke="#000" stroke-width="2" d="M4.686,4.686 A16,16 0 0 1 16,0 h828 a16,16 0 0 1 16,16 v118 a16,16 0 0 1 -16,16 h-828 a16,16 0 0 1 -16,-16 v-118 A16,16 0 0 1 4.686,4.686"/></mask><path x="0" y="0" width="860" height="150" fill="#08080c" d="M16,0 h828 a16,16 0 0 1 16,16 v118 a16,16 0 0 1 -16,16 h-828 a16,16 0 0 1 -16,-16 v-118 a16,16 0 0 1 16,-16"/><path width="860" height="150" clip-path="url(#satori_bc-id)" fill="none" stroke="rgba(110,80,220,0.18)" stroke-width="2" d="M4.686,4.686 A16,16 0 0 1 16,0 h828 a16,16 0 0 1 16,16 v118 a16,16 0 0 1 -16,16 h-828 a16,16 0 0 1 -16,-16 v-118 A16,16 0 0 1 4.686,4.686"/><clipPath id="satori_cp-id-0" clip-path="url(#satori_cp-id)"><rect x="1" y="1" width="860" height="150"/></clipPath><mask id="satori_om-id-0"><rect x="1" y="1" width="860" height="150" fill="#fff" mask="url(#satori_om-id)"/></mask><svg x="1" y="1" width="860" height="150" preserveAspectRatio="none" clip-path="url(#satori_cp-id-0)" mask="url(#satori_om-id-0)"><defs><radialGradient id="g1" cx="50%" cy="50%" r="50%"><stop offset="0%" stop-color="rgba(110,20,210,0.65)"></stop><stop offset="45%" stop-color="rgba(80,15,170,0.28)"></stop><stop offset="70%" stop-color="rgba(80,15,170,0)"></stop></radialGradient><radialGradient id="g2" cx="50%" cy="50%" r="50%"><stop offset="0%" stop-color="rgba(40,70,255,0.55)"></stop><stop offset="45%" stop-color="rgba(20,50,200,0.22)"></stop><stop offset="70%" stop-color="rgba(20,50,200,0)"></stop></radialGradient><radialGradient id="g3" cx="50%" cy="50%" r="50%"><stop offset="0%" stop-color="rgba(0,140,255,0.42)"></stop><stop offset="70%" stop-color="rgba(0,140,255,0)"></stop></radialGradient><radialGradient id="g4" cx="50%" cy="50%" r="50%"><stop offset="0%" stop-color="rgba(0,195,235,0.30)"></stop><stop offset="70%" stop-color="rgba(0,195,235,0)"></stop></radialGradient><radialGradient id="g5" cx="50%" cy="50%" r="50%"><stop offset="0%" stop-color="rgba(100,30,210,0.40)"></stop><stop offset="70%" stop-color="rgba(100,30,210,0)"></stop></radialGradient></defs><ellipse id="glow-1" cx="730" cy="155" rx="180" ry="130" fill="url(#g1)"></ellipse><ellipse id="glow-2" cx="580" cy="148" rx="170" ry="125" fill="url(#g2)"></ellipse><ellipse id="glow-3" cx="430" cy="142" rx="160" ry="120" fill="url(#g3)"></ellipse><ellipse id="glow-4" cx="280" cy="148" rx="150" ry="115" fill="url(#g4)"></ellipse><ellipse id="glow-5" cx="130" cy="155" rx="130" ry="105" fill="url(#g5)"></ellipse><style>

          @keyframes float-slow {
            0%, 100% { transform: translateX(0px); opacity: 0.8; }
            50% { transform: translateX(350px); opacity: 1.2; }
          }
          @keyframes float-medium {
            0%, 100% { transform: translateX(0px); opacity: 0.7; }
            50% { transform: translateX(-250px); opacity: 1.1; }
          }
          @keyframes float-fast {
            0%, 100% { transform: translateX(0px); opacity: 0.9; }
            50% { transform: translateX(200px); opacity: 0.6; }
          }
          @keyframes float-diagonal {
            0%, 100% { transform: translate(0px, 0px); opacity: 0.75; }
            50% { transform: translate(120px, 30px); opacity: 1.0; }
          }
          @keyframes float-wave {
            0%, 100% { transform: translateX(0px); opacity: 0.65; }
            33% { transform: translateX(-160px); opacity: 0.9; }
            66% { transform: translateX(80px); opacity: 1.0; }
          }
          @keyframes float-pulse {
            0%, 100% { transform: scale(1); opacity: 0.8; }
            50% { transform: scale(1.3); opacity: 0.4; }
          }
          #glow-1 { animation: float-slow 8s ease-in-out infinite; }
          #glow-2 { animation: float-medium 12s ease-in-out infinite; }
          #glow-3 { animation: float-fast 9s ease-in-out infinite; }
          #glow-4 { animation: float-diagonal 10s ease-in-out infinite; }
          #glow-5 { animation: float-wave 14s ease-in-out infinite; }
        
</style>
</svg><mask id="satori_om-id-0-0"><rect x="1" y="1" width="0" height="150" fill="#fff" mask="url(#satori_om-id)"/></mask><mask id="satori_om-id-0-0-0"><rect x="1" y="1" width="0" height="150" fill="#fff" mask="url(#satori_om-id)"/></mask><mask id="satori_om-id-0-0-0-0"><rect x="1" y="1" width="0" height="150" fill="#fff" mask="url(#satori_om-id)"/></mask><mask id="satori_om-id-0-0-0-1"><rect x="1" y="1" width="0" height="150" fill="#fff" mask="url(#satori_om-id)"/></mask><mask id="satori_om-id-0-0-0-2"><rect x="1" y="1" width="0" height="150" fill="#fff" mask="url(#satori_om-id)"/></mask><mask id="satori_om-id-0-0-1"><rect x="1" y="1" width="0" height="150" fill="#fff" mask="url(#satori_om-id)"/></mask><mask id="satori_om-id-0-0-1-0"><rect x="1" y="1" width="0" height="150" fill="#fff" mask="url(#satori_om-id)"/></mask><mask id="satori_om-id-0-0-1-1"><rect x="1" y="1" width="0" height="150" fill="#fff" mask="url(#satori_om-id)"/></mask><mask id="satori_om-id-0-0-1-2"><rect x="1" y="1" width="0" height="150" fill="#fff" mask="url(#satori_om-id)"/></mask><mask id="satori_om-id-0-0-2"><rect x="1" y="1" width="0" height="150" fill="#fff" mask="url(#satori_om-id)"/></mask><mask id="satori_om-id-0-0-2-0"><rect x="1" y="1" width="0" height="150" fill="#fff" mask="url(#satori_om-id)"/></mask><mask id="satori_om-id-0-0-2-1"><rect x="1" y="1" width="0" height="150" fill="#fff" mask="url(#satori_om-id)"/></mask><mask id="satori_om-id-0-0-3"><rect x="1" y="1" width="0" height="150" fill="#fff" mask="url(#satori_om-id)"/></mask><mask id="satori_om-id-0-0-3-0"><rect x="1" y="1" width="0" height="150" fill="#fff" mask="url(#satori_om-id)"/></mask><mask id="satori_om-id-0-0-3-1"><rect x="1" y="1" width="0" height="150" fill="#fff" mask="url(#satori_om-id)"/></mask><mask id="satori_om-id-0-0-4"><rect x="1" y="1" width="0" height="150" fill="#fff" mask="url(#satori_om-id)"/></mask><mask id="satori_om-id-0-0-4-0"><rect x="1" y="1" width="0" height="150" fill="#fff" mask="url(#satori_om-id)"/></mask><mask id="satori_om-id-0-0-4-1"><rect x="1" y="1" width="0" height="150" fill="#fff" mask="url(#satori_om-id)"/></mask><mask id="satori_om-id-0-1"><rect x="1" y="1" width="0" height="150" fill="#fff" mask="url(#satori_om-id)"/></mask><mask id="satori_om-id-0-2"><rect x="1" y="1" width="0" height="150" fill="#fff" mask="url(#satori_om-id)"/></mask><mask id="satori_om-id-0-3"><rect x="1" y="1" width="0" height="150" fill="#fff" mask="url(#satori_om-id)"/></mask><mask id="satori_om-id-0-4"><rect x="1" y="1" width="0" height="150" fill="#fff" mask="url(#satori_om-id)"/></mask><mask id="satori_om-id-0-5"><rect x="1" y="1" width="0" height="150" fill="#fff" mask="url(#satori_om-id)"/></mask><defs><clipPath id="satori_bc-id-1" clip-path="url(#satori_cp-id)"><rect x="1" y="44" width="150" height="62"/></clipPath></defs><mask id="satori_om-id-1"><rect x="1" y="44" width="149" height="62" fill="#fff" mask="url(#satori_om-id)"/><path width="150" height="62" fill="none" stroke="#000" stroke-width="2" d="M151,44 A0,0 0 0 1 151,44 v62 A0,0 0 0 1 151,106"/></mask><path width="150" height="62" clip-path="url(#satori_bc-id-1)" fill="none" stroke="rgba(255,255,255,0.06)" stroke-width="2" d="M151,44 A0,0 0 0 1 151,44 v62 A0,0 0 0 1 151,106"/><mask id="satori_om-id-1-0"><rect x="63" y="56" width="26" height="22" fill="#fff" mask="url(#satori_om-id)"/></mask><g mask="url(#satori_om-id)" clip-path="url(#satori_cp-id)"><path fill="#a78bfa" d="M74.4 74.2L74.4 76L64.1 76L64.1 74.4L68.2 70.2Q69.4 69.0 70.2 68.1Q71.0 67.2 71.4 66.3Q71.8 65.4 71.8 64.4L71.8 64.4Q71.8 63.1 71.1 62.4Q70.3 61.7 69.0 61.7L69.0 61.7Q67.9 61.7 67.0 62.1Q66.2 62.5 65.3 63.2L65.3 63.2L64.2 61.9Q65.2 61.1 66.4 60.6Q67.6 60.1 69.0 60.1L69.0 60.1Q71.3 60.1 72.5 61.2Q73.8 62.3 73.8 64.3L73.8 64.3Q73.8 65.5 73.3 66.6Q72.8 67.6 71.9 68.7Q71.0 69.7 69.8 70.9L69.8 70.9L66.5 74.2L66.5 74.2L74.4 74.2ZM87.7 70.7L87.7 72.4L85.4 72.4L85.4 76L83.6 76L83.6 72.4L76.0 72.4L76.0 70.8L83.4 60.2L85.4 60.2L85.4 70.7L87.7 70.7ZM83.6 70.7L83.6 65.7Q83.6 64.6 83.6 63.8Q83.7 63.0 83.7 62.3L83.7 62.3L83.6 62.3Q83.4 62.7 83.2 63.2Q82.9 63.7 82.6 64.0L82.6 64.0L77.9 70.7L83.6 70.7Z "/></g><mask id="satori_om-id-1-1"><rect x="59" y="82" width="33" height="12" fill="#fff" mask="url(#satori_om-id)"/></mask><g mask="url(#satori_om-id)" clip-path="url(#satori_cp-id)"><path fill="rgba(200,195,225,0.45)" d="M59.9 85.6L61.6 85.6Q62.8 85.6 63.4 86.0Q64.0 86.5 64.0 87.4L64.0 87.4Q64.0 87.9 63.8 88.3Q63.6 88.6 63.3 88.8Q63.0 89.0 62.7 89.1L62.7 89.1L64.5 92L63.5 92L62.0 89.3L60.7 89.3L60.7 92L59.9 92L59.9 85.6ZM61.6 86.3L61.6 86.3L60.7 86.3L60.7 88.7L61.6 88.7Q62.4 88.7 62.8 88.4Q63.1 88.0 63.1 87.4L63.1 87.4Q63.1 86.8 62.8 86.5Q62.4 86.3 61.6 86.3ZM69.9 91.3L69.9 92L66.3 92L66.3 85.6L69.9 85.6L69.9 86.3L67.1 86.3L67.1 88.3L69.7 88.3L69.7 89.0L67.1 89.0L67.1 91.3L69.9 91.3ZM72.1 85.6L73.8 85.6Q75.0 85.6 75.6 86.1Q76.2 86.6 76.2 87.5L76.2 87.5Q76.2 88.0 75.9 88.5Q75.7 88.9 75.1 89.2Q74.6 89.5 73.6 89.5L73.6 89.5L72.9 89.5L72.9 92L72.1 92L72.1 85.6ZM73.7 86.3L73.7 86.3L72.9 86.3L72.9 88.8L73.5 88.8Q74.5 88.8 74.9 88.5Q75.4 88.2 75.4 87.5L75.4 87.5Q75.4 86.9 75.0 86.6Q74.6 86.3 73.7 86.3ZM83.9 88.8L83.9 88.8Q83.9 89.8 83.6 90.5Q83.3 91.3 82.6 91.7Q81.9 92.1 81.0 92.1L81.0 92.1Q80.0 92.1 79.3 91.7Q78.6 91.3 78.3 90.5Q78.0 89.8 78.0 88.8L78.0 88.8Q78.0 87.8 78.3 87.0Q78.6 86.3 79.3 85.9Q80.0 85.5 81.0 85.5L81.0 85.5Q81.9 85.5 82.6 85.9Q83.3 86.3 83.6 87.0Q83.9 87.8 83.9 88.8ZM78.9 88.8L78.9 88.8Q78.9 90.0 79.4 90.7Q79.9 91.4 81.0 91.4L81.0 91.4Q82.1 91.4 82.6 90.7Q83.1 90.0 83.1 88.8L83.1 88.8Q83.1 87.6 82.6 86.9Q82.1 86.2 81.0 86.2L81.0 86.2Q79.9 86.2 79.4 86.9Q78.9 87.6 78.9 88.8ZM89.8 90.3L89.8 90.3Q89.8 91.1 89.2 91.6Q88.6 92.1 87.5 92.1L87.5 92.1Q87.0 92.1 86.5 92.0Q86.0 91.9 85.7 91.8L85.7 91.8L85.7 91.0Q86.1 91.2 86.5 91.3Q87.0 91.4 87.5 91.4L87.5 91.4Q88.3 91.4 88.6 91.1Q89.0 90.8 89.0 90.4L89.0 90.4Q89.0 90.0 88.8 89.8Q88.7 89.6 88.4 89.4Q88.1 89.2 87.5 89.0L87.5 89.0Q86.7 88.7 86.2 88.3Q85.8 87.9 85.8 87.1L85.8 87.1Q85.8 86.6 86.1 86.2Q86.3 85.9 86.8 85.7Q87.3 85.5 87.9 85.5L87.9 85.5Q88.4 85.5 88.8 85.6Q89.3 85.7 89.6 85.8L89.6 85.8L89.4 86.5Q89.1 86.4 88.7 86.3Q88.3 86.2 87.8 86.2L87.8 86.2Q87.2 86.2 86.9 86.5Q86.6 86.7 86.6 87.1L86.6 87.1Q86.6 87.5 86.8 87.7Q86.9 87.9 87.2 88.1Q87.5 88.2 88.0 88.4L88.0 88.4Q88.6 88.6 89.0 88.9Q89.4 89.1 89.6 89.4Q89.8 89.8 89.8 90.3Z "/></g><defs><clipPath id="satori_bc-id-2" clip-path="url(#satori_cp-id)"><rect x="151" y="44" width="149" height="62"/></clipPath></defs><mask id="satori_om-id-2"><rect x="151" y="44" width="148" height="62" fill="#fff" mask="url(#satori_om-id)"/><path width="149" height="62" fill="none" stroke="#000" stroke-width="2" d="M300,44 A0,0 0 0 1 300,44 v62 A0,0 0 0 1 300,106"/></mask><path width="149" height="62" clip-path="url(#satori_bc-id-2)" fill="none" stroke="rgba(255,255,255,0.06)" stroke-width="2" d="M300,44 A0,0 0 0 1 300,44 v62 A0,0 0 0 1 300,106"/><mask id="satori_om-id-2-0"><rect x="218" y="56" width="13" height="22" fill="#fff" mask="url(#satori_om-id)"/></mask><g mask="url(#satori_om-id)" clip-path="url(#satori_cp-id)"><path fill="#60a5fa" d="M224.3 60.1L224.3 60.1Q226.3 60.1 227.7 61.0Q229.0 62.0 229.0 63.8L229.0 63.8Q229.0 64.8 228.6 65.5Q228.2 66.2 227.5 66.7Q226.8 67.3 226.0 67.7L226.0 67.7Q227.0 68.1 227.7 68.7Q228.5 69.3 229.0 70.1Q229.5 70.9 229.5 71.9L229.5 71.9Q229.5 73.9 228.1 75.1Q226.7 76.2 224.3 76.2L224.3 76.2Q221.8 76.2 220.4 75.1Q219.1 74.0 219.1 72.0L219.1 72.0Q219.1 70.9 219.5 70.1Q220.0 69.3 220.7 68.8Q221.5 68.2 222.3 67.8L222.3 67.8Q221.2 67.1 220.4 66.2Q219.6 65.3 219.6 63.8L219.6 63.8Q219.6 62.6 220.2 61.8Q220.8 61.0 221.9 60.5Q222.9 60.1 224.3 60.1ZM224.2 61.6L224.2 61.6Q223.0 61.6 222.3 62.2Q221.5 62.8 221.5 63.9L221.5 63.9Q221.5 64.7 221.9 65.3Q222.2 65.8 222.9 66.2Q223.6 66.6 224.4 66.9L224.4 66.9Q225.5 66.5 226.3 65.8Q227.1 65.1 227.1 63.9L227.1 63.9Q227.1 62.8 226.3 62.2Q225.5 61.6 224.2 61.6ZM221.0 72.0L221.0 72.0Q221.0 73.2 221.8 73.9Q222.6 74.7 224.3 74.7L224.3 74.7Q225.9 74.7 226.7 73.9Q227.6 73.2 227.6 72.0L227.6 72.0Q227.6 70.8 226.7 70.0Q225.8 69.3 224.3 68.7L224.3 68.7L223.9 68.6Q222.5 69.2 221.7 70.0Q221.0 70.8 221.0 72.0Z "/></g><mask id="satori_om-id-2-1"><rect x="209" y="82" width="31" height="12" fill="#fff" mask="url(#satori_om-id)"/></mask><g mask="url(#satori_om-id)" clip-path="url(#satori_cp-id)"><path fill="rgba(200,195,225,0.45)" d="M213.5 90.3L213.5 90.3Q213.5 91.1 212.9 91.6Q212.3 92.1 211.2 92.1L211.2 92.1Q210.7 92.1 210.2 92.0Q209.8 91.9 209.5 91.8L209.5 91.8L209.5 91.0Q209.8 91.2 210.3 91.3Q210.7 91.4 211.3 91.4L211.3 91.4Q212.0 91.4 212.3 91.1Q212.7 90.8 212.7 90.4L212.7 90.4Q212.7 90.0 212.6 89.8Q212.4 89.6 212.1 89.4Q211.8 89.2 211.2 89.0L211.2 89.0Q210.4 88.7 210.0 88.3Q209.5 87.9 209.5 87.1L209.5 87.1Q209.5 86.6 209.8 86.2Q210.1 85.9 210.5 85.7Q211.0 85.5 211.6 85.5L211.6 85.5Q212.1 85.5 212.6 85.6Q213.0 85.7 213.4 85.8L213.4 85.8L213.1 86.5Q212.8 86.4 212.4 86.3Q212.0 86.2 211.6 86.2L211.6 86.2Q211.0 86.2 210.7 86.5Q210.4 86.7 210.4 87.1L210.4 87.1Q210.4 87.5 210.5 87.7Q210.6 87.9 210.9 88.1Q211.2 88.2 211.8 88.4L211.8 88.4Q212.3 88.6 212.7 88.9Q213.1 89.1 213.3 89.4Q213.5 89.8 213.5 90.3ZM217.6 86.3L217.6 92L216.8 92L216.8 86.3L214.8 86.3L214.8 85.6L219.6 85.6L219.6 86.3L217.6 86.3ZM225.7 92L224.8 92L224.0 90.0L221.5 90.0L220.7 92L219.9 92L222.4 85.5L223.2 85.5L225.7 92ZM223.8 89.3L223.1 87.3Q223.1 87.3 223.0 87.1Q222.9 86.9 222.9 86.7Q222.8 86.5 222.8 86.4L222.8 86.4Q222.7 86.7 222.6 86.9Q222.6 87.2 222.5 87.3L222.5 87.3L221.8 89.3L223.8 89.3ZM227.3 85.6L229.1 85.6Q230.3 85.6 230.9 86.0Q231.5 86.5 231.5 87.4L231.5 87.4Q231.5 87.9 231.3 88.3Q231.1 88.6 230.8 88.8Q230.5 89.0 230.2 89.1L230.2 89.1L231.9 92L231.0 92L229.4 89.3L228.1 89.3L228.1 92L227.3 92L227.3 85.6ZM229.1 86.3L229.1 86.3L228.1 86.3L228.1 88.7L229.1 88.7Q229.9 88.7 230.3 88.4Q230.6 88.0 230.6 87.4L230.6 87.4Q230.6 86.8 230.2 86.5Q229.9 86.3 229.1 86.3ZM237.4 90.3L237.4 90.3Q237.4 91.1 236.8 91.6Q236.1 92.1 235.1 92.1L235.1 92.1Q234.5 92.1 234.1 92.0Q233.6 91.9 233.3 91.8L233.3 91.8L233.3 91.0Q233.6 91.2 234.1 91.3Q234.6 91.4 235.1 91.4L235.1 91.4Q235.8 91.4 236.2 91.1Q236.6 90.8 236.6 90.4L236.6 90.4Q236.6 90.0 236.4 89.8Q236.3 89.6 236.0 89.4Q235.6 89.2 235.1 89.0L235.1 89.0Q234.2 88.7 233.8 88.3Q233.4 87.9 233.4 87.1L233.4 87.1Q233.4 86.6 233.7 86.2Q233.9 85.9 234.4 85.7Q234.9 85.5 235.5 85.5L235.5 85.5Q236.0 85.5 236.4 85.6Q236.9 85.7 237.2 85.8L237.2 85.8L237.0 86.5Q236.6 86.4 236.3 86.3Q235.9 86.2 235.4 86.2L235.4 86.2Q234.8 86.2 234.5 86.5Q234.2 86.7 234.2 87.1L234.2 87.1Q234.2 87.5 234.4 87.7Q234.5 87.9 234.8 88.1Q235.1 88.2 235.6 88.4L235.6 88.4Q236.2 88.6 236.6 88.9Q237.0 89.1 237.2 89.4Q237.4 89.8 237.4 90.3Z "/></g><defs><clipPath id="satori_bc-id-3" clip-path="url(#satori_cp-id)"><rect x="300" y="44" width="174" height="62"/></clipPath></defs><mask id="satori_om-id-3"><rect x="300" y="44" width="173" height="62" fill="#fff" mask="url(#satori_om-id)"/><path width="174" height="62" fill="none" stroke="#000" stroke-width="2" d="M474,44 A0,0 0 0 1 474,44 v62 A0,0 0 0 1 474,106"/></mask><path width="174" height="62" clip-path="url(#satori_bc-id-3)" fill="none" stroke="rgba(255,255,255,0.06)" stroke-width="2" d="M474,44 A0,0 0 0 1 474,44 v62 A0,0 0 0 1 474,106"/><mask id="satori_om-id-3-0"><rect x="358" y="56" width="57" height="22" fill="#fff" mask="url(#satori_om-id)"/></mask><g mask="url(#satori_om-id)" clip-path="url(#satori_cp-id)"><path fill="#f59e0b" d="M365.8 60.3L365.8 76L363.9 76L363.9 65.0Q363.9 64.1 363.9 63.5Q364.0 62.9 364.0 62.3L364.0 62.3Q363.7 62.7 363.4 62.9Q363.1 63.2 362.6 63.5L362.6 63.5L361.0 64.9L360.0 63.6L364.2 60.3L365.8 60.3ZM374.7 73.4L374.8 73.7Q374.5 74.9 374.0 76.3Q373.4 77.7 372.9 78.8L372.9 78.8L371.5 78.8Q371.8 77.6 372.1 76.1Q372.4 74.6 372.6 73.4L372.6 73.4L374.7 73.4ZM381.6 76L379.5 76L385.9 62.1L377.4 62.1L377.4 60.3L388.0 60.3L388.0 61.8L381.6 76ZM395.3 60.1L395.3 60.1Q397.4 60.1 398.7 61.0Q400.0 62.0 400.0 63.8L400.0 63.8Q400.0 64.8 399.6 65.5Q399.2 66.2 398.5 66.7Q397.9 67.3 397.1 67.7L397.1 67.7Q398.0 68.1 398.8 68.7Q399.6 69.3 400.1 70.1Q400.5 70.9 400.5 71.9L400.5 71.9Q400.5 73.9 399.2 75.1Q397.8 76.2 395.4 76.2L395.4 76.2Q392.9 76.2 391.5 75.1Q390.1 74.0 390.1 72.0L390.1 72.0Q390.1 70.9 390.6 70.1Q391.0 69.3 391.8 68.8Q392.5 68.2 393.4 67.8L393.4 67.8Q392.3 67.1 391.5 66.2Q390.6 65.3 390.6 63.8L390.6 63.8Q390.6 62.6 391.3 61.8Q391.9 61.0 392.9 60.5Q394.0 60.1 395.3 60.1ZM395.3 61.6L395.3 61.6Q394.1 61.6 393.3 62.2Q392.5 62.8 392.5 63.9L392.5 63.9Q392.5 64.7 392.9 65.3Q393.3 65.8 394.0 66.2Q394.6 66.6 395.4 66.9L395.4 66.9Q396.6 66.5 397.3 65.8Q398.1 65.1 398.1 63.9L398.1 63.9Q398.1 62.8 397.4 62.2Q396.6 61.6 395.3 61.6ZM392.0 72.0L392.0 72.0Q392.0 73.2 392.8 73.9Q393.7 74.7 395.4 74.7L395.4 74.7Q397.0 74.7 397.8 73.9Q398.7 73.2 398.7 72.0L398.7 72.0Q398.7 70.8 397.8 70.0Q396.9 69.3 395.4 68.7L395.4 68.7L395.0 68.6Q393.6 69.2 392.8 70.0Q392.0 70.8 392.0 72.0ZM407.7 66.4L407.7 66.4Q410.1 66.4 411.5 67.6Q413.0 68.8 413.0 71.0L413.0 71.0Q413.0 73.4 411.4 74.8Q409.9 76.2 407.1 76.2L407.1 76.2Q405.9 76.2 404.8 76Q403.8 75.8 403.0 75.4L403.0 75.4L403.0 73.5Q403.8 74.0 405.0 74.3Q406.1 74.6 407.1 74.6L407.1 74.6Q408.9 74.6 409.9 73.7Q411.0 72.9 411.0 71.2L411.0 71.2Q411.0 69.6 410.1 68.8Q409.1 68.0 407.1 68.0L407.1 68.0Q406.4 68.0 405.7 68.1Q404.9 68.2 404.4 68.3L404.4 68.3L403.4 67.7L404.0 60.3L411.9 60.3L411.9 62.1L405.7 62.1L405.3 66.6Q405.7 66.5 406.3 66.5Q406.9 66.4 407.7 66.4Z "/></g><mask id="satori_om-id-3-1"><rect x="363" y="82" width="48" height="12" fill="#fff" mask="url(#satori_om-id)"/></mask><g mask="url(#satori_om-id)" clip-path="url(#satori_cp-id)"><path fill="rgba(200,195,225,0.45)" d="M366.6 86.2L366.6 86.2Q365.6 86.2 365.0 86.9Q364.4 87.6 364.4 88.8L364.4 88.8Q364.4 90.0 365.0 90.7Q365.5 91.4 366.6 91.4L366.6 91.4Q367.0 91.4 367.4 91.3Q367.8 91.2 368.2 91.1L368.2 91.1L368.2 91.8Q367.8 92.0 367.4 92.0Q367.0 92.1 366.5 92.1L366.5 92.1Q365.5 92.1 364.9 91.7Q364.2 91.3 363.9 90.5Q363.5 89.8 363.5 88.8L363.5 88.8Q363.5 87.8 363.9 87.1Q364.3 86.3 365.0 85.9Q365.6 85.5 366.6 85.5L366.6 85.5Q367.7 85.5 368.4 85.9L368.4 85.9L368.1 86.5Q367.8 86.4 367.4 86.3Q367.1 86.2 366.6 86.2ZM375.8 88.8L375.8 88.8Q375.8 89.8 375.5 90.5Q375.1 91.3 374.5 91.7Q373.8 92.1 372.8 92.1L372.8 92.1Q371.8 92.1 371.2 91.7Q370.5 91.3 370.2 90.5Q369.9 89.8 369.9 88.8L369.9 88.8Q369.9 87.8 370.2 87.0Q370.5 86.3 371.2 85.9Q371.8 85.5 372.8 85.5L372.8 85.5Q373.8 85.5 374.5 85.9Q375.1 86.3 375.5 87.0Q375.8 87.8 375.8 88.8ZM370.7 88.8L370.7 88.8Q370.7 90.0 371.2 90.7Q371.7 91.4 372.8 91.4L372.8 91.4Q373.9 91.4 374.4 90.7Q374.9 90.0 374.9 88.8L374.9 88.8Q374.9 87.6 374.4 86.9Q373.9 86.2 372.8 86.2L372.8 86.2Q371.7 86.2 371.2 86.9Q370.7 87.6 370.7 88.8ZM381.5 92L380.8 92L378.7 86.4L378.7 86.4Q378.7 86.6 378.7 87.1Q378.8 87.6 378.8 88.1L378.8 88.1L378.8 92L378.0 92L378.0 85.6L379.2 85.6L381.2 90.8L381.2 90.8L383.2 85.6L384.4 85.6L384.4 92L383.6 92L383.6 88.0Q383.6 87.6 383.6 87.1Q383.7 86.7 383.7 86.4L383.7 86.4L383.7 86.4L381.5 92ZM390.5 92L389.8 92L387.7 86.4L387.7 86.4Q387.7 86.6 387.7 87.1Q387.7 87.6 387.7 88.1L387.7 88.1L387.7 92L387.0 92L387.0 85.6L388.2 85.6L390.2 90.8L390.2 90.8L392.2 85.6L393.4 85.6L393.4 92L392.6 92L392.6 88.0Q392.6 87.6 392.6 87.1Q392.6 86.7 392.7 86.4L392.7 86.4L392.6 86.4L390.5 92ZM397.7 91.5L397.7 92L395.4 92L395.4 91.5L396.2 91.4L396.2 86.2L395.4 86.0L395.4 85.6L397.7 85.6L397.7 86.0L397.0 86.2L397.0 91.4L397.7 91.5ZM401.8 86.3L401.8 92L401.0 92L401.0 86.3L399.0 86.3L399.0 85.6L403.8 85.6L403.8 86.3L401.8 86.3ZM409.2 90.3L409.2 90.3Q409.2 91.1 408.6 91.6Q408.0 92.1 406.9 92.1L406.9 92.1Q406.4 92.1 405.9 92.0Q405.5 91.9 405.2 91.8L405.2 91.8L405.2 91.0Q405.5 91.2 406.0 91.3Q406.5 91.4 407.0 91.4L407.0 91.4Q407.7 91.4 408.1 91.1Q408.4 90.8 408.4 90.4L408.4 90.4Q408.4 90.0 408.3 89.8Q408.2 89.6 407.8 89.4Q407.5 89.2 406.9 89.0L406.9 89.0Q406.1 88.7 405.7 88.3Q405.3 87.9 405.3 87.1L405.3 87.1Q405.3 86.6 405.5 86.2Q405.8 85.9 406.2 85.7Q406.7 85.5 407.3 85.5L407.3 85.5Q407.8 85.5 408.3 85.6Q408.7 85.7 409.1 85.8L409.1 85.8L408.8 86.5Q408.5 86.4 408.1 86.3Q407.7 86.2 407.3 86.2L407.3 86.2Q406.7 86.2 406.4 86.5Q406.1 86.7 406.1 87.1L406.1 87.1Q406.1 87.5 406.2 87.7Q406.3 87.9 406.7 88.1Q407.0 88.2 407.5 88.4L407.5 88.4Q408.0 88.6 408.4 88.9Q408.8 89.1 409.0 89.4Q409.2 89.8 409.2 90.3Z "/></g><defs><clipPath id="satori_bc-id-4" clip-path="url(#satori_cp-id)"><rect x="474" y="44" width="200" height="62"/></clipPath></defs><mask id="satori_om-id-4"><rect x="474" y="44" width="199" height="62" fill="#fff" mask="url(#satori_om-id)"/><path width="200" height="62" fill="none" stroke="#000" stroke-width="2" d="M674,44 A0,0 0 0 1 674,44 v62 A0,0 0 0 1 674,106"/></mask><path width="200" height="62" clip-path="url(#satori_bc-id-4)" fill="none" stroke="rgba(255,255,255,0.06)" stroke-width="2" d="M674,44 A0,0 0 0 1 674,44 v62 A0,0 0 0 1 674,106"/><mask id="satori_om-id-4-0"><rect x="532" y="56" width="82" height="22" fill="#fff" mask="url(#satori_om-id)"/></mask><g mask="url(#satori_om-id)" clip-path="url(#satori_cp-id)"><path fill="#4ade80" d="M542.8 64.0L542.8 64.0Q542.8 65.5 542.0 66.5Q541.1 67.4 539.6 67.7L539.6 67.7L539.6 67.8Q541.5 68.0 542.4 69.0Q543.3 70.0 543.3 71.5L543.3 71.5Q543.3 72.9 542.7 74.0Q542.1 75.0 540.7 75.6Q539.4 76.2 537.3 76.2L537.3 76.2Q536.1 76.2 535.0 76.0Q534.0 75.8 533.0 75.4L533.0 75.4L533.0 73.6Q534.0 74.0 535.1 74.3Q536.3 74.6 537.3 74.6L537.3 74.6Q539.4 74.6 540.4 73.8Q541.3 72.9 541.3 71.5L541.3 71.5Q541.3 70.0 540.2 69.4Q539.0 68.7 536.9 68.7L536.9 68.7L535.4 68.7L535.4 67.1L536.9 67.1Q538.9 67.1 539.9 66.3Q540.9 65.4 540.9 64.1L540.9 64.1Q540.9 63.0 540.1 62.3Q539.3 61.7 538.0 61.7L538.0 61.7Q536.7 61.7 535.8 62.1Q534.9 62.4 534.0 63.0L534.0 63.0L533.1 61.7Q533.9 61.0 535.2 60.6Q536.4 60.1 538.0 60.1L538.0 60.1Q540.4 60.1 541.6 61.2Q542.8 62.3 542.8 64.0ZM552.4 60.3L552.4 76L550.5 76L550.5 65.0Q550.5 64.1 550.5 63.5Q550.5 62.9 550.6 62.3L550.6 62.3Q550.2 62.7 550.0 62.9Q549.7 63.2 549.2 63.5L549.2 63.5L547.6 64.9L546.5 63.6L550.8 60.3L552.4 60.3ZM569.3 70.7L569.3 72.4L567.0 72.4L567.0 76L565.2 76L565.2 72.4L557.6 72.4L557.6 70.8L565.0 60.2L567.0 60.2L567.0 70.7L569.3 70.7ZM565.2 70.7L565.2 65.7Q565.2 64.6 565.2 63.8Q565.2 63.0 565.3 62.3L565.3 62.3L565.2 62.3Q565.0 62.7 564.7 63.2Q564.5 63.7 564.2 64.0L564.2 64.0L559.5 70.7L565.2 70.7ZM573.8 73.4L574.0 73.7Q573.7 74.9 573.2 76.3Q572.6 77.7 572.1 78.8L572.1 78.8L570.7 78.8Q571.0 77.6 571.3 76.1Q571.6 74.6 571.8 73.4L571.8 73.4L573.8 73.4ZM581.7 66.4L581.7 66.4Q584.1 66.4 585.5 67.6Q587.0 68.8 587.0 71.0L587.0 71.0Q587.0 73.4 585.4 74.8Q583.9 76.2 581.1 76.2L581.1 76.2Q579.9 76.2 578.8 76Q577.8 75.8 577.0 75.4L577.0 75.4L577.0 73.5Q577.8 74.0 579.0 74.3Q580.1 74.6 581.1 74.6L581.1 74.6Q582.9 74.6 583.9 73.7Q585.0 72.9 585.0 71.2L585.0 71.2Q585.0 69.6 584.1 68.8Q583.1 68.0 581.1 68.0L581.1 68.0Q580.4 68.0 579.7 68.1Q578.9 68.2 578.4 68.3L578.4 68.3L577.4 67.7L578.0 60.3L585.9 60.3L585.9 62.1L579.7 62.1L579.3 66.6Q579.7 66.5 580.3 66.5Q580.9 66.4 581.7 66.4ZM600.4 70.7L600.4 72.4L598.1 72.4L598.1 76L596.2 76L596.2 72.4L588.7 72.4L588.7 70.8L596.1 60.2L598.1 60.2L598.1 70.7L600.4 70.7ZM596.2 70.7L596.2 65.7Q596.2 64.6 596.3 63.8Q596.3 63.0 596.3 62.3L596.3 62.3L596.2 62.3Q596.1 62.7 595.8 63.2Q595.5 63.7 595.3 64.0L595.3 64.0L590.6 70.7L596.2 70.7ZM606.9 66.4L606.9 66.4Q609.3 66.4 610.7 67.6Q612.1 68.8 612.1 71.0L612.1 71.0Q612.1 73.4 610.6 74.8Q609.0 76.2 606.3 76.2L606.3 76.2Q605.1 76.2 604.0 76Q602.9 75.8 602.2 75.4L602.2 75.4L602.2 73.5Q603.0 74.0 604.1 74.3Q605.3 74.6 606.3 74.6L606.3 74.6Q608.0 74.6 609.1 73.7Q610.2 72.9 610.2 71.2L610.2 71.2Q610.2 69.6 609.2 68.8Q608.3 68.0 606.2 68.0L606.2 68.0Q605.6 68.0 604.8 68.1Q604.0 68.2 603.5 68.3L603.5 68.3L602.6 67.7L603.2 60.3L611.0 60.3L611.0 62.1L604.8 62.1L604.4 66.6Q604.8 66.5 605.5 66.5Q606.1 66.4 606.9 66.4Z "/></g><mask id="satori_om-id-4-1"><rect x="554" y="82" width="38" height="12" fill="#fff" mask="url(#satori_om-id)"/></mask><g mask="url(#satori_om-id)" clip-path="url(#satori_cp-id)"><path fill="rgba(200,195,225,0.45)" d="M558.5 92L554.9 92L554.9 85.6L555.7 85.6L555.7 91.3L558.5 91.3L558.5 92ZM562.2 91.5L562.2 92L559.9 92L559.9 91.5L560.6 91.4L560.6 86.2L559.9 86.0L559.9 85.6L562.2 85.6L562.2 86.0L561.4 86.2L561.4 91.4L562.2 91.5ZM569.3 85.6L569.3 92L568.4 92L565.0 86.7L564.9 86.7Q564.9 87.0 565.0 87.4Q565.0 87.9 565.0 88.4L565.0 88.4L565.0 92L564.2 92L564.2 85.6L565.2 85.6L568.6 90.9L568.6 90.9Q568.6 90.7 568.6 90.5Q568.6 90.2 568.6 89.8Q568.6 89.5 568.6 89.2L568.6 89.2L568.6 85.6L569.3 85.6ZM575.5 91.3L575.5 92L571.9 92L571.9 85.6L575.5 85.6L575.5 86.3L572.7 86.3L572.7 88.3L575.3 88.3L575.3 89.0L572.7 89.0L572.7 91.3L575.5 91.3ZM581.3 90.3L581.3 90.3Q581.3 91.1 580.7 91.6Q580.1 92.1 579.0 92.1L579.0 92.1Q578.5 92.1 578.0 92.0Q577.6 91.9 577.3 91.8L577.3 91.8L577.3 91.0Q577.6 91.2 578.1 91.3Q578.6 91.4 579.1 91.4L579.1 91.4Q579.8 91.4 580.2 91.1Q580.5 90.8 580.5 90.4L580.5 90.4Q580.5 90.0 580.4 89.8Q580.2 89.6 579.9 89.4Q579.6 89.2 579.0 89.0L579.0 89.0Q578.2 88.7 577.8 88.3Q577.4 87.9 577.4 87.1L577.4 87.1Q577.4 86.6 577.6 86.2Q577.9 85.9 578.3 85.7Q578.8 85.5 579.4 85.5L579.4 85.5Q579.9 85.5 580.4 85.6Q580.8 85.7 581.2 85.8L581.2 85.8L580.9 86.5Q580.6 86.4 580.2 86.3Q579.8 86.2 579.4 86.2L579.4 86.2Q578.8 86.2 578.5 86.5Q578.2 86.7 578.2 87.1L578.2 87.1Q578.2 87.5 578.3 87.7Q578.4 87.9 578.7 88.1Q579.1 88.2 579.6 88.4L579.6 88.4Q580.1 88.6 580.5 88.9Q580.9 89.1 581.1 89.4Q581.3 89.8 581.3 90.3Z M588.6 86.6L588.6 88.5L590.4 88.5L590.4 89.1L588.6 89.1L588.6 91.0L587.9 91.0L587.9 89.1L586.1 89.1L586.1 88.5L587.9 88.5L587.9 86.6L588.6 86.6Z "/></g><mask id="satori_om-id-5"><rect x="674" y="44" width="185" height="62" fill="#fff" mask="url(#satori_om-id)"/></mask><mask id="satori_om-id-5-0"><rect x="732" y="56" width="69" height="22" fill="#fff" mask="url(#satori_om-id)"/></mask><g mask="url(#satori_om-id)" clip-path="url(#satori_cp-id)"><path fill="#fb7185" d="M743.4 74.2L743.4 76L733.1 76L733.1 74.4L737.2 70.2Q738.4 69.0 739.2 68.1Q740.0 67.2 740.4 66.3Q740.8 65.4 740.8 64.4L740.8 64.4Q740.8 63.1 740.1 62.4Q739.3 61.7 738.0 61.7L738.0 61.7Q736.9 61.7 736.0 62.1Q735.2 62.5 734.3 63.2L734.3 63.2L733.2 61.9Q734.2 61.1 735.4 60.6Q736.6 60.1 738.0 60.1L738.0 60.1Q740.3 60.1 741.5 61.2Q742.8 62.3 742.8 64.3L742.8 64.3Q742.8 65.5 742.3 66.6Q741.8 67.6 740.9 68.7Q740.0 69.7 738.8 70.9L738.8 70.9L735.5 74.2L735.5 74.2L743.4 74.2ZM755.4 64.0L755.4 64.0Q755.4 65.5 754.5 66.5Q753.7 67.4 752.2 67.7L752.2 67.7L752.2 67.8Q754.1 68.0 755.0 69.0Q755.9 70.0 755.9 71.5L755.9 71.5Q755.9 72.9 755.3 74.0Q754.6 75.0 753.3 75.6Q752.0 76.2 749.9 76.2L749.9 76.2Q748.7 76.2 747.6 76.0Q746.5 75.8 745.6 75.4L745.6 75.4L745.6 73.6Q746.6 74.0 747.7 74.3Q748.9 74.6 749.9 74.6L749.9 74.6Q752.0 74.6 753.0 73.8Q753.9 72.9 753.9 71.5L753.9 71.5Q753.9 70.0 752.7 69.4Q751.6 68.7 749.5 68.7L749.5 68.7L748.0 68.7L748.0 67.1L749.5 67.1Q751.4 67.1 752.4 66.3Q753.4 65.4 753.4 64.1L753.4 64.1Q753.4 63.0 752.7 62.3Q751.9 61.7 750.6 61.7L750.6 61.7Q749.3 61.7 748.4 62.1Q747.5 62.4 746.6 63.0L746.6 63.0L745.7 61.7Q746.5 61.0 747.7 60.6Q749.0 60.1 750.6 60.1L750.6 60.1Q753.0 60.1 754.2 61.2Q755.4 62.3 755.4 64.0ZM761.2 73.4L761.4 73.7Q761.1 74.9 760.6 76.3Q760.0 77.7 759.5 78.8L759.5 78.8L758.1 78.8Q758.4 77.6 758.7 76.1Q759.0 74.6 759.2 73.4L759.2 73.4L761.2 73.4ZM764.3 69.3L764.3 69.3Q764.3 67.6 764.6 66.0Q764.9 64.3 765.6 63.0Q766.4 61.7 767.8 60.9Q769.2 60.1 771.5 60.1L771.5 60.1Q771.9 60.1 772.5 60.1Q773.1 60.2 773.4 60.3L773.4 60.3L773.4 61.9Q773.0 61.8 772.5 61.7Q772.0 61.7 771.5 61.7L771.5 61.7Q770.0 61.7 769.0 62.2Q768.0 62.7 767.4 63.5Q766.8 64.4 766.5 65.6Q766.3 66.7 766.2 68.0L766.2 68.0L766.3 68.0Q766.8 67.2 767.7 66.7Q768.7 66.2 770.1 66.2L770.1 66.2Q772.1 66.2 773.4 67.4Q774.6 68.7 774.6 70.9L774.6 70.9Q774.6 73.4 773.3 74.8Q771.9 76.2 769.6 76.2L769.6 76.2Q768.1 76.2 766.9 75.5Q765.7 74.7 765.0 73.2Q764.3 71.6 764.3 69.3ZM769.6 74.6L769.6 74.6Q771.0 74.6 771.8 73.7Q772.7 72.8 772.7 70.9L772.7 70.9Q772.7 69.4 771.9 68.6Q771.2 67.7 769.7 67.7L769.7 67.7Q768.6 67.7 767.9 68.1Q767.1 68.5 766.7 69.2Q766.2 69.9 766.2 70.6L766.2 70.6Q766.2 71.5 766.6 72.4Q767.0 73.4 767.7 74.0Q768.5 74.6 769.6 74.6ZM787.1 74.2L787.1 76L776.7 76L776.7 74.4L780.8 70.2Q782.0 69.0 782.8 68.1Q783.6 67.2 784.1 66.3Q784.5 65.4 784.5 64.4L784.5 64.4Q784.5 63.1 783.7 62.4Q782.9 61.7 781.7 61.7L781.7 61.7Q780.6 61.7 779.7 62.1Q778.8 62.5 777.9 63.2L777.9 63.2L776.9 61.9Q777.8 61.1 779.0 60.6Q780.2 60.1 781.7 60.1L781.7 60.1Q783.9 60.1 785.2 61.2Q786.4 62.3 786.4 64.3L786.4 64.3Q786.4 65.5 785.9 66.6Q785.4 67.6 784.5 68.7Q783.6 69.7 782.4 70.9L782.4 70.9L779.1 74.2L779.1 74.2L787.1 74.2ZM796.0 60.3L796.0 76L794.1 76L794.1 65.0Q794.1 64.1 794.2 63.5Q794.2 62.9 794.2 62.3L794.2 62.3Q793.9 62.7 793.6 62.9Q793.3 63.2 792.9 63.5L792.9 63.5L791.2 64.9L790.2 63.6L794.4 60.3L796.0 60.3Z "/></g><mask id="satori_om-id-5-1"><rect x="749" y="82" width="36" height="12" fill="#fff" mask="url(#satori_om-id)"/></mask><g mask="url(#satori_om-id)" clip-path="url(#satori_cp-id)"><path fill="rgba(200,195,225,0.45)" d="M753.5 92L749.9 92L749.9 85.6L750.7 85.6L750.7 91.3L753.5 91.3L753.5 92ZM757.2 91.5L757.2 92L754.9 92L754.9 91.5L755.6 91.4L755.6 86.2L754.9 86.0L754.9 85.6L757.2 85.6L757.2 86.0L756.4 86.2L756.4 91.4L757.2 91.5ZM764.3 85.6L764.3 92L763.4 92L760.0 86.7L759.9 86.7Q759.9 87.0 760.0 87.4Q760.0 87.9 760.0 88.4L760.0 88.4L760.0 92L759.2 92L759.2 85.6L760.2 85.6L763.6 90.9L763.6 90.9Q763.6 90.7 763.6 90.5Q763.6 90.2 763.6 89.8Q763.6 89.5 763.6 89.2L763.6 89.2L763.6 85.6L764.3 85.6ZM770.5 91.3L770.5 92L766.9 92L766.9 85.6L770.5 85.6L770.5 86.3L767.7 86.3L767.7 88.3L770.3 88.3L770.3 89.0L767.7 89.0L767.7 91.3L770.5 91.3ZM776.3 90.3L776.3 90.3Q776.3 91.1 775.7 91.6Q775.1 92.1 774.0 92.1L774.0 92.1Q773.5 92.1 773.0 92.0Q772.6 91.9 772.3 91.8L772.3 91.8L772.3 91.0Q772.6 91.2 773.1 91.3Q773.6 91.4 774.1 91.4L774.1 91.4Q774.8 91.4 775.2 91.1Q775.5 90.8 775.5 90.4L775.5 90.4Q775.5 90.0 775.4 89.8Q775.2 89.6 774.9 89.4Q774.6 89.2 774.0 89.0L774.0 89.0Q773.2 88.7 772.8 88.3Q772.4 87.9 772.4 87.1L772.4 87.1Q772.4 86.6 772.6 86.2Q772.9 85.9 773.3 85.7Q773.8 85.5 774.4 85.5L774.4 85.5Q774.9 85.5 775.4 85.6Q775.8 85.7 776.2 85.8L776.2 85.8L775.9 86.5Q775.6 86.4 775.2 86.3Q774.8 86.2 774.4 86.2L774.4 86.2Q773.8 86.2 773.5 86.5Q773.2 86.7 773.2 87.1L773.2 87.1Q773.2 87.5 773.3 87.7Q773.4 87.9 773.7 88.1Q774.1 88.2 774.6 88.4L774.6 88.4Q775.1 88.6 775.5 88.9Q775.9 89.1 776.1 89.4Q776.3 89.8 776.3 90.3Z M783.2 89.9L781.1 89.9L781.1 89.2L783.2 89.2L783.2 89.9Z "/></g></svg>