<!-- Generated by readme-aura https://github.com/collectioneur/readme-aura -->
<svg width="860" height="150" viewBox="0 0 860 150" xmlns="http://www.w3.org/2000/svg"><defs><clipPath id="satori_bc-id"><path x="0" y="0" width="860" height="150" d="M16,0 h828 a16,16 0 0 1 16,16 v118 a16,16 0 0 1 -16,16 h-828 a16,16 0 0 1 -16,-16 v-118 a16,16 0 0 1 16,-16"/></clipPath></defs><clipPath id="satori_cp-id"><path x="0" y="0" width="860" height="150" d="M16,0 h828 a16,16 0 0 1 16,16 v118 a16,16 0 0 1 -16,16 h-828 a16,16 0 0 1 -16,-16 v-118 a16,16 0 0 1 16,-16"/></clipPath><mask id="satori_om-id"><rect x="1" y="1" width="858" height="148" fill="#fff"/><path width="860" height="150" fill="none" stroke="#000" stroke-width="2" d="M4.686,4.686 A16,16 0 0 1 16,0 h828 a16,16 0 0 1 16,16 v118 a16,16 0 0 1 -16,16 h-828 a16,16 0 0 1 -16,-16 v-118 A16,16 0 0 1 4.686,4.686"/></mask><path x="0" y="0" width="860" height="150" fill="#08080c" d="M16,0 h828 a16,16 0 0 1 16,16 v118 a16,16 0 0 1 -16,16 h-828 a16,16 0 0 1 -16,-16 v-118 a16,16 0 0 1 16,-16"/><path width="860" height="150" clip-path="url(#satori_bc-id)" fill="none" stroke="rgba(110,80,220,0.18)" stroke-width="2" d="M4.686,4.686 A16,16 0 0 1 16,0 h828 a16,16 0 0 1 16,16 v118 a16,16 0 0 1 -16,16 h-828 a16,16 0 0 1 -16,-16 v-118 A16,16 0 0 1 4.686,4.686"/><clipPath id="satori_cp-id-0" clip-path="url(#satori_cp-id)"><rect x="1" y="1" width="860" height="150"/></clipPath><mask id="satori_om-id-0"><rect x="1" y="1" width="860" height="150" fill="#fff" mask="url(#satori_om-id)"/></mask><svg x="1" y="1" width="860" height="150" preserveAspectRatio="none" clip-path="url(#satori_cp-id-0)" mask="url(#satori_om-id-0)"><defs><radialGradient id="g1" cx="50%" cy="50%" r="50%"><stop offset="0%" stop-color="rgba(110,20,210,0.65)"></stop><stop offset="45%" stop-color="rgba(80,15,170,0.28)"></stop><stop offset="70%" stop-color="rgba(80,15,170,0)"></stop></radialGradient><radialGradient id="g2" cx="50%" cy="50%" r="50%"><stop offset="0%" stop-color="rgba(40,70,255,0.55)"></stop><stop offset="45%" stop-color="rgba(20,50,200,0.22)"></stop><stop offset="70%" stop-color="rgba(20,50,200,0)"></stop></radialGradient><radialGradient id="g3" cx="50%" cy="50%" r="50%"><stop offset="0%" stop-color="rgba(0,140,255,0.42)"></stop><stop offset="70%" stop-color="rgba(0,140,255,0)"></stop></radialGradient><radialGradient id="g4" cx="50%" cy="50%" r="50%"><stop offset="0%" stop-color="rgba(0,195,235,0.30)"></stop><stop offset="70%" stop-color="rgba(0,195,235,0)"></stop></radialGradient><radialGradient id="g5" cx="50%" cy="50%" r="50%"><stop offset="0%" stop-color="rgba(100,30,210,0.40)"></stop><stop offset="70%" stop-color="rgba(100,30,210,0)"></stop></radialGradient></defs><ellipse id="glow-1" cx="730" cy="155" rx="180" ry="130" fill="url(#g1)"></ellipse><ellipse id="glow-2" cx="580" cy="148" rx="170" ry="125" fill="url(#g2)"></ellipse><ellipse id="glow-3" cx="430" cy="142" rx="160" ry="120" fill="url(#g3)"></ellipse><ellipse id="glow-4" cx="280" cy="148" rx="150" ry="115" fill="url(#g4)"></ellipse><ellipse id="glow-5" cx="130" cy="155" rx="130" ry="105" fill="url(#g5)"></ellipse><style>

          @keyframes float-slow {
            0%, 100% { transform: translateX(0px); opacity: 0.8; }
            50% { transform: translateX(350px); opacity: 1.2; }
          }
          @keyframes float-medium {
            0%, 100% { transform: translateX(0px); opacity: 0.7; }
            50% { transform: translateX(-250px); opacity: 1.1; }
          }
          @keyframes float-fast {
            0%, 100% { transform: translateX(0px); opacity: 0.9; }
            50% { transform: translateX(200px); opacity: 0.6; }
          }
          @keyframes float-diagonal {
            0%, 100% { transform: translate(0px, 0px); opacity: 0.75; }
            50% { transform: translate(120px, 30px); opacity: 1.0; }
          }
          @keyframes float-wave {
            0%, 100% { transform: translateX(0px); opacity: 0.65; }
            33% { transform: translateX(-160px); opacity: 0.9; }
            66% { transform: translateX(80px); opacity: 1.0; }
          }
          @keyframes float-pulse {
            0%, 100% { transform: scale(1); opacity: 0.8; }
            50% { transform: scale(1.3); opacity: 0.4; }
          }
          #glow-1 { animation: float-slow 8s ease-in-out infinite; }
          #glow-2 { animation: float-medium 12s ease-in-out infinite; }
          #glow-3 { animation: float-fast 9s ease-in-out infinite; }
          #glow-4 { animation: float-diagonal 10s ease-in-out infinite; }
          #glow-5 { animation: float-wave 14s ease-in-out infinite; }
        
</style>
</svg><mask id="satori_om-id-0-0"><rect x="1" y="1" width="0" height="150" fill="#fff" mask="url(#satori_om-id)"/></mask><mask id="satori_om-id-0-0-0"><rect x="1" y="1" width="0" height="150" fill="#fff" mask="url(#satori_om-id)"/></mask><mask id="satori_om-id-0-0-0-0"><rect x="1" y="1" width="0" height="150" fill="#fff" mask="url(#satori_om-id)"/></mask><mask id="satori_om-id-0-0-0-1"><rect x="1" y="1" width="0" height="150" fill="#fff" mask="url(#satori_om-id)"/></mask><mask id="satori_om-id-0-0-0-2"><rect x="1" y="1" width="0" height="150" fill="#fff" mask="url(#satori_om-id)"/></mask><mask id="satori_om-id-0-0-1"><rect x="1" y="1" width="0" height="150" fill="#fff" mask="url(#satori_om-id)"/></mask><mask id="satori_om-id-0-0-1-0"><rect x="1" y="1" width="0" height="150" fill="#fff" mask="url(#satori_om-id)"/></mask><mask id="satori_om-id-0-0-1-1"><rect x="1" y="1" width="0" height="150" fill="#fff" mask="url(#satori_om-id)"/></mask><mask id="satori_om-id-0-0-1-2"><rect x="1" y="1" width="0" height="150" fill="#fff" mask="url(#satori_om-id)"/></mask><mask id="satori_om-id-0-0-2"><rect x="1" y="1" width="0" height="150" fill="#fff" mask="url(#satori_om-id)"/></mask><mask id="satori_om-id-0-0-2-0"><rect x="1" y="1" width="0" height="150" fill="#fff" mask="url(#satori_om-id)"/></mask><mask id="satori_om-id-0-0-2-1"><rect x="1" y="1" width="0" height="150" fill="#fff" mask="url(#satori_om-id)"/></mask><mask id="satori_om-id-0-0-3"><rect x="1" y="1" width="0" height="150" fill="#fff" mask="url(#satori_om-id)"/></mask><mask id="satori_om-id-0-0-3-0"><rect x="1" y="1" width="0" height="150" fill="#fff" mask="url(#satori_om-id)"/></mask><mask id="satori_om-id-0-0-3-1"><rect x="1" y="1" width="0" height="150" fill="#fff" mask="url(#satori_om-id)"/></mask><mask id="satori_om-id-0-0-4"><rect x="1" y="1" width="0" height="150" fill="#fff" mask="url(#satori_om-id)"/></mask><mask id="satori_om-id-0-0-4-0"><rect x="1" y="1" width="0" height="150" fill="#fff" mask="url(#satori_om-id)"/></mask><mask id="satori_om-id-0-0-4-1"><rect x="1" y="1" width="0" height="150" fill="#fff" mask="url(#satori_om-id)"/></mask><mask id="satori_om-id-0-1"><rect x="1" y="1" width="0" height="150" fill="#fff" mask="url(#satori_om-id)"/></mask><mask id="satori_om-id-0-2"><rect x="1" y="1" width="0" height="150" fill="#fff" mask="url(#satori_om-id)"/></mask><mask id="satori_om-id-0-3"><rect x="1" y="1" width="0" height="150" fill="#fff" mask="url(#satori_om-id)"/></mask><mask id="satori_om-id-0-4"><rect x="1" y="1" width="0" height="150" fill="#fff" mask="url(#satori_om-id)"/></mask><mask id="satori_om-id-0-5"><rect x="1" y="1" width="0" height="150" fill="#fff" mask="url(#satori_om-id)"/></mask><defs><clipPath id="satori_bc-id-1" clip-path="url(#satori_cp-id)"><rect x="1" y="44" width="135" height="62"/></clipPath></defs><mask id="satori_om-id-1"><rect x="1" y="44" width="134" height="62" fill="#fff" mask="url(#satori_om-id)"/><path width="135" height="62" fill="none" stroke="#000" stroke-width="2" d="M136,44 A0,0 0 0 1 136,44 v62 A0,0 0 0 1 136,106"/></mask><path width="135" height="62" clip-path="url(#satori_bc-id-1)" fill="none" stroke="rgba(255,255,255,0.06)" stroke-width="2" d="M136,44 A0,0 0 0 1 136,44 v62 A0,0 0 0 1 136,106"/><mask id="satori_om-id-1-0"><rect x="55" y="56" width="26" height="22" fill="#fff" mask="url(#satori_om-id)"/></mask><g mask="url(#satori_om-id)" clip-path="url(#satori_cp-id)"><path fill="#a78bfa" d="M66.4 74.2L66.4 76L56.1 76L56.1 74.4L60.2 70.2Q61.4 69.0 62.2 68.1Q63.0 67.2 63.4 66.3Q63.8 65.4 63.8 64.4L63.8 64.4Q63.8 63.1 63.1 62.4Q62.3 61.7 61.0 61.7L61.0 61.7Q59.9 61.7 59.0 62.1Q58.2 62.5 57.3 63.2L57.3 63.2L56.2 61.9Q57.2 61.1 58.4 60.6Q59.6 60.1 61.0 60.1L61.0 60.1Q63.3 60.1 64.5 61.2Q65.8 62.3 65.8 64.3L65.8 64.3Q65.8 65.5 65.3 66.6Q64.8 67.6 63.9 68.7Q63.0 69.7 61.8 70.9L61.8 70.9L58.5 74.2L58.5 74.2L66.4 74.2ZM79.7 70.7L79.7 72.4L77.4 72.4L77.4 76L75.6 76L75.6 72.4L68.0 72.4L68.0 70.8L75.4 60.2L77.4 60.2L77.4 70.7L79.7 70.7ZM75.6 70.7L75.6 65.7Q75.6 64.6 75.6 63.8Q75.7 63.0 75.7 62.3L75.7 62.3L75.6 62.3Q75.4 62.7 75.2 63.2Q74.9 63.7 74.6 64.0L74.6 64.0L69.9 70.7L75.6 70.7Z "/></g><mask id="satori_om-id-1-1"><rect x="52" y="82" width="33" height="12" fill="#fff" mask="url(#satori_om-id)"/></mask><g mask="url(#satori_om-id)" clip-path="url(#satori_cp-id)"><path fill="rgba(200,195,225,0.45)" d="M52.9 85.6L54.6 85.6Q55.8 85.6 56.4 86.0Q57.0 86.5 57.0 87.4L57.0 87.4Q57.0 87.9 56.8 88.3Q56.6 88.6 56.3 88.8Q56.0 89.0 55.7 89.1L55.7 89.1L57.5 92L56.5 92L55.0 89.3L53.7 89.3L53.7 92L52.9 92L52.9 85.6ZM54.6 86.3L54.6 86.3L53.7 86.3L53.7 88.7L54.6 88.7Q55.4 88.7 55.8 88.4Q56.1 88.0 56.1 87.4L56.1 87.4Q56.1 86.8 55.8 86.5Q55.4 86.3 54.6 86.3ZM62.9 91.3L62.9 92L59.3 92L59.3 85.6L62.9 85.6L62.9 86.3L60.1 86.3L60.1 88.3L62.7 88.3L62.7 89.0L60.1 89.0L60.1 91.3L62.9 91.3ZM65.1 85.6L66.8 85.6Q68.0 85.6 68.6 86.1Q69.2 86.6 69.2 87.5L69.2 87.5Q69.2 88.0 68.9 88.5Q68.7 88.9 68.1 89.2Q67.6 89.5 66.6 89.5L66.6 89.5L65.9 89.5L65.9 92L65.1 92L65.1 85.6ZM66.7 86.3L66.7 86.3L65.9 86.3L65.9 88.8L66.5 88.8Q67.5 88.8 67.9 88.5Q68.4 88.2 68.4 87.5L68.4 87.5Q68.4 86.9 68.0 86.6Q67.6 86.3 66.7 86.3ZM76.9 88.8L76.9 88.8Q76.9 89.8 76.6 90.5Q76.3 91.3 75.6 91.7Q74.9 92.1 74.0 92.1L74.0 92.1Q73.0 92.1 72.3 91.7Q71.6 91.3 71.3 90.5Q71.0 89.8 71.0 88.8L71.0 88.8Q71.0 87.8 71.3 87.0Q71.6 86.3 72.3 85.9Q73.0 85.5 74.0 85.5L74.0 85.5Q74.9 85.5 75.6 85.9Q76.3 86.3 76.6 87.0Q76.9 87.8 76.9 88.8ZM71.9 88.8L71.9 88.8Q71.9 90.0 72.4 90.7Q72.9 91.4 74.0 91.4L74.0 91.4Q75.1 91.4 75.6 90.7Q76.1 90.0 76.1 88.8L76.1 88.8Q76.1 87.6 75.6 86.9Q75.1 86.2 74.0 86.2L74.0 86.2Q72.9 86.2 72.4 86.9Q71.9 87.6 71.9 88.8ZM82.8 90.3L82.8 90.3Q82.8 91.1 82.2 91.6Q81.6 92.1 80.5 92.1L80.5 92.1Q80.0 92.1 79.5 92.0Q79.0 91.9 78.7 91.8L78.7 91.8L78.7 91.0Q79.1 91.2 79.5 91.3Q80.0 91.4 80.5 91.4L80.5 91.4Q81.3 91.4 81.6 91.1Q82.0 90.8 82.0 90.4L82.0 90.4Q82.0 90.0 81.8 89.8Q81.7 89.6 81.4 89.4Q81.1 89.2 80.5 89.0L80.5 89.0Q79.7 88.7 79.2 88.3Q78.8 87.9 78.8 87.1L78.8 87.1Q78.8 86.6 79.1 86.2Q79.3 85.9 79.8 85.7Q80.3 85.5 80.9 85.5L80.9 85.5Q81.4 85.5 81.8 85.6Q82.3 85.7 82.6 85.8L82.6 85.8L82.4 86.5Q82.1 86.4 81.7 86.3Q81.3 86.2 80.8 86.2L80.8 86.2Q80.2 86.2 79.9 86.5Q79.6 86.7 79.6 87.1L79.6 87.1Q79.6 87.5 79.8 87.7Q79.9 87.9 80.2 88.1Q80.5 88.2 81.0 88.4L81.0 88.4Q81.6 88.6 82.0 88.9Q82.4 89.1 82.6 89.4Q82.8 89.8 82.8 90.3Z "/></g><defs><clipPath id="satori_bc-id-2" clip-path="url(#satori_cp-id)"><rect x="136" y="44" width="134" height="62"/></clipPath></defs><mask id="satori_om-id-2"><rect x="136" y="44" width="133" height="62" fill="#fff" mask="url(#satori_om-id)"/><path width="134" height="62" fill="none" stroke="#000" stroke-width="2" d="M270,44 A0,0 0 0 1 270,44 v62 A0,0 0 0 1 270,106"/></mask><path width="134" height="62" clip-path="url(#satori_bc-id-2)" fill="none" stroke="rgba(255,255,255,0.06)" stroke-width="2" d="M270,44 A0,0 0 0 1 270,44 v62 A0,0 0 0 1 270,106"/><mask id="satori_om-id-2-0"><rect x="196" y="56" width="13" height="22" fill="#fff" mask="url(#satori_om-id)"/></mask><g mask="url(#satori_om-id)" clip-path="url(#satori_cp-id)"><path fill="#60a5fa" d="M207.4 67.0L207.4 67.0Q207.4 68.7 207.1 70.3Q206.8 72.0 206.1 73.3Q205.3 74.6 203.9 75.4Q202.4 76.2 200.2 76.2L200.2 76.2Q199.8 76.2 199.2 76.2Q198.6 76.1 198.2 76L198.2 76L198.2 74.3Q199.1 74.6 200.2 74.6L200.2 74.6Q201.7 74.6 202.7 74.1Q203.7 73.6 204.3 72.8Q204.9 71.9 205.2 70.7Q205.4 69.6 205.5 68.3L205.5 68.3L205.3 68.3Q204.9 69.0 204.0 69.6Q203.0 70.1 201.6 70.1L201.6 70.1Q199.6 70.1 198.3 68.9Q197.1 67.6 197.1 65.4L197.1 65.4Q197.1 63.7 197.7 62.5Q198.4 61.3 199.5 60.7Q200.6 60.1 202.1 60.1L202.1 60.1Q203.6 60.1 204.8 60.8Q206.0 61.6 206.7 63.1Q207.4 64.6 207.4 67.0ZM202.1 61.7L202.1 61.7Q200.8 61.7 199.9 62.6Q199.0 63.5 199.0 65.4L199.0 65.4Q199.0 66.9 199.8 67.7Q200.5 68.6 202.0 68.6L202.0 68.6Q203.1 68.6 203.9 68.2Q204.6 67.8 205.1 67.1Q205.5 66.4 205.5 65.7L205.5 65.7Q205.5 64.8 205.1 63.9Q204.7 62.9 204.0 62.3Q203.2 61.7 202.1 61.7Z "/></g><mask id="satori_om-id-2-1"><rect x="187" y="82" width="31" height="12" fill="#fff" mask="url(#satori_om-id)"/></mask><g mask="url(#satori_om-id)" clip-path="url(#satori_cp-id)"><path fill="rgba(200,195,225,0.45)" d="M191.5 90.3L191.5 90.3Q191.5 91.1 190.9 91.6Q190.3 92.1 189.2 92.1L189.2 92.1Q188.7 92.1 188.2 92.0Q187.8 91.9 187.5 91.8L187.5 91.8L187.5 91.0Q187.8 91.2 188.3 91.3Q188.7 91.4 189.3 91.4L189.3 91.4Q190.0 91.4 190.3 91.1Q190.7 90.8 190.7 90.4L190.7 90.4Q190.7 90.0 190.6 89.8Q190.4 89.6 190.1 89.4Q189.8 89.2 189.2 89.0L189.2 89.0Q188.4 88.7 188.0 88.3Q187.5 87.9 187.5 87.1L187.5 87.1Q187.5 86.6 187.8 86.2Q188.1 85.9 188.5 85.7Q189.0 85.5 189.6 85.5L189.6 85.5Q190.1 85.5 190.6 85.6Q191.0 85.7 191.4 85.8L191.4 85.8L191.1 86.5Q190.8 86.4 190.4 86.3Q190.0 86.2 189.6 86.2L189.6 86.2Q189.0 86.2 188.7 86.5Q188.4 86.7 188.4 87.1L188.4 87.1Q188.4 87.5 188.5 87.7Q188.6 87.9 188.9 88.1Q189.2 88.2 189.8 88.4L189.8 88.4Q190.3 88.6 190.7 88.9Q191.1 89.1 191.3 89.4Q191.5 89.8 191.5 90.3ZM195.6 86.3L195.6 92L194.8 92L194.8 86.3L192.8 86.3L192.8 85.6L197.6 85.6L197.6 86.3L195.6 86.3ZM203.7 92L202.8 92L202.0 90.0L199.5 90.0L198.7 92L197.9 92L200.4 85.5L201.2 85.5L203.7 92ZM201.8 89.3L201.1 87.3Q201.1 87.3 201.0 87.1Q200.9 86.9 200.9 86.7Q200.8 86.5 200.8 86.4L200.8 86.4Q200.7 86.7 200.6 86.9Q200.6 87.2 200.5 87.3L200.5 87.3L199.8 89.3L201.8 89.3ZM205.3 85.6L207.1 85.6Q208.3 85.6 208.9 86.0Q209.5 86.5 209.5 87.4L209.5 87.4Q209.5 87.9 209.3 88.3Q209.1 88.6 208.8 88.8Q208.5 89.0 208.2 89.1L208.2 89.1L209.9 92L209.0 92L207.4 89.3L206.1 89.3L206.1 92L205.3 92L205.3 85.6ZM207.1 86.3L207.1 86.3L206.1 86.3L206.1 88.7L207.1 88.7Q207.9 88.7 208.3 88.4Q208.6 88.0 208.6 87.4L208.6 87.4Q208.6 86.8 208.2 86.5Q207.9 86.3 207.1 86.3ZM215.4 90.3L215.4 90.3Q215.4 91.1 214.8 91.6Q214.1 92.1 213.1 92.1L213.1 92.1Q212.5 92.1 212.1 92.0Q211.6 91.9 211.3 91.8L211.3 91.8L211.3 91.0Q211.6 91.2 212.1 91.3Q212.6 91.4 213.1 91.4L213.1 91.4Q213.8 91.4 214.2 91.1Q214.6 90.8 214.6 90.4L214.6 90.4Q214.6 90.0 214.4 89.8Q214.3 89.6 214.0 89.4Q213.6 89.2 213.1 89.0L213.1 89.0Q212.2 88.7 211.8 88.3Q211.4 87.9 211.4 87.1L211.4 87.1Q211.4 86.6 211.7 86.2Q211.9 85.9 212.4 85.7Q212.9 85.5 213.5 85.5L213.5 85.5Q214.0 85.5 214.4 85.6Q214.9 85.7 215.2 85.8L215.2 85.8L215.0 86.5Q214.6 86.4 214.3 86.3Q213.9 86.2 213.4 86.2L213.4 86.2Q212.8 86.2 212.5 86.5Q212.2 86.7 212.2 87.1L212.2 87.1Q212.2 87.5 212.4 87.7Q212.5 87.9 212.8 88.1Q213.1 88.2 213.6 88.4L213.6 88.4Q214.2 88.6 214.6 88.9Q215.0 89.1 215.2 89.4Q215.4 89.8 215.4 90.3Z "/></g><defs><clipPath id="satori_bc-id-3" clip-path="url(#satori_cp-id)"><rect x="270" y="44" width="185" height="62"/></clipPath></defs><mask id="satori_om-id-3"><rect x="270" y="44" width="184" height="62" fill="#fff" mask="url(#satori_om-id)"/><path width="185" height="62" fill="none" stroke="#000" stroke-width="2" d="M455,44 A0,0 0 0 1 455,44 v62 A0,0 0 0 1 455,106"/></mask><path width="185" height="62" clip-path="url(#satori_bc-id-3)" fill="none" stroke="rgba(255,255,255,0.06)" stroke-width="2" d="M455,44 A0,0 0 0 1 455,44 v62 A0,0 0 0 1 455,106"/><mask id="satori_om-id-3-0"><rect x="334" y="56" width="57" height="22" fill="#fff" mask="url(#satori_om-id)"/></mask><g mask="url(#satori_om-id)" clip-path="url(#satori_cp-id)"><path fill="#f59e0b" d="M341.8 60.3L341.8 76L339.9 76L339.9 65.0Q339.9 64.1 339.9 63.5Q340.0 62.9 340.0 62.3L340.0 62.3Q339.7 62.7 339.4 62.9Q339.1 63.2 338.6 63.5L338.6 63.5L337.0 64.9L336.0 63.6L340.2 60.3L341.8 60.3ZM350.7 73.4L350.8 73.7Q350.5 74.9 350.0 76.3Q349.4 77.7 348.9 78.8L348.9 78.8L347.5 78.8Q347.8 77.6 348.1 76.1Q348.4 74.6 348.6 73.4L348.6 73.4L350.7 73.4ZM363.9 74.2L363.9 76L353.5 76L353.5 74.4L357.7 70.2Q358.8 69.0 359.7 68.1Q360.5 67.2 360.9 66.3Q361.3 65.4 361.3 64.4L361.3 64.4Q361.3 63.1 360.5 62.4Q359.8 61.7 358.5 61.7L358.5 61.7Q357.4 61.7 356.5 62.1Q355.6 62.5 354.7 63.2L354.7 63.2L353.7 61.9Q354.6 61.1 355.8 60.6Q357.0 60.1 358.5 60.1L358.5 60.1Q360.7 60.1 362.0 61.2Q363.3 62.3 363.3 64.3L363.3 64.3Q363.3 65.5 362.8 66.6Q362.3 67.6 361.4 68.7Q360.5 69.7 359.3 70.9L359.3 70.9L356.0 74.2L356.0 74.2L363.9 74.2ZM377.2 70.7L377.2 72.4L374.9 72.4L374.9 76L373.1 76L373.1 72.4L365.5 72.4L365.5 70.8L372.9 60.2L374.9 60.2L374.9 70.7L377.2 70.7ZM373.1 70.7L373.1 65.7Q373.1 64.6 373.1 63.8Q373.1 63.0 373.2 62.3L373.2 62.3L373.1 62.3Q372.9 62.7 372.6 63.2Q372.4 63.7 372.1 64.0L372.1 64.0L367.4 70.7L373.1 70.7ZM383.9 60.1L383.9 60.1Q386.0 60.1 387.3 61.0Q388.6 62.0 388.6 63.8L388.6 63.8Q388.6 64.8 388.2 65.5Q387.8 66.2 387.1 66.7Q386.4 67.3 385.6 67.7L385.6 67.7Q386.6 68.1 387.4 68.7Q388.2 69.3 388.7 70.1Q389.1 70.9 389.1 71.9L389.1 71.9Q389.1 73.9 387.7 75.1Q386.3 76.2 384.0 76.2L384.0 76.2Q381.5 76.2 380.1 75.1Q378.7 74.0 378.7 72.0L378.7 72.0Q378.7 70.9 379.2 70.1Q379.6 69.3 380.4 68.8Q381.1 68.2 382.0 67.8L382.0 67.8Q380.8 67.1 380.0 66.2Q379.2 65.3 379.2 63.8L379.2 63.8Q379.2 62.6 379.8 61.8Q380.5 61.0 381.5 60.5Q382.6 60.1 383.9 60.1ZM383.9 61.6L383.9 61.6Q382.7 61.6 381.9 62.2Q381.1 62.8 381.1 63.9L381.1 63.9Q381.1 64.7 381.5 65.3Q381.9 65.8 382.6 66.2Q383.2 66.6 384.0 66.9L384.0 66.9Q385.2 66.5 385.9 65.8Q386.7 65.1 386.7 63.9L386.7 63.9Q386.7 62.8 385.9 62.2Q385.2 61.6 383.9 61.6ZM380.6 72.0L380.6 72.0Q380.6 73.2 381.4 73.9Q382.2 74.7 383.9 74.7L383.9 74.7Q385.5 74.7 386.4 73.9Q387.2 73.2 387.2 72.0L387.2 72.0Q387.2 70.8 386.3 70.0Q385.4 69.3 383.9 68.7L383.9 68.7L383.6 68.6Q382.1 69.2 381.4 70.0Q380.6 70.8 380.6 72.0Z "/></g><mask id="satori_om-id-3-1"><rect x="321" y="82" width="83" height="12" fill="#fff" mask="url(#satori_om-id)"/></mask><g mask="url(#satori_om-id)" clip-path="url(#satori_cp-id)"><path fill="rgba(200,195,225,0.45)" d="M324.6 86.2L324.6 86.2Q323.6 86.2 323.0 86.9Q322.4 87.6 322.4 88.8L322.4 88.8Q322.4 90.0 323.0 90.7Q323.5 91.4 324.6 91.4L324.6 91.4Q325.0 91.4 325.4 91.3Q325.8 91.2 326.2 91.1L326.2 91.1L326.2 91.8Q325.8 92.0 325.4 92.0Q325.0 92.1 324.5 92.1L324.5 92.1Q323.5 92.1 322.9 91.7Q322.2 91.3 321.9 90.5Q321.5 89.8 321.5 88.8L321.5 88.8Q321.5 87.8 321.9 87.1Q322.3 86.3 323.0 85.9Q323.6 85.5 324.6 85.5L324.6 85.5Q325.7 85.5 326.4 85.9L326.4 85.9L326.1 86.5Q325.8 86.4 325.4 86.3Q325.1 86.2 324.6 86.2ZM333.8 88.8L333.8 88.8Q333.8 89.8 333.5 90.5Q333.1 91.3 332.5 91.7Q331.8 92.1 330.8 92.1L330.8 92.1Q329.8 92.1 329.2 91.7Q328.5 91.3 328.2 90.5Q327.9 89.8 327.9 88.8L327.9 88.8Q327.9 87.8 328.2 87.0Q328.5 86.3 329.2 85.9Q329.8 85.5 330.8 85.5L330.8 85.5Q331.8 85.5 332.5 85.9Q333.1 86.3 333.5 87.0Q333.8 87.8 333.8 88.8ZM328.7 88.8L328.7 88.8Q328.7 90.0 329.2 90.7Q329.7 91.4 330.8 91.4L330.8 91.4Q331.9 91.4 332.4 90.7Q332.9 90.0 332.9 88.8L332.9 88.8Q332.9 87.6 332.4 86.9Q331.9 86.2 330.8 86.2L330.8 86.2Q329.7 86.2 329.2 86.9Q328.7 87.6 328.7 88.8ZM341.1 85.6L341.1 92L340.2 92L336.7 86.7L336.7 86.7Q336.7 87.0 336.7 87.4Q336.8 87.9 336.8 88.4L336.8 88.4L336.8 92L336.0 92L336.0 85.6L336.9 85.6L340.4 90.9L340.4 90.9Q340.4 90.7 340.4 90.5Q340.4 90.2 340.4 89.8Q340.3 89.5 340.3 89.2L340.3 89.2L340.3 85.6L341.1 85.6ZM345.7 86.3L345.7 92L344.9 92L344.9 86.3L342.9 86.3L342.9 85.6L347.7 85.6L347.7 86.3L345.7 86.3ZM349.5 85.6L351.2 85.6Q352.4 85.6 353.0 86.0Q353.6 86.5 353.6 87.4L353.6 87.4Q353.6 87.9 353.4 88.3Q353.2 88.6 352.9 88.8Q352.6 89.0 352.3 89.1L352.3 89.1L354.0 92L353.1 92L351.5 89.3L350.3 89.3L350.3 92L349.5 92L349.5 85.6ZM351.2 86.3L351.2 86.3L350.3 86.3L350.3 88.7L351.2 88.7Q352.0 88.7 352.4 88.4Q352.7 88.0 352.7 87.4L352.7 87.4Q352.7 86.8 352.4 86.5Q352.0 86.3 351.2 86.3ZM357.7 91.5L357.7 92L355.3 92L355.3 91.5L356.1 91.4L356.1 86.2L355.3 86.0L355.3 85.6L357.7 85.6L357.7 86.0L356.9 86.2L356.9 91.4L357.7 91.5ZM359.7 85.6L361.5 85.6Q362.7 85.6 363.4 85.9Q364.0 86.3 364.0 87.2L364.0 87.2Q364.0 87.7 363.7 88.1Q363.3 88.5 362.8 88.6L362.8 88.6L362.8 88.6Q363.2 88.7 363.5 88.9Q363.8 89.0 364.0 89.4Q364.2 89.7 364.2 90.2L364.2 90.2Q364.2 91.0 363.6 91.5Q363.0 92 362.0 92L362.0 92L359.7 92L359.7 85.6ZM360.5 88.3L361.7 88.3Q362.5 88.3 362.8 88.0Q363.1 87.8 363.1 87.3L363.1 87.3Q363.1 86.7 362.8 86.5Q362.4 86.3 361.6 86.3L361.6 86.3L360.5 86.3L360.5 88.3ZM361.7 89.0L360.5 89.0L360.5 91.3L361.8 91.3Q362.7 91.3 363.0 91.0Q363.3 90.7 363.3 90.1L363.3 90.1Q363.3 89.6 363.0 89.3Q362.6 89.0 361.7 89.0L361.7 89.0ZM371.2 85.6L371.2 89.7Q371.2 90.4 371.0 90.9Q370.7 91.5 370.1 91.8Q369.6 92.1 368.7 92.1L368.7 92.1Q367.5 92.1 366.9 91.4Q366.3 90.8 366.3 89.7L366.3 89.7L366.3 85.6L367.1 85.6L367.1 89.7Q367.1 90.5 367.5 91.0Q367.9 91.4 368.8 91.4L368.8 91.4Q369.7 91.4 370.0 90.9Q370.4 90.5 370.4 89.7L370.4 89.7L370.4 85.6L371.2 85.6ZM375.8 86.3L375.8 92L375.0 92L375.0 86.3L372.9 86.3L372.9 85.6L377.8 85.6L377.8 86.3L375.8 86.3ZM381.3 91.5L381.3 92L379.0 92L379.0 91.5L379.8 91.4L379.8 86.2L379.0 86.0L379.0 85.6L381.3 85.6L381.3 86.0L380.6 86.2L380.6 91.4L381.3 91.5ZM389.0 88.8L389.0 88.8Q389.0 89.8 388.7 90.5Q388.3 91.3 387.7 91.7Q387.0 92.1 386.0 92.1L386.0 92.1Q385.0 92.1 384.4 91.7Q383.7 91.3 383.4 90.5Q383.1 89.8 383.1 88.8L383.1 88.8Q383.1 87.8 383.4 87.0Q383.7 86.3 384.4 85.9Q385.0 85.5 386.0 85.5L386.0 85.5Q387.0 85.5 387.7 85.9Q388.3 86.3 388.7 87.0Q389.0 87.8 389.0 88.8ZM383.9 88.8L383.9 88.8Q383.9 90.0 384.4 90.7Q384.9 91.4 386.0 91.4L386.0 91.4Q387.1 91.4 387.6 90.7Q388.1 90.0 388.1 88.8L388.1 88.8Q388.1 87.6 387.6 86.9Q387.1 86.2 386.0 86.2L386.0 86.2Q385.0 86.2 384.4 86.9Q383.9 87.6 383.9 88.8ZM396.3 85.6L396.3 92L395.4 92L391.9 86.7L391.9 86.7Q391.9 87.0 391.9 87.4Q392.0 87.9 392.0 88.4L392.0 88.4L392.0 92L391.2 92L391.2 85.6L392.2 85.6L395.6 90.9L395.6 90.9Q395.6 90.7 395.6 90.5Q395.6 90.2 395.6 89.8Q395.6 89.5 395.6 89.2L395.6 89.2L395.6 85.6L396.3 85.6ZM402.5 90.3L402.5 90.3Q402.5 91.1 401.9 91.6Q401.3 92.1 400.2 92.1L400.2 92.1Q399.7 92.1 399.2 92.0Q398.7 91.9 398.4 91.8L398.4 91.8L398.4 91.0Q398.8 91.2 399.2 91.3Q399.7 91.4 400.2 91.4L400.2 91.4Q401.0 91.4 401.3 91.1Q401.7 90.8 401.7 90.4L401.7 90.4Q401.7 90.0 401.6 89.8Q401.4 89.6 401.1 89.4Q400.8 89.2 400.2 89.0L400.2 89.0Q399.4 88.7 398.9 88.3Q398.5 87.9 398.5 87.1L398.5 87.1Q398.5 86.6 398.8 86.2Q399.0 85.9 399.5 85.7Q400.0 85.5 400.6 85.5L400.6 85.5Q401.1 85.5 401.5 85.6Q402.0 85.7 402.3 85.8L402.3 85.8L402.1 86.5Q401.8 86.4 401.4 86.3Q401.0 86.2 400.6 86.2L400.6 86.2Q400.0 86.2 399.6 86.5Q399.3 86.7 399.3 87.1L399.3 87.1Q399.3 87.5 399.5 87.7Q399.6 87.9 399.9 88.1Q400.2 88.2 400.7 88.4L400.7 88.4Q401.3 88.6 401.7 88.9Q402.1 89.1 402.3 89.4Q402.5 89.8 402.5 90.3Z "/></g><defs><clipPath id="satori_bc-id-4" clip-path="url(#satori_cp-id)"><rect x="455" y="44" width="203" height="62"/></clipPath></defs><mask id="satori_om-id-4"><rect x="455" y="44" width="202" height="62" fill="#fff" mask="url(#satori_om-id)"/><path width="203" height="62" fill="none" stroke="#000" stroke-width="2" d="M658,44 A0,0 0 0 1 658,44 v62 A0,0 0 0 1 658,106"/></mask><path width="203" height="62" clip-path="url(#satori_bc-id-4)" fill="none" stroke="rgba(255,255,255,0.06)" stroke-width="2" d="M658,44 A0,0 0 0 1 658,44 v62 A0,0 0 0 1 658,106"/><mask id="satori_om-id-4-0"><rect x="506" y="56" width="100" height="22" fill="#fff" mask="url(#satori_om-id)"/></mask><g mask="url(#satori_om-id)" clip-path="url(#satori_cp-id)"><path fill="#4ade80" d="M517.4 74.2L517.4 76L507.1 76L507.1 74.4L511.2 70.2Q512.4 69.0 513.2 68.1Q514.0 67.2 514.4 66.3Q514.8 65.4 514.8 64.4L514.8 64.4Q514.8 63.1 514.1 62.4Q513.3 61.7 512.0 61.7L512.0 61.7Q510.9 61.7 510.0 62.1Q509.2 62.5 508.3 63.2L508.3 63.2L507.2 61.9Q508.2 61.1 509.4 60.6Q510.6 60.1 512.0 60.1L512.0 60.1Q514.3 60.1 515.5 61.2Q516.8 62.3 516.8 64.3L516.8 64.3Q516.8 65.5 516.3 66.6Q515.8 67.6 514.9 68.7Q514.0 69.7 512.8 70.9L512.8 70.9L509.5 74.2L509.5 74.2L517.4 74.2ZM522.7 73.4L522.8 73.7Q522.5 74.9 522.0 76.3Q521.4 77.7 520.9 78.8L520.9 78.8L519.5 78.8Q519.8 77.6 520.1 76.1Q520.4 74.6 520.6 73.4L520.6 73.4L522.7 73.4ZM529.6 76L527.5 76L533.9 62.1L525.4 62.1L525.4 60.3L536.0 60.3L536.0 61.8L529.6 76ZM543.1 66.4L543.1 66.4Q545.5 66.4 547.0 67.6Q548.4 68.8 548.4 71.0L548.4 71.0Q548.4 73.4 546.8 74.8Q545.3 76.2 542.5 76.2L542.5 76.2Q541.3 76.2 540.2 76Q539.2 75.8 538.4 75.4L538.4 75.4L538.4 73.5Q539.2 74.0 540.4 74.3Q541.5 74.6 542.5 74.6L542.5 74.6Q544.3 74.6 545.3 73.7Q546.4 72.9 546.4 71.2L546.4 71.2Q546.4 69.6 545.5 68.8Q544.5 68.0 542.5 68.0L542.5 68.0Q541.9 68.0 541.1 68.1Q540.3 68.2 539.8 68.3L539.8 68.3L538.8 67.7L539.4 60.3L547.3 60.3L547.3 62.1L541.1 62.1L540.7 66.6Q541.1 66.5 541.7 66.5Q542.3 66.4 543.1 66.4ZM555.7 66.4L555.7 66.4Q558.1 66.4 559.5 67.6Q561.0 68.8 561.0 71.0L561.0 71.0Q561.0 73.4 559.4 74.8Q557.9 76.2 555.1 76.2L555.1 76.2Q553.9 76.2 552.8 76Q551.8 75.8 551.0 75.4L551.0 75.4L551.0 73.5Q551.8 74.0 553.0 74.3Q554.1 74.6 555.1 74.6L555.1 74.6Q556.9 74.6 557.9 73.7Q559.0 72.9 559.0 71.2L559.0 71.2Q559.0 69.6 558.1 68.8Q557.1 68.0 555.1 68.0L555.1 68.0Q554.4 68.0 553.7 68.1Q552.9 68.2 552.4 68.3L552.4 68.3L551.4 67.7L552.0 60.3L559.9 60.3L559.9 62.1L553.7 62.1L553.3 66.6Q553.7 66.5 554.3 66.5Q554.9 66.4 555.7 66.4ZM566.3 73.4L566.5 73.7Q566.2 74.9 565.6 76.3Q565.1 77.7 564.6 78.8L564.6 78.8L563.1 78.8Q563.4 77.6 563.8 76.1Q564.1 74.6 564.2 73.4L564.2 73.4L566.3 73.4ZM573.3 76L571.1 76L577.6 62.1L569.1 62.1L569.1 60.3L579.6 60.3L579.6 61.8L573.3 76ZM586.8 66.4L586.8 66.4Q589.2 66.4 590.6 67.6Q592.0 68.8 592.0 71.0L592.0 71.0Q592.0 73.4 590.5 74.8Q588.9 76.2 586.2 76.2L586.2 76.2Q585.0 76.2 583.9 76Q582.8 75.8 582.1 75.4L582.1 75.4L582.1 73.5Q582.9 74.0 584.0 74.3Q585.2 74.6 586.2 74.6L586.2 74.6Q587.9 74.6 589.0 73.7Q590.1 72.9 590.1 71.2L590.1 71.2Q590.1 69.6 589.1 68.8Q588.2 68.0 586.1 68.0L586.1 68.0Q585.5 68.0 584.7 68.1Q583.9 68.2 583.4 68.3L583.4 68.3L582.5 67.7L583.1 60.3L590.9 60.3L590.9 62.1L584.7 62.1L584.3 66.6Q584.7 66.5 585.4 66.5Q586.0 66.4 586.8 66.4ZM604.8 68.1L604.8 68.1Q604.8 70.7 604.3 72.5Q603.7 74.3 602.6 75.3Q601.5 76.2 599.6 76.2L599.6 76.2Q596.9 76.2 595.6 74.1Q594.4 71.9 594.4 68.1L594.4 68.1Q594.4 65.6 594.9 63.8Q595.4 62.0 596.6 61.0Q597.7 60.0 599.6 60.0L599.6 60.0Q602.2 60.0 603.5 62.2Q604.8 64.3 604.8 68.1ZM596.3 68.1L596.3 68.1Q596.3 71.4 597.0 73.0Q597.8 74.6 599.6 74.6L599.6 74.6Q601.3 74.6 602.1 73.0Q602.8 71.4 602.8 68.1L602.8 68.1Q602.8 64.9 602.1 63.3Q601.3 61.7 599.6 61.7L599.6 61.7Q597.8 61.7 597.0 63.3Q596.3 64.9 596.3 68.1Z "/></g><mask id="satori_om-id-4-1"><rect x="537" y="82" width="38" height="12" fill="#fff" mask="url(#satori_om-id)"/></mask><g mask="url(#satori_om-id)" clip-path="url(#satori_cp-id)"><path fill="rgba(200,195,225,0.45)" d="M541.5 92L537.9 92L537.9 85.6L538.7 85.6L538.7 91.3L541.5 91.3L541.5 92ZM545.2 91.5L545.2 92L542.9 92L542.9 91.5L543.6 91.4L543.6 86.2L542.9 86.0L542.9 85.6L545.2 85.6L545.2 86.0L544.4 86.2L544.4 91.4L545.2 91.5ZM552.3 85.6L552.3 92L551.4 92L548.0 86.7L547.9 86.7Q547.9 87.0 548.0 87.4Q548.0 87.9 548.0 88.4L548.0 88.4L548.0 92L547.2 92L547.2 85.6L548.2 85.6L551.6 90.9L551.6 90.9Q551.6 90.7 551.6 90.5Q551.6 90.2 551.6 89.8Q551.6 89.5 551.6 89.2L551.6 89.2L551.6 85.6L552.3 85.6ZM558.5 91.3L558.5 92L554.9 92L554.9 85.6L558.5 85.6L558.5 86.3L555.7 86.3L555.7 88.3L558.3 88.3L558.3 89.0L555.7 89.0L555.7 91.3L558.5 91.3ZM564.3 90.3L564.3 90.3Q564.3 91.1 563.7 91.6Q563.1 92.1 562.0 92.1L562.0 92.1Q561.5 92.1 561.0 92.0Q560.6 91.9 560.3 91.8L560.3 91.8L560.3 91.0Q560.6 91.2 561.1 91.3Q561.6 91.4 562.1 91.4L562.1 91.4Q562.8 91.4 563.2 91.1Q563.5 90.8 563.5 90.4L563.5 90.4Q563.5 90.0 563.4 89.8Q563.2 89.6 562.9 89.4Q562.6 89.2 562.0 89.0L562.0 89.0Q561.2 88.7 560.8 88.3Q560.4 87.9 560.4 87.1L560.4 87.1Q560.4 86.6 560.6 86.2Q560.9 85.9 561.3 85.7Q561.8 85.5 562.4 85.5L562.4 85.5Q562.9 85.5 563.4 85.6Q563.8 85.7 564.2 85.8L564.2 85.8L563.9 86.5Q563.6 86.4 563.2 86.3Q562.8 86.2 562.4 86.2L562.4 86.2Q561.8 86.2 561.5 86.5Q561.2 86.7 561.2 87.1L561.2 87.1Q561.2 87.5 561.3 87.7Q561.4 87.9 561.7 88.1Q562.1 88.2 562.6 88.4L562.6 88.4Q563.1 88.6 563.5 88.9Q563.9 89.1 564.1 89.4Q564.3 89.8 564.3 90.3Z M571.6 86.6L571.6 88.5L573.4 88.5L573.4 89.1L571.6 89.1L571.6 91.0L570.9 91.0L570.9 89.1L569.1 89.1L569.1 88.5L570.9 88.5L570.9 86.6L571.6 86.6Z "/></g><mask id="satori_om-id-5"><rect x="658" y="44" width="201" height="62" fill="#fff" mask="url(#satori_om-id)"/></mask><mask id="satori_om-id-5-0"><rect x="709" y="56" width="100" height="22" fill="#fff" mask="url(#satori_om-id)"/></mask><g mask="url(#satori_om-id)" clip-path="url(#satori_cp-id)"><path fill="#fb7185" d="M716.8 60.3L716.8 76L714.9 76L714.9 65.0Q714.9 64.1 714.9 63.5Q715.0 62.9 715.0 62.3L715.0 62.3Q714.7 62.7 714.4 62.9Q714.1 63.2 713.6 63.5L713.6 63.5L712.0 64.9L711.0 63.6L715.2 60.3L716.8 60.3ZM725.7 73.4L725.8 73.7Q725.5 74.9 725.0 76.3Q724.4 77.7 723.9 78.8L723.9 78.8L722.5 78.8Q722.8 77.6 723.1 76.1Q723.4 74.6 723.6 73.4L723.6 73.4L725.7 73.4ZM738.3 64.0L738.3 64.0Q738.3 65.5 737.4 66.5Q736.6 67.4 735.1 67.7L735.1 67.7L735.1 67.8Q737.0 68.0 737.9 69.0Q738.8 70.0 738.8 71.5L738.8 71.5Q738.8 72.9 738.2 74.0Q737.5 75.0 736.2 75.6Q734.9 76.2 732.8 76.2L732.8 76.2Q731.5 76.2 730.5 76.0Q729.4 75.8 728.5 75.4L728.5 75.4L728.5 73.6Q729.5 74.0 730.6 74.3Q731.7 74.6 732.8 74.6L732.8 74.6Q734.9 74.6 735.9 73.8Q736.8 72.9 736.8 71.5L736.8 71.5Q736.8 70.0 735.6 69.4Q734.5 68.7 732.4 68.7L732.4 68.7L730.9 68.7L730.9 67.1L732.4 67.1Q734.3 67.1 735.3 66.3Q736.3 65.4 736.3 64.1L736.3 64.1Q736.3 63.0 735.6 62.3Q734.8 61.7 733.5 61.7L733.5 61.7Q732.2 61.7 731.3 62.1Q730.4 62.4 729.5 63.0L729.5 63.0L728.6 61.7Q729.4 61.0 730.6 60.6Q731.9 60.1 733.5 60.1L733.5 60.1Q735.9 60.1 737.1 61.2Q738.3 62.3 738.3 64.0ZM751.6 68.1L751.6 68.1Q751.6 70.7 751.0 72.5Q750.5 74.3 749.4 75.3Q748.2 76.2 746.3 76.2L746.3 76.2Q743.7 76.2 742.4 74.1Q741.1 71.9 741.1 68.1L741.1 68.1Q741.1 65.6 741.7 63.8Q742.2 62.0 743.3 61.0Q744.5 60.0 746.3 60.0L746.3 60.0Q749.0 60.0 750.3 62.2Q751.6 64.3 751.6 68.1ZM743.1 68.1L743.1 68.1Q743.1 71.4 743.8 73.0Q744.6 74.6 746.3 74.6L746.3 74.6Q748.1 74.6 748.9 73.0Q749.6 71.4 749.6 68.1L749.6 68.1Q749.6 64.9 748.9 63.3Q748.1 61.7 746.3 61.7L746.3 61.7Q744.6 61.7 743.8 63.3Q743.1 64.9 743.1 68.1ZM760.5 60.3L760.5 76L758.6 76L758.6 65.0Q758.6 64.1 758.6 63.5Q758.6 62.9 758.7 62.3L758.7 62.3Q758.3 62.7 758.0 62.9Q757.7 63.2 757.3 63.5L757.3 63.5L755.6 64.9L754.6 63.6L758.9 60.3L760.5 60.3ZM769.3 73.4L769.5 73.7Q769.2 74.9 768.6 76.3Q768.1 77.7 767.6 78.8L767.6 78.8L766.1 78.8Q766.4 77.6 766.8 76.1Q767.1 74.6 767.2 73.4L767.2 73.4L769.3 73.4ZM772.3 69.3L772.3 69.3Q772.3 67.6 772.6 66.0Q772.9 64.3 773.7 63.0Q774.5 61.7 775.9 60.9Q777.3 60.1 779.5 60.1L779.5 60.1Q780.0 60.1 780.6 60.1Q781.1 60.2 781.5 60.3L781.5 60.3L781.5 61.9Q781.1 61.8 780.6 61.7Q780.1 61.7 779.6 61.7L779.6 61.7Q778.1 61.7 777.0 62.2Q776.0 62.7 775.5 63.5Q774.9 64.4 774.6 65.6Q774.3 66.7 774.3 68.0L774.3 68.0L774.4 68.0Q774.9 67.2 775.8 66.7Q776.7 66.2 778.1 66.2L778.1 66.2Q780.2 66.2 781.4 67.4Q782.7 68.7 782.7 70.9L782.7 70.9Q782.7 73.4 781.3 74.8Q780.0 76.2 777.7 76.2L777.7 76.2Q776.2 76.2 775.0 75.5Q773.8 74.7 773.1 73.2Q772.3 71.6 772.3 69.3ZM777.7 74.6L777.7 74.6Q779.0 74.6 779.9 73.7Q780.8 72.8 780.8 70.9L780.8 70.9Q780.8 69.4 780.0 68.6Q779.2 67.7 777.7 67.7L777.7 67.7Q776.7 67.7 775.9 68.1Q775.2 68.5 774.7 69.2Q774.3 69.9 774.3 70.6L774.3 70.6Q774.3 71.5 774.7 72.4Q775.0 73.4 775.8 74.0Q776.5 74.6 777.7 74.6ZM784.9 69.3L784.9 69.3Q784.9 67.6 785.2 66.0Q785.5 64.3 786.3 63.0Q787.1 61.7 788.5 60.9Q789.9 60.1 792.1 60.1L792.1 60.1Q792.6 60.1 793.1 60.1Q793.7 60.2 794.1 60.3L794.1 60.3L794.1 61.9Q793.7 61.8 793.2 61.7Q792.7 61.7 792.2 61.7L792.2 61.7Q790.6 61.7 789.6 62.2Q788.6 62.7 788.0 63.5Q787.5 64.4 787.2 65.6Q786.9 66.7 786.9 68.0L786.9 68.0L787.0 68.0Q787.5 67.2 788.4 66.7Q789.3 66.2 790.7 66.2L790.7 66.2Q792.8 66.2 794.0 67.4Q795.3 68.7 795.3 70.9L795.3 70.9Q795.3 73.4 793.9 74.8Q792.6 76.2 790.3 76.2L790.3 76.2Q788.8 76.2 787.6 75.5Q786.4 74.7 785.6 73.2Q784.9 71.6 784.9 69.3ZM790.2 74.6L790.2 74.6Q791.6 74.6 792.5 73.7Q793.3 72.8 793.3 70.9L793.3 70.9Q793.3 69.4 792.6 68.6Q791.8 67.7 790.3 67.7L790.3 67.7Q789.3 67.7 788.5 68.1Q787.7 68.5 787.3 69.2Q786.9 69.9 786.9 70.6L786.9 70.6Q786.9 71.5 787.3 72.4Q787.6 73.4 788.4 74.0Q789.1 74.6 790.2 74.6ZM807.7 74.2L807.7 76L797.4 76L797.4 74.4L801.5 70.2Q802.7 69.0 803.5 68.1Q804.3 67.2 804.7 66.3Q805.1 65.4 805.1 64.4L805.1 64.4Q805.1 63.1 804.3 62.4Q803.6 61.7 802.3 61.7L802.3 61.7Q801.2 61.7 800.3 62.1Q799.5 62.5 798.6 63.2L798.6 63.2L797.5 61.9Q798.5 61.1 799.7 60.6Q800.8 60.1 802.3 60.1L802.3 60.1Q804.5 60.1 805.8 61.2Q807.1 62.3 807.1 64.3L807.1 64.3Q807.1 65.5 806.6 66.6Q806.1 67.6 805.2 68.7Q804.3 69.7 803.1 70.9L803.1 70.9L799.8 74.2L799.8 74.2L807.7 74.2Z "/></g><mask id="satori_om-id-5-1"><rect x="741" y="82" width="36" height="12" fill="#fff" mask="url(#satori_om-id)"/></mask><g mask="url(#satori_om-id)" clip-path="url(#satori_cp-id)"><path fill="rgba(200,195,225,0.45)" d="M745.5 92L741.9 92L741.9 85.6L742.7 85.6L742.7 91.3L745.5 91.3L745.5 92ZM749.2 91.5L749.2 92L746.9 92L746.9 91.5L747.6 91.4L747.6 86.2L746.9 86.0L746.9 85.6L749.2 85.6L749.2 86.0L748.4 86.2L748.4 91.4L749.2 91.5ZM756.3 85.6L756.3 92L755.4 92L752.0 86.7L751.9 86.7Q751.9 87.0 752.0 87.4Q752.0 87.9 752.0 88.4L752.0 88.4L752.0 92L751.2 92L751.2 85.6L752.2 85.6L755.6 90.9L755.6 90.9Q755.6 90.7 755.6 90.5Q755.6 90.2 755.6 89.8Q755.6 89.5 755.6 89.2L755.6 89.2L755.6 85.6L756.3 85.6ZM762.5 91.3L762.5 92L758.9 92L758.9 85.6L762.5 85.6L762.5 86.3L759.7 86.3L759.7 88.3L762.3 88.3L762.3 89.0L759.7 89.0L759.7 91.3L762.5 91.3ZM768.3 90.3L768.3 90.3Q768.3 91.1 767.7 91.6Q767.1 92.1 766.0 92.1L766.0 92.1Q765.5 92.1 765.0 92.0Q764.6 91.9 764.3 91.8L764.3 91.8L764.3 91.0Q764.6 91.2 765.1 91.3Q765.6 91.4 766.1 91.4L766.1 91.4Q766.8 91.4 767.2 91.1Q767.5 90.8 767.5 90.4L767.5 90.4Q767.5 90.0 767.4 89.8Q767.2 89.6 766.9 89.4Q766.6 89.2 766.0 89.0L766.0 89.0Q765.2 88.7 764.8 88.3Q764.4 87.9 764.4 87.1L764.4 87.1Q764.4 86.6 764.6 86.2Q764.9 85.9 765.3 85.7Q765.8 85.5 766.4 85.5L766.4 85.5Q766.9 85.5 767.4 85.6Q767.8 85.7 768.2 85.8L768.2 85.8L767.9 86.5Q767.6 86.4 767.2 86.3Q766.8 86.2 766.4 86.2L766.4 86.2Q765.8 86.2 765.5 86.5Q765.2 86.7 765.2 87.1L765.2 87.1Q765.2 87.5 765.3 87.7Q765.4 87.9 765.7 88.1Q766.1 88.2 766.6 88.4L766.6 88.4Q767.1 88.6 767.5 88.9Q767.9 89.1 768.1 89.4Q768.3 89.8 768.3 90.3Z M775.2 89.9L773.1 89.9L773.1 89.2L775.2 89.2L775.2 89.9Z "/></g></svg>