<!-- Generated by readme-aura https://github.com/collectioneur/readme-aura -->
<svg width="860" height="150" viewBox="0 0 860 150" xmlns="http://www.w3.org/2000/svg"><defs><clipPath id="satori_bc-id"><path x="0" y="0" width="860" height="150" d="M16,0 h828 a16,16 0 0 1 16,16 v118 a16,16 0 0 1 -16,16 h-828 a16,16 0 0 1 -16,-16 v-118 a16,16 0 0 1 16,-16"/></clipPath></defs><clipPath id="satori_cp-id"><path x="0" y="0" width="860" height="150" d="M16,0 h828 a16,16 0 0 1 16,16 v118 a16,16 0 0 1 -16,16 h-828 a16,16 0 0 1 -16,-16 v-118 a16,16 0 0 1 16,-16"/></clipPath><mask id="satori_om-id"><rect x="1" y="1" width="858" height="148" fill="#fff"/><path width="860" height="150" fill="none" stroke="#000" stroke-width="2" d="M4.686,4.686 A16,16 0 0 1 16,0 h828 a16,16 0 0 1 16,16 v118 a16,16 0 0 1 -16,16 h-828 a16,16 0 0 1 -16,-16 v-118 A16,16 0 0 1 4.686,4.686"/></mask><path x="0" y="0" width="860" height="150" fill="#08080c" d="M16,0 h828 a16,16 0 0 1 16,16 v118 a16,16 0 0 1 -16,16 h-828 a16,16 0 0 1 -16,-16 v-118 a16,16 0 0 1 16,-16"/><path width="860" height="150" clip-path="url(#satori_bc-id)" fill="none" stroke="rgba(110,80,220,0.18)" stroke-width="2" d="M4.686,4.686 A16,16 0 0 1 16,0 h828 a16,16 0 0 1 16,16 v118 a16,16 0 0 1 -16,16 h-828 a16,16 0 0 1 -16,-16 v-118 A16,16 0 0 1 4.686,4.686"/><clipPath id="satori_cp-id-0" clip-path="url(#satori_cp-id)"><rect x="1" y="1" width="860" height="150"/></clipPath><mask id="satori_om-id-0"><rect x="1" y="1" width="860" height="150" fill="#fff" mask="url(#satori_om-id)"/></mask><svg x="1" y="1" width="860" height="150" preserveAspectRatio="none" clip-path="url(#satori_cp-id-0)" mask="url(#satori_om-id-0)"><defs><radialGradient id="g1" cx="50%" cy="50%" r="50%"><stop offset="0%" stop-color="rgba(110,20,210,0.65)"></stop><stop offset="45%" stop-color="rgba(80,15,170,0.28)"></stop><stop offset="70%" stop-color="rgba(80,15,170,0)"></stop></radialGradient><radialGradient id="g2" cx="50%" cy="50%" r="50%"><stop offset="0%" stop-color="rgba(40,70,255,0.55)"></stop><stop offset="45%" stop-color="rgba(20,50,200,0.22)"></stop><stop offset="70%" stop-color="rgba(20,50,200,0)"></stop></radialGradient><radialGradient id="g3" cx="50%" cy="50%" r="50%"><stop offset="0%" stop-color="rgba(0,140,255,0.42)"></stop><stop offset="70%" stop-color="rgba(0,140,255,0)"></stop></radialGradient><radialGradient id="g4" cx="50%" cy="50%" r="50%"><stop offset="0%" stop-color="rgba(0,195,235,0.30)"></stop><stop offset="70%" stop-color="rgba(0,195,235,0)"></stop></radialGradient><radialGradient id="g5" cx="50%" cy="50%" r="50%"><stop offset="0%" stop-color="rgba(100,30,210,0.40)"></stop><stop offset="70%" stop-color="rgba(100,30,210,0)"></stop></radialGradient></defs><ellipse id="glow-1" cx="730" cy="155" rx="180" ry="130" fill="url(#g1)"></ellipse><ellipse id="glow-2" cx="580" cy="148" rx="170" ry="125" fill="url(#g2)"></ellipse><ellipse id="glow-3" cx="430" cy="142" rx="160" ry="120" fill="url(#g3)"></ellipse><ellipse id="glow-4" cx="280" cy="148" rx="150" ry="115" fill="url(#g4)"></ellipse><ellipse id="glow-5" cx="130" cy="155" rx="130" ry="105" fill="url(#g5)"></ellipse><style>

          @keyframes float-slow {
            0%, 100% { transform: translateX(0px); opacity: 0.8; }
            50% { transform: translateX(350px); opacity: 1.2; }
          }
          @keyframes float-medium {
            0%, 100% { transform: translateX(0px); opacity: 0.7; }
            50% { transform: translateX(-250px); opacity: 1.1; }
          }
          @keyframes float-fast {
            0%, 100% { transform: translateX(0px); opacity: 0.9; }
            50% { transform: translateX(200px); opacity: 0.6; }
          }
          @keyframes float-diagonal {
            0%, 100% { transform: translate(0px, 0px); opacity: 0.75; }
            50% { transform: translate(120px, 30px); opacity: 1.0; }
          }
          @keyframes float-wave {
            0%, 100% { transform: translateX(0px); opacity: 0.65; }
            33% { transform: translateX(-160px); opacity: 0.9; }
            66% { transform: translateX(80px); opacity: 1.0; }
          }
          @keyframes float-pulse {
            0%, 100% { transform: scale(1); opacity: 0.8; }
            50% { transform: scale(1.3); opacity: 0.4; }
          }
          #glow-1 { animation: float-slow 8s ease-in-out infinite; }
          #glow-2 { animation: float-medium 12s ease-in-out infinite; }
          #glow-3 { animation: float-fast 9s ease-in-out infinite; }
          #glow-4 { animation: float-diagonal 10s ease-in-out infinite; }
          #glow-5 { animation: float-wave 14s ease-in-out infinite; }
        
</style>
</svg><mask id="satori_om-id-0-0"><rect x="1" y="1" width="0" height="150" fill="#fff" mask="url(#satori_om-id)"/></mask><mask id="satori_om-id-0-0-0"><rect x="1" y="1" width="0" height="150" fill="#fff" mask="url(#satori_om-id)"/></mask><mask id="satori_om-id-0-0-0-0"><rect x="1" y="1" width="0" height="150" fill="#fff" mask="url(#satori_om-id)"/></mask><mask id="satori_om-id-0-0-0-1"><rect x="1" y="1" width="0" height="150" fill="#fff" mask="url(#satori_om-id)"/></mask><mask id="satori_om-id-0-0-0-2"><rect x="1" y="1" width="0" height="150" fill="#fff" mask="url(#satori_om-id)"/></mask><mask id="satori_om-id-0-0-1"><rect x="1" y="1" width="0" height="150" fill="#fff" mask="url(#satori_om-id)"/></mask><mask id="satori_om-id-0-0-1-0"><rect x="1" y="1" width="0" height="150" fill="#fff" mask="url(#satori_om-id)"/></mask><mask id="satori_om-id-0-0-1-1"><rect x="1" y="1" width="0" height="150" fill="#fff" mask="url(#satori_om-id)"/></mask><mask id="satori_om-id-0-0-1-2"><rect x="1" y="1" width="0" height="150" fill="#fff" mask="url(#satori_om-id)"/></mask><mask id="satori_om-id-0-0-2"><rect x="1" y="1" width="0" height="150" fill="#fff" mask="url(#satori_om-id)"/></mask><mask id="satori_om-id-0-0-2-0"><rect x="1" y="1" width="0" height="150" fill="#fff" mask="url(#satori_om-id)"/></mask><mask id="satori_om-id-0-0-2-1"><rect x="1" y="1" width="0" height="150" fill="#fff" mask="url(#satori_om-id)"/></mask><mask id="satori_om-id-0-0-3"><rect x="1" y="1" width="0" height="150" fill="#fff" mask="url(#satori_om-id)"/></mask><mask id="satori_om-id-0-0-3-0"><rect x="1" y="1" width="0" height="150" fill="#fff" mask="url(#satori_om-id)"/></mask><mask id="satori_om-id-0-0-3-1"><rect x="1" y="1" width="0" height="150" fill="#fff" mask="url(#satori_om-id)"/></mask><mask id="satori_om-id-0-0-4"><rect x="1" y="1" width="0" height="150" fill="#fff" mask="url(#satori_om-id)"/></mask><mask id="satori_om-id-0-0-4-0"><rect x="1" y="1" width="0" height="150" fill="#fff" mask="url(#satori_om-id)"/></mask><mask id="satori_om-id-0-0-4-1"><rect x="1" y="1" width="0" height="150" fill="#fff" mask="url(#satori_om-id)"/></mask><mask id="satori_om-id-0-1"><rect x="1" y="1" width="0" height="150" fill="#fff" mask="url(#satori_om-id)"/></mask><mask id="satori_om-id-0-2"><rect x="1" y="1" width="0" height="150" fill="#fff" mask="url(#satori_om-id)"/></mask><mask id="satori_om-id-0-3"><rect x="1" y="1" width="0" height="150" fill="#fff" mask="url(#satori_om-id)"/></mask><mask id="satori_om-id-0-4"><rect x="1" y="1" width="0" height="150" fill="#fff" mask="url(#satori_om-id)"/></mask><mask id="satori_om-id-0-5"><rect x="1" y="1" width="0" height="150" fill="#fff" mask="url(#satori_om-id)"/></mask><defs><clipPath id="satori_bc-id-1" clip-path="url(#satori_cp-id)"><rect x="1" y="45" width="149" height="61"/></clipPath></defs><mask id="satori_om-id-1"><rect x="1" y="45" width="148" height="61" fill="#fff" mask="url(#satori_om-id)"/><path width="149" height="61" fill="none" stroke="#000" stroke-width="2" d="M150,45 A0,0 0 0 1 150,45 v61 A0,0 0 0 1 150,106"/></mask><path width="149" height="61" clip-path="url(#satori_bc-id-1)" fill="none" stroke="rgba(255,255,255,0.06)" stroke-width="2" d="M150,45 A0,0 0 0 1 150,45 v61 A0,0 0 0 1 150,106"/><mask id="satori_om-id-1-0"><rect x="61" y="57" width="28" height="22" fill="#fff" mask="url(#satori_om-id)"/></mask><g mask="url(#satori_om-id)" clip-path="url(#satori_cp-id)"><path fill="#a78bfa" d="M73.7 76L62.3 76L62.3 73.6L68.0 68.3Q68.7 67.6 69.2 67.0Q69.7 66.5 70.0 65.9Q70.3 65.4 70.3 64.7L70.3 64.7Q70.3 64.0 69.9 63.5Q69.6 63.0 69.1 62.7Q68.5 62.4 67.8 62.4L67.8 62.4Q67.0 62.4 66.5 62.7Q65.9 63.0 65.6 63.6Q65.3 64.1 65.3 64.9L65.3 64.9L62.2 64.9Q62.2 63.3 62.9 62.2Q63.6 61.0 64.9 60.4Q66.1 59.8 67.8 59.8L67.8 59.8Q69.5 59.8 70.8 60.4Q72.0 61.0 72.7 62.1Q73.4 63.1 73.4 64.5L73.4 64.5Q73.4 65.4 73.1 66.3Q72.7 67.1 71.8 68.2Q70.9 69.3 69.3 70.8L69.3 70.8L66.9 73.2L66.9 73.3L73.7 73.3L73.7 76ZM87.5 76L76.2 76L76.2 73.6L81.9 68.3Q82.6 67.6 83.1 67.0Q83.6 66.5 83.9 65.9Q84.1 65.4 84.1 64.7L84.1 64.7Q84.1 64.0 83.8 63.5Q83.5 63.0 82.9 62.7Q82.4 62.4 81.6 62.4L81.6 62.4Q80.9 62.4 80.3 62.7Q79.8 63.0 79.5 63.6Q79.2 64.1 79.2 64.9L79.2 64.9L76.0 64.9Q76.0 63.3 76.8 62.2Q77.5 61.0 78.7 60.4Q80.0 59.8 81.7 59.8L81.7 59.8Q83.4 59.8 84.6 60.4Q85.9 61.0 86.6 62.1Q87.3 63.1 87.3 64.5L87.3 64.5Q87.3 65.4 86.9 66.3Q86.6 67.1 85.7 68.2Q84.8 69.3 83.2 70.8L83.2 70.8L80.7 73.2L80.7 73.3L87.5 73.3L87.5 76Z "/></g><mask id="satori_om-id-1-1"><rect x="58" y="83" width="35" height="11" fill="#fff" mask="url(#satori_om-id)"/></mask><g mask="url(#satori_om-id)" clip-path="url(#satori_cp-id)"><path fill="rgba(200,195,225,0.45)" d="M59.9 92L58.6 92L58.6 85.5L61.1 85.5Q61.9 85.5 62.4 85.7Q62.9 86.0 63.2 86.5Q63.5 86.9 63.5 87.6Q63.5 88.2 63.2 88.7Q62.9 89.2 62.4 89.4L62.4 89.4Q62.4 89.4 62.3 89.4L62.3 89.4L63.7 92L62.2 92L61.0 89.7L59.9 89.7L59.9 92ZM59.9 86.6L59.9 88.6L60.9 88.6Q61.3 88.6 61.6 88.5Q61.8 88.4 62.0 88.1Q62.1 87.9 62.1 87.6L62.1 87.6Q62.1 87.2 62.0 87.0Q61.8 86.8 61.6 86.7Q61.3 86.6 60.9 86.6L60.9 86.6L59.9 86.6ZM69.7 92L65.3 92L65.3 85.5L69.7 85.5L69.7 86.6L66.6 86.6L66.6 88.1L69.5 88.1L69.5 89.2L66.6 89.2L66.6 90.9L69.7 90.9L69.7 92ZM72.9 92L71.6 92L71.6 85.5L74.1 85.5Q74.9 85.5 75.4 85.7Q75.9 86.0 76.2 86.5Q76.5 87.0 76.5 87.7L76.5 87.7Q76.5 88.3 76.2 88.8Q75.9 89.3 75.4 89.6Q74.8 89.9 74.1 89.9L74.1 89.9L72.9 89.9L72.9 92ZM72.9 86.6L72.9 88.8L73.9 88.8Q74.3 88.8 74.6 88.6Q74.8 88.5 75.0 88.2Q75.1 88.0 75.1 87.7Q75.1 87.3 75.0 87.1Q74.8 86.8 74.6 86.7Q74.3 86.6 73.9 86.6L73.9 86.6L72.9 86.6ZM81.1 92.1L81.1 92.1Q80.2 92.1 79.5 91.7Q78.8 91.3 78.4 90.5Q78.0 89.8 78.0 88.7L78.0 88.7Q78.0 87.7 78.4 86.9Q78.8 86.2 79.5 85.8Q80.2 85.4 81.1 85.4L81.1 85.4Q81.9 85.4 82.6 85.8Q83.3 86.2 83.7 86.9Q84.1 87.7 84.1 88.7L84.1 88.7Q84.1 89.8 83.7 90.5Q83.3 91.3 82.6 91.7Q81.9 92.1 81.1 92.1ZM81.1 90.9L81.1 90.9Q81.6 90.9 82.0 90.6Q82.3 90.4 82.6 89.9Q82.8 89.4 82.8 88.7L82.8 88.7Q82.8 88.0 82.6 87.5Q82.3 87.1 82.0 86.8Q81.6 86.6 81.1 86.6L81.1 86.6Q80.6 86.6 80.2 86.8Q79.8 87.1 79.6 87.5Q79.4 88.0 79.4 88.7L79.4 88.7Q79.4 89.4 79.6 89.9Q79.8 90.4 80.2 90.6Q80.6 90.9 81.1 90.9ZM88.3 92.1L88.3 92.1Q87.5 92.1 87.0 91.9Q86.4 91.6 86.1 91.1Q85.7 90.7 85.7 90.0L85.7 90.0L87.0 90.0Q87.0 90.3 87.2 90.5Q87.4 90.7 87.7 90.9Q88.0 91.0 88.3 91.0L88.3 91.0Q88.7 91.0 88.9 90.9Q89.2 90.8 89.4 90.6Q89.5 90.4 89.5 90.1L89.5 90.1Q89.5 89.9 89.4 89.8Q89.2 89.6 89.0 89.5Q88.7 89.4 88.4 89.3L88.4 89.3L87.7 89.1Q86.8 88.9 86.4 88.5Q85.9 88.0 85.9 87.3L85.9 87.3Q85.9 86.7 86.2 86.3Q86.5 85.9 87.1 85.6Q87.6 85.4 88.4 85.4L88.4 85.4Q89.1 85.4 89.6 85.6Q90.2 85.9 90.5 86.3Q90.8 86.7 90.8 87.3L90.8 87.3L89.5 87.3Q89.4 86.9 89.1 86.7Q88.8 86.5 88.3 86.5L88.3 86.5Q88.0 86.5 87.8 86.6Q87.5 86.7 87.4 86.9Q87.3 87.0 87.3 87.2L87.3 87.2Q87.3 87.5 87.4 87.7Q87.6 87.8 87.8 87.9Q88.0 88.0 88.3 88.1L88.3 88.1L88.9 88.2Q89.3 88.3 89.7 88.5Q90.0 88.6 90.3 88.9Q90.6 89.1 90.7 89.4Q90.9 89.7 90.9 90.1L90.9 90.1Q90.9 90.7 90.6 91.2Q90.3 91.6 89.7 91.9Q89.1 92.1 88.3 92.1Z "/></g><defs><clipPath id="satori_bc-id-2" clip-path="url(#satori_cp-id)"><rect x="150" y="45" width="149" height="61"/></clipPath></defs><mask id="satori_om-id-2"><rect x="150" y="45" width="148" height="61" fill="#fff" mask="url(#satori_om-id)"/><path width="149" height="61" fill="none" stroke="#000" stroke-width="2" d="M299,45 A0,0 0 0 1 299,45 v61 A0,0 0 0 1 299,106"/></mask><path width="149" height="61" clip-path="url(#satori_bc-id-2)" fill="none" stroke="rgba(255,255,255,0.06)" stroke-width="2" d="M299,45 A0,0 0 0 1 299,45 v61 A0,0 0 0 1 299,106"/><mask id="satori_om-id-2-0"><rect x="217" y="57" width="15" height="22" fill="#fff" mask="url(#satori_om-id)"/></mask><g mask="url(#satori_om-id)" clip-path="url(#satori_cp-id)"><path fill="#60a5fa" d="M224.2 76.2L224.2 76.2Q222.4 76.2 221.0 75.6Q219.6 75.0 218.8 74.0Q218.0 73.0 218.0 71.7L218.0 71.7Q218.0 70.7 218.5 69.9Q218.9 69.0 219.7 68.5Q220.5 67.9 221.5 67.7L221.5 67.7L221.5 67.6Q220.2 67.4 219.4 66.4Q218.6 65.4 218.6 64.1L218.6 64.1Q218.6 62.8 219.3 61.9Q220.0 60.9 221.3 60.3Q222.5 59.8 224.2 59.8L224.2 59.8Q225.8 59.8 227.0 60.3Q228.3 60.9 229.0 61.9Q229.7 62.8 229.7 64.1L229.7 64.1Q229.7 65.4 228.9 66.4Q228.1 67.4 226.9 67.6L226.9 67.6L226.9 67.7Q227.8 67.9 228.6 68.5Q229.4 69.0 229.9 69.9Q230.3 70.7 230.3 71.7L230.3 71.7Q230.3 73.0 229.5 74.0Q228.7 75.0 227.3 75.6Q225.9 76.2 224.2 76.2ZM224.2 73.8L224.2 73.8Q225.0 73.8 225.6 73.5Q226.2 73.2 226.5 72.7Q226.9 72.1 226.9 71.4L226.9 71.4Q226.9 70.7 226.5 70.2Q226.2 69.7 225.6 69.3Q224.9 69.0 224.2 69.0L224.2 69.0Q223.4 69.0 222.7 69.3Q222.1 69.6 221.8 70.2Q221.4 70.7 221.4 71.4L221.4 71.4Q221.4 72.1 221.8 72.7Q222.1 73.2 222.7 73.5Q223.3 73.8 224.2 73.8ZM224.2 66.6L224.2 66.6Q224.8 66.6 225.4 66.3Q225.9 66.1 226.2 65.6Q226.5 65.1 226.5 64.4L226.5 64.4Q226.5 63.8 226.2 63.3Q225.9 62.8 225.4 62.6Q224.9 62.3 224.2 62.3L224.2 62.3Q223.5 62.3 222.9 62.6Q222.4 62.8 222.1 63.3Q221.8 63.8 221.8 64.4L221.8 64.4Q221.8 65.1 222.1 65.6Q222.4 66.1 222.9 66.3Q223.5 66.6 224.2 66.6Z "/></g><mask id="satori_om-id-2-1"><rect x="207" y="83" width="35" height="11" fill="#fff" mask="url(#satori_om-id)"/></mask><g mask="url(#satori_om-id)" clip-path="url(#satori_cp-id)"><path fill="rgba(200,195,225,0.45)" d="M210.0 92.1L210.0 92.1Q209.2 92.1 208.6 91.9Q208.0 91.6 207.7 91.1Q207.4 90.7 207.4 90.0L207.4 90.0L208.7 90.0Q208.7 90.3 208.9 90.5Q209.0 90.7 209.3 90.9Q209.6 91.0 210.0 91.0L210.0 91.0Q210.3 91.0 210.6 90.9Q210.9 90.8 211.0 90.6Q211.2 90.4 211.2 90.1L211.2 90.1Q211.2 89.9 211.0 89.8Q210.9 89.6 210.7 89.5Q210.4 89.4 210.0 89.3L210.0 89.3L209.3 89.1Q208.5 88.9 208.0 88.5Q207.5 88.0 207.5 87.3L207.5 87.3Q207.5 86.7 207.9 86.3Q208.2 85.9 208.7 85.6Q209.3 85.4 210.0 85.4L210.0 85.4Q210.7 85.4 211.3 85.6Q211.8 85.9 212.1 86.3Q212.4 86.7 212.4 87.3L212.4 87.3L211.1 87.3Q211.1 86.9 210.8 86.7Q210.5 86.5 210.0 86.5L210.0 86.5Q209.7 86.5 209.4 86.6Q209.2 86.7 209.1 86.9Q208.9 87.0 208.9 87.2L208.9 87.2Q208.9 87.5 209.1 87.7Q209.2 87.8 209.5 87.9Q209.7 88.0 210.0 88.1L210.0 88.1L210.6 88.2Q211.0 88.3 211.3 88.5Q211.7 88.6 212.0 88.9Q212.2 89.1 212.4 89.4Q212.5 89.7 212.5 90.1L212.5 90.1Q212.5 90.7 212.2 91.2Q211.9 91.6 211.4 91.9Q210.8 92.1 210.0 92.1ZM216.0 86.6L214.0 86.6L214.0 85.5L219.4 85.5L219.4 86.6L217.4 86.6L217.4 92L216.0 92L216.0 86.6ZM222.2 92L220.7 92L223.0 85.5L224.7 85.5L227.0 92L225.5 92L225.0 90.5L222.7 90.5L222.2 92ZM223.0 89.4L224.7 89.4L224.5 88.8Q224.3 88.2 224.1 87.5L224.1 87.5Q224.0 87.0 223.8 86.5L223.8 86.5Q223.7 87.0 223.6 87.5L223.6 87.5Q223.4 88.2 223.2 88.8L223.2 88.8L223.0 89.4ZM230.0 92L228.6 92L228.6 85.5L231.2 85.5Q231.9 85.5 232.4 85.7Q233.0 86.0 233.2 86.5Q233.5 86.9 233.5 87.6Q233.5 88.2 233.2 88.7Q233.0 89.2 232.4 89.4L232.4 89.4Q232.4 89.4 232.3 89.4L232.3 89.4L233.7 92L232.3 92L231.0 89.7L230.0 89.7L230.0 92ZM230.0 86.6L230.0 88.6L230.9 88.6Q231.3 88.6 231.6 88.5Q231.9 88.4 232.0 88.1Q232.1 87.9 232.1 87.6L232.1 87.6Q232.1 87.2 232.0 87.0Q231.9 86.8 231.6 86.7Q231.3 86.6 230.9 86.6L230.9 86.6L230.0 86.6ZM237.7 92.1L237.7 92.1Q236.9 92.1 236.4 91.9Q235.8 91.6 235.4 91.1Q235.1 90.7 235.1 90.0L235.1 90.0L236.4 90.0Q236.4 90.3 236.6 90.5Q236.8 90.7 237.1 90.9Q237.3 91.0 237.7 91.0L237.7 91.0Q238.1 91.0 238.3 90.9Q238.6 90.8 238.8 90.6Q238.9 90.4 238.9 90.1L238.9 90.1Q238.9 89.9 238.8 89.8Q238.6 89.6 238.4 89.5Q238.1 89.4 237.8 89.3L237.8 89.3L237.1 89.1Q236.2 88.9 235.7 88.5Q235.3 88.0 235.3 87.3L235.3 87.3Q235.3 86.7 235.6 86.3Q235.9 85.9 236.5 85.6Q237.0 85.4 237.7 85.4L237.7 85.4Q238.5 85.4 239.0 85.6Q239.5 85.9 239.8 86.3Q240.2 86.7 240.2 87.3L240.2 87.3L238.9 87.3Q238.8 86.9 238.5 86.7Q238.2 86.5 237.7 86.5L237.7 86.5Q237.4 86.5 237.1 86.6Q236.9 86.7 236.8 86.9Q236.7 87.0 236.7 87.2L236.7 87.2Q236.7 87.5 236.8 87.7Q236.9 87.8 237.2 87.9Q237.4 88.0 237.7 88.1L237.7 88.1L238.3 88.2Q238.7 88.3 239.1 88.5Q239.4 88.6 239.7 88.9Q240.0 89.1 240.1 89.4Q240.2 89.7 240.2 90.1L240.2 90.1Q240.2 90.7 240.0 91.2Q239.7 91.6 239.1 91.9Q238.5 92.1 237.7 92.1Z "/></g><defs><clipPath id="satori_bc-id-3" clip-path="url(#satori_cp-id)"><rect x="299" y="45" width="166" height="61"/></clipPath></defs><mask id="satori_om-id-3"><rect x="299" y="45" width="165" height="61" fill="#fff" mask="url(#satori_om-id)"/><path width="166" height="61" fill="none" stroke="#000" stroke-width="2" d="M465,45 A0,0 0 0 1 465,45 v61 A0,0 0 0 1 465,106"/></mask><path width="166" height="61" clip-path="url(#satori_bc-id-3)" fill="none" stroke="rgba(255,255,255,0.06)" stroke-width="2" d="M465,45 A0,0 0 0 1 465,45 v61 A0,0 0 0 1 465,106"/><mask id="satori_om-id-3-0"><rect x="360" y="57" width="42" height="22" fill="#fff" mask="url(#satori_om-id)"/></mask><g mask="url(#satori_om-id)" clip-path="url(#satori_cp-id)"><path fill="#f59e0b" d="M366.7 76.2L366.7 76.2Q365.1 76.2 363.8 75.6Q362.5 75.0 361.8 73.9Q361.0 72.9 361.0 71.5L361.0 71.5L364.2 71.5Q364.2 72.1 364.6 72.6Q364.9 73.1 365.5 73.4Q366.1 73.6 366.7 73.6L366.7 73.6Q367.6 73.6 368.2 73.3Q368.8 72.9 369.1 72.3Q369.5 71.6 369.5 70.8L369.5 70.8Q369.5 69.9 369.1 69.2Q368.8 68.6 368.1 68.2Q367.5 67.9 366.7 67.9L366.7 67.9Q366.0 67.9 365.3 68.1Q364.7 68.4 364.3 68.9L364.3 68.9L361.3 68.4L362.1 60.0L371.8 60.0L371.8 62.7L364.8 62.7L364.4 66.8L364.5 66.8Q364.9 66.2 365.8 65.8Q366.6 65.4 367.6 65.4L367.6 65.4Q368.7 65.4 369.7 65.8Q370.6 66.2 371.2 66.9Q371.9 67.6 372.3 68.6Q372.7 69.5 372.7 70.7L372.7 70.7Q372.7 72.3 371.9 73.5Q371.2 74.8 369.8 75.5Q368.5 76.2 366.7 76.2ZM382.4 73.2L374.8 73.2L374.8 70.6L381.5 60.0L385.6 60.0L385.6 70.5L387.6 70.5L387.6 73.2L385.6 73.2L385.6 76L382.4 76L382.4 73.2ZM378.1 70.5L382.5 70.5L382.5 63.6L382.4 63.6L378.1 70.4L378.1 70.5ZM393.9 76L390.5 76L397.1 62.8L397.1 62.7L389.4 62.7L389.4 60.0L400.6 60.0L400.6 62.7L393.9 76Z "/></g><mask id="satori_om-id-3-1"><rect x="356" y="83" width="51" height="11" fill="#fff" mask="url(#satori_om-id)"/></mask><g mask="url(#satori_om-id)" clip-path="url(#satori_cp-id)"><path fill="rgba(200,195,225,0.45)" d="M359.5 92.1L359.5 92.1Q358.6 92.1 357.9 91.7Q357.2 91.3 356.8 90.5Q356.4 89.8 356.4 88.7L356.4 88.7Q356.4 87.7 356.8 86.9Q357.2 86.2 357.9 85.8Q358.6 85.4 359.5 85.4L359.5 85.4Q360.0 85.4 360.5 85.5Q361.0 85.7 361.3 86.0Q361.7 86.3 362.0 86.7Q362.2 87.1 362.3 87.7L362.3 87.7L360.9 87.7Q360.9 87.4 360.7 87.2Q360.6 87.0 360.4 86.9Q360.2 86.7 360.0 86.6Q359.8 86.6 359.5 86.6L359.5 86.6Q359.0 86.6 358.6 86.8Q358.2 87.1 358.0 87.6Q357.8 88.0 357.8 88.7L357.8 88.7Q357.8 89.4 358.0 89.9Q358.2 90.4 358.6 90.7Q359.0 90.9 359.5 90.9L359.5 90.9Q359.8 90.9 360.0 90.8Q360.2 90.7 360.4 90.6Q360.6 90.4 360.7 90.2Q360.9 90.0 360.9 89.8L360.9 89.8L362.3 89.8Q362.2 90.2 362.0 90.6Q361.8 91.1 361.4 91.4Q361.1 91.7 360.6 91.9Q360.1 92.1 359.5 92.1ZM366.9 92.1L366.9 92.1Q366.1 92.1 365.4 91.7Q364.7 91.3 364.3 90.5Q363.9 89.8 363.9 88.7L363.9 88.7Q363.9 87.7 364.3 86.9Q364.7 86.2 365.4 85.8Q366.1 85.4 366.9 85.4L366.9 85.4Q367.8 85.4 368.5 85.8Q369.2 86.2 369.6 86.9Q370.0 87.7 370.0 88.7L370.0 88.7Q370.0 89.8 369.6 90.5Q369.2 91.3 368.5 91.7Q367.8 92.1 366.9 92.1ZM366.9 90.9L366.9 90.9Q367.4 90.9 367.8 90.6Q368.2 90.4 368.4 89.9Q368.6 89.4 368.6 88.7L368.6 88.7Q368.6 88.0 368.4 87.5Q368.2 87.1 367.8 86.8Q367.4 86.6 366.9 86.6L366.9 86.6Q366.4 86.6 366.0 86.8Q365.7 87.1 365.4 87.5Q365.2 88.0 365.2 88.7L365.2 88.7Q365.2 89.4 365.4 89.9Q365.7 90.4 366.0 90.6Q366.4 90.9 366.9 90.9ZM373.1 92L371.8 92L371.8 85.5L373.8 85.5L374.9 88.5Q375.0 88.7 375.1 89.0Q375.1 89.3 375.2 89.7L375.2 89.7Q375.3 90.1 375.4 90.5L375.4 90.5Q375.5 90.1 375.6 89.7L375.6 89.7Q375.6 89.3 375.7 89.0Q375.8 88.7 375.9 88.5L375.9 88.5L376.9 85.5L379.0 85.5L379.0 92L377.6 92L377.6 88.9Q377.6 88.7 377.6 88.4Q377.7 88.1 377.7 87.7Q377.7 87.3 377.7 86.9L377.7 86.9Q377.7 86.8 377.7 86.6L377.7 86.6Q377.6 86.8 377.6 87.0L377.6 87.0Q377.5 87.4 377.4 87.7Q377.3 88.1 377.2 88.4Q377.1 88.7 377.0 88.9L377.0 88.9L376.0 92L374.8 92L373.7 88.9Q373.7 88.7 373.6 88.4Q373.5 88.1 373.4 87.7Q373.3 87.4 373.2 87.0L373.2 87.0Q373.1 86.8 373.1 86.7L373.1 86.7Q373.1 86.8 373.1 86.9L373.1 86.9Q373.1 87.3 373.1 87.7Q373.1 88.0 373.1 88.4Q373.1 88.7 373.1 88.9L373.1 88.9L373.1 92ZM382.3 92L381.0 92L381.0 85.5L383.0 85.5L384.1 88.5Q384.2 88.7 384.2 89.0Q384.3 89.3 384.4 89.7L384.4 89.7Q384.5 90.1 384.6 90.5L384.6 90.5Q384.7 90.1 384.7 89.7L384.7 89.7Q384.8 89.3 384.9 89.0Q385.0 88.7 385.1 88.5L385.1 88.5L386.1 85.5L388.2 85.5L388.2 92L386.8 92L386.8 88.9Q386.8 88.7 386.8 88.4Q386.8 88.1 386.8 87.7Q386.9 87.3 386.9 86.9L386.9 86.9Q386.9 86.8 386.9 86.6L386.9 86.6Q386.8 86.8 386.8 87.0L386.8 87.0Q386.7 87.4 386.6 87.7Q386.5 88.1 386.4 88.4Q386.3 88.7 386.2 88.9L386.2 88.9L385.1 92L384.0 92L382.9 88.9Q382.8 88.7 382.7 88.4Q382.7 88.1 382.6 87.7Q382.4 87.4 382.3 87.0L382.3 87.0Q382.3 86.8 382.3 86.7L382.3 86.7Q382.3 86.8 382.3 86.9L382.3 86.9Q382.3 87.3 382.3 87.7Q382.3 88.0 382.3 88.4Q382.3 88.7 382.3 88.9L382.3 88.9L382.3 92ZM390.2 85.5L391.5 85.5L391.5 92L390.2 92L390.2 85.5ZM395.2 86.6L393.2 86.6L393.2 85.5L398.6 85.5L398.6 86.6L396.6 86.6L396.6 92L395.2 92L395.2 86.6ZM402.7 92.1L402.7 92.1Q401.9 92.1 401.3 91.9Q400.7 91.6 400.4 91.1Q400.1 90.7 400.1 90.0L400.1 90.0L401.4 90.0Q401.4 90.3 401.6 90.5Q401.7 90.7 402.0 90.9Q402.3 91.0 402.7 91.0L402.7 91.0Q403.0 91.0 403.3 90.9Q403.6 90.8 403.7 90.6Q403.9 90.4 403.9 90.1L403.9 90.1Q403.9 89.9 403.7 89.8Q403.6 89.6 403.3 89.5Q403.1 89.4 402.7 89.3L402.7 89.3L402.0 89.1Q401.2 88.9 400.7 88.5Q400.2 88.0 400.2 87.3L400.2 87.3Q400.2 86.7 400.6 86.3Q400.9 85.9 401.4 85.6Q402.0 85.4 402.7 85.4L402.7 85.4Q403.4 85.4 404.0 85.6Q404.5 85.9 404.8 86.3Q405.1 86.7 405.1 87.3L405.1 87.3L403.8 87.3Q403.8 86.9 403.5 86.7Q403.2 86.5 402.7 86.5L402.7 86.5Q402.4 86.5 402.1 86.6Q401.9 86.7 401.7 86.9Q401.6 87.0 401.6 87.2L401.6 87.2Q401.6 87.5 401.8 87.7Q401.9 87.8 402.2 87.9Q402.4 88.0 402.7 88.1L402.7 88.1L403.3 88.2Q403.7 88.3 404.0 88.5Q404.4 88.6 404.7 88.9Q404.9 89.1 405.1 89.4Q405.2 89.7 405.2 90.1L405.2 90.1Q405.2 90.7 404.9 91.2Q404.6 91.6 404.1 91.9Q403.5 92.1 402.7 92.1Z "/></g><defs><clipPath id="satori_bc-id-4" clip-path="url(#satori_cp-id)"><rect x="465" y="45" width="202" height="61"/></clipPath></defs><mask id="satori_om-id-4"><rect x="465" y="45" width="201" height="61" fill="#fff" mask="url(#satori_om-id)"/><path width="202" height="61" fill="none" stroke="#000" stroke-width="2" d="M667,45 A0,0 0 0 1 667,45 v61 A0,0 0 0 1 667,106"/></mask><path width="202" height="61" clip-path="url(#satori_bc-id-4)" fill="none" stroke="rgba(255,255,255,0.06)" stroke-width="2" d="M667,45 A0,0 0 0 1 667,45 v61 A0,0 0 0 1 667,106"/><mask id="satori_om-id-4-0"><rect x="522" y="57" width="88" height="22" fill="#fff" mask="url(#satori_om-id)"/></mask><g mask="url(#satori_om-id)" clip-path="url(#satori_cp-id)"><path fill="#4ade80" d="M529.1 76.2L529.1 76.2Q527.3 76.2 526.0 75.6Q524.6 75.0 523.9 74.0Q523.1 72.9 523.1 71.5L523.1 71.5L526.4 71.5Q526.4 72.1 526.8 72.6Q527.1 73.0 527.7 73.3Q528.3 73.5 529.1 73.5L529.1 73.5Q529.9 73.5 530.5 73.2Q531.1 72.9 531.4 72.5Q531.8 72.0 531.8 71.3L531.8 71.3Q531.8 70.6 531.4 70.1Q531.1 69.6 530.4 69.3Q529.7 69.1 528.8 69.1L528.8 69.1L527.3 69.1L527.3 66.6L528.8 66.6Q529.6 66.6 530.2 66.3Q530.8 66.1 531.1 65.6Q531.4 65.1 531.4 64.5L531.4 64.5Q531.4 63.9 531.1 63.4Q530.9 62.9 530.3 62.7Q529.8 62.4 529.1 62.4L529.1 62.4Q528.4 62.4 527.8 62.7Q527.3 62.9 526.9 63.4Q526.5 63.8 526.5 64.4L526.5 64.4L523.4 64.4Q523.4 63.1 524.2 62.0Q524.9 61.0 526.2 60.4Q527.5 59.8 529.1 59.8L529.1 59.8Q530.8 59.8 532.0 60.4Q533.2 61.0 533.9 62.0Q534.6 63.0 534.6 64.3L534.6 64.3Q534.6 65.6 533.8 66.5Q532.9 67.4 531.6 67.7L531.6 67.7L531.6 67.8Q532.8 67.9 533.6 68.4Q534.4 69.0 534.8 69.7Q535.2 70.5 535.2 71.5L535.2 71.5Q535.2 72.9 534.4 73.9Q533.6 75.0 532.2 75.6Q530.9 76.2 529.1 76.2ZM543.3 76.2L543.3 76.2Q541.5 76.2 540.2 75.6Q538.8 75.0 538.1 74.0Q537.3 72.9 537.3 71.5L537.3 71.5L540.6 71.5Q540.6 72.1 541.0 72.6Q541.3 73.0 541.9 73.3Q542.5 73.5 543.3 73.5L543.3 73.5Q544.1 73.5 544.7 73.2Q545.3 72.9 545.6 72.5Q546.0 72.0 546.0 71.3L546.0 71.3Q546.0 70.6 545.6 70.1Q545.3 69.6 544.6 69.3Q543.9 69.1 543.0 69.1L543.0 69.1L541.5 69.1L541.5 66.6L543.0 66.6Q543.8 66.6 544.4 66.3Q545.0 66.1 545.3 65.6Q545.6 65.1 545.6 64.5L545.6 64.5Q545.6 63.9 545.3 63.4Q545.1 62.9 544.5 62.7Q544.0 62.4 543.3 62.4L543.3 62.4Q542.6 62.4 542.0 62.7Q541.5 62.9 541.1 63.4Q540.7 63.8 540.7 64.4L540.7 64.4L537.6 64.4Q537.6 63.1 538.4 62.0Q539.1 61.0 540.4 60.4Q541.7 59.8 543.3 59.8L543.3 59.8Q545.0 59.8 546.2 60.4Q547.4 61.0 548.1 62.0Q548.8 63.0 548.8 64.3L548.8 64.3Q548.8 65.6 548.0 66.5Q547.1 67.4 545.8 67.7L545.8 67.7L545.8 67.8Q547.0 67.9 547.8 68.4Q548.6 69.0 549.0 69.7Q549.4 70.5 549.4 71.5L549.4 71.5Q549.4 72.9 548.6 73.9Q547.8 75.0 546.4 75.6Q545.1 76.2 543.3 76.2ZM557.8 76.2L557.8 76.2Q556.5 76.2 555.4 75.8Q554.3 75.4 553.4 74.5Q552.5 73.6 551.9 72.1Q551.4 70.6 551.4 68.4L551.4 68.4Q551.4 66.4 551.9 64.8Q552.3 63.2 553.2 62.1Q554.0 60.9 555.2 60.4Q556.4 59.8 557.9 59.8L557.9 59.8Q559.4 59.8 560.7 60.4Q561.9 61.0 562.6 62.1Q563.4 63.1 563.5 64.4L563.5 64.4L560.3 64.4Q560.1 63.6 559.5 63.1Q558.8 62.6 557.9 62.6L557.9 62.6Q556.8 62.6 556.1 63.2Q555.4 63.9 555 65.0Q554.6 66.1 554.6 67.7L554.6 67.7L554.7 67.7Q555.1 67.0 555.7 66.5Q556.3 66.0 557.1 65.7Q557.9 65.5 558.8 65.5L558.8 65.5Q560.2 65.5 561.3 66.1Q562.4 66.8 563.0 68.0Q563.7 69.1 563.7 70.7L563.7 70.7Q563.7 72.3 562.9 73.5Q562.2 74.8 560.9 75.5Q559.5 76.2 557.8 76.2ZM557.7 73.6L557.7 73.6Q558.5 73.6 559.1 73.2Q559.8 72.9 560.1 72.2Q560.5 71.6 560.5 70.7L560.5 70.7Q560.5 69.9 560.1 69.3Q559.8 68.6 559.2 68.3Q558.5 67.9 557.8 67.9L557.8 67.9Q557.2 67.9 556.7 68.1Q556.1 68.3 555.8 68.7Q555.4 69.1 555.2 69.6Q555.0 70.2 555.0 70.7L555.0 70.7Q555.0 71.5 555.3 72.2Q555.7 72.8 556.3 73.2Q556.9 73.6 557.7 73.6ZM567.5 80.2L565.3 80.2L566.3 73.6L569.5 73.6L567.5 80.2ZM573.9 60.0L577.4 60.0L577.4 76L574.2 76L574.2 62.9L574.1 62.9L570.4 65.5L570.4 62.5L573.9 60.0ZM585.6 76.2L585.6 76.2Q584.0 76.2 582.7 75.6Q581.4 75.0 580.7 73.9Q579.9 72.9 579.9 71.5L579.9 71.5L583.1 71.5Q583.1 72.1 583.5 72.6Q583.8 73.1 584.4 73.4Q584.9 73.6 585.6 73.6L585.6 73.6Q586.4 73.6 587.0 73.3Q587.7 72.9 588.0 72.3Q588.4 71.6 588.4 70.8L588.4 70.8Q588.4 69.9 588.0 69.2Q587.7 68.6 587.0 68.2Q586.4 67.9 585.6 67.9L585.6 67.9Q584.9 67.9 584.2 68.1Q583.5 68.4 583.2 68.9L583.2 68.9L580.2 68.4L581.0 60.0L590.7 60.0L590.7 62.7L583.7 62.7L583.3 66.8L583.4 66.8Q583.8 66.2 584.7 65.8Q585.5 65.4 586.5 65.4L586.5 65.4Q587.6 65.4 588.5 65.8Q589.5 66.2 590.1 66.9Q590.8 67.6 591.2 68.6Q591.6 69.5 591.6 70.7L591.6 70.7Q591.6 72.3 590.8 73.5Q590.1 74.8 588.7 75.5Q587.4 76.2 585.6 76.2ZM599.4 76.2L599.4 76.2Q597.8 76.2 596.6 75.6Q595.4 75.0 594.6 73.9Q593.9 72.9 593.7 71.5L593.7 71.5L597.0 71.5Q597.2 72.4 597.8 72.9Q598.4 73.4 599.4 73.4L599.4 73.4Q600.5 73.4 601.2 72.8Q601.9 72.2 602.3 71.0Q602.6 69.8 602.6 68.3L602.6 68.3L602.5 68.3Q602.2 69.0 601.6 69.5Q601.0 70.0 600.2 70.2Q599.4 70.5 598.5 70.5L598.5 70.5Q597.1 70.5 596.0 69.8Q594.9 69.2 594.2 68.0Q593.6 66.8 593.6 65.3L593.6 65.3Q593.6 63.7 594.3 62.4Q595.1 61.2 596.4 60.5Q597.8 59.7 599.5 59.8L599.5 59.8Q600.8 59.8 601.9 60.2Q603.0 60.6 603.9 61.5Q604.8 62.4 605.3 63.9Q605.9 65.4 605.9 67.6L605.9 67.6Q605.9 69.6 605.4 71.2Q604.9 72.8 604.1 73.9Q603.3 75.1 602.1 75.7Q600.9 76.2 599.4 76.2ZM599.5 68.1L599.5 68.1Q600.1 68.1 600.6 67.9Q601.1 67.6 601.5 67.3Q601.9 66.9 602.1 66.3Q602.3 65.8 602.3 65.2L602.3 65.2Q602.3 64.5 601.9 63.8Q601.6 63.2 601.0 62.8Q600.3 62.4 599.5 62.4L599.5 62.4Q598.8 62.4 598.1 62.8Q597.5 63.1 597.1 63.8Q596.8 64.4 596.8 65.2L596.8 65.2Q596.8 66.1 597.1 66.7Q597.5 67.3 598.1 67.7Q598.7 68.1 599.5 68.1Z "/></g><mask id="satori_om-id-4-1"><rect x="546" y="83" width="40" height="11" fill="#fff" mask="url(#satori_om-id)"/></mask><g mask="url(#satori_om-id)" clip-path="url(#satori_cp-id)"><path fill="rgba(200,195,225,0.45)" d="M550.8 92L546.6 92L546.6 85.5L547.9 85.5L547.9 90.9L550.8 90.9L550.8 92ZM552.5 85.5L553.8 85.5L553.8 92L552.5 92L552.5 85.5ZM557.2 92L555.8 92L555.8 85.5L557.3 85.5L559.4 88.8Q559.5 89.0 559.7 89.3Q559.9 89.6 560.0 90.0L560.0 90.0Q560.1 90.2 560.2 90.4L560.2 90.4Q560.2 90.2 560.2 90.0L560.2 90.0Q560.1 89.6 560.1 89.2Q560.1 88.9 560.1 88.6L560.1 88.6L560.1 85.5L561.5 85.5L561.5 92L560.0 92L558.1 89.0Q557.9 88.7 557.7 88.3Q557.5 88.0 557.4 87.6L557.4 87.6Q557.2 87.4 557.1 87.1L557.1 87.1Q557.1 87.4 557.1 87.6L557.1 87.6Q557.1 88.1 557.2 88.4Q557.2 88.8 557.2 89.0L557.2 89.0L557.2 92ZM567.9 92L563.5 92L563.5 85.5L567.9 85.5L567.9 86.6L564.8 86.6L564.8 88.1L567.6 88.1L567.6 89.2L564.8 89.2L564.8 90.9L567.9 90.9L567.9 92ZM572.1 92.1L572.1 92.1Q571.3 92.1 570.8 91.9Q570.2 91.6 569.9 91.1Q569.5 90.7 569.5 90.0L569.5 90.0L570.8 90.0Q570.8 90.3 571.0 90.5Q571.2 90.7 571.5 90.9Q571.8 91.0 572.1 91.0L572.1 91.0Q572.5 91.0 572.7 90.9Q573.0 90.8 573.2 90.6Q573.3 90.4 573.3 90.1L573.3 90.1Q573.3 89.9 573.2 89.8Q573.0 89.6 572.8 89.5Q572.5 89.4 572.2 89.3L572.2 89.3L571.5 89.1Q570.6 88.9 570.2 88.5Q569.7 88.0 569.7 87.3L569.7 87.3Q569.7 86.7 570.0 86.3Q570.3 85.9 570.9 85.6Q571.4 85.4 572.2 85.4L572.2 85.4Q572.9 85.4 573.4 85.6Q574.0 85.9 574.3 86.3Q574.6 86.7 574.6 87.3L574.6 87.3L573.3 87.3Q573.2 86.9 572.9 86.7Q572.6 86.5 572.1 86.5L572.1 86.5Q571.8 86.5 571.6 86.6Q571.3 86.7 571.2 86.9Q571.1 87.0 571.1 87.2L571.1 87.2Q571.1 87.5 571.2 87.7Q571.4 87.8 571.6 87.9Q571.8 88.0 572.1 88.1L572.1 88.1L572.7 88.2Q573.1 88.3 573.5 88.5Q573.8 88.6 574.1 88.9Q574.4 89.1 574.5 89.4Q574.7 89.7 574.7 90.1L574.7 90.1Q574.7 90.7 574.4 91.2Q574.1 91.6 573.5 91.9Q572.9 92.1 572.1 92.1Z M582.4 91.6L581.3 91.6L581.3 89.9L579.6 89.9L579.6 88.9L581.3 88.9L581.3 87.1L582.4 87.1L582.4 88.9L584.1 88.9L584.1 89.9L582.4 89.9L582.4 91.6Z "/></g><mask id="satori_om-id-5"><rect x="667" y="45" width="192" height="61" fill="#fff" mask="url(#satori_om-id)"/></mask><mask id="satori_om-id-5-0"><rect x="724" y="57" width="79" height="22" fill="#fff" mask="url(#satori_om-id)"/></mask><g mask="url(#satori_om-id)" clip-path="url(#satori_cp-id)"><path fill="#fb7185" d="M731.1 76.2L731.1 76.2Q729.3 76.2 728.0 75.6Q726.6 75.0 725.9 74.0Q725.1 72.9 725.1 71.5L725.1 71.5L728.4 71.5Q728.4 72.1 728.8 72.6Q729.1 73.0 729.7 73.3Q730.3 73.5 731.1 73.5L731.1 73.5Q731.9 73.5 732.5 73.2Q733.1 72.9 733.4 72.5Q733.8 72.0 733.8 71.3L733.8 71.3Q733.8 70.6 733.4 70.1Q733.1 69.6 732.4 69.3Q731.7 69.1 730.8 69.1L730.8 69.1L729.3 69.1L729.3 66.6L730.8 66.6Q731.6 66.6 732.2 66.3Q732.8 66.1 733.1 65.6Q733.4 65.1 733.4 64.5L733.4 64.5Q733.4 63.9 733.1 63.4Q732.9 62.9 732.3 62.7Q731.8 62.4 731.1 62.4L731.1 62.4Q730.4 62.4 729.8 62.7Q729.3 62.9 728.9 63.4Q728.5 63.8 728.5 64.4L728.5 64.4L725.4 64.4Q725.4 63.1 726.2 62.0Q726.9 61.0 728.2 60.4Q729.5 59.8 731.1 59.8L731.1 59.8Q732.8 59.8 734.0 60.4Q735.2 61.0 735.9 62.0Q736.6 63.0 736.6 64.3L736.6 64.3Q736.6 65.6 735.8 66.5Q734.9 67.4 733.6 67.7L733.6 67.7L733.6 67.8Q734.8 67.9 735.6 68.4Q736.4 69.0 736.8 69.7Q737.2 70.5 737.2 71.5L737.2 71.5Q737.2 72.9 736.4 73.9Q735.6 75.0 734.2 75.6Q732.9 76.2 731.1 76.2ZM745.0 76.2L745.0 76.2Q743.5 76.2 742.2 75.6Q741.0 75.0 740.3 73.9Q739.5 72.9 739.4 71.5L739.4 71.5L742.6 71.5Q742.8 72.4 743.4 72.9Q744.1 73.4 745.0 73.4L745.0 73.4Q746.1 73.4 746.8 72.8Q747.5 72.2 747.9 71.0Q748.3 69.8 748.3 68.3L748.3 68.3L748.2 68.3Q747.8 69.0 747.2 69.5Q746.6 70.0 745.8 70.2Q745.0 70.5 744.2 70.5L744.2 70.5Q742.7 70.5 741.6 69.8Q740.5 69.2 739.9 68.0Q739.2 66.8 739.2 65.3L739.2 65.3Q739.2 63.7 740.0 62.4Q740.7 61.2 742.1 60.5Q743.4 59.7 745.2 59.8L745.2 59.8Q746.4 59.8 747.5 60.2Q748.6 60.6 749.5 61.5Q750.4 62.4 751.0 63.9Q751.5 65.4 751.5 67.6L751.5 67.6Q751.5 69.6 751.0 71.2Q750.6 72.8 749.7 73.9Q748.9 75.1 747.7 75.7Q746.5 76.2 745.0 76.2ZM745.2 68.1L745.2 68.1Q745.7 68.1 746.3 67.9Q746.8 67.6 747.1 67.3Q747.5 66.9 747.7 66.3Q747.9 65.8 747.9 65.2L747.9 65.2Q747.9 64.5 747.6 63.8Q747.2 63.2 746.6 62.8Q746.0 62.4 745.2 62.4L745.2 62.4Q744.4 62.4 743.8 62.8Q743.1 63.1 742.8 63.8Q742.4 64.4 742.4 65.2L742.4 65.2Q742.4 66.1 742.8 66.7Q743.1 67.3 743.7 67.7Q744.4 68.1 745.2 68.1ZM755.3 80.2L753.1 80.2L754.1 73.6L757.3 73.6L755.3 80.2ZM765.7 76.2L765.7 76.2Q764.2 76.2 762.9 75.6Q761.7 75.0 761.0 73.9Q760.2 72.9 760.1 71.5L760.1 71.5L763.3 71.5Q763.5 72.4 764.2 72.9Q764.8 73.4 765.7 73.4L765.7 73.4Q766.8 73.4 767.5 72.8Q768.2 72.2 768.6 71.0Q769.0 69.8 769.0 68.3L769.0 68.3L768.9 68.3Q768.5 69.0 767.9 69.5Q767.3 70.0 766.5 70.2Q765.7 70.5 764.9 70.5L764.9 70.5Q763.4 70.5 762.3 69.8Q761.2 69.2 760.6 68.0Q759.9 66.8 759.9 65.3L759.9 65.3Q759.9 63.7 760.7 62.4Q761.4 61.2 762.8 60.5Q764.1 59.7 765.9 59.8L765.9 59.8Q767.1 59.8 768.2 60.2Q769.4 60.6 770.3 61.5Q771.1 62.4 771.7 63.9Q772.2 65.4 772.2 67.6L772.2 67.6Q772.2 69.6 771.7 71.2Q771.3 72.8 770.4 73.9Q769.6 75.1 768.4 75.7Q767.2 76.2 765.7 76.2ZM765.9 68.1L765.9 68.1Q766.5 68.1 767.0 67.9Q767.5 67.6 767.8 67.3Q768.2 66.9 768.4 66.3Q768.7 65.8 768.7 65.2L768.7 65.2Q768.7 64.5 768.3 63.8Q767.9 63.2 767.3 62.8Q766.7 62.4 765.9 62.4L765.9 62.4Q765.1 62.4 764.5 62.8Q763.8 63.1 763.5 63.8Q763.1 64.4 763.1 65.2L763.1 65.2Q763.1 66.1 763.5 66.7Q763.8 67.3 764.4 67.7Q765.1 68.1 765.9 68.1ZM785.9 76L774.5 76L774.5 73.6L780.2 68.3Q780.9 67.6 781.4 67.0Q781.9 66.5 782.2 65.9Q782.5 65.4 782.5 64.7L782.5 64.7Q782.5 64.0 782.1 63.5Q781.8 63.0 781.3 62.7Q780.7 62.4 780.0 62.4L780.0 62.4Q779.2 62.4 778.7 62.7Q778.1 63.0 777.8 63.6Q777.5 64.1 777.5 64.9L777.5 64.9L774.4 64.9Q774.4 63.3 775.1 62.2Q775.8 61.0 777.1 60.4Q778.3 59.8 780.0 59.8L780.0 59.8Q781.7 59.8 783.0 60.4Q784.2 61.0 784.9 62.1Q785.6 63.1 785.6 64.5L785.6 64.5Q785.6 65.4 785.3 66.3Q784.9 67.1 784.0 68.2Q783.1 69.3 781.5 70.8L781.5 70.8L779.1 73.2L779.1 73.3L785.9 73.3L785.9 76ZM794.5 76.2L794.5 76.2Q792.4 76.2 791.0 75.2Q789.6 74.3 788.8 72.4Q788.1 70.6 788.1 68.0L788.1 68.0Q788.1 65.4 788.8 63.6Q789.6 61.7 791.0 60.8Q792.4 59.8 794.5 59.8L794.5 59.8Q796.5 59.8 797.9 60.8Q799.4 61.7 800.1 63.6Q800.9 65.4 800.9 68.0L800.9 68.0Q800.9 70.6 800.1 72.4Q799.4 74.3 797.9 75.2Q796.5 76.2 794.5 76.2ZM794.5 73.5L794.5 73.5Q795.5 73.5 796.1 72.9Q796.8 72.2 797.2 71.0Q797.5 69.8 797.5 68.0L797.5 68.0Q797.5 66.2 797.2 65.0Q796.8 63.8 796.1 63.1Q795.5 62.5 794.5 62.5L794.5 62.5Q793.5 62.5 792.8 63.1Q792.1 63.8 791.8 65.0Q791.4 66.2 791.4 68.0L791.4 68.0Q791.4 69.8 791.8 71.0Q792.1 72.2 792.8 72.9Q793.5 73.5 794.5 73.5Z "/></g><mask id="satori_om-id-5-1"><rect x="744" y="83" width="38" height="11" fill="#fff" mask="url(#satori_om-id)"/></mask><g mask="url(#satori_om-id)" clip-path="url(#satori_cp-id)"><path fill="rgba(200,195,225,0.45)" d="M748.8 92L744.6 92L744.6 85.5L745.9 85.5L745.9 90.9L748.8 90.9L748.8 92ZM750.5 85.5L751.8 85.5L751.8 92L750.5 92L750.5 85.5ZM755.2 92L753.8 92L753.8 85.5L755.3 85.5L757.4 88.8Q757.5 89.0 757.7 89.3Q757.9 89.6 758.0 90.0L758.0 90.0Q758.1 90.2 758.2 90.4L758.2 90.4Q758.2 90.2 758.2 90.0L758.2 90.0Q758.1 89.6 758.1 89.2Q758.1 88.9 758.1 88.6L758.1 88.6L758.1 85.5L759.5 85.5L759.5 92L758.0 92L756.1 89.0Q755.9 88.7 755.7 88.3Q755.5 88.0 755.4 87.6L755.4 87.6Q755.2 87.4 755.1 87.1L755.1 87.1Q755.1 87.4 755.1 87.6L755.1 87.6Q755.1 88.1 755.2 88.4Q755.2 88.8 755.2 89.0L755.2 89.0L755.2 92ZM765.9 92L761.5 92L761.5 85.5L765.9 85.5L765.9 86.6L762.8 86.6L762.8 88.1L765.6 88.1L765.6 89.2L762.8 89.2L762.8 90.9L765.9 90.9L765.9 92ZM770.1 92.1L770.1 92.1Q769.3 92.1 768.8 91.9Q768.2 91.6 767.9 91.1Q767.5 90.7 767.5 90.0L767.5 90.0L768.8 90.0Q768.8 90.3 769.0 90.5Q769.2 90.7 769.5 90.9Q769.8 91.0 770.1 91.0L770.1 91.0Q770.5 91.0 770.7 90.9Q771.0 90.8 771.2 90.6Q771.3 90.4 771.3 90.1L771.3 90.1Q771.3 89.9 771.2 89.8Q771.0 89.6 770.8 89.5Q770.5 89.4 770.2 89.3L770.2 89.3L769.5 89.1Q768.6 88.9 768.2 88.5Q767.7 88.0 767.7 87.3L767.7 87.3Q767.7 86.7 768.0 86.3Q768.3 85.9 768.9 85.6Q769.4 85.4 770.2 85.4L770.2 85.4Q770.9 85.4 771.4 85.6Q772.0 85.9 772.3 86.3Q772.6 86.7 772.6 87.3L772.6 87.3L771.3 87.3Q771.2 86.9 770.9 86.7Q770.6 86.5 770.1 86.5L770.1 86.5Q769.8 86.5 769.6 86.6Q769.3 86.7 769.2 86.9Q769.1 87.0 769.1 87.2L769.1 87.2Q769.1 87.5 769.2 87.7Q769.4 87.8 769.6 87.9Q769.8 88.0 770.1 88.1L770.1 88.1L770.7 88.2Q771.1 88.3 771.5 88.5Q771.8 88.6 772.1 88.9Q772.4 89.1 772.5 89.4Q772.7 89.7 772.7 90.1L772.7 90.1Q772.7 90.7 772.4 91.2Q772.1 91.6 771.5 91.9Q770.9 92.1 770.1 92.1Z M777.4 88.8L780.4 88.8L780.4 89.8L777.4 89.8L777.4 88.8Z "/></g></svg>