<!-- Generated by readme-aura https://github.com/collectioneur/readme-aura -->
<svg width="860" height="150" viewBox="0 0 860 150" xmlns="http://www.w3.org/2000/svg"><defs><clipPath id="satori_bc-id"><path x="0" y="0" width="860" height="150" d="M16,0 h828 a16,16 0 0 1 16,16 v118 a16,16 0 0 1 -16,16 h-828 a16,16 0 0 1 -16,-16 v-118 a16,16 0 0 1 16,-16"/></clipPath></defs><clipPath id="satori_cp-id"><path x="0" y="0" width="860" height="150" d="M16,0 h828 a16,16 0 0 1 16,16 v118 a16,16 0 0 1 -16,16 h-828 a16,16 0 0 1 -16,-16 v-118 a16,16 0 0 1 16,-16"/></clipPath><mask id="satori_om-id"><rect x="1" y="1" width="858" height="148" fill="#fff"/><path width="860" height="150" fill="none" stroke="#000" stroke-width="2" d="M4.686,4.686 A16,16 0 0 1 16,0 h828 a16,16 0 0 1 16,16 v118 a16,16 0 0 1 -16,16 h-828 a16,16 0 0 1 -16,-16 v-118 A16,16 0 0 1 4.686,4.686"/></mask><path x="0" y="0" width="860" height="150" fill="#08080c" d="M16,0 h828 a16,16 0 0 1 16,16 v118 a16,16 0 0 1 -16,16 h-828 a16,16 0 0 1 -16,-16 v-118 a16,16 0 0 1 16,-16"/><path width="860" height="150" clip-path="url(#satori_bc-id)" fill="none" stroke="rgba(110,80,220,0.18)" stroke-width="2" d="M4.686,4.686 A16,16 0 0 1 16,0 h828 a16,16 0 0 1 16,16 v118 a16,16 0 0 1 -16,16 h-828 a16,16 0 0 1 -16,-16 v-118 A16,16 0 0 1 4.686,4.686"/><clipPath id="satori_cp-id-0" clip-path="url(#satori_cp-id)"><rect x="1" y="1" width="860" height="150"/></clipPath><mask id="satori_om-id-0"><rect x="1" y="1" width="860" height="150" fill="#fff" mask="url(#satori_om-id)"/></mask><svg x="1" y="1" width="860" height="150" preserveAspectRatio="none" clip-path="url(#satori_cp-id-0)" mask="url(#satori_om-id-0)"><defs><radialGradient id="g1" cx="50%" cy="50%" r="50%"><stop offset="0%" stop-color="rgba(110,20,210,0.65)"></stop><stop offset="45%" stop-color="rgba(80,15,170,0.28)"></stop><stop offset="70%" stop-color="rgba(80,15,170,0)"></stop></radialGradient><radialGradient id="g2" cx="50%" cy="50%" r="50%"><stop offset="0%" stop-color="rgba(40,70,255,0.55)"></stop><stop offset="45%" stop-color="rgba(20,50,200,0.22)"></stop><stop offset="70%" stop-color="rgba(20,50,200,0)"></stop></radialGradient><radialGradient id="g3" cx="50%" cy="50%" r="50%"><stop offset="0%" stop-color="rgba(0,140,255,0.42)"></stop><stop offset="70%" stop-color="rgba(0,140,255,0)"></stop></radialGradient><radialGradient id="g4" cx="50%" cy="50%" r="50%"><stop offset="0%" stop-color="rgba(0,195,235,0.30)"></stop><stop offset="70%" stop-color="rgba(0,195,235,0)"></stop></radialGradient><radialGradient id="g5" cx="50%" cy="50%" r="50%"><stop offset="0%" stop-color="rgba(100,30,210,0.40)"></stop><stop offset="70%" stop-color="rgba(100,30,210,0)"></stop></radialGradient></defs><ellipse id="glow-1" cx="730" cy="155" rx="180" ry="130" fill="url(#g1)"></ellipse><ellipse id="glow-2" cx="580" cy="148" rx="170" ry="125" fill="url(#g2)"></ellipse><ellipse id="glow-3" cx="430" cy="142" rx="160" ry="120" fill="url(#g3)"></ellipse><ellipse id="glow-4" cx="280" cy="148" rx="150" ry="115" fill="url(#g4)"></ellipse><ellipse id="glow-5" cx="130" cy="155" rx="130" ry="105" fill="url(#g5)"></ellipse><style>

          @keyframes float-slow {
            0%, 100% { transform: translateX(0px); opacity: 0.8; }
            50% { transform: translateX(350px); opacity: 1.2; }
          }
          @keyframes float-medium {
            0%, 100% { transform: translateX(0px); opacity: 0.7; }
            50% { transform: translateX(-250px); opacity: 1.1; }
          }
          @keyframes float-fast {
            0%, 100% { transform: translateX(0px); opacity: 0.9; }
            50% { transform: translateX(200px); opacity: 0.6; }
          }
          @keyframes float-diagonal {
            0%, 100% { transform: translate(0px, 0px); opacity: 0.75; }
            50% { transform: translate(120px, 30px); opacity: 1.0; }
          }
          @keyframes float-wave {
            0%, 100% { transform: translateX(0px); opacity: 0.65; }
            33% { transform: translateX(-160px); opacity: 0.9; }
            66% { transform: translateX(80px); opacity: 1.0; }
          }
          @keyframes float-pulse {
            0%, 100% { transform: scale(1); opacity: 0.8; }
            50% { transform: scale(1.3); opacity: 0.4; }
          }
          #glow-1 { animation: float-slow 8s ease-in-out infinite; }
          #glow-2 { animation: float-medium 12s ease-in-out infinite; }
          #glow-3 { animation: float-fast 9s ease-in-out infinite; }
          #glow-4 { animation: float-diagonal 10s ease-in-out infinite; }
          #glow-5 { animation: float-wave 14s ease-in-out infinite; }
        
</style>
</svg><mask id="satori_om-id-0-0"><rect x="1" y="1" width="0" height="150" fill="#fff" mask="url(#satori_om-id)"/></mask><mask id="satori_om-id-0-0-0"><rect x="1" y="1" width="0" height="150" fill="#fff" mask="url(#satori_om-id)"/></mask><mask id="satori_om-id-0-0-0-0"><rect x="1" y="1" width="0" height="150" fill="#fff" mask="url(#satori_om-id)"/></mask><mask id="satori_om-id-0-0-0-1"><rect x="1" y="1" width="0" height="150" fill="#fff" mask="url(#satori_om-id)"/></mask><mask id="satori_om-id-0-0-0-2"><rect x="1" y="1" width="0" height="150" fill="#fff" mask="url(#satori_om-id)"/></mask><mask id="satori_om-id-0-0-1"><rect x="1" y="1" width="0" height="150" fill="#fff" mask="url(#satori_om-id)"/></mask><mask id="satori_om-id-0-0-1-0"><rect x="1" y="1" width="0" height="150" fill="#fff" mask="url(#satori_om-id)"/></mask><mask id="satori_om-id-0-0-1-1"><rect x="1" y="1" width="0" height="150" fill="#fff" mask="url(#satori_om-id)"/></mask><mask id="satori_om-id-0-0-1-2"><rect x="1" y="1" width="0" height="150" fill="#fff" mask="url(#satori_om-id)"/></mask><mask id="satori_om-id-0-0-2"><rect x="1" y="1" width="0" height="150" fill="#fff" mask="url(#satori_om-id)"/></mask><mask id="satori_om-id-0-0-2-0"><rect x="1" y="1" width="0" height="150" fill="#fff" mask="url(#satori_om-id)"/></mask><mask id="satori_om-id-0-0-2-1"><rect x="1" y="1" width="0" height="150" fill="#fff" mask="url(#satori_om-id)"/></mask><mask id="satori_om-id-0-0-3"><rect x="1" y="1" width="0" height="150" fill="#fff" mask="url(#satori_om-id)"/></mask><mask id="satori_om-id-0-0-3-0"><rect x="1" y="1" width="0" height="150" fill="#fff" mask="url(#satori_om-id)"/></mask><mask id="satori_om-id-0-0-3-1"><rect x="1" y="1" width="0" height="150" fill="#fff" mask="url(#satori_om-id)"/></mask><mask id="satori_om-id-0-0-4"><rect x="1" y="1" width="0" height="150" fill="#fff" mask="url(#satori_om-id)"/></mask><mask id="satori_om-id-0-0-4-0"><rect x="1" y="1" width="0" height="150" fill="#fff" mask="url(#satori_om-id)"/></mask><mask id="satori_om-id-0-0-4-1"><rect x="1" y="1" width="0" height="150" fill="#fff" mask="url(#satori_om-id)"/></mask><mask id="satori_om-id-0-1"><rect x="1" y="1" width="0" height="150" fill="#fff" mask="url(#satori_om-id)"/></mask><mask id="satori_om-id-0-2"><rect x="1" y="1" width="0" height="150" fill="#fff" mask="url(#satori_om-id)"/></mask><mask id="satori_om-id-0-3"><rect x="1" y="1" width="0" height="150" fill="#fff" mask="url(#satori_om-id)"/></mask><mask id="satori_om-id-0-4"><rect x="1" y="1" width="0" height="150" fill="#fff" mask="url(#satori_om-id)"/></mask><mask id="satori_om-id-0-5"><rect x="1" y="1" width="0" height="150" fill="#fff" mask="url(#satori_om-id)"/></mask><defs><clipPath id="satori_bc-id-1" clip-path="url(#satori_cp-id)"><rect x="1" y="44" width="145" height="62"/></clipPath></defs><mask id="satori_om-id-1"><rect x="1" y="44" width="144" height="62" fill="#fff" mask="url(#satori_om-id)"/><path width="145" height="62" fill="none" stroke="#000" stroke-width="2" d="M146,44 A0,0 0 0 1 146,44 v62 A0,0 0 0 1 146,106"/></mask><path width="145" height="62" clip-path="url(#satori_bc-id-1)" fill="none" stroke="rgba(255,255,255,0.06)" stroke-width="2" d="M146,44 A0,0 0 0 1 146,44 v62 A0,0 0 0 1 146,106"/><mask id="satori_om-id-1-0"><rect x="60" y="56" width="26" height="22" fill="#fff" mask="url(#satori_om-id)"/></mask><g mask="url(#satori_om-id)" clip-path="url(#satori_cp-id)"><path fill="#a78bfa" d="M71.4 74.2L71.4 76L61.1 76L61.1 74.4L65.2 70.2Q66.4 69.0 67.2 68.1Q68.0 67.2 68.4 66.3Q68.8 65.4 68.8 64.4L68.8 64.4Q68.8 63.1 68.1 62.4Q67.3 61.7 66.0 61.7L66.0 61.7Q64.9 61.7 64.0 62.1Q63.2 62.5 62.3 63.2L62.3 63.2L61.2 61.9Q62.2 61.1 63.4 60.6Q64.6 60.1 66.0 60.1L66.0 60.1Q68.3 60.1 69.5 61.2Q70.8 62.3 70.8 64.3L70.8 64.3Q70.8 65.5 70.3 66.6Q69.8 67.6 68.9 68.7Q68.0 69.7 66.8 70.9L66.8 70.9L63.5 74.2L63.5 74.2L71.4 74.2ZM84.7 70.7L84.7 72.4L82.4 72.4L82.4 76L80.6 76L80.6 72.4L73.0 72.4L73.0 70.8L80.4 60.2L82.4 60.2L82.4 70.7L84.7 70.7ZM80.6 70.7L80.6 65.7Q80.6 64.6 80.6 63.8Q80.7 63.0 80.7 62.3L80.7 62.3L80.6 62.3Q80.4 62.7 80.2 63.2Q79.9 63.7 79.6 64.0L79.6 64.0L74.9 70.7L80.6 70.7Z "/></g><mask id="satori_om-id-1-1"><rect x="57" y="82" width="33" height="12" fill="#fff" mask="url(#satori_om-id)"/></mask><g mask="url(#satori_om-id)" clip-path="url(#satori_cp-id)"><path fill="rgba(200,195,225,0.45)" d="M57.9 85.6L59.6 85.6Q60.8 85.6 61.4 86.0Q62.0 86.5 62.0 87.4L62.0 87.4Q62.0 87.9 61.8 88.3Q61.6 88.6 61.3 88.8Q61.0 89.0 60.7 89.1L60.7 89.1L62.5 92L61.5 92L60.0 89.3L58.7 89.3L58.7 92L57.9 92L57.9 85.6ZM59.6 86.3L59.6 86.3L58.7 86.3L58.7 88.7L59.6 88.7Q60.4 88.7 60.8 88.4Q61.1 88.0 61.1 87.4L61.1 87.4Q61.1 86.8 60.8 86.5Q60.4 86.3 59.6 86.3ZM67.9 91.3L67.9 92L64.3 92L64.3 85.6L67.9 85.6L67.9 86.3L65.1 86.3L65.1 88.3L67.7 88.3L67.7 89.0L65.1 89.0L65.1 91.3L67.9 91.3ZM70.1 85.6L71.8 85.6Q73.0 85.6 73.6 86.1Q74.2 86.6 74.2 87.5L74.2 87.5Q74.2 88.0 73.9 88.5Q73.7 88.9 73.1 89.2Q72.6 89.5 71.6 89.5L71.6 89.5L70.9 89.5L70.9 92L70.1 92L70.1 85.6ZM71.7 86.3L71.7 86.3L70.9 86.3L70.9 88.8L71.5 88.8Q72.5 88.8 72.9 88.5Q73.4 88.2 73.4 87.5L73.4 87.5Q73.4 86.9 73.0 86.6Q72.6 86.3 71.7 86.3ZM81.9 88.8L81.9 88.8Q81.9 89.8 81.6 90.5Q81.3 91.3 80.6 91.7Q79.9 92.1 79.0 92.1L79.0 92.1Q78.0 92.1 77.3 91.7Q76.6 91.3 76.3 90.5Q76.0 89.8 76.0 88.8L76.0 88.8Q76.0 87.8 76.3 87.0Q76.6 86.3 77.3 85.9Q78.0 85.5 79.0 85.5L79.0 85.5Q79.9 85.5 80.6 85.9Q81.3 86.3 81.6 87.0Q81.9 87.8 81.9 88.8ZM76.9 88.8L76.9 88.8Q76.9 90.0 77.4 90.7Q77.9 91.4 79.0 91.4L79.0 91.4Q80.1 91.4 80.6 90.7Q81.1 90.0 81.1 88.8L81.1 88.8Q81.1 87.6 80.6 86.9Q80.1 86.2 79.0 86.2L79.0 86.2Q77.9 86.2 77.4 86.9Q76.9 87.6 76.9 88.8ZM87.8 90.3L87.8 90.3Q87.8 91.1 87.2 91.6Q86.6 92.1 85.5 92.1L85.5 92.1Q85.0 92.1 84.5 92.0Q84.0 91.9 83.7 91.8L83.7 91.8L83.7 91.0Q84.1 91.2 84.5 91.3Q85.0 91.4 85.5 91.4L85.5 91.4Q86.3 91.4 86.6 91.1Q87.0 90.8 87.0 90.4L87.0 90.4Q87.0 90.0 86.8 89.8Q86.7 89.6 86.4 89.4Q86.1 89.2 85.5 89.0L85.5 89.0Q84.7 88.7 84.2 88.3Q83.8 87.9 83.8 87.1L83.8 87.1Q83.8 86.6 84.1 86.2Q84.3 85.9 84.8 85.7Q85.3 85.5 85.9 85.5L85.9 85.5Q86.4 85.5 86.8 85.6Q87.3 85.7 87.6 85.8L87.6 85.8L87.4 86.5Q87.1 86.4 86.7 86.3Q86.3 86.2 85.8 86.2L85.8 86.2Q85.2 86.2 84.9 86.5Q84.6 86.7 84.6 87.1L84.6 87.1Q84.6 87.5 84.8 87.7Q84.9 87.9 85.2 88.1Q85.5 88.2 86.0 88.4L86.0 88.4Q86.6 88.6 87.0 88.9Q87.4 89.1 87.6 89.4Q87.8 89.8 87.8 90.3Z "/></g><defs><clipPath id="satori_bc-id-2" clip-path="url(#satori_cp-id)"><rect x="146" y="44" width="143" height="62"/></clipPath></defs><mask id="satori_om-id-2"><rect x="146" y="44" width="142" height="62" fill="#fff" mask="url(#satori_om-id)"/><path width="143" height="62" fill="none" stroke="#000" stroke-width="2" d="M289,44 A0,0 0 0 1 289,44 v62 A0,0 0 0 1 289,106"/></mask><path width="143" height="62" clip-path="url(#satori_bc-id-2)" fill="none" stroke="rgba(255,255,255,0.06)" stroke-width="2" d="M289,44 A0,0 0 0 1 289,44 v62 A0,0 0 0 1 289,106"/><mask id="satori_om-id-2-0"><rect x="211" y="56" width="13" height="22" fill="#fff" mask="url(#satori_om-id)"/></mask><g mask="url(#satori_om-id)" clip-path="url(#satori_cp-id)"><path fill="#60a5fa" d="M217.3 60.1L217.3 60.1Q219.3 60.1 220.7 61.0Q222.0 62.0 222.0 63.8L222.0 63.8Q222.0 64.8 221.6 65.5Q221.2 66.2 220.5 66.7Q219.8 67.3 219.0 67.7L219.0 67.7Q220.0 68.1 220.7 68.7Q221.5 69.3 222.0 70.1Q222.5 70.9 222.5 71.9L222.5 71.9Q222.5 73.9 221.1 75.1Q219.7 76.2 217.3 76.2L217.3 76.2Q214.8 76.2 213.4 75.1Q212.1 74.0 212.1 72.0L212.1 72.0Q212.1 70.9 212.5 70.1Q213.0 69.3 213.7 68.8Q214.5 68.2 215.3 67.8L215.3 67.8Q214.2 67.1 213.4 66.2Q212.6 65.3 212.6 63.8L212.6 63.8Q212.6 62.6 213.2 61.8Q213.8 61.0 214.9 60.5Q215.9 60.1 217.3 60.1ZM217.2 61.6L217.2 61.6Q216.0 61.6 215.3 62.2Q214.5 62.8 214.5 63.9L214.5 63.9Q214.5 64.7 214.9 65.3Q215.2 65.8 215.9 66.2Q216.6 66.6 217.4 66.9L217.4 66.9Q218.5 66.5 219.3 65.8Q220.1 65.1 220.1 63.9L220.1 63.9Q220.1 62.8 219.3 62.2Q218.5 61.6 217.2 61.6ZM214.0 72.0L214.0 72.0Q214.0 73.2 214.8 73.9Q215.6 74.7 217.3 74.7L217.3 74.7Q218.9 74.7 219.7 73.9Q220.6 73.2 220.6 72.0L220.6 72.0Q220.6 70.8 219.7 70.0Q218.8 69.3 217.3 68.7L217.3 68.7L216.9 68.6Q215.5 69.2 214.7 70.0Q214.0 70.8 214.0 72.0Z "/></g><mask id="satori_om-id-2-1"><rect x="202" y="82" width="31" height="12" fill="#fff" mask="url(#satori_om-id)"/></mask><g mask="url(#satori_om-id)" clip-path="url(#satori_cp-id)"><path fill="rgba(200,195,225,0.45)" d="M206.5 90.3L206.5 90.3Q206.5 91.1 205.9 91.6Q205.3 92.1 204.2 92.1L204.2 92.1Q203.7 92.1 203.2 92.0Q202.8 91.9 202.5 91.8L202.5 91.8L202.5 91.0Q202.8 91.2 203.3 91.3Q203.7 91.4 204.3 91.4L204.3 91.4Q205.0 91.4 205.3 91.1Q205.7 90.8 205.7 90.4L205.7 90.4Q205.7 90.0 205.6 89.8Q205.4 89.6 205.1 89.4Q204.8 89.2 204.2 89.0L204.2 89.0Q203.4 88.7 203.0 88.3Q202.5 87.9 202.5 87.1L202.5 87.1Q202.5 86.6 202.8 86.2Q203.1 85.9 203.5 85.7Q204.0 85.5 204.6 85.5L204.6 85.5Q205.1 85.5 205.6 85.6Q206.0 85.7 206.4 85.8L206.4 85.8L206.1 86.5Q205.8 86.4 205.4 86.3Q205.0 86.2 204.6 86.2L204.6 86.2Q204.0 86.2 203.7 86.5Q203.4 86.7 203.4 87.1L203.4 87.1Q203.4 87.5 203.5 87.7Q203.6 87.9 203.9 88.1Q204.2 88.2 204.8 88.4L204.8 88.4Q205.3 88.6 205.7 88.9Q206.1 89.1 206.3 89.4Q206.5 89.8 206.5 90.3ZM210.6 86.3L210.6 92L209.8 92L209.8 86.3L207.8 86.3L207.8 85.6L212.6 85.6L212.6 86.3L210.6 86.3ZM218.7 92L217.8 92L217.0 90.0L214.5 90.0L213.7 92L212.9 92L215.4 85.5L216.2 85.5L218.7 92ZM216.8 89.3L216.1 87.3Q216.1 87.3 216.0 87.1Q215.9 86.9 215.9 86.7Q215.8 86.5 215.8 86.4L215.8 86.4Q215.7 86.7 215.6 86.9Q215.6 87.2 215.5 87.3L215.5 87.3L214.8 89.3L216.8 89.3ZM220.3 85.6L222.1 85.6Q223.3 85.6 223.9 86.0Q224.5 86.5 224.5 87.4L224.5 87.4Q224.5 87.9 224.3 88.3Q224.1 88.6 223.8 88.8Q223.5 89.0 223.2 89.1L223.2 89.1L224.9 92L224.0 92L222.4 89.3L221.1 89.3L221.1 92L220.3 92L220.3 85.6ZM222.1 86.3L222.1 86.3L221.1 86.3L221.1 88.7L222.1 88.7Q222.9 88.7 223.3 88.4Q223.6 88.0 223.6 87.4L223.6 87.4Q223.6 86.8 223.2 86.5Q222.9 86.3 222.1 86.3ZM230.4 90.3L230.4 90.3Q230.4 91.1 229.8 91.6Q229.1 92.1 228.1 92.1L228.1 92.1Q227.5 92.1 227.1 92.0Q226.6 91.9 226.3 91.8L226.3 91.8L226.3 91.0Q226.6 91.2 227.1 91.3Q227.6 91.4 228.1 91.4L228.1 91.4Q228.8 91.4 229.2 91.1Q229.6 90.8 229.6 90.4L229.6 90.4Q229.6 90.0 229.4 89.8Q229.3 89.6 229.0 89.4Q228.6 89.2 228.1 89.0L228.1 89.0Q227.2 88.7 226.8 88.3Q226.4 87.9 226.4 87.1L226.4 87.1Q226.4 86.6 226.7 86.2Q226.9 85.9 227.4 85.7Q227.9 85.5 228.5 85.5L228.5 85.5Q229.0 85.5 229.4 85.6Q229.9 85.7 230.2 85.8L230.2 85.8L230.0 86.5Q229.6 86.4 229.3 86.3Q228.9 86.2 228.4 86.2L228.4 86.2Q227.8 86.2 227.5 86.5Q227.2 86.7 227.2 87.1L227.2 87.1Q227.2 87.5 227.4 87.7Q227.5 87.9 227.8 88.1Q228.1 88.2 228.6 88.4L228.6 88.4Q229.2 88.6 229.6 88.9Q230.0 89.1 230.2 89.4Q230.4 89.8 230.4 90.3Z "/></g><defs><clipPath id="satori_bc-id-3" clip-path="url(#satori_cp-id)"><rect x="289" y="44" width="196" height="62"/></clipPath></defs><mask id="satori_om-id-3"><rect x="289" y="44" width="195" height="62" fill="#fff" mask="url(#satori_om-id)"/><path width="196" height="62" fill="none" stroke="#000" stroke-width="2" d="M485,44 A0,0 0 0 1 485,44 v62 A0,0 0 0 1 485,106"/></mask><path width="196" height="62" clip-path="url(#satori_bc-id-3)" fill="none" stroke="rgba(255,255,255,0.06)" stroke-width="2" d="M485,44 A0,0 0 0 1 485,44 v62 A0,0 0 0 1 485,106"/><mask id="satori_om-id-3-0"><rect x="358" y="56" width="57" height="22" fill="#fff" mask="url(#satori_om-id)"/></mask><g mask="url(#satori_om-id)" clip-path="url(#satori_cp-id)"><path fill="#f59e0b" d="M365.8 60.3L365.8 76L363.9 76L363.9 65.0Q363.9 64.1 363.9 63.5Q364.0 62.9 364.0 62.3L364.0 62.3Q363.7 62.7 363.4 62.9Q363.1 63.2 362.6 63.5L362.6 63.5L361.0 64.9L360.0 63.6L364.2 60.3L365.8 60.3ZM374.7 73.4L374.8 73.7Q374.5 74.9 374.0 76.3Q373.4 77.7 372.9 78.8L372.9 78.8L371.5 78.8Q371.8 77.6 372.1 76.1Q372.4 74.6 372.6 73.4L372.6 73.4L374.7 73.4ZM387.9 74.2L387.9 76L377.5 76L377.5 74.4L381.7 70.2Q382.8 69.0 383.7 68.1Q384.5 67.2 384.9 66.3Q385.3 65.4 385.3 64.4L385.3 64.4Q385.3 63.1 384.5 62.4Q383.8 61.7 382.5 61.7L382.5 61.7Q381.4 61.7 380.5 62.1Q379.6 62.5 378.7 63.2L378.7 63.2L377.7 61.9Q378.6 61.1 379.8 60.6Q381.0 60.1 382.5 60.1L382.5 60.1Q384.7 60.1 386.0 61.2Q387.3 62.3 387.3 64.3L387.3 64.3Q387.3 65.5 386.8 66.6Q386.3 67.6 385.4 68.7Q384.5 69.7 383.3 70.9L383.3 70.9L380.0 74.2L380.0 74.2L387.9 74.2ZM401.2 70.7L401.2 72.4L398.9 72.4L398.9 76L397.1 76L397.1 72.4L389.5 72.4L389.5 70.8L396.9 60.2L398.9 60.2L398.9 70.7L401.2 70.7ZM397.1 70.7L397.1 65.7Q397.1 64.6 397.1 63.8Q397.1 63.0 397.2 62.3L397.2 62.3L397.1 62.3Q396.9 62.7 396.6 63.2Q396.4 63.7 396.1 64.0L396.1 64.0L391.4 70.7L397.1 70.7ZM413.8 70.7L413.8 72.4L411.5 72.4L411.5 76L409.6 76L409.6 72.4L402.1 72.4L402.1 70.8L409.5 60.2L411.5 60.2L411.5 70.7L413.8 70.7ZM409.6 70.7L409.6 65.7Q409.6 64.6 409.7 63.8Q409.7 63.0 409.7 62.3L409.7 62.3L409.7 62.3Q409.5 62.7 409.2 63.2Q409.0 63.7 408.7 64.0L408.7 64.0L404.0 70.7L409.6 70.7Z "/></g><mask id="satori_om-id-3-1"><rect x="345" y="82" width="83" height="12" fill="#fff" mask="url(#satori_om-id)"/></mask><g mask="url(#satori_om-id)" clip-path="url(#satori_cp-id)"><path fill="rgba(200,195,225,0.45)" d="M348.6 86.2L348.6 86.2Q347.6 86.2 347.0 86.9Q346.4 87.6 346.4 88.8L346.4 88.8Q346.4 90.0 347.0 90.7Q347.5 91.4 348.6 91.4L348.6 91.4Q349.0 91.4 349.4 91.3Q349.8 91.2 350.2 91.1L350.2 91.1L350.2 91.8Q349.8 92.0 349.4 92.0Q349.0 92.1 348.5 92.1L348.5 92.1Q347.5 92.1 346.9 91.7Q346.2 91.3 345.9 90.5Q345.5 89.8 345.5 88.8L345.5 88.8Q345.5 87.8 345.9 87.1Q346.3 86.3 347.0 85.9Q347.6 85.5 348.6 85.5L348.6 85.5Q349.7 85.5 350.4 85.9L350.4 85.9L350.1 86.5Q349.8 86.4 349.4 86.3Q349.1 86.2 348.6 86.2ZM357.8 88.8L357.8 88.8Q357.8 89.8 357.5 90.5Q357.1 91.3 356.5 91.7Q355.8 92.1 354.8 92.1L354.8 92.1Q353.8 92.1 353.2 91.7Q352.5 91.3 352.2 90.5Q351.9 89.8 351.9 88.8L351.9 88.8Q351.9 87.8 352.2 87.0Q352.5 86.3 353.2 85.9Q353.8 85.5 354.8 85.5L354.8 85.5Q355.8 85.5 356.5 85.9Q357.1 86.3 357.5 87.0Q357.8 87.8 357.8 88.8ZM352.7 88.8L352.7 88.8Q352.7 90.0 353.2 90.7Q353.7 91.4 354.8 91.4L354.8 91.4Q355.9 91.4 356.4 90.7Q356.9 90.0 356.9 88.8L356.9 88.8Q356.9 87.6 356.4 86.9Q355.9 86.2 354.8 86.2L354.8 86.2Q353.7 86.2 353.2 86.9Q352.7 87.6 352.7 88.8ZM365.1 85.6L365.1 92L364.2 92L360.7 86.7L360.7 86.7Q360.7 87.0 360.7 87.4Q360.8 87.9 360.8 88.4L360.8 88.4L360.8 92L360.0 92L360.0 85.6L360.9 85.6L364.4 90.9L364.4 90.9Q364.4 90.7 364.4 90.5Q364.4 90.2 364.4 89.8Q364.3 89.5 364.3 89.2L364.3 89.2L364.3 85.6L365.1 85.6ZM369.7 86.3L369.7 92L368.9 92L368.9 86.3L366.9 86.3L366.9 85.6L371.7 85.6L371.7 86.3L369.7 86.3ZM373.5 85.6L375.2 85.6Q376.4 85.6 377.0 86.0Q377.6 86.5 377.6 87.4L377.6 87.4Q377.6 87.9 377.4 88.3Q377.2 88.6 376.9 88.8Q376.6 89.0 376.3 89.1L376.3 89.1L378.0 92L377.1 92L375.5 89.3L374.3 89.3L374.3 92L373.5 92L373.5 85.6ZM375.2 86.3L375.2 86.3L374.3 86.3L374.3 88.7L375.2 88.7Q376.0 88.7 376.4 88.4Q376.7 88.0 376.7 87.4L376.7 87.4Q376.7 86.8 376.4 86.5Q376.0 86.3 375.2 86.3ZM381.7 91.5L381.7 92L379.3 92L379.3 91.5L380.1 91.4L380.1 86.2L379.3 86.0L379.3 85.6L381.7 85.6L381.7 86.0L380.9 86.2L380.9 91.4L381.7 91.5ZM383.7 85.6L385.5 85.6Q386.7 85.6 387.4 85.9Q388.0 86.3 388.0 87.2L388.0 87.2Q388.0 87.7 387.7 88.1Q387.3 88.5 386.8 88.6L386.8 88.6L386.8 88.6Q387.2 88.7 387.5 88.9Q387.8 89.0 388.0 89.4Q388.2 89.7 388.2 90.2L388.2 90.2Q388.2 91.0 387.6 91.5Q387.0 92 386.0 92L386.0 92L383.7 92L383.7 85.6ZM384.5 88.3L385.7 88.3Q386.5 88.3 386.8 88.0Q387.1 87.8 387.1 87.3L387.1 87.3Q387.1 86.7 386.8 86.5Q386.4 86.3 385.6 86.3L385.6 86.3L384.5 86.3L384.5 88.3ZM385.7 89.0L384.5 89.0L384.5 91.3L385.8 91.3Q386.7 91.3 387.0 91.0Q387.3 90.7 387.3 90.1L387.3 90.1Q387.3 89.6 387.0 89.3Q386.6 89.0 385.7 89.0L385.7 89.0ZM395.2 85.6L395.2 89.7Q395.2 90.4 395.0 90.9Q394.7 91.5 394.1 91.8Q393.6 92.1 392.7 92.1L392.7 92.1Q391.5 92.1 390.9 91.4Q390.3 90.8 390.3 89.7L390.3 89.7L390.3 85.6L391.1 85.6L391.1 89.7Q391.1 90.5 391.5 91.0Q391.9 91.4 392.8 91.4L392.8 91.4Q393.7 91.4 394.0 90.9Q394.4 90.5 394.4 89.7L394.4 89.7L394.4 85.6L395.2 85.6ZM399.8 86.3L399.8 92L399.0 92L399.0 86.3L396.9 86.3L396.9 85.6L401.8 85.6L401.8 86.3L399.8 86.3ZM405.3 91.5L405.3 92L403.0 92L403.0 91.5L403.8 91.4L403.8 86.2L403.0 86.0L403.0 85.6L405.3 85.6L405.3 86.0L404.6 86.2L404.6 91.4L405.3 91.5ZM413.0 88.8L413.0 88.8Q413.0 89.8 412.7 90.5Q412.3 91.3 411.7 91.7Q411.0 92.1 410.0 92.1L410.0 92.1Q409.0 92.1 408.4 91.7Q407.7 91.3 407.4 90.5Q407.1 89.8 407.1 88.8L407.1 88.8Q407.1 87.8 407.4 87.0Q407.7 86.3 408.4 85.9Q409.0 85.5 410.0 85.5L410.0 85.5Q411.0 85.5 411.7 85.9Q412.3 86.3 412.7 87.0Q413.0 87.8 413.0 88.8ZM407.9 88.8L407.9 88.8Q407.9 90.0 408.4 90.7Q408.9 91.4 410.0 91.4L410.0 91.4Q411.1 91.4 411.6 90.7Q412.1 90.0 412.1 88.8L412.1 88.8Q412.1 87.6 411.6 86.9Q411.1 86.2 410.0 86.2L410.0 86.2Q409.0 86.2 408.4 86.9Q407.9 87.6 407.9 88.8ZM420.3 85.6L420.3 92L419.4 92L415.9 86.7L415.9 86.7Q415.9 87.0 415.9 87.4Q416.0 87.9 416.0 88.4L416.0 88.4L416.0 92L415.2 92L415.2 85.6L416.2 85.6L419.6 90.9L419.6 90.9Q419.6 90.7 419.6 90.5Q419.6 90.2 419.6 89.8Q419.6 89.5 419.6 89.2L419.6 89.2L419.6 85.6L420.3 85.6ZM426.5 90.3L426.5 90.3Q426.5 91.1 425.9 91.6Q425.3 92.1 424.2 92.1L424.2 92.1Q423.7 92.1 423.2 92.0Q422.7 91.9 422.4 91.8L422.4 91.8L422.4 91.0Q422.8 91.2 423.2 91.3Q423.7 91.4 424.2 91.4L424.2 91.4Q425.0 91.4 425.3 91.1Q425.7 90.8 425.7 90.4L425.7 90.4Q425.7 90.0 425.6 89.8Q425.4 89.6 425.1 89.4Q424.8 89.2 424.2 89.0L424.2 89.0Q423.4 88.7 422.9 88.3Q422.5 87.9 422.5 87.1L422.5 87.1Q422.5 86.6 422.8 86.2Q423.0 85.9 423.5 85.7Q424.0 85.5 424.6 85.5L424.6 85.5Q425.1 85.5 425.5 85.6Q426.0 85.7 426.3 85.8L426.3 85.8L426.1 86.5Q425.8 86.4 425.4 86.3Q425.0 86.2 424.6 86.2L424.6 86.2Q424.0 86.2 423.6 86.5Q423.3 86.7 423.3 87.1L423.3 87.1Q423.3 87.5 423.5 87.7Q423.6 87.9 423.9 88.1Q424.2 88.2 424.7 88.4L424.7 88.4Q425.3 88.6 425.7 88.9Q426.1 89.1 426.3 89.4Q426.5 89.8 426.5 90.3Z "/></g><defs><clipPath id="satori_bc-id-4" clip-path="url(#satori_cp-id)"><rect x="485" y="44" width="194" height="62"/></clipPath></defs><mask id="satori_om-id-4"><rect x="485" y="44" width="193" height="62" fill="#fff" mask="url(#satori_om-id)"/><path width="194" height="62" fill="none" stroke="#000" stroke-width="2" d="M679,44 A0,0 0 0 1 679,44 v62 A0,0 0 0 1 679,106"/></mask><path width="194" height="62" clip-path="url(#satori_bc-id-4)" fill="none" stroke="rgba(255,255,255,0.06)" stroke-width="2" d="M679,44 A0,0 0 0 1 679,44 v62 A0,0 0 0 1 679,106"/><mask id="satori_om-id-4-0"><rect x="541" y="56" width="82" height="22" fill="#fff" mask="url(#satori_om-id)"/></mask><g mask="url(#satori_om-id)" clip-path="url(#satori_cp-id)"><path fill="#4ade80" d="M551.8 64.0L551.8 64.0Q551.8 65.5 551.0 66.5Q550.1 67.4 548.6 67.7L548.6 67.7L548.6 67.8Q550.5 68.0 551.4 69.0Q552.3 70.0 552.3 71.5L552.3 71.5Q552.3 72.9 551.7 74.0Q551.1 75.0 549.7 75.6Q548.4 76.2 546.3 76.2L546.3 76.2Q545.1 76.2 544.0 76.0Q543.0 75.8 542.0 75.4L542.0 75.4L542.0 73.6Q543.0 74.0 544.1 74.3Q545.3 74.6 546.3 74.6L546.3 74.6Q548.4 74.6 549.4 73.8Q550.3 72.9 550.3 71.5L550.3 71.5Q550.3 70.0 549.2 69.4Q548.0 68.7 545.9 68.7L545.9 68.7L544.4 68.7L544.4 67.1L545.9 67.1Q547.9 67.1 548.9 66.3Q549.9 65.4 549.9 64.1L549.9 64.1Q549.9 63.0 549.1 62.3Q548.3 61.7 547.0 61.7L547.0 61.7Q545.7 61.7 544.8 62.1Q543.9 62.4 543.0 63.0L543.0 63.0L542.1 61.7Q542.9 61.0 544.2 60.6Q545.4 60.1 547.0 60.1L547.0 60.1Q549.4 60.1 550.6 61.2Q551.8 62.3 551.8 64.0ZM565.0 74.2L565.0 76L554.6 76L554.6 74.4L558.8 70.2Q559.9 69.0 560.8 68.1Q561.6 67.2 562.0 66.3Q562.4 65.4 562.4 64.4L562.4 64.4Q562.4 63.1 561.6 62.4Q560.9 61.7 559.6 61.7L559.6 61.7Q558.5 61.7 557.6 62.1Q556.8 62.5 555.8 63.2L555.8 63.2L554.8 61.9Q555.7 61.1 556.9 60.6Q558.1 60.1 559.6 60.1L559.6 60.1Q561.8 60.1 563.1 61.2Q564.4 62.3 564.4 64.3L564.4 64.3Q564.4 65.5 563.9 66.6Q563.4 67.6 562.5 68.7Q561.6 69.7 560.4 70.9L560.4 70.9L557.1 74.2L557.1 74.2L565.0 74.2ZM577.7 68.1L577.7 68.1Q577.7 70.7 577.1 72.5Q576.6 74.3 575.5 75.3Q574.3 76.2 572.4 76.2L572.4 76.2Q569.8 76.2 568.5 74.1Q567.2 71.9 567.2 68.1L567.2 68.1Q567.2 65.6 567.8 63.8Q568.3 62.0 569.4 61.0Q570.6 60.0 572.4 60.0L572.4 60.0Q575.1 60.0 576.4 62.2Q577.7 64.3 577.7 68.1ZM569.2 68.1L569.2 68.1Q569.2 71.4 569.9 73.0Q570.7 74.6 572.4 74.6L572.4 74.6Q574.2 74.6 575.0 73.0Q575.7 71.4 575.7 68.1L575.7 68.1Q575.7 64.9 575.0 63.3Q574.2 61.7 572.4 61.7L572.4 61.7Q570.7 61.7 569.9 63.3Q569.2 64.9 569.2 68.1ZM582.8 73.4L583.0 73.7Q582.7 74.9 582.2 76.3Q581.6 77.7 581.1 78.8L581.1 78.8L579.7 78.8Q580.0 77.6 580.3 76.1Q580.6 74.6 580.8 73.4L580.8 73.4L582.8 73.4ZM592.5 60.3L592.5 76L590.6 76L590.6 65.0Q590.6 64.1 590.6 63.5Q590.6 62.9 590.7 62.3L590.7 62.3Q590.3 62.7 590.0 62.9Q589.7 63.2 589.3 63.5L589.3 63.5L587.6 64.9L586.6 63.6L590.9 60.3L592.5 60.3ZM598.4 69.3L598.4 69.3Q598.4 67.6 598.7 66.0Q599.0 64.3 599.8 63.0Q600.6 61.7 602.0 60.9Q603.4 60.1 605.6 60.1L605.6 60.1Q606.1 60.1 606.7 60.1Q607.2 60.2 607.6 60.3L607.6 60.3L607.6 61.9Q607.2 61.8 606.7 61.7Q606.2 61.7 605.7 61.7L605.7 61.7Q604.2 61.7 603.1 62.2Q602.1 62.7 601.6 63.5Q601.0 64.4 600.7 65.6Q600.4 66.7 600.4 68.0L600.4 68.0L600.5 68.0Q601.0 67.2 601.9 66.7Q602.8 66.2 604.2 66.2L604.2 66.2Q606.3 66.2 607.5 67.4Q608.8 68.7 608.8 70.9L608.8 70.9Q608.8 73.4 607.4 74.8Q606.1 76.2 603.8 76.2L603.8 76.2Q602.3 76.2 601.1 75.5Q599.9 74.7 599.2 73.2Q598.4 71.6 598.4 69.3ZM603.8 74.6L603.8 74.6Q605.2 74.6 606.0 73.7Q606.9 72.8 606.9 70.9L606.9 70.9Q606.9 69.4 606.1 68.6Q605.3 67.7 603.8 67.7L603.8 67.7Q602.8 67.7 602.0 68.1Q601.3 68.5 600.8 69.2Q600.4 69.9 600.4 70.6L600.4 70.6Q600.4 71.5 600.8 72.4Q601.1 73.4 601.9 74.0Q602.6 74.6 603.8 74.6ZM611.0 69.3L611.0 69.3Q611.0 67.6 611.3 66.0Q611.6 64.3 612.4 63.0Q613.2 61.7 614.6 60.9Q616.0 60.1 618.2 60.1L618.2 60.1Q618.7 60.1 619.2 60.1Q619.8 60.2 620.2 60.3L620.2 60.3L620.2 61.9Q619.8 61.8 619.3 61.7Q618.8 61.7 618.3 61.7L618.3 61.7Q616.7 61.7 615.7 62.2Q614.7 62.7 614.1 63.5Q613.6 64.4 613.3 65.6Q613.0 66.7 613.0 68.0L613.0 68.0L613.1 68.0Q613.6 67.2 614.5 66.7Q615.4 66.2 616.8 66.2L616.8 66.2Q618.9 66.2 620.1 67.4Q621.4 68.7 621.4 70.9L621.4 70.9Q621.4 73.4 620.0 74.8Q618.7 76.2 616.4 76.2L616.4 76.2Q614.9 76.2 613.7 75.5Q612.5 74.7 611.7 73.2Q611.0 71.6 611.0 69.3ZM616.3 74.6L616.3 74.6Q617.7 74.6 618.6 73.7Q619.5 72.8 619.5 70.9L619.5 70.9Q619.5 69.4 618.7 68.6Q617.9 67.7 616.4 67.7L616.4 67.7Q615.4 67.7 614.6 68.1Q613.8 68.5 613.4 69.2Q613.0 69.9 613.0 70.6L613.0 70.6Q613.0 71.5 613.4 72.4Q613.7 73.4 614.5 74.0Q615.2 74.6 616.3 74.6Z "/></g><mask id="satori_om-id-4-1"><rect x="563" y="82" width="38" height="12" fill="#fff" mask="url(#satori_om-id)"/></mask><g mask="url(#satori_om-id)" clip-path="url(#satori_cp-id)"><path fill="rgba(200,195,225,0.45)" d="M567.5 92L563.9 92L563.9 85.6L564.7 85.6L564.7 91.3L567.5 91.3L567.5 92ZM571.2 91.5L571.2 92L568.9 92L568.9 91.5L569.6 91.4L569.6 86.2L568.9 86.0L568.9 85.6L571.2 85.6L571.2 86.0L570.4 86.2L570.4 91.4L571.2 91.5ZM578.3 85.6L578.3 92L577.4 92L574.0 86.7L573.9 86.7Q573.9 87.0 574.0 87.4Q574.0 87.9 574.0 88.4L574.0 88.4L574.0 92L573.2 92L573.2 85.6L574.2 85.6L577.6 90.9L577.6 90.9Q577.6 90.7 577.6 90.5Q577.6 90.2 577.6 89.8Q577.6 89.5 577.6 89.2L577.6 89.2L577.6 85.6L578.3 85.6ZM584.5 91.3L584.5 92L580.9 92L580.9 85.6L584.5 85.6L584.5 86.3L581.7 86.3L581.7 88.3L584.3 88.3L584.3 89.0L581.7 89.0L581.7 91.3L584.5 91.3ZM590.3 90.3L590.3 90.3Q590.3 91.1 589.7 91.6Q589.1 92.1 588.0 92.1L588.0 92.1Q587.5 92.1 587.0 92.0Q586.6 91.9 586.3 91.8L586.3 91.8L586.3 91.0Q586.6 91.2 587.1 91.3Q587.6 91.4 588.1 91.4L588.1 91.4Q588.8 91.4 589.2 91.1Q589.5 90.8 589.5 90.4L589.5 90.4Q589.5 90.0 589.4 89.8Q589.2 89.6 588.9 89.4Q588.6 89.2 588.0 89.0L588.0 89.0Q587.2 88.7 586.8 88.3Q586.4 87.9 586.4 87.1L586.4 87.1Q586.4 86.6 586.6 86.2Q586.9 85.9 587.3 85.7Q587.8 85.5 588.4 85.5L588.4 85.5Q588.9 85.5 589.4 85.6Q589.8 85.7 590.2 85.8L590.2 85.8L589.9 86.5Q589.6 86.4 589.2 86.3Q588.8 86.2 588.4 86.2L588.4 86.2Q587.8 86.2 587.5 86.5Q587.2 86.7 587.2 87.1L587.2 87.1Q587.2 87.5 587.3 87.7Q587.4 87.9 587.7 88.1Q588.1 88.2 588.6 88.4L588.6 88.4Q589.1 88.6 589.5 88.9Q589.9 89.1 590.1 89.4Q590.3 89.8 590.3 90.3Z M597.6 86.6L597.6 88.5L599.4 88.5L599.4 89.1L597.6 89.1L597.6 91.0L596.9 91.0L596.9 89.1L595.1 89.1L595.1 88.5L596.9 88.5L596.9 86.6L597.6 86.6Z "/></g><mask id="satori_om-id-5"><rect x="679" y="44" width="180" height="62" fill="#fff" mask="url(#satori_om-id)"/></mask><mask id="satori_om-id-5-0"><rect x="735" y="56" width="69" height="22" fill="#fff" mask="url(#satori_om-id)"/></mask><g mask="url(#satori_om-id)" clip-path="url(#satori_cp-id)"><path fill="#fb7185" d="M746.4 74.2L746.4 76L736.1 76L736.1 74.4L740.2 70.2Q741.4 69.0 742.2 68.1Q743.0 67.2 743.4 66.3Q743.8 65.4 743.8 64.4L743.8 64.4Q743.8 63.1 743.1 62.4Q742.3 61.7 741.0 61.7L741.0 61.7Q739.9 61.7 739.0 62.1Q738.2 62.5 737.3 63.2L737.3 63.2L736.2 61.9Q737.2 61.1 738.4 60.6Q739.6 60.1 741.0 60.1L741.0 60.1Q743.3 60.1 744.5 61.2Q745.8 62.3 745.8 64.3L745.8 64.3Q745.8 65.5 745.3 66.6Q744.8 67.6 743.9 68.7Q743.0 69.7 741.8 70.9L741.8 70.9L738.5 74.2L738.5 74.2L746.4 74.2ZM752.7 76L750.6 76L757.0 62.1L748.6 62.1L748.6 60.3L759.1 60.3L759.1 61.8L752.7 76ZM764.2 73.4L764.4 73.7Q764.1 74.9 763.6 76.3Q763.0 77.7 762.5 78.8L762.5 78.8L761.1 78.8Q761.4 77.6 761.7 76.1Q762.0 74.6 762.2 73.4L762.2 73.4L764.2 73.4ZM777.5 67.0L777.5 67.0Q777.5 68.7 777.2 70.3Q776.9 72.0 776.1 73.3Q775.3 74.6 773.9 75.4Q772.5 76.2 770.3 76.2L770.3 76.2Q769.8 76.2 769.3 76.2Q768.7 76.1 768.3 76L768.3 76L768.3 74.3Q769.2 74.6 770.2 74.6L770.2 74.6Q771.8 74.6 772.8 74.1Q773.8 73.6 774.4 72.8Q775.0 71.9 775.2 70.7Q775.5 69.6 775.5 68.3L775.5 68.3L775.4 68.3Q774.9 69.0 774.0 69.6Q773.1 70.1 771.7 70.1L771.7 70.1Q769.6 70.1 768.4 68.9Q767.2 67.6 767.2 65.4L767.2 65.4Q767.2 63.7 767.8 62.5Q768.4 61.3 769.5 60.7Q770.7 60.1 772.2 60.1L772.2 60.1Q773.7 60.1 774.9 60.8Q776.1 61.6 776.8 63.1Q777.5 64.6 777.5 67.0ZM772.2 61.7L772.2 61.7Q770.8 61.7 769.9 62.6Q769.1 63.5 769.1 65.4L769.1 65.4Q769.1 66.9 769.8 67.7Q770.6 68.6 772.1 68.6L772.1 68.6Q773.1 68.6 773.9 68.2Q774.7 67.8 775.1 67.1Q775.5 66.4 775.5 65.7L775.5 65.7Q775.5 64.8 775.2 63.9Q774.8 62.9 774.0 62.3Q773.3 61.7 772.2 61.7ZM786.5 60.3L786.5 76L784.6 76L784.6 65.0Q784.6 64.1 784.6 63.5Q784.6 62.9 784.7 62.3L784.7 62.3Q784.3 62.7 784.0 62.9Q783.7 63.2 783.3 63.5L783.3 63.5L781.6 64.9L780.6 63.6L784.9 60.3L786.5 60.3ZM802.7 67.0L802.7 67.0Q802.7 68.7 802.4 70.3Q802.1 72.0 801.3 73.3Q800.5 74.6 799.1 75.4Q797.7 76.2 795.5 76.2L795.5 76.2Q795.0 76.2 794.4 76.2Q793.8 76.1 793.5 76L793.5 76L793.5 74.3Q794.3 74.6 795.4 74.6L795.4 74.6Q797.0 74.6 798.0 74.1Q799.0 73.6 799.5 72.8Q800.1 71.9 800.4 70.7Q800.7 69.6 800.7 68.3L800.7 68.3L800.6 68.3Q800.1 69.0 799.2 69.6Q798.3 70.1 796.8 70.1L796.8 70.1Q794.8 70.1 793.6 68.9Q792.3 67.6 792.3 65.4L792.3 65.4Q792.3 63.7 793.0 62.5Q793.6 61.3 794.7 60.7Q795.8 60.1 797.3 60.1L797.3 60.1Q798.8 60.1 800.1 60.8Q801.3 61.6 802.0 63.1Q802.7 64.6 802.7 67.0ZM797.3 61.7L797.3 61.7Q796.0 61.7 795.1 62.6Q794.2 63.5 794.2 65.4L794.2 65.4Q794.2 66.9 795.0 67.7Q795.7 68.6 797.3 68.6L797.3 68.6Q798.3 68.6 799.1 68.2Q799.9 67.8 800.3 67.1Q800.7 66.4 800.7 65.7L800.7 65.7Q800.7 64.8 800.3 63.9Q800.0 62.9 799.2 62.3Q798.5 61.7 797.3 61.7Z "/></g><mask id="satori_om-id-5-1"><rect x="751" y="82" width="36" height="12" fill="#fff" mask="url(#satori_om-id)"/></mask><g mask="url(#satori_om-id)" clip-path="url(#satori_cp-id)"><path fill="rgba(200,195,225,0.45)" d="M755.5 92L751.9 92L751.9 85.6L752.7 85.6L752.7 91.3L755.5 91.3L755.5 92ZM759.2 91.5L759.2 92L756.9 92L756.9 91.5L757.6 91.4L757.6 86.2L756.9 86.0L756.9 85.6L759.2 85.6L759.2 86.0L758.4 86.2L758.4 91.4L759.2 91.5ZM766.3 85.6L766.3 92L765.4 92L762.0 86.7L761.9 86.7Q761.9 87.0 762.0 87.4Q762.0 87.9 762.0 88.4L762.0 88.4L762.0 92L761.2 92L761.2 85.6L762.2 85.6L765.6 90.9L765.6 90.9Q765.6 90.7 765.6 90.5Q765.6 90.2 765.6 89.8Q765.6 89.5 765.6 89.2L765.6 89.2L765.6 85.6L766.3 85.6ZM772.5 91.3L772.5 92L768.9 92L768.9 85.6L772.5 85.6L772.5 86.3L769.7 86.3L769.7 88.3L772.3 88.3L772.3 89.0L769.7 89.0L769.7 91.3L772.5 91.3ZM778.3 90.3L778.3 90.3Q778.3 91.1 777.7 91.6Q777.1 92.1 776.0 92.1L776.0 92.1Q775.5 92.1 775.0 92.0Q774.6 91.9 774.3 91.8L774.3 91.8L774.3 91.0Q774.6 91.2 775.1 91.3Q775.6 91.4 776.1 91.4L776.1 91.4Q776.8 91.4 777.2 91.1Q777.5 90.8 777.5 90.4L777.5 90.4Q777.5 90.0 777.4 89.8Q777.2 89.6 776.9 89.4Q776.6 89.2 776.0 89.0L776.0 89.0Q775.2 88.7 774.8 88.3Q774.4 87.9 774.4 87.1L774.4 87.1Q774.4 86.6 774.6 86.2Q774.9 85.9 775.3 85.7Q775.8 85.5 776.4 85.5L776.4 85.5Q776.9 85.5 777.4 85.6Q777.8 85.7 778.2 85.8L778.2 85.8L777.9 86.5Q777.6 86.4 777.2 86.3Q776.8 86.2 776.4 86.2L776.4 86.2Q775.8 86.2 775.5 86.5Q775.2 86.7 775.2 87.1L775.2 87.1Q775.2 87.5 775.3 87.7Q775.4 87.9 775.7 88.1Q776.1 88.2 776.6 88.4L776.6 88.4Q777.1 88.6 777.5 88.9Q777.9 89.1 778.1 89.4Q778.3 89.8 778.3 90.3Z M785.2 89.9L783.1 89.9L783.1 89.2L785.2 89.2L785.2 89.9Z "/></g></svg>