<!-- Generated by readme-aura https://github.com/collectioneur/readme-aura -->
<svg width="860" height="150" viewBox="0 0 860 150" xmlns="http://www.w3.org/2000/svg"><defs><clipPath id="satori_bc-id"><path x="0" y="0" width="860" height="150" d="M16,0 h828 a16,16 0 0 1 16,16 v118 a16,16 0 0 1 -16,16 h-828 a16,16 0 0 1 -16,-16 v-118 a16,16 0 0 1 16,-16"/></clipPath></defs><clipPath id="satori_cp-id"><path x="0" y="0" width="860" height="150" d="M16,0 h828 a16,16 0 0 1 16,16 v118 a16,16 0 0 1 -16,16 h-828 a16,16 0 0 1 -16,-16 v-118 a16,16 0 0 1 16,-16"/></clipPath><mask id="satori_om-id"><rect x="1" y="1" width="858" height="148" fill="#fff"/><path width="860" height="150" fill="none" stroke="#000" stroke-width="2" d="M4.686,4.686 A16,16 0 0 1 16,0 h828 a16,16 0 0 1 16,16 v118 a16,16 0 0 1 -16,16 h-828 a16,16 0 0 1 -16,-16 v-118 A16,16 0 0 1 4.686,4.686"/></mask><path x="0" y="0" width="860" height="150" fill="#08080c" d="M16,0 h828 a16,16 0 0 1 16,16 v118 a16,16 0 0 1 -16,16 h-828 a16,16 0 0 1 -16,-16 v-118 a16,16 0 0 1 16,-16"/><path width="860" height="150" clip-path="url(#satori_bc-id)" fill="none" stroke="rgba(110,80,220,0.18)" stroke-width="2" d="M4.686,4.686 A16,16 0 0 1 16,0 h828 a16,16 0 0 1 16,16 v118 a16,16 0 0 1 -16,16 h-828 a16,16 0 0 1 -16,-16 v-118 A16,16 0 0 1 4.686,4.686"/><clipPath id="satori_cp-id-0" clip-path="url(#satori_cp-id)"><rect x="1" y="1" width="860" height="150"/></clipPath><mask id="satori_om-id-0"><rect x="1" y="1" width="860" height="150" fill="#fff" mask="url(#satori_om-id)"/></mask><svg x="1" y="1" width="860" height="150" preserveAspectRatio="none" clip-path="url(#satori_cp-id-0)" mask="url(#satori_om-id-0)"><defs><radialGradient id="g1" cx="50%" cy="50%" r="50%"><stop offset="0%" stop-color="rgba(110,20,210,0.65)"></stop><stop offset="45%" stop-color="rgba(80,15,170,0.28)"></stop><stop offset="70%" stop-color="rgba(80,15,170,0)"></stop></radialGradient><radialGradient id="g2" cx="50%" cy="50%" r="50%"><stop offset="0%" stop-color="rgba(40,70,255,0.55)"></stop><stop offset="45%" stop-color="rgba(20,50,200,0.22)"></stop><stop offset="70%" stop-color="rgba(20,50,200,0)"></stop></radialGradient><radialGradient id="g3" cx="50%" cy="50%" r="50%"><stop offset="0%" stop-color="rgba(0,140,255,0.42)"></stop><stop offset="70%" stop-color="rgba(0,140,255,0)"></stop></radialGradient><radialGradient id="g4" cx="50%" cy="50%" r="50%"><stop offset="0%" stop-color="rgba(0,195,235,0.30)"></stop><stop offset="70%" stop-color="rgba(0,195,235,0)"></stop></radialGradient><radialGradient id="g5" cx="50%" cy="50%" r="50%"><stop offset="0%" stop-color="rgba(100,30,210,0.40)"></stop><stop offset="70%" stop-color="rgba(100,30,210,0)"></stop></radialGradient></defs><ellipse id="glow-1" cx="730" cy="155" rx="180" ry="130" fill="url(#g1)"></ellipse><ellipse id="glow-2" cx="580" cy="148" rx="170" ry="125" fill="url(#g2)"></ellipse><ellipse id="glow-3" cx="430" cy="142" rx="160" ry="120" fill="url(#g3)"></ellipse><ellipse id="glow-4" cx="280" cy="148" rx="150" ry="115" fill="url(#g4)"></ellipse><ellipse id="glow-5" cx="130" cy="155" rx="130" ry="105" fill="url(#g5)"></ellipse><style>

          @keyframes float-slow {
            0%, 100% { transform: translateX(0px); opacity: 0.8; }
            50% { transform: translateX(350px); opacity: 1.2; }
          }
          @keyframes float-medium {
            0%, 100% { transform: translateX(0px); opacity: 0.7; }
            50% { transform: translateX(-250px); opacity: 1.1; }
          }
          @keyframes float-fast {
            0%, 100% { transform: translateX(0px); opacity: 0.9; }
            50% { transform: translateX(200px); opacity: 0.6; }
          }
          @keyframes float-diagonal {
            0%, 100% { transform: translate(0px, 0px); opacity: 0.75; }
            50% { transform: translate(120px, 30px); opacity: 1.0; }
          }
          @keyframes float-wave {
            0%, 100% { transform: translateX(0px); opacity: 0.65; }
            33% { transform: translateX(-160px); opacity: 0.9; }
            66% { transform: translateX(80px); opacity: 1.0; }
          }
          @keyframes float-pulse {
            0%, 100% { transform: scale(1); opacity: 0.8; }
            50% { transform: scale(1.3); opacity: 0.4; }
          }
          #glow-1 { animation: float-slow 8s ease-in-out infinite; }
          #glow-2 { animation: float-medium 12s ease-in-out infinite; }
          #glow-3 { animation: float-fast 9s ease-in-out infinite; }
          #glow-4 { animation: float-diagonal 10s ease-in-out infinite; }
          #glow-5 { animation: float-wave 14s ease-in-out infinite; }
        
</style>
</svg><mask id="satori_om-id-0-0"><rect x="1" y="1" width="0" height="150" fill="#fff" mask="url(#satori_om-id)"/></mask><mask id="satori_om-id-0-0-0"><rect x="1" y="1" width="0" height="150" fill="#fff" mask="url(#satori_om-id)"/></mask><mask id="satori_om-id-0-0-0-0"><rect x="1" y="1" width="0" height="150" fill="#fff" mask="url(#satori_om-id)"/></mask><mask id="satori_om-id-0-0-0-1"><rect x="1" y="1" width="0" height="150" fill="#fff" mask="url(#satori_om-id)"/></mask><mask id="satori_om-id-0-0-0-2"><rect x="1" y="1" width="0" height="150" fill="#fff" mask="url(#satori_om-id)"/></mask><mask id="satori_om-id-0-0-1"><rect x="1" y="1" width="0" height="150" fill="#fff" mask="url(#satori_om-id)"/></mask><mask id="satori_om-id-0-0-1-0"><rect x="1" y="1" width="0" height="150" fill="#fff" mask="url(#satori_om-id)"/></mask><mask id="satori_om-id-0-0-1-1"><rect x="1" y="1" width="0" height="150" fill="#fff" mask="url(#satori_om-id)"/></mask><mask id="satori_om-id-0-0-1-2"><rect x="1" y="1" width="0" height="150" fill="#fff" mask="url(#satori_om-id)"/></mask><mask id="satori_om-id-0-0-2"><rect x="1" y="1" width="0" height="150" fill="#fff" mask="url(#satori_om-id)"/></mask><mask id="satori_om-id-0-0-2-0"><rect x="1" y="1" width="0" height="150" fill="#fff" mask="url(#satori_om-id)"/></mask><mask id="satori_om-id-0-0-2-1"><rect x="1" y="1" width="0" height="150" fill="#fff" mask="url(#satori_om-id)"/></mask><mask id="satori_om-id-0-0-3"><rect x="1" y="1" width="0" height="150" fill="#fff" mask="url(#satori_om-id)"/></mask><mask id="satori_om-id-0-0-3-0"><rect x="1" y="1" width="0" height="150" fill="#fff" mask="url(#satori_om-id)"/></mask><mask id="satori_om-id-0-0-3-1"><rect x="1" y="1" width="0" height="150" fill="#fff" mask="url(#satori_om-id)"/></mask><mask id="satori_om-id-0-0-4"><rect x="1" y="1" width="0" height="150" fill="#fff" mask="url(#satori_om-id)"/></mask><mask id="satori_om-id-0-0-4-0"><rect x="1" y="1" width="0" height="150" fill="#fff" mask="url(#satori_om-id)"/></mask><mask id="satori_om-id-0-0-4-1"><rect x="1" y="1" width="0" height="150" fill="#fff" mask="url(#satori_om-id)"/></mask><mask id="satori_om-id-0-1"><rect x="1" y="1" width="0" height="150" fill="#fff" mask="url(#satori_om-id)"/></mask><mask id="satori_om-id-0-2"><rect x="1" y="1" width="0" height="150" fill="#fff" mask="url(#satori_om-id)"/></mask><mask id="satori_om-id-0-3"><rect x="1" y="1" width="0" height="150" fill="#fff" mask="url(#satori_om-id)"/></mask><mask id="satori_om-id-0-4"><rect x="1" y="1" width="0" height="150" fill="#fff" mask="url(#satori_om-id)"/></mask><mask id="satori_om-id-0-5"><rect x="1" y="1" width="0" height="150" fill="#fff" mask="url(#satori_om-id)"/></mask><defs><clipPath id="satori_bc-id-1" clip-path="url(#satori_cp-id)"><rect x="1" y="45" width="172" height="61"/></clipPath></defs><mask id="satori_om-id-1"><rect x="1" y="45" width="171" height="61" fill="#fff" mask="url(#satori_om-id)"/><path width="172" height="61" fill="none" stroke="#000" stroke-width="2" d="M173,45 A0,0 0 0 1 173,45 v61 A0,0 0 0 1 173,106"/></mask><path width="172" height="61" clip-path="url(#satori_bc-id-1)" fill="none" stroke="rgba(255,255,255,0.06)" stroke-width="2" d="M173,45 A0,0 0 0 1 173,45 v61 A0,0 0 0 1 173,106"/><mask id="satori_om-id-1-0"><rect x="56" y="57" width="60" height="22" fill="#fff" mask="url(#satori_om-id)"/></mask><g mask="url(#satori_om-id)" clip-path="url(#satori_cp-id)"><path fill="#a78bfa" d="M60.7 76L57.5 76L57.5 60.0L62.5 60.0L65.1 67.3Q65.2 67.9 65.4 68.7Q65.7 69.5 65.9 70.4L65.9 70.4Q66.1 71.4 66.3 72.2L66.3 72.2Q66.5 71.4 66.7 70.5L66.7 70.5Q66.9 69.5 67.1 68.7Q67.3 67.9 67.5 67.3L67.5 67.3L70.0 60.0L75.1 60.0L75.1 76L71.8 76L71.8 68.5Q71.8 67.9 71.8 67.1Q71.8 66.4 71.8 65.5Q71.8 64.5 71.9 63.6L71.9 63.6Q71.9 63.2 71.9 62.8L71.9 62.8Q71.8 63.3 71.7 63.7L71.7 63.7Q71.4 64.7 71.2 65.6Q70.9 66.5 70.7 67.2Q70.4 68.0 70.3 68.5L70.3 68.5L67.6 76L64.9 76L62.2 68.5Q62.0 68.0 61.8 67.2Q61.6 66.5 61.3 65.6Q61.1 64.7 60.8 63.8L60.8 63.8Q60.7 63.3 60.6 62.9L60.6 62.9Q60.6 63.2 60.6 63.6L60.6 63.6Q60.6 64.5 60.6 65.4Q60.7 66.3 60.7 67.1Q60.7 67.9 60.7 68.5L60.7 68.5L60.7 76ZM83.2 76.2L83.2 76.2Q81.4 76.2 80.1 75.5Q78.8 74.7 78.1 73.3Q77.4 71.9 77.4 70.0L77.4 70.0Q77.4 68.2 78.1 66.8Q78.8 65.4 80.1 64.6Q81.4 63.8 83.2 63.8L83.2 63.8Q85.1 63.8 86.4 64.6Q87.7 65.4 88.4 66.8Q89.1 68.2 89.1 70.0L89.1 70.0Q89.1 71.9 88.4 73.3Q87.7 74.7 86.4 75.5Q85.1 76.2 83.2 76.2ZM83.2 73.7L83.2 73.7Q84.1 73.7 84.7 73.2Q85.3 72.7 85.6 71.9Q85.8 71.1 85.8 70.0L85.8 70.0Q85.8 69.0 85.6 68.1Q85.3 67.3 84.7 66.8Q84.1 66.4 83.2 66.4L83.2 66.4Q82.4 66.4 81.8 66.8Q81.2 67.3 80.9 68.1Q80.7 69.0 80.7 70.0L80.7 70.0Q80.7 71.1 80.9 71.9Q81.2 72.7 81.8 73.2Q82.4 73.7 83.2 73.7ZM96.7 76.2L96.7 76.2Q94.9 76.2 93.6 75.5Q92.3 74.7 91.6 73.3Q90.9 71.9 90.9 70.0L90.9 70.0Q90.9 68.2 91.6 66.8Q92.3 65.4 93.6 64.6Q94.9 63.8 96.7 63.8L96.7 63.8Q97.8 63.8 98.7 64.1Q99.6 64.4 100.3 64.9Q101.0 65.4 101.5 66.2Q101.9 66.9 102.1 67.8L102.1 67.8L99.1 68.4Q99.0 67.9 98.8 67.6Q98.6 67.2 98.3 66.9Q98.0 66.7 97.6 66.5Q97.2 66.4 96.8 66.4L96.8 66.4Q95.9 66.4 95.3 66.8Q94.7 67.3 94.4 68.1Q94.1 69.0 94.1 70.0L94.1 70.0Q94.1 71.1 94.4 71.9Q94.7 72.8 95.3 73.2Q95.9 73.7 96.8 73.7L96.8 73.7Q97.2 73.7 97.6 73.6Q98.0 73.4 98.3 73.1Q98.6 72.9 98.8 72.5Q99.0 72.1 99.1 71.6L99.1 71.6L102.1 72.2Q101.9 73.1 101.5 73.9Q101.0 74.6 100.3 75.1Q99.6 75.7 98.7 76.0Q97.8 76.2 96.7 76.2ZM107.5 76L104.3 76L104.3 60.0L107.5 60.0L107.5 68.6L107.7 68.6L111.6 64.0L115.4 64.0L110.9 69.2L115.6 76L111.8 76L108.5 71.1L107.5 72.1L107.5 76Z "/></g><mask id="satori_om-id-1-1"><rect x="69" y="83" width="35" height="11" fill="#fff" mask="url(#satori_om-id)"/></mask><g mask="url(#satori_om-id)" clip-path="url(#satori_cp-id)"><path fill="rgba(200,195,225,0.45)" d="M70.9 92L69.6 92L69.6 85.5L72.1 85.5Q72.9 85.5 73.4 85.7Q73.9 86.0 74.2 86.5Q74.5 86.9 74.5 87.6Q74.5 88.2 74.2 88.7Q73.9 89.2 73.4 89.4L73.4 89.4Q73.4 89.4 73.3 89.4L73.3 89.4L74.7 92L73.2 92L72.0 89.7L70.9 89.7L70.9 92ZM70.9 86.6L70.9 88.6L71.9 88.6Q72.3 88.6 72.6 88.5Q72.8 88.4 73.0 88.1Q73.1 87.9 73.1 87.6L73.1 87.6Q73.1 87.2 73.0 87.0Q72.8 86.8 72.6 86.7Q72.3 86.6 71.9 86.6L71.9 86.6L70.9 86.6ZM80.7 92L76.3 92L76.3 85.5L80.7 85.5L80.7 86.6L77.6 86.6L77.6 88.1L80.5 88.1L80.5 89.2L77.6 89.2L77.6 90.9L80.7 90.9L80.7 92ZM83.9 92L82.6 92L82.6 85.5L85.1 85.5Q85.9 85.5 86.4 85.7Q86.9 86.0 87.2 86.5Q87.5 87.0 87.5 87.7L87.5 87.7Q87.5 88.3 87.2 88.8Q86.9 89.3 86.4 89.6Q85.8 89.9 85.1 89.9L85.1 89.9L83.9 89.9L83.9 92ZM83.9 86.6L83.9 88.8L84.9 88.8Q85.3 88.8 85.6 88.6Q85.8 88.5 86.0 88.2Q86.1 88.0 86.1 87.7Q86.1 87.3 86.0 87.1Q85.8 86.8 85.6 86.7Q85.3 86.6 84.9 86.6L84.9 86.6L83.9 86.6ZM92.1 92.1L92.1 92.1Q91.2 92.1 90.5 91.7Q89.8 91.3 89.4 90.5Q89.0 89.8 89.0 88.7L89.0 88.7Q89.0 87.7 89.4 86.9Q89.8 86.2 90.5 85.8Q91.2 85.4 92.1 85.4L92.1 85.4Q92.9 85.4 93.6 85.8Q94.3 86.2 94.7 86.9Q95.1 87.7 95.1 88.7L95.1 88.7Q95.1 89.8 94.7 90.5Q94.3 91.3 93.6 91.7Q92.9 92.1 92.1 92.1ZM92.1 90.9L92.1 90.9Q92.6 90.9 93.0 90.6Q93.3 90.4 93.6 89.9Q93.8 89.4 93.8 88.7L93.8 88.7Q93.8 88.0 93.6 87.5Q93.3 87.1 93.0 86.8Q92.6 86.6 92.1 86.6L92.1 86.6Q91.6 86.6 91.2 86.8Q90.8 87.1 90.6 87.5Q90.4 88.0 90.4 88.7L90.4 88.7Q90.4 89.4 90.6 89.9Q90.8 90.4 91.2 90.6Q91.6 90.9 92.1 90.9ZM99.3 92.1L99.3 92.1Q98.5 92.1 98.0 91.9Q97.4 91.6 97.1 91.1Q96.7 90.7 96.7 90.0L96.7 90.0L98.0 90.0Q98.0 90.3 98.2 90.5Q98.4 90.7 98.7 90.9Q99.0 91.0 99.3 91.0L99.3 91.0Q99.7 91.0 99.9 90.9Q100.2 90.8 100.4 90.6Q100.5 90.4 100.5 90.1L100.5 90.1Q100.5 89.9 100.4 89.8Q100.2 89.6 100.0 89.5Q99.7 89.4 99.4 89.3L99.4 89.3L98.7 89.1Q97.8 88.9 97.4 88.5Q96.9 88.0 96.9 87.3L96.9 87.3Q96.9 86.7 97.2 86.3Q97.5 85.9 98.1 85.6Q98.6 85.4 99.4 85.4L99.4 85.4Q100.1 85.4 100.6 85.6Q101.2 85.9 101.5 86.3Q101.8 86.7 101.8 87.3L101.8 87.3L100.5 87.3Q100.4 86.9 100.1 86.7Q99.8 86.5 99.3 86.5L99.3 86.5Q99.0 86.5 98.8 86.6Q98.5 86.7 98.4 86.9Q98.3 87.0 98.3 87.2L98.3 87.2Q98.3 87.5 98.4 87.7Q98.6 87.8 98.8 87.9Q99.0 88.0 99.3 88.1L99.3 88.1L99.9 88.2Q100.3 88.3 100.7 88.5Q101.0 88.6 101.3 88.9Q101.6 89.1 101.7 89.4Q101.9 89.7 101.9 90.1L101.9 90.1Q101.9 90.7 101.6 91.2Q101.3 91.6 100.7 91.9Q100.1 92.1 99.3 92.1Z "/></g><defs><clipPath id="satori_bc-id-2" clip-path="url(#satori_cp-id)"><rect x="173" y="45" width="172" height="61"/></clipPath></defs><mask id="satori_om-id-2"><rect x="173" y="45" width="171" height="61" fill="#fff" mask="url(#satori_om-id)"/><path width="172" height="61" fill="none" stroke="#000" stroke-width="2" d="M345,45 A0,0 0 0 1 345,45 v61 A0,0 0 0 1 345,106"/></mask><path width="172" height="61" clip-path="url(#satori_bc-id-2)" fill="none" stroke="rgba(255,255,255,0.06)" stroke-width="2" d="M345,45 A0,0 0 0 1 345,45 v61 A0,0 0 0 1 345,106"/><mask id="satori_om-id-2-0"><rect x="228" y="57" width="60" height="22" fill="#fff" mask="url(#satori_om-id)"/></mask><g mask="url(#satori_om-id)" clip-path="url(#satori_cp-id)"><path fill="#60a5fa" d="M232.7 76L229.5 76L229.5 60.0L234.5 60.0L237.1 67.3Q237.2 67.9 237.4 68.7Q237.7 69.5 237.9 70.4L237.9 70.4Q238.1 71.4 238.3 72.2L238.3 72.2Q238.5 71.4 238.7 70.5L238.7 70.5Q238.9 69.5 239.1 68.7Q239.3 67.9 239.5 67.3L239.5 67.3L242.0 60.0L247.1 60.0L247.1 76L243.8 76L243.8 68.5Q243.8 67.9 243.8 67.1Q243.8 66.4 243.8 65.5Q243.8 64.5 243.9 63.6L243.9 63.6Q243.9 63.2 243.9 62.8L243.9 62.8Q243.8 63.3 243.7 63.7L243.7 63.7Q243.4 64.7 243.2 65.6Q242.9 66.5 242.7 67.2Q242.4 68.0 242.3 68.5L242.3 68.5L239.6 76L236.9 76L234.2 68.5Q234.0 68.0 233.8 67.2Q233.6 66.5 233.3 65.6Q233.1 64.7 232.8 63.8L232.8 63.8Q232.7 63.3 232.6 62.9L232.6 62.9Q232.6 63.2 232.6 63.6L232.6 63.6Q232.6 64.5 232.6 65.4Q232.7 66.3 232.7 67.1Q232.7 67.9 232.7 68.5L232.7 68.5L232.7 76ZM255.2 76.2L255.2 76.2Q253.4 76.2 252.1 75.5Q250.8 74.7 250.1 73.3Q249.4 71.9 249.4 70.0L249.4 70.0Q249.4 68.2 250.1 66.8Q250.8 65.4 252.1 64.6Q253.4 63.8 255.2 63.8L255.2 63.8Q257.1 63.8 258.4 64.6Q259.7 65.4 260.4 66.8Q261.1 68.2 261.1 70.0L261.1 70.0Q261.1 71.9 260.4 73.3Q259.7 74.7 258.4 75.5Q257.1 76.2 255.2 76.2ZM255.2 73.7L255.2 73.7Q256.1 73.7 256.7 73.2Q257.3 72.7 257.6 71.9Q257.8 71.1 257.8 70.0L257.8 70.0Q257.8 69.0 257.6 68.1Q257.3 67.3 256.7 66.8Q256.1 66.4 255.2 66.4L255.2 66.4Q254.4 66.4 253.8 66.8Q253.2 67.3 252.9 68.1Q252.7 69.0 252.7 70.0L252.7 70.0Q252.7 71.1 252.9 71.9Q253.2 72.7 253.8 73.2Q254.4 73.7 255.2 73.7ZM268.7 76.2L268.7 76.2Q266.9 76.2 265.6 75.5Q264.3 74.7 263.6 73.3Q262.9 71.9 262.9 70.0L262.9 70.0Q262.9 68.2 263.6 66.8Q264.3 65.4 265.6 64.6Q266.9 63.8 268.7 63.8L268.7 63.8Q269.8 63.8 270.7 64.1Q271.6 64.4 272.3 64.9Q273.0 65.4 273.5 66.2Q273.9 66.9 274.1 67.8L274.1 67.8L271.1 68.4Q271.0 67.9 270.8 67.6Q270.6 67.2 270.3 66.9Q270.0 66.7 269.6 66.5Q269.2 66.4 268.8 66.4L268.8 66.4Q267.9 66.4 267.3 66.8Q266.7 67.3 266.4 68.1Q266.1 69.0 266.1 70.0L266.1 70.0Q266.1 71.1 266.4 71.9Q266.7 72.8 267.3 73.2Q267.9 73.7 268.8 73.7L268.8 73.7Q269.2 73.7 269.6 73.6Q270.0 73.4 270.3 73.1Q270.6 72.9 270.8 72.5Q271.0 72.1 271.1 71.6L271.1 71.6L274.1 72.2Q273.9 73.1 273.5 73.9Q273.0 74.6 272.3 75.1Q271.6 75.7 270.7 76.0Q269.8 76.2 268.7 76.2ZM279.5 76L276.3 76L276.3 60.0L279.5 60.0L279.5 68.6L279.7 68.6L283.6 64.0L287.4 64.0L282.9 69.2L287.6 76L283.8 76L280.5 71.1L279.5 72.1L279.5 76Z "/></g><mask id="satori_om-id-2-1"><rect x="241" y="83" width="35" height="11" fill="#fff" mask="url(#satori_om-id)"/></mask><g mask="url(#satori_om-id)" clip-path="url(#satori_cp-id)"><path fill="rgba(200,195,225,0.45)" d="M244.0 92.1L244.0 92.1Q243.2 92.1 242.6 91.9Q242.0 91.6 241.7 91.1Q241.4 90.7 241.4 90.0L241.4 90.0L242.7 90.0Q242.7 90.3 242.9 90.5Q243.0 90.7 243.3 90.9Q243.6 91.0 244.0 91.0L244.0 91.0Q244.3 91.0 244.6 90.9Q244.9 90.8 245.0 90.6Q245.2 90.4 245.2 90.1L245.2 90.1Q245.2 89.9 245.0 89.8Q244.9 89.6 244.7 89.5Q244.4 89.4 244.0 89.3L244.0 89.3L243.3 89.1Q242.5 88.9 242.0 88.5Q241.5 88.0 241.5 87.3L241.5 87.3Q241.5 86.7 241.9 86.3Q242.2 85.9 242.7 85.6Q243.3 85.4 244.0 85.4L244.0 85.4Q244.7 85.4 245.3 85.6Q245.8 85.9 246.1 86.3Q246.4 86.7 246.4 87.3L246.4 87.3L245.1 87.3Q245.1 86.9 244.8 86.7Q244.5 86.5 244.0 86.5L244.0 86.5Q243.7 86.5 243.4 86.6Q243.2 86.7 243.1 86.9Q242.9 87.0 242.9 87.2L242.9 87.2Q242.9 87.5 243.1 87.7Q243.2 87.8 243.5 87.9Q243.7 88.0 244.0 88.1L244.0 88.1L244.6 88.2Q245.0 88.3 245.3 88.5Q245.7 88.6 246.0 88.9Q246.2 89.1 246.4 89.4Q246.5 89.7 246.5 90.1L246.5 90.1Q246.5 90.7 246.2 91.2Q245.9 91.6 245.4 91.9Q244.8 92.1 244.0 92.1ZM250.0 86.6L248.0 86.6L248.0 85.5L253.4 85.5L253.4 86.6L251.4 86.6L251.4 92L250.0 92L250.0 86.6ZM256.2 92L254.7 92L257.0 85.5L258.7 85.5L261.0 92L259.5 92L259.0 90.5L256.7 90.5L256.2 92ZM257.0 89.4L258.7 89.4L258.5 88.8Q258.3 88.2 258.1 87.5L258.1 87.5Q258.0 87.0 257.8 86.5L257.8 86.5Q257.7 87.0 257.6 87.5L257.6 87.5Q257.4 88.2 257.2 88.8L257.2 88.8L257.0 89.4ZM264.0 92L262.6 92L262.6 85.5L265.2 85.5Q265.9 85.5 266.4 85.7Q267.0 86.0 267.2 86.5Q267.5 86.9 267.5 87.6Q267.5 88.2 267.2 88.7Q267.0 89.2 266.4 89.4L266.4 89.4Q266.4 89.4 266.3 89.4L266.3 89.4L267.7 92L266.3 92L265.0 89.7L264.0 89.7L264.0 92ZM264.0 86.6L264.0 88.6L264.9 88.6Q265.3 88.6 265.6 88.5Q265.9 88.4 266.0 88.1Q266.1 87.9 266.1 87.6L266.1 87.6Q266.1 87.2 266.0 87.0Q265.9 86.8 265.6 86.7Q265.3 86.6 264.9 86.6L264.9 86.6L264.0 86.6ZM271.7 92.1L271.7 92.1Q270.9 92.1 270.4 91.9Q269.8 91.6 269.4 91.1Q269.1 90.7 269.1 90.0L269.1 90.0L270.4 90.0Q270.4 90.3 270.6 90.5Q270.8 90.7 271.1 90.9Q271.3 91.0 271.7 91.0L271.7 91.0Q272.1 91.0 272.3 90.9Q272.6 90.8 272.8 90.6Q272.9 90.4 272.9 90.1L272.9 90.1Q272.9 89.9 272.8 89.8Q272.6 89.6 272.4 89.5Q272.1 89.4 271.8 89.3L271.8 89.3L271.1 89.1Q270.2 88.9 269.7 88.5Q269.3 88.0 269.3 87.3L269.3 87.3Q269.3 86.7 269.6 86.3Q269.9 85.9 270.5 85.6Q271.0 85.4 271.7 85.4L271.7 85.4Q272.5 85.4 273.0 85.6Q273.5 85.9 273.8 86.3Q274.2 86.7 274.2 87.3L274.2 87.3L272.9 87.3Q272.8 86.9 272.5 86.7Q272.2 86.5 271.7 86.5L271.7 86.5Q271.4 86.5 271.1 86.6Q270.9 86.7 270.8 86.9Q270.7 87.0 270.7 87.2L270.7 87.2Q270.7 87.5 270.8 87.7Q270.9 87.8 271.2 87.9Q271.4 88.0 271.7 88.1L271.7 88.1L272.3 88.2Q272.7 88.3 273.1 88.5Q273.4 88.6 273.7 88.9Q274.0 89.1 274.1 89.4Q274.2 89.7 274.2 90.1L274.2 90.1Q274.2 90.7 274.0 91.2Q273.7 91.6 273.1 91.9Q272.5 92.1 271.7 92.1Z "/></g><defs><clipPath id="satori_bc-id-3" clip-path="url(#satori_cp-id)"><rect x="345" y="45" width="171" height="61"/></clipPath></defs><mask id="satori_om-id-3"><rect x="345" y="45" width="170" height="61" fill="#fff" mask="url(#satori_om-id)"/><path width="171" height="61" fill="none" stroke="#000" stroke-width="2" d="M516,45 A0,0 0 0 1 516,45 v61 A0,0 0 0 1 516,106"/></mask><path width="171" height="61" clip-path="url(#satori_bc-id-3)" fill="none" stroke="rgba(255,255,255,0.06)" stroke-width="2" d="M516,45 A0,0 0 0 1 516,45 v61 A0,0 0 0 1 516,106"/><mask id="satori_om-id-3-0"><rect x="400" y="57" width="60" height="22" fill="#fff" mask="url(#satori_om-id)"/></mask><g mask="url(#satori_om-id)" clip-path="url(#satori_cp-id)"><path fill="#f59e0b" d="M404.7 76L401.5 76L401.5 60.0L406.5 60.0L409.1 67.3Q409.2 67.9 409.4 68.7Q409.7 69.5 409.9 70.4L409.9 70.4Q410.1 71.4 410.3 72.2L410.3 72.2Q410.5 71.4 410.7 70.5L410.7 70.5Q410.9 69.5 411.1 68.7Q411.3 67.9 411.5 67.3L411.5 67.3L414.0 60.0L419.1 60.0L419.1 76L415.8 76L415.8 68.5Q415.8 67.9 415.8 67.1Q415.8 66.4 415.8 65.5Q415.8 64.5 415.9 63.6L415.9 63.6Q415.9 63.2 415.9 62.8L415.9 62.8Q415.8 63.3 415.7 63.7L415.7 63.7Q415.4 64.7 415.2 65.6Q414.9 66.5 414.7 67.2Q414.4 68.0 414.3 68.5L414.3 68.5L411.6 76L408.9 76L406.2 68.5Q406.0 68.0 405.8 67.2Q405.6 66.5 405.3 65.6Q405.1 64.7 404.8 63.8L404.8 63.8Q404.7 63.3 404.6 62.9L404.6 62.9Q404.6 63.2 404.6 63.6L404.6 63.6Q404.6 64.5 404.6 65.4Q404.7 66.3 404.7 67.1Q404.7 67.9 404.7 68.5L404.7 68.5L404.7 76ZM427.2 76.2L427.2 76.2Q425.4 76.2 424.1 75.5Q422.8 74.7 422.1 73.3Q421.4 71.9 421.4 70.0L421.4 70.0Q421.4 68.2 422.1 66.8Q422.8 65.4 424.1 64.6Q425.4 63.8 427.2 63.8L427.2 63.8Q429.1 63.8 430.4 64.6Q431.7 65.4 432.4 66.8Q433.1 68.2 433.1 70.0L433.1 70.0Q433.1 71.9 432.4 73.3Q431.7 74.7 430.4 75.5Q429.1 76.2 427.2 76.2ZM427.2 73.7L427.2 73.7Q428.1 73.7 428.7 73.2Q429.3 72.7 429.6 71.9Q429.8 71.1 429.8 70.0L429.8 70.0Q429.8 69.0 429.6 68.1Q429.3 67.3 428.7 66.8Q428.1 66.4 427.2 66.4L427.2 66.4Q426.4 66.4 425.8 66.8Q425.2 67.3 424.9 68.1Q424.7 69.0 424.7 70.0L424.7 70.0Q424.7 71.1 424.9 71.9Q425.2 72.7 425.8 73.2Q426.4 73.7 427.2 73.7ZM440.7 76.2L440.7 76.2Q438.9 76.2 437.6 75.5Q436.3 74.7 435.6 73.3Q434.9 71.9 434.9 70.0L434.9 70.0Q434.9 68.2 435.6 66.8Q436.3 65.4 437.6 64.6Q438.9 63.8 440.7 63.8L440.7 63.8Q441.8 63.8 442.7 64.1Q443.6 64.4 444.3 64.9Q445.0 65.4 445.5 66.2Q445.9 66.9 446.1 67.8L446.1 67.8L443.1 68.4Q443.0 67.9 442.8 67.6Q442.6 67.2 442.3 66.9Q442.0 66.7 441.6 66.5Q441.2 66.4 440.8 66.4L440.8 66.4Q439.9 66.4 439.3 66.8Q438.7 67.3 438.4 68.1Q438.1 69.0 438.1 70.0L438.1 70.0Q438.1 71.1 438.4 71.9Q438.7 72.8 439.3 73.2Q439.9 73.7 440.8 73.7L440.8 73.7Q441.2 73.7 441.6 73.6Q442.0 73.4 442.3 73.1Q442.6 72.9 442.8 72.5Q443.0 72.1 443.1 71.6L443.1 71.6L446.1 72.2Q445.9 73.1 445.5 73.9Q445.0 74.6 444.3 75.1Q443.6 75.7 442.7 76.0Q441.8 76.2 440.7 76.2ZM451.5 76L448.3 76L448.3 60.0L451.5 60.0L451.5 68.6L451.7 68.6L455.6 64.0L459.4 64.0L454.9 69.2L459.6 76L455.8 76L452.5 71.1L451.5 72.1L451.5 76Z "/></g><mask id="satori_om-id-3-1"><rect x="405" y="83" width="51" height="11" fill="#fff" mask="url(#satori_om-id)"/></mask><g mask="url(#satori_om-id)" clip-path="url(#satori_cp-id)"><path fill="rgba(200,195,225,0.45)" d="M408.5 92.1L408.5 92.1Q407.6 92.1 406.9 91.7Q406.2 91.3 405.8 90.5Q405.4 89.8 405.4 88.7L405.4 88.7Q405.4 87.7 405.8 86.9Q406.2 86.2 406.9 85.8Q407.6 85.4 408.5 85.4L408.5 85.4Q409.0 85.4 409.5 85.5Q410.0 85.7 410.3 86.0Q410.7 86.3 411.0 86.7Q411.2 87.1 411.3 87.7L411.3 87.7L409.9 87.7Q409.9 87.4 409.7 87.2Q409.6 87.0 409.4 86.9Q409.2 86.7 409.0 86.6Q408.8 86.6 408.5 86.6L408.5 86.6Q408.0 86.6 407.6 86.8Q407.2 87.1 407.0 87.6Q406.8 88.0 406.8 88.7L406.8 88.7Q406.8 89.4 407.0 89.9Q407.2 90.4 407.6 90.7Q408.0 90.9 408.5 90.9L408.5 90.9Q408.8 90.9 409.0 90.8Q409.2 90.7 409.4 90.6Q409.6 90.4 409.7 90.2Q409.9 90.0 409.9 89.8L409.9 89.8L411.3 89.8Q411.2 90.2 411.0 90.6Q410.8 91.1 410.4 91.4Q410.1 91.7 409.6 91.9Q409.1 92.1 408.5 92.1ZM415.9 92.1L415.9 92.1Q415.1 92.1 414.4 91.7Q413.7 91.3 413.3 90.5Q412.9 89.8 412.9 88.7L412.9 88.7Q412.9 87.7 413.3 86.9Q413.7 86.2 414.4 85.8Q415.1 85.4 415.9 85.4L415.9 85.4Q416.8 85.4 417.5 85.8Q418.2 86.2 418.6 86.9Q419.0 87.7 419.0 88.7L419.0 88.7Q419.0 89.8 418.6 90.5Q418.2 91.3 417.5 91.7Q416.8 92.1 415.9 92.1ZM415.9 90.9L415.9 90.9Q416.4 90.9 416.8 90.6Q417.2 90.4 417.4 89.9Q417.6 89.4 417.6 88.7L417.6 88.7Q417.6 88.0 417.4 87.5Q417.2 87.1 416.8 86.8Q416.4 86.6 415.9 86.6L415.9 86.6Q415.4 86.6 415.0 86.8Q414.7 87.1 414.4 87.5Q414.2 88.0 414.2 88.7L414.2 88.7Q414.2 89.4 414.4 89.9Q414.7 90.4 415.0 90.6Q415.4 90.9 415.9 90.9ZM422.1 92L420.8 92L420.8 85.5L422.8 85.5L423.9 88.5Q424.0 88.7 424.1 89.0Q424.1 89.3 424.2 89.7L424.2 89.7Q424.3 90.1 424.4 90.5L424.4 90.5Q424.5 90.1 424.6 89.7L424.6 89.7Q424.6 89.3 424.7 89.0Q424.8 88.7 424.9 88.5L424.9 88.5L425.9 85.5L428.0 85.5L428.0 92L426.6 92L426.6 88.9Q426.6 88.7 426.6 88.4Q426.7 88.1 426.7 87.7Q426.7 87.3 426.7 86.9L426.7 86.9Q426.7 86.8 426.7 86.6L426.7 86.6Q426.6 86.8 426.6 87.0L426.6 87.0Q426.5 87.4 426.4 87.7Q426.3 88.1 426.2 88.4Q426.1 88.7 426.0 88.9L426.0 88.9L425.0 92L423.8 92L422.7 88.9Q422.7 88.7 422.6 88.4Q422.5 88.1 422.4 87.7Q422.3 87.4 422.2 87.0L422.2 87.0Q422.1 86.8 422.1 86.7L422.1 86.7Q422.1 86.8 422.1 86.9L422.1 86.9Q422.1 87.3 422.1 87.7Q422.1 88.0 422.1 88.4Q422.1 88.7 422.1 88.9L422.1 88.9L422.1 92ZM431.3 92L430.0 92L430.0 85.5L432.0 85.5L433.1 88.5Q433.2 88.7 433.2 89.0Q433.3 89.3 433.4 89.7L433.4 89.7Q433.5 90.1 433.6 90.5L433.6 90.5Q433.7 90.1 433.7 89.7L433.7 89.7Q433.8 89.3 433.9 89.0Q434.0 88.7 434.1 88.5L434.1 88.5L435.1 85.5L437.2 85.5L437.2 92L435.8 92L435.8 88.9Q435.8 88.7 435.8 88.4Q435.8 88.1 435.8 87.7Q435.9 87.3 435.9 86.9L435.9 86.9Q435.9 86.8 435.9 86.6L435.9 86.6Q435.8 86.8 435.8 87.0L435.8 87.0Q435.7 87.4 435.6 87.7Q435.5 88.1 435.4 88.4Q435.3 88.7 435.2 88.9L435.2 88.9L434.1 92L433.0 92L431.9 88.9Q431.8 88.7 431.7 88.4Q431.7 88.1 431.6 87.7Q431.4 87.4 431.3 87.0L431.3 87.0Q431.3 86.8 431.3 86.7L431.3 86.7Q431.3 86.8 431.3 86.9L431.3 86.9Q431.3 87.3 431.3 87.7Q431.3 88.0 431.3 88.4Q431.3 88.7 431.3 88.9L431.3 88.9L431.3 92ZM439.2 85.5L440.5 85.5L440.5 92L439.2 92L439.2 85.5ZM444.2 86.6L442.2 86.6L442.2 85.5L447.6 85.5L447.6 86.6L445.6 86.6L445.6 92L444.2 92L444.2 86.6ZM451.7 92.1L451.7 92.1Q450.9 92.1 450.3 91.9Q449.7 91.6 449.4 91.1Q449.1 90.7 449.1 90.0L449.1 90.0L450.4 90.0Q450.4 90.3 450.6 90.5Q450.7 90.7 451.0 90.9Q451.3 91.0 451.7 91.0L451.7 91.0Q452.0 91.0 452.3 90.9Q452.6 90.8 452.7 90.6Q452.9 90.4 452.9 90.1L452.9 90.1Q452.9 89.9 452.7 89.8Q452.6 89.6 452.3 89.5Q452.1 89.4 451.7 89.3L451.7 89.3L451.0 89.1Q450.2 88.9 449.7 88.5Q449.2 88.0 449.2 87.3L449.2 87.3Q449.2 86.7 449.6 86.3Q449.9 85.9 450.4 85.6Q451.0 85.4 451.7 85.4L451.7 85.4Q452.4 85.4 453.0 85.6Q453.5 85.9 453.8 86.3Q454.1 86.7 454.1 87.3L454.1 87.3L452.8 87.3Q452.8 86.9 452.5 86.7Q452.2 86.5 451.7 86.5L451.7 86.5Q451.4 86.5 451.1 86.6Q450.9 86.7 450.7 86.9Q450.6 87.0 450.6 87.2L450.6 87.2Q450.6 87.5 450.8 87.7Q450.9 87.8 451.2 87.9Q451.4 88.0 451.7 88.1L451.7 88.1L452.3 88.2Q452.7 88.3 453.0 88.5Q453.4 88.6 453.7 88.9Q453.9 89.1 454.1 89.4Q454.2 89.7 454.2 90.1L454.2 90.1Q454.2 90.7 453.9 91.2Q453.6 91.6 453.1 91.9Q452.5 92.1 451.7 92.1Z "/></g><defs><clipPath id="satori_bc-id-4" clip-path="url(#satori_cp-id)"><rect x="516" y="45" width="172" height="61"/></clipPath></defs><mask id="satori_om-id-4"><rect x="516" y="45" width="171" height="61" fill="#fff" mask="url(#satori_om-id)"/><path width="172" height="61" fill="none" stroke="#000" stroke-width="2" d="M688,45 A0,0 0 0 1 688,45 v61 A0,0 0 0 1 688,106"/></mask><path width="172" height="61" clip-path="url(#satori_bc-id-4)" fill="none" stroke="rgba(255,255,255,0.06)" stroke-width="2" d="M688,45 A0,0 0 0 1 688,45 v61 A0,0 0 0 1 688,106"/><mask id="satori_om-id-4-0"><rect x="571" y="57" width="60" height="22" fill="#fff" mask="url(#satori_om-id)"/></mask><g mask="url(#satori_om-id)" clip-path="url(#satori_cp-id)"><path fill="#4ade80" d="M575.7 76L572.5 76L572.5 60.0L577.5 60.0L580.1 67.3Q580.2 67.9 580.4 68.7Q580.7 69.5 580.9 70.4L580.9 70.4Q581.1 71.4 581.3 72.2L581.3 72.2Q581.5 71.4 581.7 70.5L581.7 70.5Q581.9 69.5 582.1 68.7Q582.3 67.9 582.5 67.3L582.5 67.3L585.0 60.0L590.1 60.0L590.1 76L586.8 76L586.8 68.5Q586.8 67.9 586.8 67.1Q586.8 66.4 586.8 65.5Q586.8 64.5 586.9 63.6L586.9 63.6Q586.9 63.2 586.9 62.8L586.9 62.8Q586.8 63.3 586.7 63.7L586.7 63.7Q586.4 64.7 586.2 65.6Q585.9 66.5 585.7 67.2Q585.4 68.0 585.3 68.5L585.3 68.5L582.6 76L579.9 76L577.2 68.5Q577.0 68.0 576.8 67.2Q576.6 66.5 576.3 65.6Q576.1 64.7 575.8 63.8L575.8 63.8Q575.7 63.3 575.6 62.9L575.6 62.9Q575.6 63.2 575.6 63.6L575.6 63.6Q575.6 64.5 575.6 65.4Q575.7 66.3 575.7 67.1Q575.7 67.9 575.7 68.5L575.7 68.5L575.7 76ZM598.2 76.2L598.2 76.2Q596.4 76.2 595.1 75.5Q593.8 74.7 593.1 73.3Q592.4 71.9 592.4 70.0L592.4 70.0Q592.4 68.2 593.1 66.8Q593.8 65.4 595.1 64.6Q596.4 63.8 598.2 63.8L598.2 63.8Q600.1 63.8 601.4 64.6Q602.7 65.4 603.4 66.8Q604.1 68.2 604.1 70.0L604.1 70.0Q604.1 71.9 603.4 73.3Q602.7 74.7 601.4 75.5Q600.1 76.2 598.2 76.2ZM598.2 73.7L598.2 73.7Q599.1 73.7 599.7 73.2Q600.3 72.7 600.6 71.9Q600.8 71.1 600.8 70.0L600.8 70.0Q600.8 69.0 600.6 68.1Q600.3 67.3 599.7 66.8Q599.1 66.4 598.2 66.4L598.2 66.4Q597.4 66.4 596.8 66.8Q596.2 67.3 595.9 68.1Q595.7 69.0 595.7 70.0L595.7 70.0Q595.7 71.1 595.9 71.9Q596.2 72.7 596.8 73.2Q597.4 73.7 598.2 73.7ZM611.7 76.2L611.7 76.2Q609.9 76.2 608.6 75.5Q607.3 74.7 606.6 73.3Q605.9 71.9 605.9 70.0L605.9 70.0Q605.9 68.2 606.6 66.8Q607.3 65.4 608.6 64.6Q609.9 63.8 611.7 63.8L611.7 63.8Q612.8 63.8 613.7 64.1Q614.6 64.4 615.3 64.9Q616.0 65.4 616.5 66.2Q616.9 66.9 617.1 67.8L617.1 67.8L614.1 68.4Q614.0 67.9 613.8 67.6Q613.6 67.2 613.3 66.9Q613.0 66.7 612.6 66.5Q612.2 66.4 611.8 66.4L611.8 66.4Q610.9 66.4 610.3 66.8Q609.7 67.3 609.4 68.1Q609.1 69.0 609.1 70.0L609.1 70.0Q609.1 71.1 609.4 71.9Q609.7 72.8 610.3 73.2Q610.9 73.7 611.8 73.7L611.8 73.7Q612.2 73.7 612.6 73.6Q613.0 73.4 613.3 73.1Q613.6 72.9 613.8 72.5Q614.0 72.1 614.1 71.6L614.1 71.6L617.1 72.2Q616.9 73.1 616.5 73.9Q616.0 74.6 615.3 75.1Q614.6 75.7 613.7 76.0Q612.8 76.2 611.7 76.2ZM622.5 76L619.3 76L619.3 60.0L622.5 60.0L622.5 68.6L622.7 68.6L626.6 64.0L630.4 64.0L625.9 69.2L630.6 76L626.8 76L623.5 71.1L622.5 72.1L622.5 76Z "/></g><mask id="satori_om-id-4-1"><rect x="581" y="83" width="40" height="11" fill="#fff" mask="url(#satori_om-id)"/></mask><g mask="url(#satori_om-id)" clip-path="url(#satori_cp-id)"><path fill="rgba(200,195,225,0.45)" d="M585.8 92L581.6 92L581.6 85.5L582.9 85.5L582.9 90.9L585.8 90.9L585.8 92ZM587.5 85.5L588.8 85.5L588.8 92L587.5 92L587.5 85.5ZM592.2 92L590.8 92L590.8 85.5L592.3 85.5L594.4 88.8Q594.5 89.0 594.7 89.3Q594.9 89.6 595.0 90.0L595.0 90.0Q595.1 90.2 595.2 90.4L595.2 90.4Q595.2 90.2 595.2 90.0L595.2 90.0Q595.1 89.6 595.1 89.2Q595.1 88.9 595.1 88.6L595.1 88.6L595.1 85.5L596.5 85.5L596.5 92L595.0 92L593.1 89.0Q592.9 88.7 592.7 88.3Q592.5 88.0 592.4 87.6L592.4 87.6Q592.2 87.4 592.1 87.1L592.1 87.1Q592.1 87.4 592.1 87.6L592.1 87.6Q592.1 88.1 592.2 88.4Q592.2 88.8 592.2 89.0L592.2 89.0L592.2 92ZM602.9 92L598.5 92L598.5 85.5L602.9 85.5L602.9 86.6L599.8 86.6L599.8 88.1L602.6 88.1L602.6 89.2L599.8 89.2L599.8 90.9L602.9 90.9L602.9 92ZM607.1 92.1L607.1 92.1Q606.3 92.1 605.8 91.9Q605.2 91.6 604.9 91.1Q604.5 90.7 604.5 90.0L604.5 90.0L605.8 90.0Q605.8 90.3 606.0 90.5Q606.2 90.7 606.5 90.9Q606.8 91.0 607.1 91.0L607.1 91.0Q607.5 91.0 607.7 90.9Q608.0 90.8 608.2 90.6Q608.3 90.4 608.3 90.1L608.3 90.1Q608.3 89.9 608.2 89.8Q608.0 89.6 607.8 89.5Q607.5 89.4 607.2 89.3L607.2 89.3L606.5 89.1Q605.6 88.9 605.2 88.5Q604.7 88.0 604.7 87.3L604.7 87.3Q604.7 86.7 605.0 86.3Q605.3 85.9 605.9 85.6Q606.4 85.4 607.2 85.4L607.2 85.4Q607.9 85.4 608.4 85.6Q609.0 85.9 609.3 86.3Q609.6 86.7 609.6 87.3L609.6 87.3L608.3 87.3Q608.2 86.9 607.9 86.7Q607.6 86.5 607.1 86.5L607.1 86.5Q606.8 86.5 606.6 86.6Q606.3 86.7 606.2 86.9Q606.1 87.0 606.1 87.2L606.1 87.2Q606.1 87.5 606.2 87.7Q606.4 87.8 606.6 87.9Q606.8 88.0 607.1 88.1L607.1 88.1L607.7 88.2Q608.1 88.3 608.5 88.5Q608.8 88.6 609.1 88.9Q609.4 89.1 609.5 89.4Q609.7 89.7 609.7 90.1L609.7 90.1Q609.7 90.7 609.4 91.2Q609.1 91.6 608.5 91.9Q607.9 92.1 607.1 92.1Z M617.4 91.6L616.3 91.6L616.3 89.9L614.6 89.9L614.6 88.9L616.3 88.9L616.3 87.1L617.4 87.1L617.4 88.9L619.1 88.9L619.1 89.9L617.4 89.9L617.4 91.6Z "/></g><mask id="satori_om-id-5"><rect x="688" y="45" width="171" height="61" fill="#fff" mask="url(#satori_om-id)"/></mask><mask id="satori_om-id-5-0"><rect x="743" y="57" width="60" height="22" fill="#fff" mask="url(#satori_om-id)"/></mask><g mask="url(#satori_om-id)" clip-path="url(#satori_cp-id)"><path fill="#fb7185" d="M747.7 76L744.5 76L744.5 60.0L749.5 60.0L752.1 67.3Q752.2 67.9 752.4 68.7Q752.7 69.5 752.9 70.4L752.9 70.4Q753.1 71.4 753.3 72.2L753.3 72.2Q753.5 71.4 753.7 70.5L753.7 70.5Q753.9 69.5 754.1 68.7Q754.3 67.9 754.5 67.3L754.5 67.3L757.0 60.0L762.1 60.0L762.1 76L758.8 76L758.8 68.5Q758.8 67.9 758.8 67.1Q758.8 66.4 758.8 65.5Q758.8 64.5 758.9 63.6L758.9 63.6Q758.9 63.2 758.9 62.8L758.9 62.8Q758.8 63.3 758.7 63.7L758.7 63.7Q758.4 64.7 758.2 65.6Q757.9 66.5 757.7 67.2Q757.4 68.0 757.3 68.5L757.3 68.5L754.6 76L751.9 76L749.2 68.5Q749.0 68.0 748.8 67.2Q748.6 66.5 748.3 65.6Q748.1 64.7 747.8 63.8L747.8 63.8Q747.7 63.3 747.6 62.9L747.6 62.9Q747.6 63.2 747.6 63.6L747.6 63.6Q747.6 64.5 747.6 65.4Q747.7 66.3 747.7 67.1Q747.7 67.9 747.7 68.5L747.7 68.5L747.7 76ZM770.2 76.2L770.2 76.2Q768.4 76.2 767.1 75.5Q765.8 74.7 765.1 73.3Q764.4 71.9 764.4 70.0L764.4 70.0Q764.4 68.2 765.1 66.8Q765.8 65.4 767.1 64.6Q768.4 63.8 770.2 63.8L770.2 63.8Q772.1 63.8 773.4 64.6Q774.7 65.4 775.4 66.8Q776.1 68.2 776.1 70.0L776.1 70.0Q776.1 71.9 775.4 73.3Q774.7 74.7 773.4 75.5Q772.1 76.2 770.2 76.2ZM770.2 73.7L770.2 73.7Q771.1 73.7 771.7 73.2Q772.3 72.7 772.6 71.9Q772.8 71.1 772.8 70.0L772.8 70.0Q772.8 69.0 772.6 68.1Q772.3 67.3 771.7 66.8Q771.1 66.4 770.2 66.4L770.2 66.4Q769.4 66.4 768.8 66.8Q768.2 67.3 767.9 68.1Q767.7 69.0 767.7 70.0L767.7 70.0Q767.7 71.1 767.9 71.9Q768.2 72.7 768.8 73.2Q769.4 73.7 770.2 73.7ZM783.7 76.2L783.7 76.2Q781.9 76.2 780.6 75.5Q779.3 74.7 778.6 73.3Q777.9 71.9 777.9 70.0L777.9 70.0Q777.9 68.2 778.6 66.8Q779.3 65.4 780.6 64.6Q781.9 63.8 783.7 63.8L783.7 63.8Q784.8 63.8 785.7 64.1Q786.6 64.4 787.3 64.9Q788.0 65.4 788.5 66.2Q788.9 66.9 789.1 67.8L789.1 67.8L786.1 68.4Q786.0 67.9 785.8 67.6Q785.6 67.2 785.3 66.9Q785.0 66.7 784.6 66.5Q784.2 66.4 783.8 66.4L783.8 66.4Q782.9 66.4 782.3 66.8Q781.7 67.3 781.4 68.1Q781.1 69.0 781.1 70.0L781.1 70.0Q781.1 71.1 781.4 71.9Q781.7 72.8 782.3 73.2Q782.9 73.7 783.8 73.7L783.8 73.7Q784.2 73.7 784.6 73.6Q785.0 73.4 785.3 73.1Q785.6 72.9 785.8 72.5Q786.0 72.1 786.1 71.6L786.1 71.6L789.1 72.2Q788.9 73.1 788.5 73.9Q788.0 74.6 787.3 75.1Q786.6 75.7 785.7 76.0Q784.8 76.2 783.7 76.2ZM794.5 76L791.3 76L791.3 60.0L794.5 60.0L794.5 68.6L794.7 68.6L798.6 64.0L802.4 64.0L797.9 69.2L802.6 76L798.8 76L795.5 71.1L794.5 72.1L794.5 76Z "/></g><mask id="satori_om-id-5-1"><rect x="754" y="83" width="38" height="11" fill="#fff" mask="url(#satori_om-id)"/></mask><g mask="url(#satori_om-id)" clip-path="url(#satori_cp-id)"><path fill="rgba(200,195,225,0.45)" d="M758.8 92L754.6 92L754.6 85.5L755.9 85.5L755.9 90.9L758.8 90.9L758.8 92ZM760.5 85.5L761.8 85.5L761.8 92L760.5 92L760.5 85.5ZM765.2 92L763.8 92L763.8 85.5L765.3 85.5L767.4 88.8Q767.5 89.0 767.7 89.3Q767.9 89.6 768.0 90.0L768.0 90.0Q768.1 90.2 768.2 90.4L768.2 90.4Q768.2 90.2 768.2 90.0L768.2 90.0Q768.1 89.6 768.1 89.2Q768.1 88.9 768.1 88.6L768.1 88.6L768.1 85.5L769.5 85.5L769.5 92L768.0 92L766.1 89.0Q765.9 88.7 765.7 88.3Q765.5 88.0 765.4 87.6L765.4 87.6Q765.2 87.4 765.1 87.1L765.1 87.1Q765.1 87.4 765.1 87.6L765.1 87.6Q765.1 88.1 765.2 88.4Q765.2 88.8 765.2 89.0L765.2 89.0L765.2 92ZM775.9 92L771.5 92L771.5 85.5L775.9 85.5L775.9 86.6L772.8 86.6L772.8 88.1L775.6 88.1L775.6 89.2L772.8 89.2L772.8 90.9L775.9 90.9L775.9 92ZM780.1 92.1L780.1 92.1Q779.3 92.1 778.8 91.9Q778.2 91.6 777.9 91.1Q777.5 90.7 777.5 90.0L777.5 90.0L778.8 90.0Q778.8 90.3 779.0 90.5Q779.2 90.7 779.5 90.9Q779.8 91.0 780.1 91.0L780.1 91.0Q780.5 91.0 780.7 90.9Q781.0 90.8 781.2 90.6Q781.3 90.4 781.3 90.1L781.3 90.1Q781.3 89.9 781.2 89.8Q781.0 89.6 780.8 89.5Q780.5 89.4 780.2 89.3L780.2 89.3L779.5 89.1Q778.6 88.9 778.2 88.5Q777.7 88.0 777.7 87.3L777.7 87.3Q777.7 86.7 778.0 86.3Q778.3 85.9 778.9 85.6Q779.4 85.4 780.2 85.4L780.2 85.4Q780.9 85.4 781.4 85.6Q782.0 85.9 782.3 86.3Q782.6 86.7 782.6 87.3L782.6 87.3L781.3 87.3Q781.2 86.9 780.9 86.7Q780.6 86.5 780.1 86.5L780.1 86.5Q779.8 86.5 779.6 86.6Q779.3 86.7 779.2 86.9Q779.1 87.0 779.1 87.2L779.1 87.2Q779.1 87.5 779.2 87.7Q779.4 87.8 779.6 87.9Q779.8 88.0 780.1 88.1L780.1 88.1L780.7 88.2Q781.1 88.3 781.5 88.5Q781.8 88.6 782.1 88.9Q782.4 89.1 782.5 89.4Q782.7 89.7 782.7 90.1L782.7 90.1Q782.7 90.7 782.4 91.2Q782.1 91.6 781.5 91.9Q780.9 92.1 780.1 92.1Z M787.4 88.8L790.4 88.8L790.4 89.8L787.4 89.8L787.4 88.8Z "/></g></svg>