<!-- Generated by readme-aura https://github.com/collectioneur/readme-aura -->
<svg width="860" height="150" viewBox="0 0 860 150" xmlns="http://www.w3.org/2000/svg"><defs><clipPath id="satori_bc-id"><path x="0" y="0" width="860" height="150" d="M16,0 h828 a16,16 0 0 1 16,16 v118 a16,16 0 0 1 -16,16 h-828 a16,16 0 0 1 -16,-16 v-118 a16,16 0 0 1 16,-16"/></clipPath></defs><clipPath id="satori_cp-id"><path x="0" y="0" width="860" height="150" d="M16,0 h828 a16,16 0 0 1 16,16 v118 a16,16 0 0 1 -16,16 h-828 a16,16 0 0 1 -16,-16 v-118 a16,16 0 0 1 16,-16"/></clipPath><mask id="satori_om-id"><rect x="1" y="1" width="858" height="148" fill="#fff"/><path width="860" height="150" fill="none" stroke="#000" stroke-width="2" d="M4.686,4.686 A16,16 0 0 1 16,0 h828 a16,16 0 0 1 16,16 v118 a16,16 0 0 1 -16,16 h-828 a16,16 0 0 1 -16,-16 v-118 A16,16 0 0 1 4.686,4.686"/></mask><path x="0" y="0" width="860" height="150" fill="#08080c" d="M16,0 h828 a16,16 0 0 1 16,16 v118 a16,16 0 0 1 -16,16 h-828 a16,16 0 0 1 -16,-16 v-118 a16,16 0 0 1 16,-16"/><path width="860" height="150" clip-path="url(#satori_bc-id)" fill="none" stroke="rgba(110,80,220,0.18)" stroke-width="2" d="M4.686,4.686 A16,16 0 0 1 16,0 h828 a16,16 0 0 1 16,16 v118 a16,16 0 0 1 -16,16 h-828 a16,16 0 0 1 -16,-16 v-118 A16,16 0 0 1 4.686,4.686"/><clipPath id="satori_cp-id-0" clip-path="url(#satori_cp-id)"><rect x="1" y="1" width="860" height="150"/></clipPath><mask id="satori_om-id-0"><rect x="1" y="1" width="860" height="150" fill="#fff" mask="url(#satori_om-id)"/></mask><svg x="1" y="1" width="860" height="150" preserveAspectRatio="none" clip-path="url(#satori_cp-id-0)" mask="url(#satori_om-id-0)"><defs><radialGradient id="g1" cx="50%" cy="50%" r="50%"><stop offset="0%" stop-color="rgba(110,20,210,0.65)"></stop><stop offset="45%" stop-color="rgba(80,15,170,0.28)"></stop><stop offset="70%" stop-color="rgba(80,15,170,0)"></stop></radialGradient><radialGradient id="g2" cx="50%" cy="50%" r="50%"><stop offset="0%" stop-color="rgba(40,70,255,0.55)"></stop><stop offset="45%" stop-color="rgba(20,50,200,0.22)"></stop><stop offset="70%" stop-color="rgba(20,50,200,0)"></stop></radialGradient><radialGradient id="g3" cx="50%" cy="50%" r="50%"><stop offset="0%" stop-color="rgba(0,140,255,0.42)"></stop><stop offset="70%" stop-color="rgba(0,140,255,0)"></stop></radialGradient><radialGradient id="g4" cx="50%" cy="50%" r="50%"><stop offset="0%" stop-color="rgba(0,195,235,0.30)"></stop><stop offset="70%" stop-color="rgba(0,195,235,0)"></stop></radialGradient><radialGradient id="g5" cx="50%" cy="50%" r="50%"><stop offset="0%" stop-color="rgba(100,30,210,0.40)"></stop><stop offset="70%" stop-color="rgba(100,30,210,0)"></stop></radialGradient></defs><ellipse id="glow-1" cx="730" cy="155" rx="180" ry="130" fill="url(#g1)"></ellipse><ellipse id="glow-2" cx="580" cy="148" rx="170" ry="125" fill="url(#g2)"></ellipse><ellipse id="glow-3" cx="430" cy="142" rx="160" ry="120" fill="url(#g3)"></ellipse><ellipse id="glow-4" cx="280" cy="148" rx="150" ry="115" fill="url(#g4)"></ellipse><ellipse id="glow-5" cx="130" cy="155" rx="130" ry="105" fill="url(#g5)"></ellipse><style>

          @keyframes float-slow {
            0%, 100% { transform: translateX(0px); opacity: 0.8; }
            50% { transform: translateX(350px); opacity: 1.2; }
          }
          @keyframes float-medium {
            0%, 100% { transform: translateX(0px); opacity: 0.7; }
            50% { transform: translateX(-250px); opacity: 1.1; }
          }
          @keyframes float-fast {
            0%, 100% { transform: translateX(0px); opacity: 0.9; }
            50% { transform: translateX(200px); opacity: 0.6; }
          }
          @keyframes float-diagonal {
            0%, 100% { transform: translate(0px, 0px); opacity: 0.75; }
            50% { transform: translate(120px, 30px); opacity: 1.0; }
          }
          @keyframes float-wave {
            0%, 100% { transform: translateX(0px); opacity: 0.65; }
            33% { transform: translateX(-160px); opacity: 0.9; }
            66% { transform: translateX(80px); opacity: 1.0; }
          }
          @keyframes float-pulse {
            0%, 100% { transform: scale(1); opacity: 0.8; }
            50% { transform: scale(1.3); opacity: 0.4; }
          }
          #glow-1 { animation: float-slow 8s ease-in-out infinite; }
          #glow-2 { animation: float-medium 12s ease-in-out infinite; }
          #glow-3 { animation: float-fast 9s ease-in-out infinite; }
          #glow-4 { animation: float-diagonal 10s ease-in-out infinite; }
          #glow-5 { animation: float-wave 14s ease-in-out infinite; }
        
</style>
</svg><mask id="satori_om-id-0-0"><rect x="1" y="1" width="0" height="150" fill="#fff" mask="url(#satori_om-id)"/></mask><mask id="satori_om-id-0-0-0"><rect x="1" y="1" width="0" height="150" fill="#fff" mask="url(#satori_om-id)"/></mask><mask id="satori_om-id-0-0-0-0"><rect x="1" y="1" width="0" height="150" fill="#fff" mask="url(#satori_om-id)"/></mask><mask id="satori_om-id-0-0-0-1"><rect x="1" y="1" width="0" height="150" fill="#fff" mask="url(#satori_om-id)"/></mask><mask id="satori_om-id-0-0-0-2"><rect x="1" y="1" width="0" height="150" fill="#fff" mask="url(#satori_om-id)"/></mask><mask id="satori_om-id-0-0-1"><rect x="1" y="1" width="0" height="150" fill="#fff" mask="url(#satori_om-id)"/></mask><mask id="satori_om-id-0-0-1-0"><rect x="1" y="1" width="0" height="150" fill="#fff" mask="url(#satori_om-id)"/></mask><mask id="satori_om-id-0-0-1-1"><rect x="1" y="1" width="0" height="150" fill="#fff" mask="url(#satori_om-id)"/></mask><mask id="satori_om-id-0-0-1-2"><rect x="1" y="1" width="0" height="150" fill="#fff" mask="url(#satori_om-id)"/></mask><mask id="satori_om-id-0-0-2"><rect x="1" y="1" width="0" height="150" fill="#fff" mask="url(#satori_om-id)"/></mask><mask id="satori_om-id-0-0-2-0"><rect x="1" y="1" width="0" height="150" fill="#fff" mask="url(#satori_om-id)"/></mask><mask id="satori_om-id-0-0-2-1"><rect x="1" y="1" width="0" height="150" fill="#fff" mask="url(#satori_om-id)"/></mask><mask id="satori_om-id-0-0-3"><rect x="1" y="1" width="0" height="150" fill="#fff" mask="url(#satori_om-id)"/></mask><mask id="satori_om-id-0-0-3-0"><rect x="1" y="1" width="0" height="150" fill="#fff" mask="url(#satori_om-id)"/></mask><mask id="satori_om-id-0-0-3-1"><rect x="1" y="1" width="0" height="150" fill="#fff" mask="url(#satori_om-id)"/></mask><mask id="satori_om-id-0-0-4"><rect x="1" y="1" width="0" height="150" fill="#fff" mask="url(#satori_om-id)"/></mask><mask id="satori_om-id-0-0-4-0"><rect x="1" y="1" width="0" height="150" fill="#fff" mask="url(#satori_om-id)"/></mask><mask id="satori_om-id-0-0-4-1"><rect x="1" y="1" width="0" height="150" fill="#fff" mask="url(#satori_om-id)"/></mask><mask id="satori_om-id-0-1"><rect x="1" y="1" width="0" height="150" fill="#fff" mask="url(#satori_om-id)"/></mask><mask id="satori_om-id-0-2"><rect x="1" y="1" width="0" height="150" fill="#fff" mask="url(#satori_om-id)"/></mask><mask id="satori_om-id-0-3"><rect x="1" y="1" width="0" height="150" fill="#fff" mask="url(#satori_om-id)"/></mask><mask id="satori_om-id-0-4"><rect x="1" y="1" width="0" height="150" fill="#fff" mask="url(#satori_om-id)"/></mask><mask id="satori_om-id-0-5"><rect x="1" y="1" width="0" height="150" fill="#fff" mask="url(#satori_om-id)"/></mask><defs><clipPath id="satori_bc-id-1" clip-path="url(#satori_cp-id)"><rect x="1" y="45" width="151" height="61"/></clipPath></defs><mask id="satori_om-id-1"><rect x="1" y="45" width="150" height="61" fill="#fff" mask="url(#satori_om-id)"/><path width="151" height="61" fill="none" stroke="#000" stroke-width="2" d="M152,45 A0,0 0 0 1 152,45 v61 A0,0 0 0 1 152,106"/></mask><path width="151" height="61" clip-path="url(#satori_bc-id-1)" fill="none" stroke="rgba(255,255,255,0.06)" stroke-width="2" d="M152,45 A0,0 0 0 1 152,45 v61 A0,0 0 0 1 152,106"/><mask id="satori_om-id-1-0"><rect x="62" y="57" width="28" height="22" fill="#fff" mask="url(#satori_om-id)"/></mask><g mask="url(#satori_om-id)" clip-path="url(#satori_cp-id)"><path fill="#a78bfa" d="M74.7 76L63.3 76L63.3 73.6L69.0 68.3Q69.7 67.6 70.2 67.0Q70.7 66.5 71.0 65.9Q71.3 65.4 71.3 64.7L71.3 64.7Q71.3 64.0 70.9 63.5Q70.6 63.0 70.1 62.7Q69.5 62.4 68.8 62.4L68.8 62.4Q68.0 62.4 67.5 62.7Q66.9 63.0 66.6 63.6Q66.3 64.1 66.3 64.9L66.3 64.9L63.2 64.9Q63.2 63.3 63.9 62.2Q64.6 61.0 65.9 60.4Q67.1 59.8 68.8 59.8L68.8 59.8Q70.5 59.8 71.8 60.4Q73.0 61.0 73.7 62.1Q74.4 63.1 74.4 64.5L74.4 64.5Q74.4 65.4 74.1 66.3Q73.7 67.1 72.8 68.2Q71.9 69.3 70.3 70.8L70.3 70.8L67.9 73.2L67.9 73.3L74.7 73.3L74.7 76ZM88.5 76L77.2 76L77.2 73.6L82.9 68.3Q83.6 67.6 84.1 67.0Q84.6 66.5 84.9 65.9Q85.1 65.4 85.1 64.7L85.1 64.7Q85.1 64.0 84.8 63.5Q84.5 63.0 83.9 62.7Q83.4 62.4 82.6 62.4L82.6 62.4Q81.9 62.4 81.3 62.7Q80.8 63.0 80.5 63.6Q80.2 64.1 80.2 64.9L80.2 64.9L77.0 64.9Q77.0 63.3 77.8 62.2Q78.5 61.0 79.7 60.4Q81.0 59.8 82.7 59.8L82.7 59.8Q84.4 59.8 85.6 60.4Q86.9 61.0 87.6 62.1Q88.3 63.1 88.3 64.5L88.3 64.5Q88.3 65.4 87.9 66.3Q87.6 67.1 86.7 68.2Q85.8 69.3 84.2 70.8L84.2 70.8L81.7 73.2L81.7 73.3L88.5 73.3L88.5 76Z "/></g><mask id="satori_om-id-1-1"><rect x="59" y="83" width="35" height="11" fill="#fff" mask="url(#satori_om-id)"/></mask><g mask="url(#satori_om-id)" clip-path="url(#satori_cp-id)"><path fill="rgba(200,195,225,0.45)" d="M60.9 92L59.6 92L59.6 85.5L62.1 85.5Q62.9 85.5 63.4 85.7Q63.9 86.0 64.2 86.5Q64.5 86.9 64.5 87.6Q64.5 88.2 64.2 88.7Q63.9 89.2 63.4 89.4L63.4 89.4Q63.4 89.4 63.3 89.4L63.3 89.4L64.7 92L63.2 92L62.0 89.7L60.9 89.7L60.9 92ZM60.9 86.6L60.9 88.6L61.9 88.6Q62.3 88.6 62.6 88.5Q62.8 88.4 63.0 88.1Q63.1 87.9 63.1 87.6L63.1 87.6Q63.1 87.2 63.0 87.0Q62.8 86.8 62.6 86.7Q62.3 86.6 61.9 86.6L61.9 86.6L60.9 86.6ZM70.7 92L66.3 92L66.3 85.5L70.7 85.5L70.7 86.6L67.6 86.6L67.6 88.1L70.5 88.1L70.5 89.2L67.6 89.2L67.6 90.9L70.7 90.9L70.7 92ZM73.9 92L72.6 92L72.6 85.5L75.1 85.5Q75.9 85.5 76.4 85.7Q76.9 86.0 77.2 86.5Q77.5 87.0 77.5 87.7L77.5 87.7Q77.5 88.3 77.2 88.8Q76.9 89.3 76.4 89.6Q75.8 89.9 75.1 89.9L75.1 89.9L73.9 89.9L73.9 92ZM73.9 86.6L73.9 88.8L74.9 88.8Q75.3 88.8 75.6 88.6Q75.8 88.5 76.0 88.2Q76.1 88.0 76.1 87.7Q76.1 87.3 76.0 87.1Q75.8 86.8 75.6 86.7Q75.3 86.6 74.9 86.6L74.9 86.6L73.9 86.6ZM82.1 92.1L82.1 92.1Q81.2 92.1 80.5 91.7Q79.8 91.3 79.4 90.5Q79.0 89.8 79.0 88.7L79.0 88.7Q79.0 87.7 79.4 86.9Q79.8 86.2 80.5 85.8Q81.2 85.4 82.1 85.4L82.1 85.4Q82.9 85.4 83.6 85.8Q84.3 86.2 84.7 86.9Q85.1 87.7 85.1 88.7L85.1 88.7Q85.1 89.8 84.7 90.5Q84.3 91.3 83.6 91.7Q82.9 92.1 82.1 92.1ZM82.1 90.9L82.1 90.9Q82.6 90.9 83.0 90.6Q83.3 90.4 83.6 89.9Q83.8 89.4 83.8 88.7L83.8 88.7Q83.8 88.0 83.6 87.5Q83.3 87.1 83.0 86.8Q82.6 86.6 82.1 86.6L82.1 86.6Q81.6 86.6 81.2 86.8Q80.8 87.1 80.6 87.5Q80.4 88.0 80.4 88.7L80.4 88.7Q80.4 89.4 80.6 89.9Q80.8 90.4 81.2 90.6Q81.6 90.9 82.1 90.9ZM89.3 92.1L89.3 92.1Q88.5 92.1 88.0 91.9Q87.4 91.6 87.1 91.1Q86.7 90.7 86.7 90.0L86.7 90.0L88.0 90.0Q88.0 90.3 88.2 90.5Q88.4 90.7 88.7 90.9Q89.0 91.0 89.3 91.0L89.3 91.0Q89.7 91.0 89.9 90.9Q90.2 90.8 90.4 90.6Q90.5 90.4 90.5 90.1L90.5 90.1Q90.5 89.9 90.4 89.8Q90.2 89.6 90.0 89.5Q89.7 89.4 89.4 89.3L89.4 89.3L88.7 89.1Q87.8 88.9 87.4 88.5Q86.9 88.0 86.9 87.3L86.9 87.3Q86.9 86.7 87.2 86.3Q87.5 85.9 88.1 85.6Q88.6 85.4 89.4 85.4L89.4 85.4Q90.1 85.4 90.6 85.6Q91.2 85.9 91.5 86.3Q91.8 86.7 91.8 87.3L91.8 87.3L90.5 87.3Q90.4 86.9 90.1 86.7Q89.8 86.5 89.3 86.5L89.3 86.5Q89.0 86.5 88.8 86.6Q88.5 86.7 88.4 86.9Q88.3 87.0 88.3 87.2L88.3 87.2Q88.3 87.5 88.4 87.7Q88.6 87.8 88.8 87.9Q89.0 88.0 89.3 88.1L89.3 88.1L89.9 88.2Q90.3 88.3 90.7 88.5Q91.0 88.6 91.3 88.9Q91.6 89.1 91.7 89.4Q91.9 89.7 91.9 90.1L91.9 90.1Q91.9 90.7 91.6 91.2Q91.3 91.6 90.7 91.9Q90.1 92.1 89.3 92.1Z "/></g><defs><clipPath id="satori_bc-id-2" clip-path="url(#satori_cp-id)"><rect x="152" y="45" width="152" height="61"/></clipPath></defs><mask id="satori_om-id-2"><rect x="152" y="45" width="151" height="61" fill="#fff" mask="url(#satori_om-id)"/><path width="152" height="61" fill="none" stroke="#000" stroke-width="2" d="M304,45 A0,0 0 0 1 304,45 v61 A0,0 0 0 1 304,106"/></mask><path width="152" height="61" clip-path="url(#satori_bc-id-2)" fill="none" stroke="rgba(255,255,255,0.06)" stroke-width="2" d="M304,45 A0,0 0 0 1 304,45 v61 A0,0 0 0 1 304,106"/><mask id="satori_om-id-2-0"><rect x="220" y="57" width="15" height="22" fill="#fff" mask="url(#satori_om-id)"/></mask><g mask="url(#satori_om-id)" clip-path="url(#satori_cp-id)"><path fill="#60a5fa" d="M227.2 76.2L227.2 76.2Q225.4 76.2 224.0 75.6Q222.6 75.0 221.8 74.0Q221.0 73.0 221.0 71.7L221.0 71.7Q221.0 70.7 221.5 69.9Q221.9 69.0 222.7 68.5Q223.5 67.9 224.5 67.7L224.5 67.7L224.5 67.6Q223.2 67.4 222.4 66.4Q221.6 65.4 221.6 64.1L221.6 64.1Q221.6 62.8 222.3 61.9Q223.0 60.9 224.3 60.3Q225.5 59.8 227.2 59.8L227.2 59.8Q228.8 59.8 230.0 60.3Q231.3 60.9 232.0 61.9Q232.7 62.8 232.7 64.1L232.7 64.1Q232.7 65.4 231.9 66.4Q231.1 67.4 229.9 67.6L229.9 67.6L229.9 67.7Q230.8 67.9 231.6 68.5Q232.4 69.0 232.9 69.9Q233.3 70.7 233.3 71.7L233.3 71.7Q233.3 73.0 232.5 74.0Q231.7 75.0 230.3 75.6Q228.9 76.2 227.2 76.2ZM227.2 73.8L227.2 73.8Q228.0 73.8 228.6 73.5Q229.2 73.2 229.5 72.7Q229.9 72.1 229.9 71.4L229.9 71.4Q229.9 70.7 229.5 70.2Q229.2 69.7 228.6 69.3Q227.9 69.0 227.2 69.0L227.2 69.0Q226.4 69.0 225.7 69.3Q225.1 69.6 224.8 70.2Q224.4 70.7 224.4 71.4L224.4 71.4Q224.4 72.1 224.8 72.7Q225.1 73.2 225.7 73.5Q226.3 73.8 227.2 73.8ZM227.2 66.6L227.2 66.6Q227.8 66.6 228.4 66.3Q228.9 66.1 229.2 65.6Q229.5 65.1 229.5 64.4L229.5 64.4Q229.5 63.8 229.2 63.3Q228.9 62.8 228.4 62.6Q227.9 62.3 227.2 62.3L227.2 62.3Q226.5 62.3 225.9 62.6Q225.4 62.8 225.1 63.3Q224.8 63.8 224.8 64.4L224.8 64.4Q224.8 65.1 225.1 65.6Q225.4 66.1 225.9 66.3Q226.5 66.6 227.2 66.6Z "/></g><mask id="satori_om-id-2-1"><rect x="210" y="83" width="35" height="11" fill="#fff" mask="url(#satori_om-id)"/></mask><g mask="url(#satori_om-id)" clip-path="url(#satori_cp-id)"><path fill="rgba(200,195,225,0.45)" d="M213.0 92.1L213.0 92.1Q212.2 92.1 211.6 91.9Q211.0 91.6 210.7 91.1Q210.4 90.7 210.4 90.0L210.4 90.0L211.7 90.0Q211.7 90.3 211.9 90.5Q212.0 90.7 212.3 90.9Q212.6 91.0 213.0 91.0L213.0 91.0Q213.3 91.0 213.6 90.9Q213.9 90.8 214.0 90.6Q214.2 90.4 214.2 90.1L214.2 90.1Q214.2 89.9 214.0 89.8Q213.9 89.6 213.7 89.5Q213.4 89.4 213.0 89.3L213.0 89.3L212.3 89.1Q211.5 88.9 211.0 88.5Q210.5 88.0 210.5 87.3L210.5 87.3Q210.5 86.7 210.9 86.3Q211.2 85.9 211.7 85.6Q212.3 85.4 213.0 85.4L213.0 85.4Q213.7 85.4 214.3 85.6Q214.8 85.9 215.1 86.3Q215.4 86.7 215.4 87.3L215.4 87.3L214.1 87.3Q214.1 86.9 213.8 86.7Q213.5 86.5 213.0 86.5L213.0 86.5Q212.7 86.5 212.4 86.6Q212.2 86.7 212.1 86.9Q211.9 87.0 211.9 87.2L211.9 87.2Q211.9 87.5 212.1 87.7Q212.2 87.8 212.5 87.9Q212.7 88.0 213.0 88.1L213.0 88.1L213.6 88.2Q214.0 88.3 214.3 88.5Q214.7 88.6 215.0 88.9Q215.2 89.1 215.4 89.4Q215.5 89.7 215.5 90.1L215.5 90.1Q215.5 90.7 215.2 91.2Q214.9 91.6 214.4 91.9Q213.8 92.1 213.0 92.1ZM219.0 86.6L217.0 86.6L217.0 85.5L222.4 85.5L222.4 86.6L220.4 86.6L220.4 92L219.0 92L219.0 86.6ZM225.2 92L223.7 92L226.0 85.5L227.7 85.5L230.0 92L228.5 92L228.0 90.5L225.7 90.5L225.2 92ZM226.0 89.4L227.7 89.4L227.5 88.8Q227.3 88.2 227.1 87.5L227.1 87.5Q227.0 87.0 226.8 86.5L226.8 86.5Q226.7 87.0 226.6 87.5L226.6 87.5Q226.4 88.2 226.2 88.8L226.2 88.8L226.0 89.4ZM233.0 92L231.6 92L231.6 85.5L234.2 85.5Q234.9 85.5 235.4 85.7Q236.0 86.0 236.2 86.5Q236.5 86.9 236.5 87.6Q236.5 88.2 236.2 88.7Q236.0 89.2 235.4 89.4L235.4 89.4Q235.4 89.4 235.3 89.4L235.3 89.4L236.7 92L235.3 92L234.0 89.7L233.0 89.7L233.0 92ZM233.0 86.6L233.0 88.6L233.9 88.6Q234.3 88.6 234.6 88.5Q234.9 88.4 235.0 88.1Q235.1 87.9 235.1 87.6L235.1 87.6Q235.1 87.2 235.0 87.0Q234.9 86.8 234.6 86.7Q234.3 86.6 233.9 86.6L233.9 86.6L233.0 86.6ZM240.7 92.1L240.7 92.1Q239.9 92.1 239.4 91.9Q238.8 91.6 238.4 91.1Q238.1 90.7 238.1 90.0L238.1 90.0L239.4 90.0Q239.4 90.3 239.6 90.5Q239.8 90.7 240.1 90.9Q240.3 91.0 240.7 91.0L240.7 91.0Q241.1 91.0 241.3 90.9Q241.6 90.8 241.8 90.6Q241.9 90.4 241.9 90.1L241.9 90.1Q241.9 89.9 241.8 89.8Q241.6 89.6 241.4 89.5Q241.1 89.4 240.8 89.3L240.8 89.3L240.1 89.1Q239.2 88.9 238.7 88.5Q238.3 88.0 238.3 87.3L238.3 87.3Q238.3 86.7 238.6 86.3Q238.9 85.9 239.5 85.6Q240.0 85.4 240.7 85.4L240.7 85.4Q241.5 85.4 242.0 85.6Q242.5 85.9 242.8 86.3Q243.2 86.7 243.2 87.3L243.2 87.3L241.9 87.3Q241.8 86.9 241.5 86.7Q241.2 86.5 240.7 86.5L240.7 86.5Q240.4 86.5 240.1 86.6Q239.9 86.7 239.8 86.9Q239.7 87.0 239.7 87.2L239.7 87.2Q239.7 87.5 239.8 87.7Q239.9 87.8 240.2 87.9Q240.4 88.0 240.7 88.1L240.7 88.1L241.3 88.2Q241.7 88.3 242.1 88.5Q242.4 88.6 242.7 88.9Q243.0 89.1 243.1 89.4Q243.2 89.7 243.2 90.1L243.2 90.1Q243.2 90.7 243.0 91.2Q242.7 91.6 242.1 91.9Q241.5 92.1 240.7 92.1Z "/></g><defs><clipPath id="satori_bc-id-3" clip-path="url(#satori_cp-id)"><rect x="304" y="45" width="167" height="61"/></clipPath></defs><mask id="satori_om-id-3"><rect x="304" y="45" width="166" height="61" fill="#fff" mask="url(#satori_om-id)"/><path width="167" height="61" fill="none" stroke="#000" stroke-width="2" d="M471,45 A0,0 0 0 1 471,45 v61 A0,0 0 0 1 471,106"/></mask><path width="167" height="61" clip-path="url(#satori_bc-id-3)" fill="none" stroke="rgba(255,255,255,0.06)" stroke-width="2" d="M471,45 A0,0 0 0 1 471,45 v61 A0,0 0 0 1 471,106"/><mask id="satori_om-id-3-0"><rect x="366" y="57" width="42" height="22" fill="#fff" mask="url(#satori_om-id)"/></mask><g mask="url(#satori_om-id)" clip-path="url(#satori_cp-id)"><path fill="#f59e0b" d="M372.7 76.2L372.7 76.2Q371.1 76.2 369.8 75.6Q368.5 75.0 367.8 73.9Q367.0 72.9 367.0 71.5L367.0 71.5L370.2 71.5Q370.2 72.1 370.6 72.6Q370.9 73.1 371.5 73.4Q372.1 73.6 372.7 73.6L372.7 73.6Q373.6 73.6 374.2 73.3Q374.8 72.9 375.1 72.3Q375.5 71.6 375.5 70.8L375.5 70.8Q375.5 69.9 375.1 69.2Q374.8 68.6 374.1 68.2Q373.5 67.9 372.7 67.9L372.7 67.9Q372.0 67.9 371.3 68.1Q370.7 68.4 370.3 68.9L370.3 68.9L367.3 68.4L368.1 60.0L377.8 60.0L377.8 62.7L370.8 62.7L370.4 66.8L370.5 66.8Q370.9 66.2 371.8 65.8Q372.6 65.4 373.6 65.4L373.6 65.4Q374.7 65.4 375.7 65.8Q376.6 66.2 377.2 66.9Q377.9 67.6 378.3 68.6Q378.7 69.5 378.7 70.7L378.7 70.7Q378.7 72.3 377.9 73.5Q377.2 74.8 375.8 75.5Q374.5 76.2 372.7 76.2ZM386.4 76.2L386.4 76.2Q384.8 76.2 383.5 75.6Q382.2 75.0 381.5 73.9Q380.7 72.9 380.7 71.5L380.7 71.5L383.9 71.5Q383.9 72.1 384.3 72.6Q384.6 73.1 385.2 73.4Q385.8 73.6 386.4 73.6L386.4 73.6Q387.2 73.6 387.9 73.3Q388.5 72.9 388.8 72.3Q389.2 71.6 389.2 70.8L389.2 70.8Q389.2 69.9 388.8 69.2Q388.5 68.6 387.8 68.2Q387.2 67.9 386.4 67.9L386.4 67.9Q385.7 67.9 385.0 68.1Q384.3 68.4 384.0 68.9L384.0 68.9L381.0 68.4L381.8 60.0L391.5 60.0L391.5 62.7L384.5 62.7L384.1 66.8L384.2 66.8Q384.6 66.2 385.5 65.8Q386.3 65.4 387.3 65.4L387.3 65.4Q388.4 65.4 389.3 65.8Q390.3 66.2 390.9 66.9Q391.6 67.6 392.0 68.6Q392.4 69.5 392.4 70.7L392.4 70.7Q392.4 72.3 391.6 73.5Q390.9 74.8 389.5 75.5Q388.2 76.2 386.4 76.2ZM400.5 76.2L400.5 76.2Q398.7 76.2 397.4 75.6Q396.0 75.0 395.2 74.0Q394.5 72.9 394.4 71.5L394.4 71.5L397.7 71.5Q397.8 72.1 398.1 72.6Q398.5 73.0 399.1 73.3Q399.7 73.5 400.5 73.5L400.5 73.5Q401.3 73.5 401.9 73.2Q402.5 72.9 402.8 72.5Q403.1 72.0 403.1 71.3L403.1 71.3Q403.1 70.6 402.8 70.1Q402.4 69.6 401.8 69.3Q401.1 69.1 400.2 69.1L400.2 69.1L398.7 69.1L398.7 66.6L400.2 66.6Q400.9 66.6 401.5 66.3Q402.1 66.1 402.5 65.6Q402.8 65.1 402.8 64.5L402.8 64.5Q402.8 63.9 402.5 63.4Q402.2 62.9 401.7 62.7Q401.2 62.4 400.5 62.4L400.5 62.4Q399.8 62.4 399.2 62.7Q398.6 62.9 398.3 63.4Q397.9 63.8 397.9 64.4L397.9 64.4L394.7 64.4Q394.8 63.1 395.5 62.0Q396.3 61.0 397.6 60.4Q398.9 59.8 400.5 59.8L400.5 59.8Q402.1 59.8 403.4 60.4Q404.6 61.0 405.3 62.0Q406.0 63.0 406.0 64.3L406.0 64.3Q406.0 65.6 405.1 66.5Q404.3 67.4 403.0 67.7L403.0 67.7L403.0 67.8Q404.1 67.9 404.9 68.4Q405.7 69.0 406.2 69.7Q406.6 70.5 406.6 71.5L406.6 71.5Q406.6 72.9 405.8 73.9Q405.0 75.0 403.6 75.6Q402.2 76.2 400.5 76.2Z "/></g><mask id="satori_om-id-3-1"><rect x="362" y="83" width="51" height="11" fill="#fff" mask="url(#satori_om-id)"/></mask><g mask="url(#satori_om-id)" clip-path="url(#satori_cp-id)"><path fill="rgba(200,195,225,0.45)" d="M365.5 92.1L365.5 92.1Q364.6 92.1 363.9 91.7Q363.2 91.3 362.8 90.5Q362.4 89.8 362.4 88.7L362.4 88.7Q362.4 87.7 362.8 86.9Q363.2 86.2 363.9 85.8Q364.6 85.4 365.5 85.4L365.5 85.4Q366.0 85.4 366.5 85.5Q367.0 85.7 367.3 86.0Q367.7 86.3 368.0 86.7Q368.2 87.1 368.3 87.7L368.3 87.7L366.9 87.7Q366.9 87.4 366.7 87.2Q366.6 87.0 366.4 86.9Q366.2 86.7 366.0 86.6Q365.8 86.6 365.5 86.6L365.5 86.6Q365.0 86.6 364.6 86.8Q364.2 87.1 364.0 87.6Q363.8 88.0 363.8 88.7L363.8 88.7Q363.8 89.4 364.0 89.9Q364.2 90.4 364.6 90.7Q365.0 90.9 365.5 90.9L365.5 90.9Q365.8 90.9 366.0 90.8Q366.2 90.7 366.4 90.6Q366.6 90.4 366.7 90.2Q366.9 90.0 366.9 89.8L366.9 89.8L368.3 89.8Q368.2 90.2 368.0 90.6Q367.8 91.1 367.4 91.4Q367.1 91.7 366.6 91.9Q366.1 92.1 365.5 92.1ZM372.9 92.1L372.9 92.1Q372.1 92.1 371.4 91.7Q370.7 91.3 370.3 90.5Q369.9 89.8 369.9 88.7L369.9 88.7Q369.9 87.7 370.3 86.9Q370.7 86.2 371.4 85.8Q372.1 85.4 372.9 85.4L372.9 85.4Q373.8 85.4 374.5 85.8Q375.2 86.2 375.6 86.9Q376.0 87.7 376.0 88.7L376.0 88.7Q376.0 89.8 375.6 90.5Q375.2 91.3 374.5 91.7Q373.8 92.1 372.9 92.1ZM372.9 90.9L372.9 90.9Q373.4 90.9 373.8 90.6Q374.2 90.4 374.4 89.9Q374.6 89.4 374.6 88.7L374.6 88.7Q374.6 88.0 374.4 87.5Q374.2 87.1 373.8 86.8Q373.4 86.6 372.9 86.6L372.9 86.6Q372.4 86.6 372.0 86.8Q371.7 87.1 371.4 87.5Q371.2 88.0 371.2 88.7L371.2 88.7Q371.2 89.4 371.4 89.9Q371.7 90.4 372.0 90.6Q372.4 90.9 372.9 90.9ZM379.1 92L377.8 92L377.8 85.5L379.8 85.5L380.9 88.5Q381.0 88.7 381.1 89.0Q381.1 89.3 381.2 89.7L381.2 89.7Q381.3 90.1 381.4 90.5L381.4 90.5Q381.5 90.1 381.6 89.7L381.6 89.7Q381.6 89.3 381.7 89.0Q381.8 88.7 381.9 88.5L381.9 88.5L382.9 85.5L385.0 85.5L385.0 92L383.6 92L383.6 88.9Q383.6 88.7 383.6 88.4Q383.7 88.1 383.7 87.7Q383.7 87.3 383.7 86.9L383.7 86.9Q383.7 86.8 383.7 86.6L383.7 86.6Q383.6 86.8 383.6 87.0L383.6 87.0Q383.5 87.4 383.4 87.7Q383.3 88.1 383.2 88.4Q383.1 88.7 383.0 88.9L383.0 88.9L382.0 92L380.8 92L379.7 88.9Q379.7 88.7 379.6 88.4Q379.5 88.1 379.4 87.7Q379.3 87.4 379.2 87.0L379.2 87.0Q379.1 86.8 379.1 86.7L379.1 86.7Q379.1 86.8 379.1 86.9L379.1 86.9Q379.1 87.3 379.1 87.7Q379.1 88.0 379.1 88.4Q379.1 88.7 379.1 88.9L379.1 88.9L379.1 92ZM388.3 92L387.0 92L387.0 85.5L389.0 85.5L390.1 88.5Q390.2 88.7 390.2 89.0Q390.3 89.3 390.4 89.7L390.4 89.7Q390.5 90.1 390.6 90.5L390.6 90.5Q390.7 90.1 390.7 89.7L390.7 89.7Q390.8 89.3 390.9 89.0Q391.0 88.7 391.1 88.5L391.1 88.5L392.1 85.5L394.2 85.5L394.2 92L392.8 92L392.8 88.9Q392.8 88.7 392.8 88.4Q392.8 88.1 392.8 87.7Q392.9 87.3 392.9 86.9L392.9 86.9Q392.9 86.8 392.9 86.6L392.9 86.6Q392.8 86.8 392.8 87.0L392.8 87.0Q392.7 87.4 392.6 87.7Q392.5 88.1 392.4 88.4Q392.3 88.7 392.2 88.9L392.2 88.9L391.1 92L390.0 92L388.9 88.9Q388.8 88.7 388.7 88.4Q388.7 88.1 388.6 87.7Q388.4 87.4 388.3 87.0L388.3 87.0Q388.3 86.8 388.3 86.7L388.3 86.7Q388.3 86.8 388.3 86.9L388.3 86.9Q388.3 87.3 388.3 87.7Q388.3 88.0 388.3 88.4Q388.3 88.7 388.3 88.9L388.3 88.9L388.3 92ZM396.2 85.5L397.5 85.5L397.5 92L396.2 92L396.2 85.5ZM401.2 86.6L399.2 86.6L399.2 85.5L404.6 85.5L404.6 86.6L402.6 86.6L402.6 92L401.2 92L401.2 86.6ZM408.7 92.1L408.7 92.1Q407.9 92.1 407.3 91.9Q406.7 91.6 406.4 91.1Q406.1 90.7 406.1 90.0L406.1 90.0L407.4 90.0Q407.4 90.3 407.6 90.5Q407.7 90.7 408.0 90.9Q408.3 91.0 408.7 91.0L408.7 91.0Q409.0 91.0 409.3 90.9Q409.6 90.8 409.7 90.6Q409.9 90.4 409.9 90.1L409.9 90.1Q409.9 89.9 409.7 89.8Q409.6 89.6 409.3 89.5Q409.1 89.4 408.7 89.3L408.7 89.3L408.0 89.1Q407.2 88.9 406.7 88.5Q406.2 88.0 406.2 87.3L406.2 87.3Q406.2 86.7 406.6 86.3Q406.9 85.9 407.4 85.6Q408.0 85.4 408.7 85.4L408.7 85.4Q409.4 85.4 410.0 85.6Q410.5 85.9 410.8 86.3Q411.1 86.7 411.1 87.3L411.1 87.3L409.8 87.3Q409.8 86.9 409.5 86.7Q409.2 86.5 408.7 86.5L408.7 86.5Q408.4 86.5 408.1 86.6Q407.9 86.7 407.7 86.9Q407.6 87.0 407.6 87.2L407.6 87.2Q407.6 87.5 407.8 87.7Q407.9 87.8 408.2 87.9Q408.4 88.0 408.7 88.1L408.7 88.1L409.3 88.2Q409.7 88.3 410.0 88.5Q410.4 88.6 410.7 88.9Q410.9 89.1 411.1 89.4Q411.2 89.7 411.2 90.1L411.2 90.1Q411.2 90.7 410.9 91.2Q410.6 91.6 410.1 91.9Q409.5 92.1 408.7 92.1Z "/></g><defs><clipPath id="satori_bc-id-4" clip-path="url(#satori_cp-id)"><rect x="471" y="45" width="201" height="61"/></clipPath></defs><mask id="satori_om-id-4"><rect x="471" y="45" width="200" height="61" fill="#fff" mask="url(#satori_om-id)"/><path width="201" height="61" fill="none" stroke="#000" stroke-width="2" d="M672,45 A0,0 0 0 1 672,45 v61 A0,0 0 0 1 672,106"/></mask><path width="201" height="61" clip-path="url(#satori_bc-id-4)" fill="none" stroke="rgba(255,255,255,0.06)" stroke-width="2" d="M672,45 A0,0 0 0 1 672,45 v61 A0,0 0 0 1 672,106"/><mask id="satori_om-id-4-0"><rect x="529" y="57" width="84" height="22" fill="#fff" mask="url(#satori_om-id)"/></mask><g mask="url(#satori_om-id)" clip-path="url(#satori_cp-id)"><path fill="#4ade80" d="M541.7 76L530.3 76L530.3 73.6L536.0 68.3Q536.7 67.6 537.2 67.0Q537.7 66.5 538.0 65.9Q538.3 65.4 538.3 64.7L538.3 64.7Q538.3 64.0 537.9 63.5Q537.6 63.0 537.1 62.7Q536.5 62.4 535.8 62.4L535.8 62.4Q535.0 62.4 534.5 62.7Q533.9 63.0 533.6 63.6Q533.3 64.1 533.3 64.9L533.3 64.9L530.2 64.9Q530.2 63.3 530.9 62.2Q531.6 61.0 532.9 60.4Q534.1 59.8 535.8 59.8L535.8 59.8Q537.5 59.8 538.8 60.4Q540.0 61.0 540.7 62.1Q541.4 63.1 541.4 64.5L541.4 64.5Q541.4 65.4 541.1 66.3Q540.7 67.1 539.8 68.2Q538.9 69.3 537.3 70.8L537.3 70.8L534.9 73.2L534.9 73.3L541.7 73.3L541.7 76ZM547.4 60.0L550.9 60.0L550.9 76L547.6 76L547.6 62.9L547.5 62.9L543.9 65.5L543.9 62.5L547.4 60.0ZM556.9 60.0L560.4 60.0L560.4 76L557.1 76L557.1 62.9L557.0 62.9L553.3 65.5L553.3 62.5L556.9 60.0ZM565.3 80.2L563.1 80.2L564.1 73.6L567.3 73.6L565.3 80.2ZM575.9 76.2L575.9 76.2Q573.9 76.2 572.5 75.2Q571.1 74.3 570.3 72.4Q569.5 70.6 569.5 68.0L569.5 68.0Q569.5 65.4 570.3 63.6Q571.1 61.7 572.5 60.8Q573.9 59.8 575.9 59.8L575.9 59.8Q578.0 59.8 579.4 60.8Q580.8 61.7 581.6 63.6Q582.4 65.4 582.4 68.0L582.4 68.0Q582.4 70.6 581.6 72.4Q580.8 74.3 579.4 75.2Q578.0 76.2 575.9 76.2ZM575.9 73.5L575.9 73.5Q576.9 73.5 577.6 72.9Q578.3 72.2 578.7 71.0Q579.0 69.8 579.0 68.0L579.0 68.0Q579.0 66.2 578.7 65.0Q578.3 63.8 577.6 63.1Q576.9 62.5 575.9 62.5L575.9 62.5Q575.0 62.5 574.3 63.1Q573.6 63.8 573.2 65.0Q572.9 66.2 572.9 68.0L572.9 68.0Q572.9 69.8 573.2 71.0Q573.6 72.2 574.3 72.9Q575.0 73.5 575.9 73.5ZM592.1 73.2L584.5 73.2L584.5 70.6L591.1 60.0L595.3 60.0L595.3 70.5L597.3 70.5L597.3 73.2L595.3 73.2L595.3 76L592.1 76L592.1 73.2ZM587.8 70.5L592.2 70.5L592.2 63.6L592.0 63.6L587.8 70.4L587.8 70.5ZM605.0 76.2L605.0 76.2Q603.3 76.2 602.1 75.6Q600.8 75.0 600.0 73.9Q599.3 72.9 599.2 71.5L599.2 71.5L602.4 71.5Q602.5 72.1 602.8 72.6Q603.2 73.1 603.7 73.4Q604.3 73.6 605.0 73.6L605.0 73.6Q605.8 73.6 606.4 73.3Q607.0 72.9 607.4 72.3Q607.7 71.6 607.7 70.8L607.7 70.8Q607.7 69.9 607.4 69.2Q607.0 68.6 606.4 68.2Q605.8 67.9 604.9 67.9L604.9 67.9Q604.2 67.9 603.6 68.1Q602.9 68.4 602.5 68.9L602.5 68.9L599.6 68.4L600.3 60.0L610.0 60.0L610.0 62.7L603.1 62.7L602.7 66.8L602.7 66.8Q603.2 66.2 604.0 65.8Q604.9 65.4 605.9 65.4L605.9 65.4Q607.0 65.4 607.9 65.8Q608.8 66.2 609.5 66.9Q610.2 67.6 610.5 68.6Q610.9 69.5 610.9 70.7L610.9 70.7Q610.9 72.3 610.2 73.5Q609.4 74.8 608.1 75.5Q606.8 76.2 605.0 76.2Z "/></g><mask id="satori_om-id-4-1"><rect x="551" y="83" width="40" height="11" fill="#fff" mask="url(#satori_om-id)"/></mask><g mask="url(#satori_om-id)" clip-path="url(#satori_cp-id)"><path fill="rgba(200,195,225,0.45)" d="M555.8 92L551.6 92L551.6 85.5L552.9 85.5L552.9 90.9L555.8 90.9L555.8 92ZM557.5 85.5L558.8 85.5L558.8 92L557.5 92L557.5 85.5ZM562.2 92L560.8 92L560.8 85.5L562.3 85.5L564.4 88.8Q564.5 89.0 564.7 89.3Q564.9 89.6 565.0 90.0L565.0 90.0Q565.1 90.2 565.2 90.4L565.2 90.4Q565.2 90.2 565.2 90.0L565.2 90.0Q565.1 89.6 565.1 89.2Q565.1 88.9 565.1 88.6L565.1 88.6L565.1 85.5L566.5 85.5L566.5 92L565.0 92L563.1 89.0Q562.9 88.7 562.7 88.3Q562.5 88.0 562.4 87.6L562.4 87.6Q562.2 87.4 562.1 87.1L562.1 87.1Q562.1 87.4 562.1 87.6L562.1 87.6Q562.1 88.1 562.2 88.4Q562.2 88.8 562.2 89.0L562.2 89.0L562.2 92ZM572.9 92L568.5 92L568.5 85.5L572.9 85.5L572.9 86.6L569.8 86.6L569.8 88.1L572.6 88.1L572.6 89.2L569.8 89.2L569.8 90.9L572.9 90.9L572.9 92ZM577.1 92.1L577.1 92.1Q576.3 92.1 575.8 91.9Q575.2 91.6 574.9 91.1Q574.5 90.7 574.5 90.0L574.5 90.0L575.8 90.0Q575.8 90.3 576.0 90.5Q576.2 90.7 576.5 90.9Q576.8 91.0 577.1 91.0L577.1 91.0Q577.5 91.0 577.7 90.9Q578.0 90.8 578.2 90.6Q578.3 90.4 578.3 90.1L578.3 90.1Q578.3 89.9 578.2 89.8Q578.0 89.6 577.8 89.5Q577.5 89.4 577.2 89.3L577.2 89.3L576.5 89.1Q575.6 88.9 575.2 88.5Q574.7 88.0 574.7 87.3L574.7 87.3Q574.7 86.7 575.0 86.3Q575.3 85.9 575.9 85.6Q576.4 85.4 577.2 85.4L577.2 85.4Q577.9 85.4 578.4 85.6Q579.0 85.9 579.3 86.3Q579.6 86.7 579.6 87.3L579.6 87.3L578.3 87.3Q578.2 86.9 577.9 86.7Q577.6 86.5 577.1 86.5L577.1 86.5Q576.8 86.5 576.6 86.6Q576.3 86.7 576.2 86.9Q576.1 87.0 576.1 87.2L576.1 87.2Q576.1 87.5 576.2 87.7Q576.4 87.8 576.6 87.9Q576.8 88.0 577.1 88.1L577.1 88.1L577.7 88.2Q578.1 88.3 578.5 88.5Q578.8 88.6 579.1 88.9Q579.4 89.1 579.5 89.4Q579.7 89.7 579.7 90.1L579.7 90.1Q579.7 90.7 579.4 91.2Q579.1 91.6 578.5 91.9Q577.9 92.1 577.1 92.1Z M587.4 91.6L586.3 91.6L586.3 89.9L584.6 89.9L584.6 88.9L586.3 88.9L586.3 87.1L587.4 87.1L587.4 88.9L589.1 88.9L589.1 89.9L587.4 89.9L587.4 91.6Z "/></g><mask id="satori_om-id-5"><rect x="672" y="45" width="187" height="61" fill="#fff" mask="url(#satori_om-id)"/></mask><mask id="satori_om-id-5-0"><rect x="730" y="57" width="72" height="22" fill="#fff" mask="url(#satori_om-id)"/></mask><g mask="url(#satori_om-id)" clip-path="url(#satori_cp-id)"><path fill="#fb7185" d="M734.5 60.0L738.0 60.0L738.0 76L734.8 76L734.8 62.9L734.7 62.9L731.0 65.5L731.0 62.5L734.5 60.0ZM746.3 76.2L746.3 76.2Q744.7 76.2 743.5 75.6Q742.3 75.0 741.6 73.9Q740.8 72.9 740.7 71.5L740.7 71.5L743.9 71.5Q744.1 72.4 744.7 72.9Q745.4 73.4 746.3 73.4L746.3 73.4Q747.4 73.4 748.1 72.8Q748.8 72.2 749.2 71.0Q749.6 69.8 749.6 68.3L749.6 68.3L749.5 68.3Q749.1 69.0 748.5 69.5Q747.9 70.0 747.1 70.2Q746.3 70.5 745.4 70.5L745.4 70.5Q744.0 70.5 742.9 69.8Q741.8 69.2 741.1 68.0Q740.5 66.8 740.5 65.3L740.5 65.3Q740.5 63.7 741.2 62.4Q742.0 61.2 743.3 60.5Q744.7 59.7 746.5 59.8L746.5 59.8Q747.7 59.8 748.8 60.2Q749.9 60.6 750.8 61.5Q751.7 62.4 752.2 63.9Q752.8 65.4 752.8 67.6L752.8 67.6Q752.8 69.6 752.3 71.2Q751.9 72.8 751.0 73.9Q750.2 75.1 749.0 75.7Q747.8 76.2 746.3 76.2ZM746.4 68.1L746.4 68.1Q747.0 68.1 747.5 67.9Q748.0 67.6 748.4 67.3Q748.8 66.9 749.0 66.3Q749.2 65.8 749.2 65.2L749.2 65.2Q749.2 64.5 748.9 63.8Q748.5 63.2 747.9 62.8Q747.3 62.4 746.5 62.4L746.5 62.4Q745.7 62.4 745.0 62.8Q744.4 63.1 744.1 63.8Q743.7 64.4 743.7 65.2L743.7 65.2Q743.7 66.1 744.0 66.7Q744.4 67.3 745.0 67.7Q745.6 68.1 746.4 68.1ZM756.6 80.2L754.4 80.2L755.4 73.6L758.6 73.6L756.6 80.2ZM765.2 76L761.8 76L768.5 62.8L768.5 62.7L760.7 62.7L760.7 60.0L771.9 60.0L771.9 62.7L765.2 76ZM785.4 76L774.0 76L774.0 73.6L779.7 68.3Q780.4 67.6 780.9 67.0Q781.4 66.5 781.7 65.9Q782.0 65.4 782.0 64.7L782.0 64.7Q782.0 64.0 781.6 63.5Q781.3 63.0 780.8 62.7Q780.2 62.4 779.5 62.4L779.5 62.4Q778.7 62.4 778.2 62.7Q777.6 63.0 777.3 63.6Q777.0 64.1 777.0 64.9L777.0 64.9L773.9 64.9Q773.9 63.3 774.6 62.2Q775.3 61.0 776.6 60.4Q777.9 59.8 779.5 59.8L779.5 59.8Q781.2 59.8 782.5 60.4Q783.7 61.0 784.4 62.1Q785.2 63.1 785.2 64.5L785.2 64.5Q785.2 65.4 784.8 66.3Q784.5 67.1 783.6 68.2Q782.7 69.3 781.0 70.8L781.0 70.8L778.6 73.2L778.6 73.3L785.4 73.3L785.4 76ZM793.6 76.2L793.6 76.2Q791.9 76.2 790.6 75.6Q789.2 75.0 788.4 74.0Q787.7 72.9 787.6 71.5L787.6 71.5L790.9 71.5Q791.0 72.1 791.3 72.6Q791.7 73.0 792.3 73.3Q792.9 73.5 793.7 73.5L793.7 73.5Q794.5 73.5 795.1 73.2Q795.7 72.9 796 72.5Q796.3 72.0 796.3 71.3L796.3 71.3Q796.3 70.6 796.0 70.1Q795.6 69.6 795.0 69.3Q794.3 69.1 793.4 69.1L793.4 69.1L791.9 69.1L791.9 66.6L793.4 66.6Q794.1 66.6 794.7 66.3Q795.3 66.1 795.7 65.6Q796 65.1 796 64.5L796 64.5Q796 63.9 795.7 63.4Q795.4 62.9 794.9 62.7Q794.4 62.4 793.7 62.4L793.7 62.4Q793.0 62.4 792.4 62.7Q791.8 62.9 791.5 63.4Q791.1 63.8 791.1 64.4L791.1 64.4L787.9 64.4Q788.0 63.1 788.7 62.0Q789.5 61.0 790.8 60.4Q792.1 59.8 793.7 59.8L793.7 59.8Q795.3 59.8 796.6 60.4Q797.8 61.0 798.5 62.0Q799.2 63.0 799.2 64.3L799.2 64.3Q799.2 65.6 798.3 66.5Q797.5 67.4 796.2 67.7L796.2 67.7L796.2 67.8Q797.3 67.9 798.1 68.4Q798.9 69.0 799.4 69.7Q799.8 70.5 799.8 71.5L799.8 71.5Q799.8 72.9 799.0 73.9Q798.2 75.0 796.8 75.6Q795.4 76.2 793.6 76.2Z "/></g><mask id="satori_om-id-5-1"><rect x="747" y="83" width="38" height="11" fill="#fff" mask="url(#satori_om-id)"/></mask><g mask="url(#satori_om-id)" clip-path="url(#satori_cp-id)"><path fill="rgba(200,195,225,0.45)" d="M751.8 92L747.6 92L747.6 85.5L748.9 85.5L748.9 90.9L751.8 90.9L751.8 92ZM753.5 85.5L754.8 85.5L754.8 92L753.5 92L753.5 85.5ZM758.2 92L756.8 92L756.8 85.5L758.3 85.5L760.4 88.8Q760.5 89.0 760.7 89.3Q760.9 89.6 761.0 90.0L761.0 90.0Q761.1 90.2 761.2 90.4L761.2 90.4Q761.2 90.2 761.2 90.0L761.2 90.0Q761.1 89.6 761.1 89.2Q761.1 88.9 761.1 88.6L761.1 88.6L761.1 85.5L762.5 85.5L762.5 92L761.0 92L759.1 89.0Q758.9 88.7 758.7 88.3Q758.5 88.0 758.4 87.6L758.4 87.6Q758.2 87.4 758.1 87.1L758.1 87.1Q758.1 87.4 758.1 87.6L758.1 87.6Q758.1 88.1 758.2 88.4Q758.2 88.8 758.2 89.0L758.2 89.0L758.2 92ZM768.9 92L764.5 92L764.5 85.5L768.9 85.5L768.9 86.6L765.8 86.6L765.8 88.1L768.6 88.1L768.6 89.2L765.8 89.2L765.8 90.9L768.9 90.9L768.9 92ZM773.1 92.1L773.1 92.1Q772.3 92.1 771.8 91.9Q771.2 91.6 770.9 91.1Q770.5 90.7 770.5 90.0L770.5 90.0L771.8 90.0Q771.8 90.3 772.0 90.5Q772.2 90.7 772.5 90.9Q772.8 91.0 773.1 91.0L773.1 91.0Q773.5 91.0 773.7 90.9Q774.0 90.8 774.2 90.6Q774.3 90.4 774.3 90.1L774.3 90.1Q774.3 89.9 774.2 89.8Q774.0 89.6 773.8 89.5Q773.5 89.4 773.2 89.3L773.2 89.3L772.5 89.1Q771.6 88.9 771.2 88.5Q770.7 88.0 770.7 87.3L770.7 87.3Q770.7 86.7 771.0 86.3Q771.3 85.9 771.9 85.6Q772.4 85.4 773.2 85.4L773.2 85.4Q773.9 85.4 774.4 85.6Q775.0 85.9 775.3 86.3Q775.6 86.7 775.6 87.3L775.6 87.3L774.3 87.3Q774.2 86.9 773.9 86.7Q773.6 86.5 773.1 86.5L773.1 86.5Q772.8 86.5 772.6 86.6Q772.3 86.7 772.2 86.9Q772.1 87.0 772.1 87.2L772.1 87.2Q772.1 87.5 772.2 87.7Q772.4 87.8 772.6 87.9Q772.8 88.0 773.1 88.1L773.1 88.1L773.7 88.2Q774.1 88.3 774.5 88.5Q774.8 88.6 775.1 88.9Q775.4 89.1 775.5 89.4Q775.7 89.7 775.7 90.1L775.7 90.1Q775.7 90.7 775.4 91.2Q775.1 91.6 774.5 91.9Q773.9 92.1 773.1 92.1Z M780.4 88.8L783.4 88.8L783.4 89.8L780.4 89.8L780.4 88.8Z "/></g></svg>