<!-- Generated by readme-aura https://github.com/collectioneur/readme-aura -->
<svg width="860" height="150" viewBox="0 0 860 150" xmlns="http://www.w3.org/2000/svg"><defs><clipPath id="satori_bc-id"><path x="0" y="0" width="860" height="150" d="M16,0 h828 a16,16 0 0 1 16,16 v118 a16,16 0 0 1 -16,16 h-828 a16,16 0 0 1 -16,-16 v-118 a16,16 0 0 1 16,-16"/></clipPath></defs><clipPath id="satori_cp-id"><path x="0" y="0" width="860" height="150" d="M16,0 h828 a16,16 0 0 1 16,16 v118 a16,16 0 0 1 -16,16 h-828 a16,16 0 0 1 -16,-16 v-118 a16,16 0 0 1 16,-16"/></clipPath><mask id="satori_om-id"><rect x="1" y="1" width="858" height="148" fill="#fff"/><path width="860" height="150" fill="none" stroke="#000" stroke-width="2" d="M4.686,4.686 A16,16 0 0 1 16,0 h828 a16,16 0 0 1 16,16 v118 a16,16 0 0 1 -16,16 h-828 a16,16 0 0 1 -16,-16 v-118 A16,16 0 0 1 4.686,4.686"/></mask><path x="0" y="0" width="860" height="150" fill="#08080c" d="M16,0 h828 a16,16 0 0 1 16,16 v118 a16,16 0 0 1 -16,16 h-828 a16,16 0 0 1 -16,-16 v-118 a16,16 0 0 1 16,-16"/><path width="860" height="150" clip-path="url(#satori_bc-id)" fill="none" stroke="rgba(110,80,220,0.18)" stroke-width="2" d="M4.686,4.686 A16,16 0 0 1 16,0 h828 a16,16 0 0 1 16,16 v118 a16,16 0 0 1 -16,16 h-828 a16,16 0 0 1 -16,-16 v-118 A16,16 0 0 1 4.686,4.686"/><clipPath id="satori_cp-id-0" clip-path="url(#satori_cp-id)"><rect x="1" y="1" width="860" height="150"/></clipPath><mask id="satori_om-id-0"><rect x="1" y="1" width="860" height="150" fill="#fff" mask="url(#satori_om-id)"/></mask><svg x="1" y="1" width="860" height="150" preserveAspectRatio="none" clip-path="url(#satori_cp-id-0)" mask="url(#satori_om-id-0)"><defs><radialGradient id="g1" cx="50%" cy="50%" r="50%"><stop offset="0%" stop-color="rgba(110,20,210,0.65)"></stop><stop offset="45%" stop-color="rgba(80,15,170,0.28)"></stop><stop offset="70%" stop-color="rgba(80,15,170,0)"></stop></radialGradient><radialGradient id="g2" cx="50%" cy="50%" r="50%"><stop offset="0%" stop-color="rgba(40,70,255,0.55)"></stop><stop offset="45%" stop-color="rgba(20,50,200,0.22)"></stop><stop offset="70%" stop-color="rgba(20,50,200,0)"></stop></radialGradient><radialGradient id="g3" cx="50%" cy="50%" r="50%"><stop offset="0%" stop-color="rgba(0,140,255,0.42)"></stop><stop offset="70%" stop-color="rgba(0,140,255,0)"></stop></radialGradient><radialGradient id="g4" cx="50%" cy="50%" r="50%"><stop offset="0%" stop-color="rgba(0,195,235,0.30)"></stop><stop offset="70%" stop-color="rgba(0,195,235,0)"></stop></radialGradient><radialGradient id="g5" cx="50%" cy="50%" r="50%"><stop offset="0%" stop-color="rgba(100,30,210,0.40)"></stop><stop offset="70%" stop-color="rgba(100,30,210,0)"></stop></radialGradient></defs><ellipse id="glow-1" cx="730" cy="155" rx="180" ry="130" fill="url(#g1)"></ellipse><ellipse id="glow-2" cx="580" cy="148" rx="170" ry="125" fill="url(#g2)"></ellipse><ellipse id="glow-3" cx="430" cy="142" rx="160" ry="120" fill="url(#g3)"></ellipse><ellipse id="glow-4" cx="280" cy="148" rx="150" ry="115" fill="url(#g4)"></ellipse><ellipse id="glow-5" cx="130" cy="155" rx="130" ry="105" fill="url(#g5)"></ellipse><style>

          @keyframes float-slow {
            0%, 100% { transform: translateX(0px); opacity: 0.8; }
            50% { transform: translateX(350px); opacity: 1.2; }
          }
          @keyframes float-medium {
            0%, 100% { transform: translateX(0px); opacity: 0.7; }
            50% { transform: translateX(-250px); opacity: 1.1; }
          }
          @keyframes float-fast {
            0%, 100% { transform: translateX(0px); opacity: 0.9; }
            50% { transform: translateX(200px); opacity: 0.6; }
          }
          @keyframes float-diagonal {
            0%, 100% { transform: translate(0px, 0px); opacity: 0.75; }
            50% { transform: translate(120px, 30px); opacity: 1.0; }
          }
          @keyframes float-wave {
            0%, 100% { transform: translateX(0px); opacity: 0.65; }
            33% { transform: translateX(-160px); opacity: 0.9; }
            66% { transform: translateX(80px); opacity: 1.0; }
          }
          @keyframes float-pulse {
            0%, 100% { transform: scale(1); opacity: 0.8; }
            50% { transform: scale(1.3); opacity: 0.4; }
          }
          #glow-1 { animation: float-slow 8s ease-in-out infinite; }
          #glow-2 { animation: float-medium 12s ease-in-out infinite; }
          #glow-3 { animation: float-fast 9s ease-in-out infinite; }
          #glow-4 { animation: float-diagonal 10s ease-in-out infinite; }
          #glow-5 { animation: float-wave 14s ease-in-out infinite; }
        
</style>
</svg><mask id="satori_om-id-0-0"><rect x="1" y="1" width="0" height="150" fill="#fff" mask="url(#satori_om-id)"/></mask><mask id="satori_om-id-0-0-0"><rect x="1" y="1" width="0" height="150" fill="#fff" mask="url(#satori_om-id)"/></mask><mask id="satori_om-id-0-0-0-0"><rect x="1" y="1" width="0" height="150" fill="#fff" mask="url(#satori_om-id)"/></mask><mask id="satori_om-id-0-0-0-1"><rect x="1" y="1" width="0" height="150" fill="#fff" mask="url(#satori_om-id)"/></mask><mask id="satori_om-id-0-0-0-2"><rect x="1" y="1" width="0" height="150" fill="#fff" mask="url(#satori_om-id)"/></mask><mask id="satori_om-id-0-0-1"><rect x="1" y="1" width="0" height="150" fill="#fff" mask="url(#satori_om-id)"/></mask><mask id="satori_om-id-0-0-1-0"><rect x="1" y="1" width="0" height="150" fill="#fff" mask="url(#satori_om-id)"/></mask><mask id="satori_om-id-0-0-1-1"><rect x="1" y="1" width="0" height="150" fill="#fff" mask="url(#satori_om-id)"/></mask><mask id="satori_om-id-0-0-1-2"><rect x="1" y="1" width="0" height="150" fill="#fff" mask="url(#satori_om-id)"/></mask><mask id="satori_om-id-0-0-2"><rect x="1" y="1" width="0" height="150" fill="#fff" mask="url(#satori_om-id)"/></mask><mask id="satori_om-id-0-0-2-0"><rect x="1" y="1" width="0" height="150" fill="#fff" mask="url(#satori_om-id)"/></mask><mask id="satori_om-id-0-0-2-1"><rect x="1" y="1" width="0" height="150" fill="#fff" mask="url(#satori_om-id)"/></mask><mask id="satori_om-id-0-0-3"><rect x="1" y="1" width="0" height="150" fill="#fff" mask="url(#satori_om-id)"/></mask><mask id="satori_om-id-0-0-3-0"><rect x="1" y="1" width="0" height="150" fill="#fff" mask="url(#satori_om-id)"/></mask><mask id="satori_om-id-0-0-3-1"><rect x="1" y="1" width="0" height="150" fill="#fff" mask="url(#satori_om-id)"/></mask><mask id="satori_om-id-0-0-4"><rect x="1" y="1" width="0" height="150" fill="#fff" mask="url(#satori_om-id)"/></mask><mask id="satori_om-id-0-0-4-0"><rect x="1" y="1" width="0" height="150" fill="#fff" mask="url(#satori_om-id)"/></mask><mask id="satori_om-id-0-0-4-1"><rect x="1" y="1" width="0" height="150" fill="#fff" mask="url(#satori_om-id)"/></mask><mask id="satori_om-id-0-1"><rect x="1" y="1" width="0" height="150" fill="#fff" mask="url(#satori_om-id)"/></mask><mask id="satori_om-id-0-2"><rect x="1" y="1" width="0" height="150" fill="#fff" mask="url(#satori_om-id)"/></mask><mask id="satori_om-id-0-3"><rect x="1" y="1" width="0" height="150" fill="#fff" mask="url(#satori_om-id)"/></mask><mask id="satori_om-id-0-4"><rect x="1" y="1" width="0" height="150" fill="#fff" mask="url(#satori_om-id)"/></mask><mask id="satori_om-id-0-5"><rect x="1" y="1" width="0" height="150" fill="#fff" mask="url(#satori_om-id)"/></mask><defs><clipPath id="satori_bc-id-1" clip-path="url(#satori_cp-id)"><rect x="1" y="45" width="150" height="61"/></clipPath></defs><mask id="satori_om-id-1"><rect x="1" y="45" width="149" height="61" fill="#fff" mask="url(#satori_om-id)"/><path width="150" height="61" fill="none" stroke="#000" stroke-width="2" d="M151,45 A0,0 0 0 1 151,45 v61 A0,0 0 0 1 151,106"/></mask><path width="150" height="61" clip-path="url(#satori_bc-id-1)" fill="none" stroke="rgba(255,255,255,0.06)" stroke-width="2" d="M151,45 A0,0 0 0 1 151,45 v61 A0,0 0 0 1 151,106"/><mask id="satori_om-id-1-0"><rect x="61" y="57" width="28" height="22" fill="#fff" mask="url(#satori_om-id)"/></mask><g mask="url(#satori_om-id)" clip-path="url(#satori_cp-id)"><path fill="#a78bfa" d="M73.7 76L62.3 76L62.3 73.6L68.0 68.3Q68.7 67.6 69.2 67.0Q69.7 66.5 70.0 65.9Q70.3 65.4 70.3 64.7L70.3 64.7Q70.3 64.0 69.9 63.5Q69.6 63.0 69.1 62.7Q68.5 62.4 67.8 62.4L67.8 62.4Q67.0 62.4 66.5 62.7Q65.9 63.0 65.6 63.6Q65.3 64.1 65.3 64.9L65.3 64.9L62.2 64.9Q62.2 63.3 62.9 62.2Q63.6 61.0 64.9 60.4Q66.1 59.8 67.8 59.8L67.8 59.8Q69.5 59.8 70.8 60.4Q72.0 61.0 72.7 62.1Q73.4 63.1 73.4 64.5L73.4 64.5Q73.4 65.4 73.1 66.3Q72.7 67.1 71.8 68.2Q70.9 69.3 69.3 70.8L69.3 70.8L66.9 73.2L66.9 73.3L73.7 73.3L73.7 76ZM87.5 76L76.2 76L76.2 73.6L81.9 68.3Q82.6 67.6 83.1 67.0Q83.6 66.5 83.9 65.9Q84.1 65.4 84.1 64.7L84.1 64.7Q84.1 64.0 83.8 63.5Q83.5 63.0 82.9 62.7Q82.4 62.4 81.6 62.4L81.6 62.4Q80.9 62.4 80.3 62.7Q79.8 63.0 79.5 63.6Q79.2 64.1 79.2 64.9L79.2 64.9L76.0 64.9Q76.0 63.3 76.8 62.2Q77.5 61.0 78.7 60.4Q80.0 59.8 81.7 59.8L81.7 59.8Q83.4 59.8 84.6 60.4Q85.9 61.0 86.6 62.1Q87.3 63.1 87.3 64.5L87.3 64.5Q87.3 65.4 86.9 66.3Q86.6 67.1 85.7 68.2Q84.8 69.3 83.2 70.8L83.2 70.8L80.7 73.2L80.7 73.3L87.5 73.3L87.5 76Z "/></g><mask id="satori_om-id-1-1"><rect x="58" y="83" width="35" height="11" fill="#fff" mask="url(#satori_om-id)"/></mask><g mask="url(#satori_om-id)" clip-path="url(#satori_cp-id)"><path fill="rgba(200,195,225,0.45)" d="M59.9 92L58.6 92L58.6 85.5L61.1 85.5Q61.9 85.5 62.4 85.7Q62.9 86.0 63.2 86.5Q63.5 86.9 63.5 87.6Q63.5 88.2 63.2 88.7Q62.9 89.2 62.4 89.4L62.4 89.4Q62.4 89.4 62.3 89.4L62.3 89.4L63.7 92L62.2 92L61.0 89.7L59.9 89.7L59.9 92ZM59.9 86.6L59.9 88.6L60.9 88.6Q61.3 88.6 61.6 88.5Q61.8 88.4 62.0 88.1Q62.1 87.9 62.1 87.6L62.1 87.6Q62.1 87.2 62.0 87.0Q61.8 86.8 61.6 86.7Q61.3 86.6 60.9 86.6L60.9 86.6L59.9 86.6ZM69.7 92L65.3 92L65.3 85.5L69.7 85.5L69.7 86.6L66.6 86.6L66.6 88.1L69.5 88.1L69.5 89.2L66.6 89.2L66.6 90.9L69.7 90.9L69.7 92ZM72.9 92L71.6 92L71.6 85.5L74.1 85.5Q74.9 85.5 75.4 85.7Q75.9 86.0 76.2 86.5Q76.5 87.0 76.5 87.7L76.5 87.7Q76.5 88.3 76.2 88.8Q75.9 89.3 75.4 89.6Q74.8 89.9 74.1 89.9L74.1 89.9L72.9 89.9L72.9 92ZM72.9 86.6L72.9 88.8L73.9 88.8Q74.3 88.8 74.6 88.6Q74.8 88.5 75.0 88.2Q75.1 88.0 75.1 87.7Q75.1 87.3 75.0 87.1Q74.8 86.8 74.6 86.7Q74.3 86.6 73.9 86.6L73.9 86.6L72.9 86.6ZM81.1 92.1L81.1 92.1Q80.2 92.1 79.5 91.7Q78.8 91.3 78.4 90.5Q78.0 89.8 78.0 88.7L78.0 88.7Q78.0 87.7 78.4 86.9Q78.8 86.2 79.5 85.8Q80.2 85.4 81.1 85.4L81.1 85.4Q81.9 85.4 82.6 85.8Q83.3 86.2 83.7 86.9Q84.1 87.7 84.1 88.7L84.1 88.7Q84.1 89.8 83.7 90.5Q83.3 91.3 82.6 91.7Q81.9 92.1 81.1 92.1ZM81.1 90.9L81.1 90.9Q81.6 90.9 82.0 90.6Q82.3 90.4 82.6 89.9Q82.8 89.4 82.8 88.7L82.8 88.7Q82.8 88.0 82.6 87.5Q82.3 87.1 82.0 86.8Q81.6 86.6 81.1 86.6L81.1 86.6Q80.6 86.6 80.2 86.8Q79.8 87.1 79.6 87.5Q79.4 88.0 79.4 88.7L79.4 88.7Q79.4 89.4 79.6 89.9Q79.8 90.4 80.2 90.6Q80.6 90.9 81.1 90.9ZM88.3 92.1L88.3 92.1Q87.5 92.1 87.0 91.9Q86.4 91.6 86.1 91.1Q85.7 90.7 85.7 90.0L85.7 90.0L87.0 90.0Q87.0 90.3 87.2 90.5Q87.4 90.7 87.7 90.9Q88.0 91.0 88.3 91.0L88.3 91.0Q88.7 91.0 88.9 90.9Q89.2 90.8 89.4 90.6Q89.5 90.4 89.5 90.1L89.5 90.1Q89.5 89.9 89.4 89.8Q89.2 89.6 89.0 89.5Q88.7 89.4 88.4 89.3L88.4 89.3L87.7 89.1Q86.8 88.9 86.4 88.5Q85.9 88.0 85.9 87.3L85.9 87.3Q85.9 86.7 86.2 86.3Q86.5 85.9 87.1 85.6Q87.6 85.4 88.4 85.4L88.4 85.4Q89.1 85.4 89.6 85.6Q90.2 85.9 90.5 86.3Q90.8 86.7 90.8 87.3L90.8 87.3L89.5 87.3Q89.4 86.9 89.1 86.7Q88.8 86.5 88.3 86.5L88.3 86.5Q88.0 86.5 87.8 86.6Q87.5 86.7 87.4 86.9Q87.3 87.0 87.3 87.2L87.3 87.2Q87.3 87.5 87.4 87.7Q87.6 87.8 87.8 87.9Q88.0 88.0 88.3 88.1L88.3 88.1L88.9 88.2Q89.3 88.3 89.7 88.5Q90.0 88.6 90.3 88.9Q90.6 89.1 90.7 89.4Q90.9 89.7 90.9 90.1L90.9 90.1Q90.9 90.7 90.6 91.2Q90.3 91.6 89.7 91.9Q89.1 92.1 88.3 92.1Z "/></g><defs><clipPath id="satori_bc-id-2" clip-path="url(#satori_cp-id)"><rect x="151" y="45" width="149" height="61"/></clipPath></defs><mask id="satori_om-id-2"><rect x="151" y="45" width="148" height="61" fill="#fff" mask="url(#satori_om-id)"/><path width="149" height="61" fill="none" stroke="#000" stroke-width="2" d="M300,45 A0,0 0 0 1 300,45 v61 A0,0 0 0 1 300,106"/></mask><path width="149" height="61" clip-path="url(#satori_bc-id-2)" fill="none" stroke="rgba(255,255,255,0.06)" stroke-width="2" d="M300,45 A0,0 0 0 1 300,45 v61 A0,0 0 0 1 300,106"/><mask id="satori_om-id-2-0"><rect x="218" y="57" width="15" height="22" fill="#fff" mask="url(#satori_om-id)"/></mask><g mask="url(#satori_om-id)" clip-path="url(#satori_cp-id)"><path fill="#60a5fa" d="M225.2 76.2L225.2 76.2Q223.4 76.2 222.0 75.6Q220.6 75.0 219.8 74.0Q219.0 73.0 219.0 71.7L219.0 71.7Q219.0 70.7 219.5 69.9Q219.9 69.0 220.7 68.5Q221.5 67.9 222.5 67.7L222.5 67.7L222.5 67.6Q221.2 67.4 220.4 66.4Q219.6 65.4 219.6 64.1L219.6 64.1Q219.6 62.8 220.3 61.9Q221.0 60.9 222.3 60.3Q223.5 59.8 225.2 59.8L225.2 59.8Q226.8 59.8 228.0 60.3Q229.3 60.9 230.0 61.9Q230.7 62.8 230.7 64.1L230.7 64.1Q230.7 65.4 229.9 66.4Q229.1 67.4 227.9 67.6L227.9 67.6L227.9 67.7Q228.8 67.9 229.6 68.5Q230.4 69.0 230.9 69.9Q231.3 70.7 231.3 71.7L231.3 71.7Q231.3 73.0 230.5 74.0Q229.7 75.0 228.3 75.6Q226.9 76.2 225.2 76.2ZM225.2 73.8L225.2 73.8Q226.0 73.8 226.6 73.5Q227.2 73.2 227.5 72.7Q227.9 72.1 227.9 71.4L227.9 71.4Q227.9 70.7 227.5 70.2Q227.2 69.7 226.6 69.3Q225.9 69.0 225.2 69.0L225.2 69.0Q224.4 69.0 223.7 69.3Q223.1 69.6 222.8 70.2Q222.4 70.7 222.4 71.4L222.4 71.4Q222.4 72.1 222.8 72.7Q223.1 73.2 223.7 73.5Q224.3 73.8 225.2 73.8ZM225.2 66.6L225.2 66.6Q225.8 66.6 226.4 66.3Q226.9 66.1 227.2 65.6Q227.5 65.1 227.5 64.4L227.5 64.4Q227.5 63.8 227.2 63.3Q226.9 62.8 226.4 62.6Q225.9 62.3 225.2 62.3L225.2 62.3Q224.5 62.3 223.9 62.6Q223.4 62.8 223.1 63.3Q222.8 63.8 222.8 64.4L222.8 64.4Q222.8 65.1 223.1 65.6Q223.4 66.1 223.9 66.3Q224.5 66.6 225.2 66.6Z "/></g><mask id="satori_om-id-2-1"><rect x="208" y="83" width="35" height="11" fill="#fff" mask="url(#satori_om-id)"/></mask><g mask="url(#satori_om-id)" clip-path="url(#satori_cp-id)"><path fill="rgba(200,195,225,0.45)" d="M211.0 92.1L211.0 92.1Q210.2 92.1 209.6 91.9Q209.0 91.6 208.7 91.1Q208.4 90.7 208.4 90.0L208.4 90.0L209.7 90.0Q209.7 90.3 209.9 90.5Q210.0 90.7 210.3 90.9Q210.6 91.0 211.0 91.0L211.0 91.0Q211.3 91.0 211.6 90.9Q211.9 90.8 212.0 90.6Q212.2 90.4 212.2 90.1L212.2 90.1Q212.2 89.9 212.0 89.8Q211.9 89.6 211.7 89.5Q211.4 89.4 211.0 89.3L211.0 89.3L210.3 89.1Q209.5 88.9 209.0 88.5Q208.5 88.0 208.5 87.3L208.5 87.3Q208.5 86.7 208.9 86.3Q209.2 85.9 209.7 85.6Q210.3 85.4 211.0 85.4L211.0 85.4Q211.7 85.4 212.3 85.6Q212.8 85.9 213.1 86.3Q213.4 86.7 213.4 87.3L213.4 87.3L212.1 87.3Q212.1 86.9 211.8 86.7Q211.5 86.5 211.0 86.5L211.0 86.5Q210.7 86.5 210.4 86.6Q210.2 86.7 210.1 86.9Q209.9 87.0 209.9 87.2L209.9 87.2Q209.9 87.5 210.1 87.7Q210.2 87.8 210.5 87.9Q210.7 88.0 211.0 88.1L211.0 88.1L211.6 88.2Q212.0 88.3 212.3 88.5Q212.7 88.6 213.0 88.9Q213.2 89.1 213.4 89.4Q213.5 89.7 213.5 90.1L213.5 90.1Q213.5 90.7 213.2 91.2Q212.9 91.6 212.4 91.9Q211.8 92.1 211.0 92.1ZM217.0 86.6L215.0 86.6L215.0 85.5L220.4 85.5L220.4 86.6L218.4 86.6L218.4 92L217.0 92L217.0 86.6ZM223.2 92L221.7 92L224.0 85.5L225.7 85.5L228.0 92L226.5 92L226.0 90.5L223.7 90.5L223.2 92ZM224.0 89.4L225.7 89.4L225.5 88.8Q225.3 88.2 225.1 87.5L225.1 87.5Q225.0 87.0 224.8 86.5L224.8 86.5Q224.7 87.0 224.6 87.5L224.6 87.5Q224.4 88.2 224.2 88.8L224.2 88.8L224.0 89.4ZM231.0 92L229.6 92L229.6 85.5L232.2 85.5Q232.9 85.5 233.4 85.7Q234.0 86.0 234.2 86.5Q234.5 86.9 234.5 87.6Q234.5 88.2 234.2 88.7Q234.0 89.2 233.4 89.4L233.4 89.4Q233.4 89.4 233.3 89.4L233.3 89.4L234.7 92L233.3 92L232.0 89.7L231.0 89.7L231.0 92ZM231.0 86.6L231.0 88.6L231.9 88.6Q232.3 88.6 232.6 88.5Q232.9 88.4 233.0 88.1Q233.1 87.9 233.1 87.6L233.1 87.6Q233.1 87.2 233.0 87.0Q232.9 86.8 232.6 86.7Q232.3 86.6 231.9 86.6L231.9 86.6L231.0 86.6ZM238.7 92.1L238.7 92.1Q237.9 92.1 237.4 91.9Q236.8 91.6 236.4 91.1Q236.1 90.7 236.1 90.0L236.1 90.0L237.4 90.0Q237.4 90.3 237.6 90.5Q237.8 90.7 238.1 90.9Q238.3 91.0 238.7 91.0L238.7 91.0Q239.1 91.0 239.3 90.9Q239.6 90.8 239.8 90.6Q239.9 90.4 239.9 90.1L239.9 90.1Q239.9 89.9 239.8 89.8Q239.6 89.6 239.4 89.5Q239.1 89.4 238.8 89.3L238.8 89.3L238.1 89.1Q237.2 88.9 236.7 88.5Q236.3 88.0 236.3 87.3L236.3 87.3Q236.3 86.7 236.6 86.3Q236.9 85.9 237.5 85.6Q238.0 85.4 238.7 85.4L238.7 85.4Q239.5 85.4 240.0 85.6Q240.5 85.9 240.8 86.3Q241.2 86.7 241.2 87.3L241.2 87.3L239.9 87.3Q239.8 86.9 239.5 86.7Q239.2 86.5 238.7 86.5L238.7 86.5Q238.4 86.5 238.1 86.6Q237.9 86.7 237.8 86.9Q237.7 87.0 237.7 87.2L237.7 87.2Q237.7 87.5 237.8 87.7Q237.9 87.8 238.2 87.9Q238.4 88.0 238.7 88.1L238.7 88.1L239.3 88.2Q239.7 88.3 240.1 88.5Q240.4 88.6 240.7 88.9Q241.0 89.1 241.1 89.4Q241.2 89.7 241.2 90.1L241.2 90.1Q241.2 90.7 241.0 91.2Q240.7 91.6 240.1 91.9Q239.5 92.1 238.7 92.1Z "/></g><defs><clipPath id="satori_bc-id-3" clip-path="url(#satori_cp-id)"><rect x="300" y="45" width="166" height="61"/></clipPath></defs><mask id="satori_om-id-3"><rect x="300" y="45" width="165" height="61" fill="#fff" mask="url(#satori_om-id)"/><path width="166" height="61" fill="none" stroke="#000" stroke-width="2" d="M466,45 A0,0 0 0 1 466,45 v61 A0,0 0 0 1 466,106"/></mask><path width="166" height="61" clip-path="url(#satori_bc-id-3)" fill="none" stroke="rgba(255,255,255,0.06)" stroke-width="2" d="M466,45 A0,0 0 0 1 466,45 v61 A0,0 0 0 1 466,106"/><mask id="satori_om-id-3-0"><rect x="361" y="57" width="42" height="22" fill="#fff" mask="url(#satori_om-id)"/></mask><g mask="url(#satori_om-id)" clip-path="url(#satori_cp-id)"><path fill="#f59e0b" d="M367.7 76.2L367.7 76.2Q366.1 76.2 364.8 75.6Q363.5 75.0 362.8 73.9Q362.0 72.9 362.0 71.5L362.0 71.5L365.2 71.5Q365.2 72.1 365.6 72.6Q365.9 73.1 366.5 73.4Q367.1 73.6 367.7 73.6L367.7 73.6Q368.6 73.6 369.2 73.3Q369.8 72.9 370.1 72.3Q370.5 71.6 370.5 70.8L370.5 70.8Q370.5 69.9 370.1 69.2Q369.8 68.6 369.1 68.2Q368.5 67.9 367.7 67.9L367.7 67.9Q367.0 67.9 366.3 68.1Q365.7 68.4 365.3 68.9L365.3 68.9L362.3 68.4L363.1 60.0L372.8 60.0L372.8 62.7L365.8 62.7L365.4 66.8L365.5 66.8Q365.9 66.2 366.8 65.8Q367.6 65.4 368.6 65.4L368.6 65.4Q369.7 65.4 370.7 65.8Q371.6 66.2 372.2 66.9Q372.9 67.6 373.3 68.6Q373.7 69.5 373.7 70.7L373.7 70.7Q373.7 72.3 372.9 73.5Q372.2 74.8 370.8 75.5Q369.5 76.2 367.7 76.2ZM381.4 76.2L381.4 76.2Q379.8 76.2 378.5 75.6Q377.2 75.0 376.5 73.9Q375.7 72.9 375.7 71.5L375.7 71.5L378.9 71.5Q378.9 72.1 379.3 72.6Q379.6 73.1 380.2 73.4Q380.8 73.6 381.4 73.6L381.4 73.6Q382.2 73.6 382.9 73.3Q383.5 72.9 383.8 72.3Q384.2 71.6 384.2 70.8L384.2 70.8Q384.2 69.9 383.8 69.2Q383.5 68.6 382.8 68.2Q382.2 67.9 381.4 67.9L381.4 67.9Q380.7 67.9 380.0 68.1Q379.3 68.4 379.0 68.9L379.0 68.9L376.0 68.4L376.8 60.0L386.5 60.0L386.5 62.7L379.5 62.7L379.1 66.8L379.2 66.8Q379.6 66.2 380.5 65.8Q381.3 65.4 382.3 65.4L382.3 65.4Q383.4 65.4 384.3 65.8Q385.3 66.2 385.9 66.9Q386.6 67.6 387.0 68.6Q387.4 69.5 387.4 70.7L387.4 70.7Q387.4 72.3 386.6 73.5Q385.9 74.8 384.5 75.5Q383.2 76.2 381.4 76.2ZM401.0 76L389.7 76L389.7 73.6L395.4 68.3Q396.1 67.6 396.6 67.0Q397.1 66.5 397.4 65.9Q397.6 65.4 397.6 64.7L397.6 64.7Q397.6 64.0 397.3 63.5Q397.0 63.0 396.4 62.7Q395.9 62.4 395.1 62.4L395.1 62.4Q394.4 62.4 393.8 62.7Q393.3 63.0 393.0 63.6Q392.7 64.1 392.7 64.9L392.7 64.9L389.6 64.9Q389.6 63.3 390.3 62.2Q391.0 61.0 392.2 60.4Q393.5 59.8 395.2 59.8L395.2 59.8Q396.9 59.8 398.1 60.4Q399.4 61.0 400.1 62.1Q400.8 63.1 400.8 64.5L400.8 64.5Q400.8 65.4 400.5 66.3Q400.1 67.1 399.2 68.2Q398.3 69.3 396.7 70.8L396.7 70.8L394.3 73.2L394.3 73.3L401.0 73.3L401.0 76Z "/></g><mask id="satori_om-id-3-1"><rect x="357" y="83" width="51" height="11" fill="#fff" mask="url(#satori_om-id)"/></mask><g mask="url(#satori_om-id)" clip-path="url(#satori_cp-id)"><path fill="rgba(200,195,225,0.45)" d="M360.5 92.1L360.5 92.1Q359.6 92.1 358.9 91.7Q358.2 91.3 357.8 90.5Q357.4 89.8 357.4 88.7L357.4 88.7Q357.4 87.7 357.8 86.9Q358.2 86.2 358.9 85.8Q359.6 85.4 360.5 85.4L360.5 85.4Q361.0 85.4 361.5 85.5Q362.0 85.7 362.3 86.0Q362.7 86.3 363.0 86.7Q363.2 87.1 363.3 87.7L363.3 87.7L361.9 87.7Q361.9 87.4 361.7 87.2Q361.6 87.0 361.4 86.9Q361.2 86.7 361.0 86.6Q360.8 86.6 360.5 86.6L360.5 86.6Q360.0 86.6 359.6 86.8Q359.2 87.1 359.0 87.6Q358.8 88.0 358.8 88.7L358.8 88.7Q358.8 89.4 359.0 89.9Q359.2 90.4 359.6 90.7Q360.0 90.9 360.5 90.9L360.5 90.9Q360.8 90.9 361.0 90.8Q361.2 90.7 361.4 90.6Q361.6 90.4 361.7 90.2Q361.9 90.0 361.9 89.8L361.9 89.8L363.3 89.8Q363.2 90.2 363.0 90.6Q362.8 91.1 362.4 91.4Q362.1 91.7 361.6 91.9Q361.1 92.1 360.5 92.1ZM367.9 92.1L367.9 92.1Q367.1 92.1 366.4 91.7Q365.7 91.3 365.3 90.5Q364.9 89.8 364.9 88.7L364.9 88.7Q364.9 87.7 365.3 86.9Q365.7 86.2 366.4 85.8Q367.1 85.4 367.9 85.4L367.9 85.4Q368.8 85.4 369.5 85.8Q370.2 86.2 370.6 86.9Q371.0 87.7 371.0 88.7L371.0 88.7Q371.0 89.8 370.6 90.5Q370.2 91.3 369.5 91.7Q368.8 92.1 367.9 92.1ZM367.9 90.9L367.9 90.9Q368.4 90.9 368.8 90.6Q369.2 90.4 369.4 89.9Q369.6 89.4 369.6 88.7L369.6 88.7Q369.6 88.0 369.4 87.5Q369.2 87.1 368.8 86.8Q368.4 86.6 367.9 86.6L367.9 86.6Q367.4 86.6 367.0 86.8Q366.7 87.1 366.4 87.5Q366.2 88.0 366.2 88.7L366.2 88.7Q366.2 89.4 366.4 89.9Q366.7 90.4 367.0 90.6Q367.4 90.9 367.9 90.9ZM374.1 92L372.8 92L372.8 85.5L374.8 85.5L375.9 88.5Q376.0 88.7 376.1 89.0Q376.1 89.3 376.2 89.7L376.2 89.7Q376.3 90.1 376.4 90.5L376.4 90.5Q376.5 90.1 376.6 89.7L376.6 89.7Q376.6 89.3 376.7 89.0Q376.8 88.7 376.9 88.5L376.9 88.5L377.9 85.5L380.0 85.5L380.0 92L378.6 92L378.6 88.9Q378.6 88.7 378.6 88.4Q378.7 88.1 378.7 87.7Q378.7 87.3 378.7 86.9L378.7 86.9Q378.7 86.8 378.7 86.6L378.7 86.6Q378.6 86.8 378.6 87.0L378.6 87.0Q378.5 87.4 378.4 87.7Q378.3 88.1 378.2 88.4Q378.1 88.7 378.0 88.9L378.0 88.9L377.0 92L375.8 92L374.7 88.9Q374.7 88.7 374.6 88.4Q374.5 88.1 374.4 87.7Q374.3 87.4 374.2 87.0L374.2 87.0Q374.1 86.8 374.1 86.7L374.1 86.7Q374.1 86.8 374.1 86.9L374.1 86.9Q374.1 87.3 374.1 87.7Q374.1 88.0 374.1 88.4Q374.1 88.7 374.1 88.9L374.1 88.9L374.1 92ZM383.3 92L382.0 92L382.0 85.5L384.0 85.5L385.1 88.5Q385.2 88.7 385.2 89.0Q385.3 89.3 385.4 89.7L385.4 89.7Q385.5 90.1 385.6 90.5L385.6 90.5Q385.7 90.1 385.7 89.7L385.7 89.7Q385.8 89.3 385.9 89.0Q386.0 88.7 386.1 88.5L386.1 88.5L387.1 85.5L389.2 85.5L389.2 92L387.8 92L387.8 88.9Q387.8 88.7 387.8 88.4Q387.8 88.1 387.8 87.7Q387.9 87.3 387.9 86.9L387.9 86.9Q387.9 86.8 387.9 86.6L387.9 86.6Q387.8 86.8 387.8 87.0L387.8 87.0Q387.7 87.4 387.6 87.7Q387.5 88.1 387.4 88.4Q387.3 88.7 387.2 88.9L387.2 88.9L386.1 92L385.0 92L383.9 88.9Q383.8 88.7 383.7 88.4Q383.7 88.1 383.6 87.7Q383.4 87.4 383.3 87.0L383.3 87.0Q383.3 86.8 383.3 86.7L383.3 86.7Q383.3 86.8 383.3 86.9L383.3 86.9Q383.3 87.3 383.3 87.7Q383.3 88.0 383.3 88.4Q383.3 88.7 383.3 88.9L383.3 88.9L383.3 92ZM391.2 85.5L392.5 85.5L392.5 92L391.2 92L391.2 85.5ZM396.2 86.6L394.2 86.6L394.2 85.5L399.6 85.5L399.6 86.6L397.6 86.6L397.6 92L396.2 92L396.2 86.6ZM403.7 92.1L403.7 92.1Q402.9 92.1 402.3 91.9Q401.7 91.6 401.4 91.1Q401.1 90.7 401.1 90.0L401.1 90.0L402.4 90.0Q402.4 90.3 402.6 90.5Q402.7 90.7 403.0 90.9Q403.3 91.0 403.7 91.0L403.7 91.0Q404.0 91.0 404.3 90.9Q404.6 90.8 404.7 90.6Q404.9 90.4 404.9 90.1L404.9 90.1Q404.9 89.9 404.7 89.8Q404.6 89.6 404.3 89.5Q404.1 89.4 403.7 89.3L403.7 89.3L403.0 89.1Q402.2 88.9 401.7 88.5Q401.2 88.0 401.2 87.3L401.2 87.3Q401.2 86.7 401.6 86.3Q401.9 85.9 402.4 85.6Q403.0 85.4 403.7 85.4L403.7 85.4Q404.4 85.4 405.0 85.6Q405.5 85.9 405.8 86.3Q406.1 86.7 406.1 87.3L406.1 87.3L404.8 87.3Q404.8 86.9 404.5 86.7Q404.2 86.5 403.7 86.5L403.7 86.5Q403.4 86.5 403.1 86.6Q402.9 86.7 402.7 86.9Q402.6 87.0 402.6 87.2L402.6 87.2Q402.6 87.5 402.8 87.7Q402.9 87.8 403.2 87.9Q403.4 88.0 403.7 88.1L403.7 88.1L404.3 88.2Q404.7 88.3 405.0 88.5Q405.4 88.6 405.7 88.9Q405.9 89.1 406.1 89.4Q406.2 89.7 406.2 90.1L406.2 90.1Q406.2 90.7 405.9 91.2Q405.6 91.6 405.1 91.9Q404.5 92.1 403.7 92.1Z "/></g><defs><clipPath id="satori_bc-id-4" clip-path="url(#satori_cp-id)"><rect x="466" y="45" width="201" height="61"/></clipPath></defs><mask id="satori_om-id-4"><rect x="466" y="45" width="200" height="61" fill="#fff" mask="url(#satori_om-id)"/><path width="201" height="61" fill="none" stroke="#000" stroke-width="2" d="M667,45 A0,0 0 0 1 667,45 v61 A0,0 0 0 1 667,106"/></mask><path width="201" height="61" clip-path="url(#satori_bc-id-4)" fill="none" stroke="rgba(255,255,255,0.06)" stroke-width="2" d="M667,45 A0,0 0 0 1 667,45 v61 A0,0 0 0 1 667,106"/><mask id="satori_om-id-4-0"><rect x="523" y="57" width="87" height="22" fill="#fff" mask="url(#satori_om-id)"/></mask><g mask="url(#satori_om-id)" clip-path="url(#satori_cp-id)"><path fill="#4ade80" d="M530.1 76.2L530.1 76.2Q528.3 76.2 527.0 75.6Q525.6 75.0 524.9 74.0Q524.1 72.9 524.1 71.5L524.1 71.5L527.4 71.5Q527.4 72.1 527.8 72.6Q528.1 73.0 528.7 73.3Q529.3 73.5 530.1 73.5L530.1 73.5Q530.9 73.5 531.5 73.2Q532.1 72.9 532.4 72.5Q532.8 72.0 532.8 71.3L532.8 71.3Q532.8 70.6 532.4 70.1Q532.1 69.6 531.4 69.3Q530.7 69.1 529.8 69.1L529.8 69.1L528.3 69.1L528.3 66.6L529.8 66.6Q530.6 66.6 531.2 66.3Q531.8 66.1 532.1 65.6Q532.4 65.1 532.4 64.5L532.4 64.5Q532.4 63.9 532.1 63.4Q531.9 62.9 531.3 62.7Q530.8 62.4 530.1 62.4L530.1 62.4Q529.4 62.4 528.8 62.7Q528.3 62.9 527.9 63.4Q527.5 63.8 527.5 64.4L527.5 64.4L524.4 64.4Q524.4 63.1 525.2 62.0Q525.9 61.0 527.2 60.4Q528.5 59.8 530.1 59.8L530.1 59.8Q531.8 59.8 533.0 60.4Q534.2 61.0 534.9 62.0Q535.6 63.0 535.6 64.3L535.6 64.3Q535.6 65.6 534.8 66.5Q533.9 67.4 532.6 67.7L532.6 67.7L532.6 67.8Q533.8 67.9 534.6 68.4Q535.4 69.0 535.8 69.7Q536.2 70.5 536.2 71.5L536.2 71.5Q536.2 72.9 535.4 73.9Q534.6 75.0 533.2 75.6Q531.9 76.2 530.1 76.2ZM549.9 76L538.5 76L538.5 73.6L544.2 68.3Q544.9 67.6 545.4 67.0Q545.9 66.5 546.2 65.9Q546.5 65.4 546.5 64.7L546.5 64.7Q546.5 64.0 546.1 63.5Q545.8 63.0 545.3 62.7Q544.7 62.4 544.0 62.4L544.0 62.4Q543.2 62.4 542.7 62.7Q542.1 63.0 541.8 63.6Q541.5 64.1 541.5 64.9L541.5 64.9L538.4 64.9Q538.4 63.3 539.1 62.2Q539.8 61.0 541.1 60.4Q542.3 59.8 544.0 59.8L544.0 59.8Q545.7 59.8 547.0 60.4Q548.2 61.0 548.9 62.1Q549.6 63.1 549.6 64.5L549.6 64.5Q549.6 65.4 549.3 66.3Q548.9 67.1 548.0 68.2Q547.1 69.3 545.5 70.8L545.5 70.8L543.1 73.2L543.1 73.3L549.9 73.3L549.9 76ZM555.6 60.0L559.1 60.0L559.1 76L555.8 76L555.8 62.9L555.7 62.9L552.1 65.5L552.1 62.5L555.6 60.0ZM564.0 80.2L561.8 80.2L562.8 73.6L566.0 73.6L564.0 80.2ZM574.6 76.2L574.6 76.2Q573.4 76.2 572.2 75.8Q571.1 75.4 570.2 74.5Q569.3 73.6 568.8 72.1Q568.3 70.6 568.3 68.4L568.3 68.4Q568.3 66.4 568.7 64.8Q569.2 63.2 570.0 62.1Q570.9 60.9 572.0 60.4Q573.2 59.8 574.7 59.8L574.7 59.8Q576.3 59.8 577.5 60.4Q578.7 61.0 579.5 62.1Q580.2 63.1 580.4 64.4L580.4 64.4L577.1 64.4Q576.9 63.6 576.3 63.1Q575.7 62.6 574.7 62.6L574.7 62.6Q573.7 62.6 572.9 63.2Q572.2 63.9 571.8 65.0Q571.5 66.1 571.5 67.7L571.5 67.7L571.6 67.7Q572.0 67.0 572.6 66.5Q573.2 66.0 574.0 65.7Q574.7 65.5 575.6 65.5L575.6 65.5Q577.0 65.5 578.1 66.1Q579.2 66.8 579.9 68.0Q580.5 69.1 580.5 70.7L580.5 70.7Q580.5 72.3 579.8 73.5Q579.0 74.8 577.7 75.5Q576.4 76.2 574.6 76.2ZM574.6 73.6L574.6 73.6Q575.4 73.6 576.0 73.2Q576.6 72.9 577.0 72.2Q577.3 71.6 577.3 70.7L577.3 70.7Q577.3 69.9 577.0 69.3Q576.6 68.6 576.0 68.3Q575.4 67.9 574.6 67.9L574.6 67.9Q574.0 67.9 573.5 68.1Q573.0 68.3 572.6 68.7Q572.2 69.1 572.0 69.6Q571.8 70.2 571.8 70.7L571.8 70.7Q571.8 71.5 572.2 72.2Q572.5 72.8 573.1 73.2Q573.8 73.6 574.6 73.6ZM588.6 76.2L588.6 76.2Q586.9 76.2 585.5 75.6Q584.2 75.0 583.4 74.0Q582.6 72.9 582.6 71.5L582.6 71.5L585.9 71.5Q585.9 72.1 586.3 72.6Q586.6 73.0 587.3 73.3Q587.9 73.5 588.6 73.5L588.6 73.5Q589.4 73.5 590.0 73.2Q590.6 72.9 591.0 72.5Q591.3 72.0 591.3 71.3L591.3 71.3Q591.3 70.6 590.9 70.1Q590.6 69.6 589.9 69.3Q589.3 69.1 588.3 69.1L588.3 69.1L586.8 69.1L586.8 66.6L588.3 66.6Q589.1 66.6 589.7 66.3Q590.3 66.1 590.6 65.6Q591.0 65.1 591.0 64.5L591.0 64.5Q591.0 63.9 590.7 63.4Q590.4 62.9 589.9 62.7Q589.3 62.4 588.6 62.4L588.6 62.4Q587.9 62.4 587.4 62.7Q586.8 62.9 586.4 63.4Q586.1 63.8 586.1 64.4L586.1 64.4L582.9 64.4Q582.9 63.1 583.7 62.0Q584.4 61.0 585.7 60.4Q587.0 59.8 588.7 59.8L588.7 59.8Q590.3 59.8 591.5 60.4Q592.8 61.0 593.5 62.0Q594.1 63.0 594.1 64.3L594.1 64.3Q594.1 65.6 593.3 66.5Q592.5 67.4 591.1 67.7L591.1 67.7L591.1 67.8Q592.3 67.9 593.1 68.4Q593.9 69.0 594.3 69.7Q594.7 70.5 594.7 71.5L594.7 71.5Q594.7 72.9 593.9 73.9Q593.2 75.0 591.8 75.6Q590.4 76.2 588.6 76.2ZM601.0 76L597.6 76L604.3 62.8L604.3 62.7L596.5 62.7L596.5 60.0L607.7 60.0L607.7 62.7L601.0 76Z "/></g><mask id="satori_om-id-4-1"><rect x="546" y="83" width="40" height="11" fill="#fff" mask="url(#satori_om-id)"/></mask><g mask="url(#satori_om-id)" clip-path="url(#satori_cp-id)"><path fill="rgba(200,195,225,0.45)" d="M550.8 92L546.6 92L546.6 85.5L547.9 85.5L547.9 90.9L550.8 90.9L550.8 92ZM552.5 85.5L553.8 85.5L553.8 92L552.5 92L552.5 85.5ZM557.2 92L555.8 92L555.8 85.5L557.3 85.5L559.4 88.8Q559.5 89.0 559.7 89.3Q559.9 89.6 560.0 90.0L560.0 90.0Q560.1 90.2 560.2 90.4L560.2 90.4Q560.2 90.2 560.2 90.0L560.2 90.0Q560.1 89.6 560.1 89.2Q560.1 88.9 560.1 88.6L560.1 88.6L560.1 85.5L561.5 85.5L561.5 92L560.0 92L558.1 89.0Q557.9 88.7 557.7 88.3Q557.5 88.0 557.4 87.6L557.4 87.6Q557.2 87.4 557.1 87.1L557.1 87.1Q557.1 87.4 557.1 87.6L557.1 87.6Q557.1 88.1 557.2 88.4Q557.2 88.8 557.2 89.0L557.2 89.0L557.2 92ZM567.9 92L563.5 92L563.5 85.5L567.9 85.5L567.9 86.6L564.8 86.6L564.8 88.1L567.6 88.1L567.6 89.2L564.8 89.2L564.8 90.9L567.9 90.9L567.9 92ZM572.1 92.1L572.1 92.1Q571.3 92.1 570.8 91.9Q570.2 91.6 569.9 91.1Q569.5 90.7 569.5 90.0L569.5 90.0L570.8 90.0Q570.8 90.3 571.0 90.5Q571.2 90.7 571.5 90.9Q571.8 91.0 572.1 91.0L572.1 91.0Q572.5 91.0 572.7 90.9Q573.0 90.8 573.2 90.6Q573.3 90.4 573.3 90.1L573.3 90.1Q573.3 89.9 573.2 89.8Q573.0 89.6 572.8 89.5Q572.5 89.4 572.2 89.3L572.2 89.3L571.5 89.1Q570.6 88.9 570.2 88.5Q569.7 88.0 569.7 87.3L569.7 87.3Q569.7 86.7 570.0 86.3Q570.3 85.9 570.9 85.6Q571.4 85.4 572.2 85.4L572.2 85.4Q572.9 85.4 573.4 85.6Q574.0 85.9 574.3 86.3Q574.6 86.7 574.6 87.3L574.6 87.3L573.3 87.3Q573.2 86.9 572.9 86.7Q572.6 86.5 572.1 86.5L572.1 86.5Q571.8 86.5 571.6 86.6Q571.3 86.7 571.2 86.9Q571.1 87.0 571.1 87.2L571.1 87.2Q571.1 87.5 571.2 87.7Q571.4 87.8 571.6 87.9Q571.8 88.0 572.1 88.1L572.1 88.1L572.7 88.2Q573.1 88.3 573.5 88.5Q573.8 88.6 574.1 88.9Q574.4 89.1 574.5 89.4Q574.7 89.7 574.7 90.1L574.7 90.1Q574.7 90.7 574.4 91.2Q574.1 91.6 573.5 91.9Q572.9 92.1 572.1 92.1Z M582.4 91.6L581.3 91.6L581.3 89.9L579.6 89.9L579.6 88.9L581.3 88.9L581.3 87.1L582.4 87.1L582.4 88.9L584.1 88.9L584.1 89.9L582.4 89.9L582.4 91.6Z "/></g><mask id="satori_om-id-5"><rect x="667" y="45" width="192" height="61" fill="#fff" mask="url(#satori_om-id)"/></mask><mask id="satori_om-id-5-0"><rect x="724" y="57" width="78" height="22" fill="#fff" mask="url(#satori_om-id)"/></mask><g mask="url(#satori_om-id)" clip-path="url(#satori_cp-id)"><path fill="#fb7185" d="M731.1 76.2L731.1 76.2Q729.3 76.2 728.0 75.6Q726.6 75.0 725.9 74.0Q725.1 72.9 725.1 71.5L725.1 71.5L728.4 71.5Q728.4 72.1 728.8 72.6Q729.1 73.0 729.7 73.3Q730.3 73.5 731.1 73.5L731.1 73.5Q731.9 73.5 732.5 73.2Q733.1 72.9 733.4 72.5Q733.8 72.0 733.8 71.3L733.8 71.3Q733.8 70.6 733.4 70.1Q733.1 69.6 732.4 69.3Q731.7 69.1 730.8 69.1L730.8 69.1L729.3 69.1L729.3 66.6L730.8 66.6Q731.6 66.6 732.2 66.3Q732.8 66.1 733.1 65.6Q733.4 65.1 733.4 64.5L733.4 64.5Q733.4 63.9 733.1 63.4Q732.9 62.9 732.3 62.7Q731.8 62.4 731.1 62.4L731.1 62.4Q730.4 62.4 729.8 62.7Q729.3 62.9 728.9 63.4Q728.5 63.8 728.5 64.4L728.5 64.4L725.4 64.4Q725.4 63.1 726.2 62.0Q726.9 61.0 728.2 60.4Q729.5 59.8 731.1 59.8L731.1 59.8Q732.8 59.8 734.0 60.4Q735.2 61.0 735.9 62.0Q736.6 63.0 736.6 64.3L736.6 64.3Q736.6 65.6 735.8 66.5Q734.9 67.4 733.6 67.7L733.6 67.7L733.6 67.8Q734.8 67.9 735.6 68.4Q736.4 69.0 736.8 69.7Q737.2 70.5 737.2 71.5L737.2 71.5Q737.2 72.9 736.4 73.9Q735.6 75.0 734.2 75.6Q732.9 76.2 731.1 76.2ZM745.5 76.2L745.5 76.2Q744.3 76.2 743.2 75.8Q742.1 75.4 741.2 74.5Q740.3 73.6 739.7 72.1Q739.2 70.6 739.2 68.4L739.2 68.4Q739.2 66.4 739.7 64.8Q740.1 63.2 741.0 62.1Q741.8 60.9 743.0 60.4Q744.2 59.8 745.7 59.8L745.7 59.8Q747.2 59.8 748.5 60.4Q749.7 61.0 750.4 62.1Q751.2 63.1 751.3 64.4L751.3 64.4L748.1 64.4Q747.9 63.6 747.3 63.1Q746.6 62.6 745.7 62.6L745.7 62.6Q744.6 62.6 743.9 63.2Q743.2 63.9 742.8 65.0Q742.4 66.1 742.4 67.7L742.4 67.7L742.5 67.7Q742.9 67.0 743.5 66.5Q744.1 66.0 744.9 65.7Q745.7 65.5 746.6 65.5L746.6 65.5Q748.0 65.5 749.1 66.1Q750.2 66.8 750.8 68.0Q751.5 69.1 751.5 70.7L751.5 70.7Q751.5 72.3 750.7 73.5Q750.0 74.8 748.7 75.5Q747.3 76.2 745.5 76.2ZM745.5 73.6L745.5 73.6Q746.3 73.6 746.9 73.2Q747.6 72.9 747.9 72.2Q748.3 71.6 748.3 70.7L748.3 70.7Q748.3 69.9 747.9 69.3Q747.6 68.6 747.0 68.3Q746.3 67.9 745.5 67.9L745.5 67.9Q745.0 67.9 744.5 68.1Q743.9 68.3 743.6 68.7Q743.2 69.1 743.0 69.6Q742.8 70.2 742.8 70.7L742.8 70.7Q742.8 71.5 743.1 72.2Q743.5 72.8 744.1 73.2Q744.7 73.6 745.5 73.6ZM755.3 80.2L753.1 80.2L754.1 73.6L757.3 73.6L755.3 80.2ZM771.8 76L760.5 76L760.5 73.6L766.2 68.3Q766.9 67.6 767.4 67.0Q767.9 66.5 768.2 65.9Q768.4 65.4 768.4 64.7L768.4 64.7Q768.4 64.0 768.1 63.5Q767.8 63.0 767.2 62.7Q766.7 62.4 766.0 62.4L766.0 62.4Q765.2 62.4 764.7 62.7Q764.1 63.0 763.8 63.6Q763.5 64.1 763.5 64.9L763.5 64.9L760.4 64.9Q760.4 63.3 761.1 62.2Q761.8 61.0 763.1 60.4Q764.3 59.8 766.0 59.8L766.0 59.8Q767.7 59.8 768.9 60.4Q770.2 61.0 770.9 62.1Q771.6 63.1 771.6 64.5L771.6 64.5Q771.6 65.4 771.3 66.3Q770.9 67.1 770.0 68.2Q769.1 69.3 767.5 70.8L767.5 70.8L765.1 73.2L765.1 73.3L771.8 73.3L771.8 76ZM779.8 76.2L779.8 76.2Q778.1 76.2 776.9 75.6Q775.6 75.0 774.8 73.9Q774.1 72.9 774.0 71.5L774.0 71.5L777.2 71.5Q777.3 72.1 777.6 72.6Q778.0 73.1 778.5 73.4Q779.1 73.6 779.8 73.6L779.8 73.6Q780.6 73.6 781.2 73.3Q781.8 72.9 782.2 72.3Q782.5 71.6 782.5 70.8L782.5 70.8Q782.5 69.9 782.2 69.2Q781.8 68.6 781.2 68.2Q780.6 67.9 779.7 67.9L779.7 67.9Q779.0 67.9 778.4 68.1Q777.7 68.4 777.3 68.9L777.3 68.9L774.4 68.4L775.1 60.0L784.8 60.0L784.8 62.7L777.9 62.7L777.5 66.8L777.5 66.8Q778.0 66.2 778.8 65.8Q779.7 65.4 780.7 65.4L780.7 65.4Q781.8 65.4 782.7 65.8Q783.6 66.2 784.3 66.9Q785.0 67.6 785.3 68.6Q785.7 69.5 785.7 70.7L785.7 70.7Q785.7 72.3 785.0 73.5Q784.2 74.8 782.9 75.5Q781.5 76.2 779.8 76.2ZM794.1 76.2L794.1 76.2Q792.9 76.2 791.7 75.8Q790.6 75.4 789.7 74.5Q788.8 73.6 788.3 72.1Q787.7 70.6 787.7 68.4L787.7 68.4Q787.7 66.4 788.2 64.8Q788.6 63.2 789.5 62.1Q790.3 60.9 791.5 60.4Q792.7 59.8 794.2 59.8L794.2 59.8Q795.8 59.8 797.0 60.4Q798.2 61.0 798.9 62.1Q799.7 63.1 799.8 64.4L799.8 64.4L796.6 64.4Q796.4 63.6 795.8 63.1Q795.1 62.6 794.2 62.6L794.2 62.6Q793.1 62.6 792.4 63.2Q791.7 63.9 791.3 65.0Q791.0 66.1 791.0 67.7L791.0 67.7L791.1 67.7Q791.4 67.0 792.0 66.5Q792.6 66.0 793.4 65.7Q794.2 65.5 795.1 65.5L795.1 65.5Q796.5 65.5 797.6 66.1Q798.7 66.8 799.4 68.0Q800.0 69.1 800.0 70.7L800.0 70.7Q800.0 72.3 799.3 73.5Q798.5 74.8 797.2 75.5Q795.8 76.2 794.1 76.2ZM794.0 73.6L794.0 73.6Q794.8 73.6 795.5 73.2Q796.1 72.9 796.5 72.2Q796.8 71.6 796.8 70.7L796.8 70.7Q796.8 69.9 796.5 69.3Q796.1 68.6 795.5 68.3Q794.9 67.9 794.1 67.9L794.1 67.9Q793.5 67.9 793.0 68.1Q792.5 68.3 792.1 68.7Q791.7 69.1 791.5 69.6Q791.3 70.2 791.3 70.7L791.3 70.7Q791.3 71.5 791.6 72.2Q792.0 72.8 792.6 73.2Q793.3 73.6 794.0 73.6Z "/></g><mask id="satori_om-id-5-1"><rect x="744" y="83" width="38" height="11" fill="#fff" mask="url(#satori_om-id)"/></mask><g mask="url(#satori_om-id)" clip-path="url(#satori_cp-id)"><path fill="rgba(200,195,225,0.45)" d="M748.8 92L744.6 92L744.6 85.5L745.9 85.5L745.9 90.9L748.8 90.9L748.8 92ZM750.5 85.5L751.8 85.5L751.8 92L750.5 92L750.5 85.5ZM755.2 92L753.8 92L753.8 85.5L755.3 85.5L757.4 88.8Q757.5 89.0 757.7 89.3Q757.9 89.6 758.0 90.0L758.0 90.0Q758.1 90.2 758.2 90.4L758.2 90.4Q758.2 90.2 758.2 90.0L758.2 90.0Q758.1 89.6 758.1 89.2Q758.1 88.9 758.1 88.6L758.1 88.6L758.1 85.5L759.5 85.5L759.5 92L758.0 92L756.1 89.0Q755.9 88.7 755.7 88.3Q755.5 88.0 755.4 87.6L755.4 87.6Q755.2 87.4 755.1 87.1L755.1 87.1Q755.1 87.4 755.1 87.6L755.1 87.6Q755.1 88.1 755.2 88.4Q755.2 88.8 755.2 89.0L755.2 89.0L755.2 92ZM765.9 92L761.5 92L761.5 85.5L765.9 85.5L765.9 86.6L762.8 86.6L762.8 88.1L765.6 88.1L765.6 89.2L762.8 89.2L762.8 90.9L765.9 90.9L765.9 92ZM770.1 92.1L770.1 92.1Q769.3 92.1 768.8 91.9Q768.2 91.6 767.9 91.1Q767.5 90.7 767.5 90.0L767.5 90.0L768.8 90.0Q768.8 90.3 769.0 90.5Q769.2 90.7 769.5 90.9Q769.8 91.0 770.1 91.0L770.1 91.0Q770.5 91.0 770.7 90.9Q771.0 90.8 771.2 90.6Q771.3 90.4 771.3 90.1L771.3 90.1Q771.3 89.9 771.2 89.8Q771.0 89.6 770.8 89.5Q770.5 89.4 770.2 89.3L770.2 89.3L769.5 89.1Q768.6 88.9 768.2 88.5Q767.7 88.0 767.7 87.3L767.7 87.3Q767.7 86.7 768.0 86.3Q768.3 85.9 768.9 85.6Q769.4 85.4 770.2 85.4L770.2 85.4Q770.9 85.4 771.4 85.6Q772.0 85.9 772.3 86.3Q772.6 86.7 772.6 87.3L772.6 87.3L771.3 87.3Q771.2 86.9 770.9 86.7Q770.6 86.5 770.1 86.5L770.1 86.5Q769.8 86.5 769.6 86.6Q769.3 86.7 769.2 86.9Q769.1 87.0 769.1 87.2L769.1 87.2Q769.1 87.5 769.2 87.7Q769.4 87.8 769.6 87.9Q769.8 88.0 770.1 88.1L770.1 88.1L770.7 88.2Q771.1 88.3 771.5 88.5Q771.8 88.6 772.1 88.9Q772.4 89.1 772.5 89.4Q772.7 89.7 772.7 90.1L772.7 90.1Q772.7 90.7 772.4 91.2Q772.1 91.6 771.5 91.9Q770.9 92.1 770.1 92.1Z M777.4 88.8L780.4 88.8L780.4 89.8L777.4 89.8L777.4 88.8Z "/></g></svg>