<!-- Generated by readme-aura https://github.com/collectioneur/readme-aura -->
<svg width="860" height="150" viewBox="0 0 860 150" xmlns="http://www.w3.org/2000/svg"><defs><clipPath id="satori_bc-id"><path x="0" y="0" width="860" height="150" d="M16,0 h828 a16,16 0 0 1 16,16 v118 a16,16 0 0 1 -16,16 h-828 a16,16 0 0 1 -16,-16 v-118 a16,16 0 0 1 16,-16"/></clipPath></defs><clipPath id="satori_cp-id"><path x="0" y="0" width="860" height="150" d="M16,0 h828 a16,16 0 0 1 16,16 v118 a16,16 0 0 1 -16,16 h-828 a16,16 0 0 1 -16,-16 v-118 a16,16 0 0 1 16,-16"/></clipPath><mask id="satori_om-id"><rect x="1" y="1" width="858" height="148" fill="#fff"/><path width="860" height="150" fill="none" stroke="#000" stroke-width="2" d="M4.686,4.686 A16,16 0 0 1 16,0 h828 a16,16 0 0 1 16,16 v118 a16,16 0 0 1 -16,16 h-828 a16,16 0 0 1 -16,-16 v-118 A16,16 0 0 1 4.686,4.686"/></mask><path x="0" y="0" width="860" height="150" fill="#08080c" d="M16,0 h828 a16,16 0 0 1 16,16 v118 a16,16 0 0 1 -16,16 h-828 a16,16 0 0 1 -16,-16 v-118 a16,16 0 0 1 16,-16"/><path width="860" height="150" clip-path="url(#satori_bc-id)" fill="none" stroke="rgba(110,80,220,0.18)" stroke-width="2" d="M4.686,4.686 A16,16 0 0 1 16,0 h828 a16,16 0 0 1 16,16 v118 a16,16 0 0 1 -16,16 h-828 a16,16 0 0 1 -16,-16 v-118 A16,16 0 0 1 4.686,4.686"/><clipPath id="satori_cp-id-0" clip-path="url(#satori_cp-id)"><rect x="1" y="1" width="860" height="150"/></clipPath><mask id="satori_om-id-0"><rect x="1" y="1" width="860" height="150" fill="#fff" mask="url(#satori_om-id)"/></mask><svg x="1" y="1" width="860" height="150" preserveAspectRatio="none" clip-path="url(#satori_cp-id-0)" mask="url(#satori_om-id-0)"><defs><radialGradient id="g1" cx="50%" cy="50%" r="50%"><stop offset="0%" stop-color="rgba(110,20,210,0.65)"></stop><stop offset="45%" stop-color="rgba(80,15,170,0.28)"></stop><stop offset="70%" stop-color="rgba(80,15,170,0)"></stop></radialGradient><radialGradient id="g2" cx="50%" cy="50%" r="50%"><stop offset="0%" stop-color="rgba(40,70,255,0.55)"></stop><stop offset="45%" stop-color="rgba(20,50,200,0.22)"></stop><stop offset="70%" stop-color="rgba(20,50,200,0)"></stop></radialGradient><radialGradient id="g3" cx="50%" cy="50%" r="50%"><stop offset="0%" stop-color="rgba(0,140,255,0.42)"></stop><stop offset="70%" stop-color="rgba(0,140,255,0)"></stop></radialGradient><radialGradient id="g4" cx="50%" cy="50%" r="50%"><stop offset="0%" stop-color="rgba(0,195,235,0.30)"></stop><stop offset="70%" stop-color="rgba(0,195,235,0)"></stop></radialGradient><radialGradient id="g5" cx="50%" cy="50%" r="50%"><stop offset="0%" stop-color="rgba(100,30,210,0.40)"></stop><stop offset="70%" stop-color="rgba(100,30,210,0)"></stop></radialGradient></defs><ellipse id="glow-1" cx="730" cy="155" rx="180" ry="130" fill="url(#g1)"></ellipse><ellipse id="glow-2" cx="580" cy="148" rx="170" ry="125" fill="url(#g2)"></ellipse><ellipse id="glow-3" cx="430" cy="142" rx="160" ry="120" fill="url(#g3)"></ellipse><ellipse id="glow-4" cx="280" cy="148" rx="150" ry="115" fill="url(#g4)"></ellipse><ellipse id="glow-5" cx="130" cy="155" rx="130" ry="105" fill="url(#g5)"></ellipse><style>

          @keyframes float-slow {
            0%, 100% { transform: translateX(0px); opacity: 0.8; }
            50% { transform: translateX(350px); opacity: 1.2; }
          }
          @keyframes float-medium {
            0%, 100% { transform: translateX(0px); opacity: 0.7; }
            50% { transform: translateX(-250px); opacity: 1.1; }
          }
          @keyframes float-fast {
            0%, 100% { transform: translateX(0px); opacity: 0.9; }
            50% { transform: translateX(200px); opacity: 0.6; }
          }
          @keyframes float-diagonal {
            0%, 100% { transform: translate(0px, 0px); opacity: 0.75; }
            50% { transform: translate(120px, 30px); opacity: 1.0; }
          }
          @keyframes float-wave {
            0%, 100% { transform: translateX(0px); opacity: 0.65; }
            33% { transform: translateX(-160px); opacity: 0.9; }
            66% { transform: translateX(80px); opacity: 1.0; }
          }
          @keyframes float-pulse {
            0%, 100% { transform: scale(1); opacity: 0.8; }
            50% { transform: scale(1.3); opacity: 0.4; }
          }
          #glow-1 { animation: float-slow 8s ease-in-out infinite; }
          #glow-2 { animation: float-medium 12s ease-in-out infinite; }
          #glow-3 { animation: float-fast 9s ease-in-out infinite; }
          #glow-4 { animation: float-diagonal 10s ease-in-out infinite; }
          #glow-5 { animation: float-wave 14s ease-in-out infinite; }
        
</style>
</svg><mask id="satori_om-id-0-0"><rect x="1" y="1" width="0" height="150" fill="#fff" mask="url(#satori_om-id)"/></mask><mask id="satori_om-id-0-0-0"><rect x="1" y="1" width="0" height="150" fill="#fff" mask="url(#satori_om-id)"/></mask><mask id="satori_om-id-0-0-0-0"><rect x="1" y="1" width="0" height="150" fill="#fff" mask="url(#satori_om-id)"/></mask><mask id="satori_om-id-0-0-0-1"><rect x="1" y="1" width="0" height="150" fill="#fff" mask="url(#satori_om-id)"/></mask><mask id="satori_om-id-0-0-0-2"><rect x="1" y="1" width="0" height="150" fill="#fff" mask="url(#satori_om-id)"/></mask><mask id="satori_om-id-0-0-1"><rect x="1" y="1" width="0" height="150" fill="#fff" mask="url(#satori_om-id)"/></mask><mask id="satori_om-id-0-0-1-0"><rect x="1" y="1" width="0" height="150" fill="#fff" mask="url(#satori_om-id)"/></mask><mask id="satori_om-id-0-0-1-1"><rect x="1" y="1" width="0" height="150" fill="#fff" mask="url(#satori_om-id)"/></mask><mask id="satori_om-id-0-0-1-2"><rect x="1" y="1" width="0" height="150" fill="#fff" mask="url(#satori_om-id)"/></mask><mask id="satori_om-id-0-0-2"><rect x="1" y="1" width="0" height="150" fill="#fff" mask="url(#satori_om-id)"/></mask><mask id="satori_om-id-0-0-2-0"><rect x="1" y="1" width="0" height="150" fill="#fff" mask="url(#satori_om-id)"/></mask><mask id="satori_om-id-0-0-2-1"><rect x="1" y="1" width="0" height="150" fill="#fff" mask="url(#satori_om-id)"/></mask><mask id="satori_om-id-0-0-3"><rect x="1" y="1" width="0" height="150" fill="#fff" mask="url(#satori_om-id)"/></mask><mask id="satori_om-id-0-0-3-0"><rect x="1" y="1" width="0" height="150" fill="#fff" mask="url(#satori_om-id)"/></mask><mask id="satori_om-id-0-0-3-1"><rect x="1" y="1" width="0" height="150" fill="#fff" mask="url(#satori_om-id)"/></mask><mask id="satori_om-id-0-0-4"><rect x="1" y="1" width="0" height="150" fill="#fff" mask="url(#satori_om-id)"/></mask><mask id="satori_om-id-0-0-4-0"><rect x="1" y="1" width="0" height="150" fill="#fff" mask="url(#satori_om-id)"/></mask><mask id="satori_om-id-0-0-4-1"><rect x="1" y="1" width="0" height="150" fill="#fff" mask="url(#satori_om-id)"/></mask><mask id="satori_om-id-0-1"><rect x="1" y="1" width="0" height="150" fill="#fff" mask="url(#satori_om-id)"/></mask><mask id="satori_om-id-0-2"><rect x="1" y="1" width="0" height="150" fill="#fff" mask="url(#satori_om-id)"/></mask><mask id="satori_om-id-0-3"><rect x="1" y="1" width="0" height="150" fill="#fff" mask="url(#satori_om-id)"/></mask><mask id="satori_om-id-0-4"><rect x="1" y="1" width="0" height="150" fill="#fff" mask="url(#satori_om-id)"/></mask><mask id="satori_om-id-0-5"><rect x="1" y="1" width="0" height="150" fill="#fff" mask="url(#satori_om-id)"/></mask><defs><clipPath id="satori_bc-id-1" clip-path="url(#satori_cp-id)"><rect x="1" y="44" width="270" height="62"/></clipPath></defs><mask id="satori_om-id-1"><rect x="1" y="44" width="269" height="62" fill="#fff" mask="url(#satori_om-id)"/><path width="270" height="62" fill="none" stroke="#000" stroke-width="2" d="M271,44 A0,0 0 0 1 271,44 v62 A0,0 0 0 1 271,106"/></mask><path width="270" height="62" clip-path="url(#satori_bc-id-1)" fill="none" stroke="rgba(255,255,255,0.06)" stroke-width="2" d="M271,44 A0,0 0 0 1 271,44 v62 A0,0 0 0 1 271,106"/><mask id="satori_om-id-1-0"><rect x="123" y="56" width="26" height="22" fill="#fff" mask="url(#satori_om-id)"/></mask><g mask="url(#satori_om-id)" clip-path="url(#satori_cp-id)"><path fill="#a78bfa" d="M134.4 74.2L134.4 76L124.1 76L124.1 74.4L128.2 70.2Q129.4 69.0 130.2 68.1Q131.0 67.2 131.4 66.3Q131.8 65.4 131.8 64.4L131.8 64.4Q131.8 63.1 131.1 62.4Q130.3 61.7 129.1 61.7L129.1 61.7Q127.9 61.7 127.0 62.1Q126.2 62.5 125.3 63.2L125.3 63.2L124.2 61.9Q125.2 61.1 126.4 60.6Q127.6 60.1 129.1 60.1L129.1 60.1Q131.3 60.1 132.5 61.2Q133.8 62.3 133.8 64.3L133.8 64.3Q133.8 65.5 133.3 66.6Q132.8 67.6 131.9 68.7Q131.0 69.7 129.8 70.9L129.8 70.9L126.5 74.2L126.5 74.2L134.4 74.2ZM147.7 70.7L147.7 72.4L145.4 72.4L145.4 76L143.6 76L143.6 72.4L136.0 72.4L136.0 70.8L143.4 60.2L145.4 60.2L145.4 70.7L147.7 70.7ZM143.6 70.7L143.6 65.7Q143.6 64.6 143.6 63.8Q143.7 63.0 143.7 62.3L143.7 62.3L143.6 62.3Q143.4 62.7 143.2 63.2Q142.9 63.7 142.6 64.0L142.6 64.0L137.9 70.7L143.6 70.7Z "/></g><mask id="satori_om-id-1-1"><rect x="119" y="82" width="33" height="12" fill="#fff" mask="url(#satori_om-id)"/></mask><g mask="url(#satori_om-id)" clip-path="url(#satori_cp-id)"><path fill="rgba(200,195,225,0.45)" d="M119.9 85.6L121.6 85.6Q122.8 85.6 123.4 86.0Q124.0 86.5 124.0 87.4L124.0 87.4Q124.0 87.9 123.8 88.3Q123.6 88.6 123.3 88.8Q123.0 89.0 122.7 89.1L122.7 89.1L124.5 92L123.5 92L122.0 89.3L120.7 89.3L120.7 92L119.9 92L119.9 85.6ZM121.6 86.3L121.6 86.3L120.7 86.3L120.7 88.7L121.6 88.7Q122.4 88.7 122.8 88.4Q123.1 88.0 123.1 87.4L123.1 87.4Q123.1 86.8 122.8 86.5Q122.4 86.3 121.6 86.3ZM129.9 91.3L129.9 92L126.3 92L126.3 85.6L129.9 85.6L129.9 86.3L127.1 86.3L127.1 88.3L129.7 88.3L129.7 89.0L127.1 89.0L127.1 91.3L129.9 91.3ZM132.1 85.6L133.8 85.6Q135.0 85.6 135.6 86.1Q136.2 86.6 136.2 87.5L136.2 87.5Q136.2 88.0 135.9 88.5Q135.7 88.9 135.1 89.2Q134.6 89.5 133.6 89.5L133.6 89.5L132.9 89.5L132.9 92L132.1 92L132.1 85.6ZM133.7 86.3L133.7 86.3L132.9 86.3L132.9 88.8L133.5 88.8Q134.5 88.8 134.9 88.5Q135.4 88.2 135.4 87.5L135.4 87.5Q135.4 86.9 135.0 86.6Q134.6 86.3 133.7 86.3ZM143.9 88.8L143.9 88.8Q143.9 89.8 143.6 90.5Q143.3 91.3 142.6 91.7Q141.9 92.1 141.0 92.1L141.0 92.1Q140.0 92.1 139.3 91.7Q138.6 91.3 138.3 90.5Q138.0 89.8 138.0 88.8L138.0 88.8Q138.0 87.8 138.3 87.0Q138.6 86.3 139.3 85.9Q140.0 85.5 141.0 85.5L141.0 85.5Q141.9 85.5 142.6 85.9Q143.3 86.3 143.6 87.0Q143.9 87.8 143.9 88.8ZM138.9 88.8L138.9 88.8Q138.9 90.0 139.4 90.7Q139.9 91.4 141.0 91.4L141.0 91.4Q142.1 91.4 142.6 90.7Q143.1 90.0 143.1 88.8L143.1 88.8Q143.1 87.6 142.6 86.9Q142.1 86.2 141.0 86.2L141.0 86.2Q139.9 86.2 139.4 86.9Q138.9 87.6 138.9 88.8ZM149.8 90.3L149.8 90.3Q149.8 91.1 149.2 91.6Q148.6 92.1 147.5 92.1L147.5 92.1Q147.0 92.1 146.5 92.0Q146.0 91.9 145.7 91.8L145.7 91.8L145.7 91.0Q146.1 91.2 146.5 91.3Q147.0 91.4 147.5 91.4L147.5 91.4Q148.3 91.4 148.6 91.1Q149.0 90.8 149.0 90.4L149.0 90.4Q149.0 90.0 148.8 89.8Q148.7 89.6 148.4 89.4Q148.1 89.2 147.5 89.0L147.5 89.0Q146.7 88.7 146.2 88.3Q145.8 87.9 145.8 87.1L145.8 87.1Q145.8 86.6 146.1 86.2Q146.3 85.9 146.8 85.7Q147.3 85.5 147.9 85.5L147.9 85.5Q148.4 85.5 148.8 85.6Q149.3 85.7 149.6 85.8L149.6 85.8L149.4 86.5Q149.1 86.4 148.7 86.3Q148.3 86.2 147.9 86.2L147.9 86.2Q147.2 86.2 146.9 86.5Q146.6 86.7 146.6 87.1L146.6 87.1Q146.6 87.5 146.8 87.7Q146.9 87.9 147.2 88.1Q147.5 88.2 148.0 88.4L148.0 88.4Q148.6 88.6 149.0 88.9Q149.4 89.1 149.6 89.4Q149.8 89.8 149.8 90.3Z "/></g><defs><clipPath id="satori_bc-id-2" clip-path="url(#satori_cp-id)"><rect x="271" y="44" width="269" height="62"/></clipPath></defs><mask id="satori_om-id-2"><rect x="271" y="44" width="268" height="62" fill="#fff" mask="url(#satori_om-id)"/><path width="269" height="62" fill="none" stroke="#000" stroke-width="2" d="M540,44 A0,0 0 0 1 540,44 v62 A0,0 0 0 1 540,106"/></mask><path width="269" height="62" clip-path="url(#satori_bc-id-2)" fill="none" stroke="rgba(255,255,255,0.06)" stroke-width="2" d="M540,44 A0,0 0 0 1 540,44 v62 A0,0 0 0 1 540,106"/><mask id="satori_om-id-2-0"><rect x="398" y="56" width="13" height="22" fill="#fff" mask="url(#satori_om-id)"/></mask><g mask="url(#satori_om-id)" clip-path="url(#satori_cp-id)"><path fill="#60a5fa" d="M409.4 67.0L409.4 67.0Q409.4 68.7 409.1 70.3Q408.8 72.0 408.1 73.3Q407.3 74.6 405.9 75.4Q404.4 76.2 402.2 76.2L402.2 76.2Q401.8 76.2 401.2 76.2Q400.6 76.1 400.2 76L400.2 76L400.2 74.3Q401.1 74.6 402.2 74.6L402.2 74.6Q403.7 74.6 404.7 74.1Q405.7 73.6 406.3 72.8Q406.9 71.9 407.2 70.7Q407.4 69.6 407.5 68.3L407.5 68.3L407.4 68.3Q406.9 69.0 406.0 69.6Q405.0 70.1 403.6 70.1L403.6 70.1Q401.6 70.1 400.3 68.9Q399.1 67.6 399.1 65.4L399.1 65.4Q399.1 63.7 399.7 62.5Q400.4 61.3 401.5 60.7Q402.6 60.1 404.1 60.1L404.1 60.1Q405.6 60.1 406.8 60.8Q408.0 61.6 408.7 63.1Q409.4 64.6 409.4 67.0ZM404.1 61.7L404.1 61.7Q402.8 61.7 401.9 62.6Q401.0 63.5 401.0 65.4L401.0 65.4Q401.0 66.9 401.8 67.7Q402.5 68.6 404.0 68.6L404.0 68.6Q405.1 68.6 405.9 68.2Q406.6 67.8 407.1 67.1Q407.5 66.4 407.5 65.7L407.5 65.7Q407.5 64.8 407.1 63.9Q406.7 62.9 406.0 62.3Q405.2 61.7 404.1 61.7Z "/></g><mask id="satori_om-id-2-1"><rect x="389" y="82" width="31" height="12" fill="#fff" mask="url(#satori_om-id)"/></mask><g mask="url(#satori_om-id)" clip-path="url(#satori_cp-id)"><path fill="rgba(200,195,225,0.45)" d="M393.5 90.3L393.5 90.3Q393.5 91.1 392.9 91.6Q392.3 92.1 391.2 92.1L391.2 92.1Q390.7 92.1 390.2 92.0Q389.8 91.9 389.5 91.8L389.5 91.8L389.5 91.0Q389.8 91.2 390.3 91.3Q390.7 91.4 391.3 91.4L391.3 91.4Q392.0 91.4 392.3 91.1Q392.7 90.8 392.7 90.4L392.7 90.4Q392.7 90.0 392.6 89.8Q392.4 89.6 392.1 89.4Q391.8 89.2 391.2 89.0L391.2 89.0Q390.4 88.7 390.0 88.3Q389.5 87.9 389.5 87.1L389.5 87.1Q389.5 86.6 389.8 86.2Q390.1 85.9 390.5 85.7Q391.0 85.5 391.6 85.5L391.6 85.5Q392.1 85.5 392.6 85.6Q393.0 85.7 393.4 85.8L393.4 85.8L393.1 86.5Q392.8 86.4 392.4 86.3Q392.0 86.2 391.6 86.2L391.6 86.2Q391.0 86.2 390.7 86.5Q390.4 86.7 390.4 87.1L390.4 87.1Q390.4 87.5 390.5 87.7Q390.6 87.9 390.9 88.1Q391.2 88.2 391.8 88.4L391.8 88.4Q392.3 88.6 392.7 88.9Q393.1 89.1 393.3 89.4Q393.5 89.8 393.5 90.3ZM397.6 86.3L397.6 92L396.8 92L396.8 86.3L394.8 86.3L394.8 85.6L399.6 85.6L399.6 86.3L397.6 86.3ZM405.7 92L404.8 92L404.0 90.0L401.5 90.0L400.7 92L399.9 92L402.4 85.5L403.2 85.5L405.7 92ZM403.8 89.3L403.1 87.3Q403.1 87.3 403.0 87.1Q402.9 86.9 402.9 86.7Q402.8 86.5 402.8 86.4L402.8 86.4Q402.7 86.7 402.6 86.9Q402.6 87.2 402.5 87.3L402.5 87.3L401.8 89.3L403.8 89.3ZM407.3 85.6L409.1 85.6Q410.3 85.6 410.9 86.0Q411.5 86.5 411.5 87.4L411.5 87.4Q411.5 87.9 411.3 88.3Q411.1 88.6 410.8 88.8Q410.5 89.0 410.2 89.1L410.2 89.1L411.9 92L411.0 92L409.4 89.3L408.1 89.3L408.1 92L407.3 92L407.3 85.6ZM409.1 86.3L409.1 86.3L408.1 86.3L408.1 88.7L409.1 88.7Q409.9 88.7 410.3 88.4Q410.6 88.0 410.6 87.4L410.6 87.4Q410.6 86.8 410.2 86.5Q409.9 86.3 409.1 86.3ZM417.4 90.3L417.4 90.3Q417.4 91.1 416.8 91.6Q416.1 92.1 415.1 92.1L415.1 92.1Q414.5 92.1 414.1 92.0Q413.6 91.9 413.3 91.8L413.3 91.8L413.3 91.0Q413.6 91.2 414.1 91.3Q414.6 91.4 415.1 91.4L415.1 91.4Q415.8 91.4 416.2 91.1Q416.6 90.8 416.6 90.4L416.6 90.4Q416.6 90.0 416.4 89.8Q416.3 89.6 416.0 89.4Q415.6 89.2 415.1 89.0L415.1 89.0Q414.2 88.7 413.8 88.3Q413.4 87.9 413.4 87.1L413.4 87.1Q413.4 86.6 413.7 86.2Q413.9 85.9 414.4 85.7Q414.9 85.5 415.5 85.5L415.5 85.5Q416.0 85.5 416.4 85.6Q416.9 85.7 417.2 85.8L417.2 85.8L417.0 86.5Q416.6 86.4 416.3 86.3Q415.9 86.2 415.4 86.2L415.4 86.2Q414.8 86.2 414.5 86.5Q414.2 86.7 414.2 87.1L414.2 87.1Q414.2 87.5 414.4 87.7Q414.5 87.9 414.8 88.1Q415.1 88.2 415.6 88.4L415.6 88.4Q416.2 88.6 416.6 88.9Q417.0 89.1 417.2 89.4Q417.4 89.8 417.4 90.3Z "/></g><mask id="satori_om-id-3"><rect x="540" y="44" width="319" height="62" fill="#fff" mask="url(#satori_om-id)"/></mask><mask id="satori_om-id-3-0"><rect x="671" y="56" width="57" height="22" fill="#fff" mask="url(#satori_om-id)"/></mask><g mask="url(#satori_om-id)" clip-path="url(#satori_cp-id)"><path fill="#f59e0b" d="M678.8 60.3L678.8 76L676.9 76L676.9 65.0Q676.9 64.1 676.9 63.5Q677.0 62.9 677.0 62.3L677.0 62.3Q676.7 62.7 676.4 62.9Q676.1 63.2 675.6 63.5L675.6 63.5L674.0 64.9L673.0 63.6L677.2 60.3L678.8 60.3ZM687.7 73.4L687.8 73.7Q687.5 74.9 687.0 76.3Q686.4 77.7 685.9 78.8L685.9 78.8L684.5 78.8Q684.8 77.6 685.1 76.1Q685.4 74.6 685.6 73.4L685.6 73.4L687.7 73.4ZM700.3 64.0L700.3 64.0Q700.3 65.5 699.4 66.5Q698.6 67.4 697.1 67.7L697.1 67.7L697.1 67.8Q699.0 68.0 699.9 69.0Q700.8 70.0 700.8 71.5L700.8 71.5Q700.8 72.9 700.2 74.0Q699.5 75.0 698.2 75.6Q696.9 76.2 694.8 76.2L694.8 76.2Q693.5 76.2 692.5 76.0Q691.4 75.8 690.5 75.4L690.5 75.4L690.5 73.6Q691.5 74.0 692.6 74.3Q693.7 74.6 694.8 74.6L694.8 74.6Q696.9 74.6 697.9 73.8Q698.8 72.9 698.8 71.5L698.8 71.5Q698.8 70.0 697.6 69.4Q696.5 68.7 694.4 68.7L694.4 68.7L692.9 68.7L692.9 67.1L694.4 67.1Q696.3 67.1 697.3 66.3Q698.3 65.4 698.3 64.1L698.3 64.1Q698.3 63.0 697.6 62.3Q696.8 61.7 695.5 61.7L695.5 61.7Q694.2 61.7 693.3 62.1Q692.4 62.4 691.5 63.0L691.5 63.0L690.6 61.7Q691.4 61.0 692.6 60.6Q693.9 60.1 695.5 60.1L695.5 60.1Q697.9 60.1 699.1 61.2Q700.3 62.3 700.3 64.0ZM714.2 70.7L714.2 72.4L711.9 72.4L711.9 76L710.0 76L710.0 72.4L702.5 72.4L702.5 70.8L709.9 60.2L711.9 60.2L711.9 70.7L714.2 70.7ZM710.0 70.7L710.0 65.7Q710.0 64.6 710.1 63.8Q710.1 63.0 710.2 62.3L710.2 62.3L710.1 62.3Q709.9 62.7 709.6 63.2Q709.4 63.7 709.1 64.0L709.1 64.0L704.4 70.7L710.0 70.7ZM715.9 69.3L715.9 69.3Q715.9 67.6 716.2 66.0Q716.5 64.3 717.2 63.0Q718.0 61.7 719.4 60.9Q720.8 60.1 723.1 60.1L723.1 60.1Q723.5 60.1 724.1 60.1Q724.6 60.2 725.0 60.3L725.0 60.3L725.0 61.9Q724.6 61.8 724.1 61.7Q723.6 61.7 723.1 61.7L723.1 61.7Q721.6 61.7 720.6 62.2Q719.6 62.7 719.0 63.5Q718.4 64.4 718.1 65.6Q717.9 66.7 717.8 68.0L717.8 68.0L717.9 68.0Q718.4 67.2 719.3 66.7Q720.2 66.2 721.6 66.2L721.6 66.2Q723.7 66.2 724.9 67.4Q726.2 68.7 726.2 70.9L726.2 70.9Q726.2 73.4 724.8 74.8Q723.5 76.2 721.2 76.2L721.2 76.2Q719.7 76.2 718.5 75.5Q717.3 74.7 716.6 73.2Q715.9 71.6 715.9 69.3ZM721.2 74.6L721.2 74.6Q722.6 74.6 723.4 73.7Q724.3 72.8 724.3 70.9L724.3 70.9Q724.3 69.4 723.5 68.6Q722.8 67.7 721.2 67.7L721.2 67.7Q720.2 67.7 719.4 68.1Q718.7 68.5 718.2 69.2Q717.8 69.9 717.8 70.6L717.8 70.6Q717.8 71.5 718.2 72.4Q718.6 73.4 719.3 74.0Q720.1 74.6 721.2 74.6Z "/></g><mask id="satori_om-id-3-1"><rect x="658" y="82" width="83" height="12" fill="#fff" mask="url(#satori_om-id)"/></mask><g mask="url(#satori_om-id)" clip-path="url(#satori_cp-id)"><path fill="rgba(200,195,225,0.45)" d="M661.6 86.2L661.6 86.2Q660.6 86.2 660.0 86.9Q659.4 87.6 659.4 88.8L659.4 88.8Q659.4 90.0 660.0 90.7Q660.5 91.4 661.6 91.4L661.6 91.4Q662.0 91.4 662.4 91.3Q662.8 91.2 663.2 91.1L663.2 91.1L663.2 91.8Q662.8 92.0 662.4 92.0Q662.0 92.1 661.5 92.1L661.5 92.1Q660.5 92.1 659.9 91.7Q659.2 91.3 658.9 90.5Q658.5 89.8 658.5 88.8L658.5 88.8Q658.5 87.8 658.9 87.1Q659.3 86.3 660.0 85.9Q660.6 85.5 661.6 85.5L661.6 85.5Q662.7 85.5 663.4 85.9L663.4 85.9L663.1 86.5Q662.8 86.4 662.4 86.3Q662.1 86.2 661.6 86.2ZM670.8 88.8L670.8 88.8Q670.8 89.8 670.5 90.5Q670.1 91.3 669.5 91.7Q668.8 92.1 667.8 92.1L667.8 92.1Q666.8 92.1 666.2 91.7Q665.5 91.3 665.2 90.5Q664.9 89.8 664.9 88.8L664.9 88.8Q664.9 87.8 665.2 87.0Q665.5 86.3 666.2 85.9Q666.8 85.5 667.8 85.5L667.8 85.5Q668.8 85.5 669.5 85.9Q670.1 86.3 670.5 87.0Q670.8 87.8 670.8 88.8ZM665.7 88.8L665.7 88.8Q665.7 90.0 666.2 90.7Q666.7 91.4 667.8 91.4L667.8 91.4Q668.9 91.4 669.4 90.7Q669.9 90.0 669.9 88.8L669.9 88.8Q669.9 87.6 669.4 86.9Q668.9 86.2 667.8 86.2L667.8 86.2Q666.7 86.2 666.2 86.9Q665.7 87.6 665.7 88.8ZM678.1 85.6L678.1 92L677.2 92L673.7 86.7L673.7 86.7Q673.7 87.0 673.7 87.4Q673.8 87.9 673.8 88.4L673.8 88.4L673.8 92L673.0 92L673.0 85.6L673.9 85.6L677.4 90.9L677.4 90.9Q677.4 90.7 677.4 90.5Q677.4 90.2 677.4 89.8Q677.3 89.5 677.3 89.2L677.3 89.2L677.3 85.6L678.1 85.6ZM682.7 86.3L682.7 92L681.9 92L681.9 86.3L679.9 86.3L679.9 85.6L684.7 85.6L684.7 86.3L682.7 86.3ZM686.5 85.6L688.2 85.6Q689.4 85.6 690.0 86.0Q690.6 86.5 690.6 87.4L690.6 87.4Q690.6 87.9 690.4 88.3Q690.2 88.6 689.9 88.8Q689.6 89.0 689.3 89.1L689.3 89.1L691.0 92L690.1 92L688.5 89.3L687.3 89.3L687.3 92L686.5 92L686.5 85.6ZM688.2 86.3L688.2 86.3L687.3 86.3L687.3 88.7L688.2 88.7Q689.0 88.7 689.4 88.4Q689.7 88.0 689.7 87.4L689.7 87.4Q689.7 86.8 689.4 86.5Q689.0 86.3 688.2 86.3ZM694.7 91.5L694.7 92L692.3 92L692.3 91.5L693.1 91.4L693.1 86.2L692.3 86.0L692.3 85.6L694.7 85.6L694.7 86.0L693.9 86.2L693.9 91.4L694.7 91.5ZM696.7 85.6L698.5 85.6Q699.7 85.6 700.4 85.9Q701.0 86.3 701.0 87.2L701.0 87.2Q701.0 87.7 700.7 88.1Q700.3 88.5 699.8 88.6L699.8 88.6L699.8 88.6Q700.2 88.7 700.5 88.9Q700.8 89.0 701.0 89.4Q701.2 89.7 701.2 90.2L701.2 90.2Q701.2 91.0 700.6 91.5Q700.0 92 699.0 92L699.0 92L696.7 92L696.7 85.6ZM697.5 88.3L698.7 88.3Q699.5 88.3 699.8 88.0Q700.1 87.8 700.1 87.3L700.1 87.3Q700.1 86.7 699.8 86.5Q699.4 86.3 698.6 86.3L698.6 86.3L697.5 86.3L697.5 88.3ZM698.7 89.0L697.5 89.0L697.5 91.3L698.8 91.3Q699.7 91.3 700.0 91.0Q700.3 90.7 700.3 90.1L700.3 90.1Q700.3 89.6 700.0 89.3Q699.6 89.0 698.7 89.0L698.7 89.0ZM708.2 85.6L708.2 89.7Q708.2 90.4 708.0 90.9Q707.7 91.5 707.1 91.8Q706.6 92.1 705.7 92.1L705.7 92.1Q704.5 92.1 703.9 91.4Q703.3 90.8 703.3 89.7L703.3 89.7L703.3 85.6L704.1 85.6L704.1 89.7Q704.1 90.5 704.5 91.0Q704.9 91.4 705.8 91.4L705.8 91.4Q706.7 91.4 707.0 90.9Q707.4 90.5 707.4 89.7L707.4 89.7L707.4 85.6L708.2 85.6ZM712.8 86.3L712.8 92L712.0 92L712.0 86.3L709.9 86.3L709.9 85.6L714.8 85.6L714.8 86.3L712.8 86.3ZM718.3 91.5L718.3 92L716.0 92L716.0 91.5L716.8 91.4L716.8 86.2L716.0 86.0L716.0 85.6L718.3 85.6L718.3 86.0L717.6 86.2L717.6 91.4L718.3 91.5ZM726.0 88.8L726.0 88.8Q726.0 89.8 725.7 90.5Q725.3 91.3 724.7 91.7Q724.0 92.1 723.0 92.1L723.0 92.1Q722.0 92.1 721.4 91.7Q720.7 91.3 720.4 90.5Q720.1 89.8 720.1 88.8L720.1 88.8Q720.1 87.8 720.4 87.0Q720.7 86.3 721.4 85.9Q722.0 85.5 723.0 85.5L723.0 85.5Q724.0 85.5 724.7 85.9Q725.3 86.3 725.7 87.0Q726.0 87.8 726.0 88.8ZM720.9 88.8L720.9 88.8Q720.9 90.0 721.4 90.7Q721.9 91.4 723.0 91.4L723.0 91.4Q724.1 91.4 724.6 90.7Q725.1 90.0 725.1 88.8L725.1 88.8Q725.1 87.6 724.6 86.9Q724.1 86.2 723.0 86.2L723.0 86.2Q722.0 86.2 721.4 86.9Q720.9 87.6 720.9 88.8ZM733.3 85.6L733.3 92L732.4 92L728.9 86.7L728.9 86.7Q728.9 87.0 728.9 87.4Q729.0 87.9 729.0 88.4L729.0 88.4L729.0 92L728.2 92L728.2 85.6L729.2 85.6L732.6 90.9L732.6 90.9Q732.6 90.7 732.6 90.5Q732.6 90.2 732.6 89.8Q732.6 89.5 732.6 89.2L732.6 89.2L732.6 85.6L733.3 85.6ZM739.5 90.3L739.5 90.3Q739.5 91.1 738.9 91.6Q738.3 92.1 737.2 92.1L737.2 92.1Q736.7 92.1 736.2 92.0Q735.7 91.9 735.4 91.8L735.4 91.8L735.4 91.0Q735.8 91.2 736.2 91.3Q736.7 91.4 737.2 91.4L737.2 91.4Q738.0 91.4 738.3 91.1Q738.7 90.8 738.7 90.4L738.7 90.4Q738.7 90.0 738.6 89.8Q738.4 89.6 738.1 89.4Q737.8 89.2 737.2 89.0L737.2 89.0Q736.4 88.7 735.9 88.3Q735.5 87.9 735.5 87.1L735.5 87.1Q735.5 86.6 735.8 86.2Q736.0 85.9 736.5 85.7Q737.0 85.5 737.6 85.5L737.6 85.5Q738.1 85.5 738.5 85.6Q739.0 85.7 739.3 85.8L739.3 85.8L739.1 86.5Q738.8 86.4 738.4 86.3Q738.0 86.2 737.6 86.2L737.6 86.2Q737.0 86.2 736.6 86.5Q736.3 86.7 736.3 87.1L736.3 87.1Q736.3 87.5 736.5 87.7Q736.6 87.9 736.9 88.1Q737.2 88.2 737.7 88.4L737.7 88.4Q738.3 88.6 738.7 88.9Q739.1 89.1 739.3 89.4Q739.5 89.8 739.5 90.3Z "/></g></svg>