<!-- Generated by readme-aura https://github.com/collectioneur/readme-aura -->
<svg width="860" height="150" viewBox="0 0 860 150" xmlns="http://www.w3.org/2000/svg"><defs><clipPath id="satori_bc-id"><path x="0" y="0" width="860" height="150" d="M16,0 h828 a16,16 0 0 1 16,16 v118 a16,16 0 0 1 -16,16 h-828 a16,16 0 0 1 -16,-16 v-118 a16,16 0 0 1 16,-16"/></clipPath></defs><clipPath id="satori_cp-id"><path x="0" y="0" width="860" height="150" d="M16,0 h828 a16,16 0 0 1 16,16 v118 a16,16 0 0 1 -16,16 h-828 a16,16 0 0 1 -16,-16 v-118 a16,16 0 0 1 16,-16"/></clipPath><mask id="satori_om-id"><rect x="1" y="1" width="858" height="148" fill="#fff"/><path width="860" height="150" fill="none" stroke="#000" stroke-width="2" d="M4.686,4.686 A16,16 0 0 1 16,0 h828 a16,16 0 0 1 16,16 v118 a16,16 0 0 1 -16,16 h-828 a16,16 0 0 1 -16,-16 v-118 A16,16 0 0 1 4.686,4.686"/></mask><path x="0" y="0" width="860" height="150" fill="#08080c" d="M16,0 h828 a16,16 0 0 1 16,16 v118 a16,16 0 0 1 -16,16 h-828 a16,16 0 0 1 -16,-16 v-118 a16,16 0 0 1 16,-16"/><path width="860" height="150" clip-path="url(#satori_bc-id)" fill="none" stroke="rgba(110,80,220,0.18)" stroke-width="2" d="M4.686,4.686 A16,16 0 0 1 16,0 h828 a16,16 0 0 1 16,16 v118 a16,16 0 0 1 -16,16 h-828 a16,16 0 0 1 -16,-16 v-118 A16,16 0 0 1 4.686,4.686"/><clipPath id="satori_cp-id-0" clip-path="url(#satori_cp-id)"><rect x="1" y="1" width="860" height="150"/></clipPath><mask id="satori_om-id-0"><rect x="1" y="1" width="860" height="150" fill="#fff" mask="url(#satori_om-id)"/></mask><svg x="1" y="1" width="860" height="150" preserveAspectRatio="none" clip-path="url(#satori_cp-id-0)" mask="url(#satori_om-id-0)"><defs><radialGradient id="g1" cx="50%" cy="50%" r="50%"><stop offset="0%" stop-color="rgba(110,20,210,0.65)"></stop><stop offset="45%" stop-color="rgba(80,15,170,0.28)"></stop><stop offset="70%" stop-color="rgba(80,15,170,0)"></stop></radialGradient><radialGradient id="g2" cx="50%" cy="50%" r="50%"><stop offset="0%" stop-color="rgba(40,70,255,0.55)"></stop><stop offset="45%" stop-color="rgba(20,50,200,0.22)"></stop><stop offset="70%" stop-color="rgba(20,50,200,0)"></stop></radialGradient><radialGradient id="g3" cx="50%" cy="50%" r="50%"><stop offset="0%" stop-color="rgba(0,140,255,0.42)"></stop><stop offset="70%" stop-color="rgba(0,140,255,0)"></stop></radialGradient><radialGradient id="g4" cx="50%" cy="50%" r="50%"><stop offset="0%" stop-color="rgba(0,195,235,0.30)"></stop><stop offset="70%" stop-color="rgba(0,195,235,0)"></stop></radialGradient><radialGradient id="g5" cx="50%" cy="50%" r="50%"><stop offset="0%" stop-color="rgba(100,30,210,0.40)"></stop><stop offset="70%" stop-color="rgba(100,30,210,0)"></stop></radialGradient></defs><ellipse id="glow-1" cx="730" cy="155" rx="180" ry="130" fill="url(#g1)"></ellipse><ellipse id="glow-2" cx="580" cy="148" rx="170" ry="125" fill="url(#g2)"></ellipse><ellipse id="glow-3" cx="430" cy="142" rx="160" ry="120" fill="url(#g3)"></ellipse><ellipse id="glow-4" cx="280" cy="148" rx="150" ry="115" fill="url(#g4)"></ellipse><ellipse id="glow-5" cx="130" cy="155" rx="130" ry="105" fill="url(#g5)"></ellipse><style>

          @keyframes float-slow {
            0%, 100% { transform: translateX(0px); opacity: 0.8; }
            50% { transform: translateX(350px); opacity: 1.2; }
          }
          @keyframes float-medium {
            0%, 100% { transform: translateX(0px); opacity: 0.7; }
            50% { transform: translateX(-250px); opacity: 1.1; }
          }
          @keyframes float-fast {
            0%, 100% { transform: translateX(0px); opacity: 0.9; }
            50% { transform: translateX(200px); opacity: 0.6; }
          }
          @keyframes float-diagonal {
            0%, 100% { transform: translate(0px, 0px); opacity: 0.75; }
            50% { transform: translate(120px, 30px); opacity: 1.0; }
          }
          @keyframes float-wave {
            0%, 100% { transform: translateX(0px); opacity: 0.65; }
            33% { transform: translateX(-160px); opacity: 0.9; }
            66% { transform: translateX(80px); opacity: 1.0; }
          }
          @keyframes float-pulse {
            0%, 100% { transform: scale(1); opacity: 0.8; }
            50% { transform: scale(1.3); opacity: 0.4; }
          }
          #glow-1 { animation: float-slow 8s ease-in-out infinite; }
          #glow-2 { animation: float-medium 12s ease-in-out infinite; }
          #glow-3 { animation: float-fast 9s ease-in-out infinite; }
          #glow-4 { animation: float-diagonal 10s ease-in-out infinite; }
          #glow-5 { animation: float-wave 14s ease-in-out infinite; }
        
</style>
</svg><mask id="satori_om-id-0-0"><rect x="1" y="1" width="0" height="150" fill="#fff" mask="url(#satori_om-id)"/></mask><mask id="satori_om-id-0-0-0"><rect x="1" y="1" width="0" height="150" fill="#fff" mask="url(#satori_om-id)"/></mask><mask id="satori_om-id-0-0-0-0"><rect x="1" y="1" width="0" height="150" fill="#fff" mask="url(#satori_om-id)"/></mask><mask id="satori_om-id-0-0-0-1"><rect x="1" y="1" width="0" height="150" fill="#fff" mask="url(#satori_om-id)"/></mask><mask id="satori_om-id-0-0-0-2"><rect x="1" y="1" width="0" height="150" fill="#fff" mask="url(#satori_om-id)"/></mask><mask id="satori_om-id-0-0-1"><rect x="1" y="1" width="0" height="150" fill="#fff" mask="url(#satori_om-id)"/></mask><mask id="satori_om-id-0-0-1-0"><rect x="1" y="1" width="0" height="150" fill="#fff" mask="url(#satori_om-id)"/></mask><mask id="satori_om-id-0-0-1-1"><rect x="1" y="1" width="0" height="150" fill="#fff" mask="url(#satori_om-id)"/></mask><mask id="satori_om-id-0-0-1-2"><rect x="1" y="1" width="0" height="150" fill="#fff" mask="url(#satori_om-id)"/></mask><mask id="satori_om-id-0-0-2"><rect x="1" y="1" width="0" height="150" fill="#fff" mask="url(#satori_om-id)"/></mask><mask id="satori_om-id-0-0-2-0"><rect x="1" y="1" width="0" height="150" fill="#fff" mask="url(#satori_om-id)"/></mask><mask id="satori_om-id-0-0-2-1"><rect x="1" y="1" width="0" height="150" fill="#fff" mask="url(#satori_om-id)"/></mask><mask id="satori_om-id-0-0-3"><rect x="1" y="1" width="0" height="150" fill="#fff" mask="url(#satori_om-id)"/></mask><mask id="satori_om-id-0-0-3-0"><rect x="1" y="1" width="0" height="150" fill="#fff" mask="url(#satori_om-id)"/></mask><mask id="satori_om-id-0-0-3-1"><rect x="1" y="1" width="0" height="150" fill="#fff" mask="url(#satori_om-id)"/></mask><mask id="satori_om-id-0-0-4"><rect x="1" y="1" width="0" height="150" fill="#fff" mask="url(#satori_om-id)"/></mask><mask id="satori_om-id-0-0-4-0"><rect x="1" y="1" width="0" height="150" fill="#fff" mask="url(#satori_om-id)"/></mask><mask id="satori_om-id-0-0-4-1"><rect x="1" y="1" width="0" height="150" fill="#fff" mask="url(#satori_om-id)"/></mask><mask id="satori_om-id-0-1"><rect x="1" y="1" width="0" height="150" fill="#fff" mask="url(#satori_om-id)"/></mask><mask id="satori_om-id-0-2"><rect x="1" y="1" width="0" height="150" fill="#fff" mask="url(#satori_om-id)"/></mask><mask id="satori_om-id-0-3"><rect x="1" y="1" width="0" height="150" fill="#fff" mask="url(#satori_om-id)"/></mask><mask id="satori_om-id-0-4"><rect x="1" y="1" width="0" height="150" fill="#fff" mask="url(#satori_om-id)"/></mask><mask id="satori_om-id-0-5"><rect x="1" y="1" width="0" height="150" fill="#fff" mask="url(#satori_om-id)"/></mask><defs><clipPath id="satori_bc-id-1" clip-path="url(#satori_cp-id)"><rect x="1" y="44" width="172" height="62"/></clipPath></defs><mask id="satori_om-id-1"><rect x="1" y="44" width="171" height="62" fill="#fff" mask="url(#satori_om-id)"/><path width="172" height="62" fill="none" stroke="#000" stroke-width="2" d="M173,44 A0,0 0 0 1 173,44 v62 A0,0 0 0 1 173,106"/></mask><path width="172" height="62" clip-path="url(#satori_bc-id-1)" fill="none" stroke="rgba(255,255,255,0.06)" stroke-width="2" d="M173,44 A0,0 0 0 1 173,44 v62 A0,0 0 0 1 173,106"/><mask id="satori_om-id-1-0"><rect x="58" y="56" width="56" height="22" fill="#fff" mask="url(#satori_om-id)"/></mask><g mask="url(#satori_om-id)" clip-path="url(#satori_cp-id)"><path fill="#a78bfa" d="M68.7 76L67.1 76L61.9 62.2L61.8 62.2Q61.9 62.9 61.9 64.1Q62.0 65.2 62.0 66.5L62.0 66.5L62.0 76L60.1 76L60.1 60.3L63.1 60.3L67.9 73.2L68.0 73.2L72.9 60.3L75.8 60.3L75.8 76L73.9 76L73.9 66.3Q73.9 65.2 73.9 64.1Q74.0 63.0 74.0 62.3L74.0 62.3L73.9 62.3L68.7 76ZM90.1 70.1L90.1 70.1Q90.1 73.0 88.6 74.6Q87.1 76.2 84.6 76.2L84.6 76.2Q83.0 76.2 81.8 75.5Q80.6 74.8 79.9 73.4Q79.2 72.0 79.2 70.1L79.2 70.1Q79.2 67.2 80.6 65.6Q82.1 64.0 84.6 64.0L84.6 64.0Q86.2 64.0 87.5 64.7Q88.7 65.4 89.4 66.8Q90.1 68.1 90.1 70.1ZM81.2 70.1L81.2 70.1Q81.2 72.2 82.0 73.4Q82.8 74.6 84.6 74.6L84.6 74.6Q86.4 74.6 87.2 73.4Q88.1 72.2 88.1 70.1L88.1 70.1Q88.1 68.0 87.2 66.8Q86.4 65.6 84.6 65.6L84.6 65.6Q82.8 65.6 82.0 66.8Q81.2 68.0 81.2 70.1ZM97.9 76.2L97.9 76.2Q96.3 76.2 95.1 75.6Q93.9 74.9 93.2 73.6Q92.5 72.3 92.5 70.2L92.5 70.2Q92.5 68.0 93.2 66.6Q93.9 65.3 95.2 64.6Q96.4 64.0 98.0 64.0L98.0 64.0Q98.9 64.0 99.7 64.2Q100.6 64.4 101.1 64.6L101.1 64.6L100.5 66.2Q100.0 66.0 99.3 65.9Q98.6 65.7 98.0 65.7L98.0 65.7Q94.5 65.7 94.5 70.1L94.5 70.1Q94.5 72.3 95.3 73.4Q96.2 74.5 97.8 74.5L97.8 74.5Q98.8 74.5 99.5 74.3Q100.3 74.2 100.9 73.9L100.9 73.9L100.9 75.6Q100.3 75.9 99.6 76.1Q98.9 76.2 97.9 76.2ZM105.6 59.3L105.6 68.0Q105.6 68.4 105.6 68.9Q105.5 69.5 105.5 69.9L105.5 69.9L105.6 69.9Q105.7 69.8 106.0 69.4Q106.3 69.1 106.5 68.8Q106.8 68.4 107.0 68.2L107.0 68.2L110.8 64.2L113.0 64.2L108.3 69.2L113.4 76L111.0 76L107.0 70.5L105.6 71.7L105.6 76L103.7 76L103.7 59.3L105.6 59.3Z "/></g><mask id="satori_om-id-1-1"><rect x="70" y="82" width="33" height="12" fill="#fff" mask="url(#satori_om-id)"/></mask><g mask="url(#satori_om-id)" clip-path="url(#satori_cp-id)"><path fill="rgba(200,195,225,0.45)" d="M70.9 85.6L72.6 85.6Q73.8 85.6 74.4 86.0Q75.0 86.5 75.0 87.4L75.0 87.4Q75.0 87.9 74.8 88.3Q74.6 88.6 74.3 88.8Q74.0 89.0 73.7 89.1L73.7 89.1L75.5 92L74.5 92L73.0 89.3L71.7 89.3L71.7 92L70.9 92L70.9 85.6ZM72.6 86.3L72.6 86.3L71.7 86.3L71.7 88.7L72.6 88.7Q73.4 88.7 73.8 88.4Q74.1 88.0 74.1 87.4L74.1 87.4Q74.1 86.8 73.8 86.5Q73.4 86.3 72.6 86.3ZM80.9 91.3L80.9 92L77.3 92L77.3 85.6L80.9 85.6L80.9 86.3L78.1 86.3L78.1 88.3L80.7 88.3L80.7 89.0L78.1 89.0L78.1 91.3L80.9 91.3ZM83.1 85.6L84.8 85.6Q86.0 85.6 86.6 86.1Q87.2 86.6 87.2 87.5L87.2 87.5Q87.2 88.0 86.9 88.5Q86.7 88.9 86.1 89.2Q85.6 89.5 84.6 89.5L84.6 89.5L83.9 89.5L83.9 92L83.1 92L83.1 85.6ZM84.7 86.3L84.7 86.3L83.9 86.3L83.9 88.8L84.5 88.8Q85.5 88.8 85.9 88.5Q86.4 88.2 86.4 87.5L86.4 87.5Q86.4 86.9 86.0 86.6Q85.6 86.3 84.7 86.3ZM94.9 88.8L94.9 88.8Q94.9 89.8 94.6 90.5Q94.3 91.3 93.6 91.7Q92.9 92.1 92.0 92.1L92.0 92.1Q91.0 92.1 90.3 91.7Q89.6 91.3 89.3 90.5Q89.0 89.8 89.0 88.8L89.0 88.8Q89.0 87.8 89.3 87.0Q89.6 86.3 90.3 85.9Q91.0 85.5 92.0 85.5L92.0 85.5Q92.9 85.5 93.6 85.9Q94.3 86.3 94.6 87.0Q94.9 87.8 94.9 88.8ZM89.9 88.8L89.9 88.8Q89.9 90.0 90.4 90.7Q90.9 91.4 92.0 91.4L92.0 91.4Q93.1 91.4 93.6 90.7Q94.1 90.0 94.1 88.8L94.1 88.8Q94.1 87.6 93.6 86.9Q93.1 86.2 92.0 86.2L92.0 86.2Q90.9 86.2 90.4 86.9Q89.9 87.6 89.9 88.8ZM100.8 90.3L100.8 90.3Q100.8 91.1 100.2 91.6Q99.6 92.1 98.5 92.1L98.5 92.1Q98.0 92.1 97.5 92.0Q97.0 91.9 96.7 91.8L96.7 91.8L96.7 91.0Q97.1 91.2 97.5 91.3Q98.0 91.4 98.5 91.4L98.5 91.4Q99.3 91.4 99.6 91.1Q100.0 90.8 100.0 90.4L100.0 90.4Q100.0 90.0 99.8 89.8Q99.7 89.6 99.4 89.4Q99.1 89.2 98.5 89.0L98.5 89.0Q97.7 88.7 97.2 88.3Q96.8 87.9 96.8 87.1L96.8 87.1Q96.8 86.6 97.1 86.2Q97.3 85.9 97.8 85.7Q98.3 85.5 98.9 85.5L98.9 85.5Q99.4 85.5 99.8 85.6Q100.3 85.7 100.6 85.8L100.6 85.8L100.4 86.5Q100.1 86.4 99.7 86.3Q99.3 86.2 98.8 86.2L98.8 86.2Q98.2 86.2 97.9 86.5Q97.6 86.7 97.6 87.1L97.6 87.1Q97.6 87.5 97.8 87.7Q97.9 87.9 98.2 88.1Q98.5 88.2 99.0 88.4L99.0 88.4Q99.6 88.6 100.0 88.9Q100.4 89.1 100.6 89.4Q100.8 89.8 100.8 90.3Z "/></g><defs><clipPath id="satori_bc-id-2" clip-path="url(#satori_cp-id)"><rect x="173" y="44" width="172" height="62"/></clipPath></defs><mask id="satori_om-id-2"><rect x="173" y="44" width="171" height="62" fill="#fff" mask="url(#satori_om-id)"/><path width="172" height="62" fill="none" stroke="#000" stroke-width="2" d="M345,44 A0,0 0 0 1 345,44 v62 A0,0 0 0 1 345,106"/></mask><path width="172" height="62" clip-path="url(#satori_bc-id-2)" fill="none" stroke="rgba(255,255,255,0.06)" stroke-width="2" d="M345,44 A0,0 0 0 1 345,44 v62 A0,0 0 0 1 345,106"/><mask id="satori_om-id-2-0"><rect x="230" y="56" width="56" height="22" fill="#fff" mask="url(#satori_om-id)"/></mask><g mask="url(#satori_om-id)" clip-path="url(#satori_cp-id)"><path fill="#60a5fa" d="M240.7 76L239.1 76L233.9 62.2L233.8 62.2Q233.9 62.9 233.9 64.1Q234.0 65.2 234.0 66.5L234.0 66.5L234.0 76L232.1 76L232.1 60.3L235.1 60.3L239.9 73.2L240.0 73.2L244.9 60.3L247.8 60.3L247.8 76L245.9 76L245.9 66.3Q245.9 65.2 245.9 64.1Q246.0 63.0 246.0 62.3L246.0 62.3L245.9 62.3L240.7 76ZM262.1 70.1L262.1 70.1Q262.1 73.0 260.6 74.6Q259.1 76.2 256.6 76.2L256.6 76.2Q255.0 76.2 253.8 75.5Q252.6 74.8 251.9 73.4Q251.2 72.0 251.2 70.1L251.2 70.1Q251.2 67.2 252.6 65.6Q254.1 64.0 256.6 64.0L256.6 64.0Q258.2 64.0 259.5 64.7Q260.7 65.4 261.4 66.8Q262.1 68.1 262.1 70.1ZM253.2 70.1L253.2 70.1Q253.2 72.2 254.0 73.4Q254.8 74.6 256.6 74.6L256.6 74.6Q258.4 74.6 259.2 73.4Q260.1 72.2 260.1 70.1L260.1 70.1Q260.1 68.0 259.2 66.8Q258.4 65.6 256.6 65.6L256.6 65.6Q254.8 65.6 254.0 66.8Q253.2 68.0 253.2 70.1ZM269.9 76.2L269.9 76.2Q268.3 76.2 267.1 75.6Q265.9 74.9 265.2 73.6Q264.5 72.3 264.5 70.2L264.5 70.2Q264.5 68.0 265.2 66.6Q265.9 65.3 267.2 64.6Q268.4 64.0 270.0 64.0L270.0 64.0Q270.9 64.0 271.7 64.2Q272.6 64.4 273.1 64.6L273.1 64.6L272.5 66.2Q272.0 66.0 271.3 65.9Q270.6 65.7 270.0 65.7L270.0 65.7Q266.5 65.7 266.5 70.1L266.5 70.1Q266.5 72.3 267.3 73.4Q268.2 74.5 269.8 74.5L269.8 74.5Q270.8 74.5 271.5 74.3Q272.3 74.2 272.9 73.9L272.9 73.9L272.9 75.6Q272.3 75.9 271.6 76.1Q270.9 76.2 269.9 76.2ZM277.6 59.3L277.6 68.0Q277.6 68.4 277.6 68.9Q277.5 69.5 277.5 69.9L277.5 69.9L277.6 69.9Q277.7 69.8 278.0 69.4Q278.3 69.1 278.5 68.8Q278.8 68.4 279.0 68.2L279.0 68.2L282.8 64.2L285.0 64.2L280.3 69.2L285.4 76L283.0 76L278.9 70.5L277.6 71.7L277.6 76L275.7 76L275.7 59.3L277.6 59.3Z "/></g><mask id="satori_om-id-2-1"><rect x="243" y="82" width="31" height="12" fill="#fff" mask="url(#satori_om-id)"/></mask><g mask="url(#satori_om-id)" clip-path="url(#satori_cp-id)"><path fill="rgba(200,195,225,0.45)" d="M247.5 90.3L247.5 90.3Q247.5 91.1 246.9 91.6Q246.3 92.1 245.2 92.1L245.2 92.1Q244.7 92.1 244.2 92.0Q243.8 91.9 243.5 91.8L243.5 91.8L243.5 91.0Q243.8 91.2 244.3 91.3Q244.7 91.4 245.3 91.4L245.3 91.4Q246.0 91.4 246.3 91.1Q246.7 90.8 246.7 90.4L246.7 90.4Q246.7 90.0 246.6 89.8Q246.4 89.6 246.1 89.4Q245.8 89.2 245.2 89.0L245.2 89.0Q244.4 88.7 244.0 88.3Q243.5 87.9 243.5 87.1L243.5 87.1Q243.5 86.6 243.8 86.2Q244.1 85.9 244.5 85.7Q245.0 85.5 245.6 85.5L245.6 85.5Q246.1 85.5 246.6 85.6Q247.0 85.7 247.4 85.8L247.4 85.8L247.1 86.5Q246.8 86.4 246.4 86.3Q246.0 86.2 245.6 86.2L245.6 86.2Q245.0 86.2 244.7 86.5Q244.4 86.7 244.4 87.1L244.4 87.1Q244.4 87.5 244.5 87.7Q244.6 87.9 244.9 88.1Q245.2 88.2 245.8 88.4L245.8 88.4Q246.3 88.6 246.7 88.9Q247.1 89.1 247.3 89.4Q247.5 89.8 247.5 90.3ZM251.6 86.3L251.6 92L250.8 92L250.8 86.3L248.8 86.3L248.8 85.6L253.6 85.6L253.6 86.3L251.6 86.3ZM259.7 92L258.8 92L258.0 90.0L255.5 90.0L254.7 92L253.9 92L256.4 85.5L257.2 85.5L259.7 92ZM257.8 89.3L257.1 87.3Q257.1 87.3 257.0 87.1Q256.9 86.9 256.9 86.7Q256.8 86.5 256.8 86.4L256.8 86.4Q256.7 86.7 256.6 86.9Q256.6 87.2 256.5 87.3L256.5 87.3L255.8 89.3L257.8 89.3ZM261.3 85.6L263.1 85.6Q264.3 85.6 264.9 86.0Q265.5 86.5 265.5 87.4L265.5 87.4Q265.5 87.9 265.3 88.3Q265.1 88.6 264.8 88.8Q264.5 89.0 264.2 89.1L264.2 89.1L265.9 92L265.0 92L263.4 89.3L262.1 89.3L262.1 92L261.3 92L261.3 85.6ZM263.1 86.3L263.1 86.3L262.1 86.3L262.1 88.7L263.1 88.7Q263.9 88.7 264.3 88.4Q264.6 88.0 264.6 87.4L264.6 87.4Q264.6 86.8 264.2 86.5Q263.9 86.3 263.1 86.3ZM271.4 90.3L271.4 90.3Q271.4 91.1 270.8 91.6Q270.1 92.1 269.1 92.1L269.1 92.1Q268.5 92.1 268.1 92.0Q267.6 91.9 267.3 91.8L267.3 91.8L267.3 91.0Q267.6 91.2 268.1 91.3Q268.6 91.4 269.1 91.4L269.1 91.4Q269.8 91.4 270.2 91.1Q270.6 90.8 270.6 90.4L270.6 90.4Q270.6 90.0 270.4 89.8Q270.3 89.6 270.0 89.4Q269.6 89.2 269.1 89.0L269.1 89.0Q268.2 88.7 267.8 88.3Q267.4 87.9 267.4 87.1L267.4 87.1Q267.4 86.6 267.7 86.2Q267.9 85.9 268.4 85.7Q268.9 85.5 269.5 85.5L269.5 85.5Q270.0 85.5 270.4 85.6Q270.9 85.7 271.2 85.8L271.2 85.8L271.0 86.5Q270.6 86.4 270.3 86.3Q269.9 86.2 269.4 86.2L269.4 86.2Q268.8 86.2 268.5 86.5Q268.2 86.7 268.2 87.1L268.2 87.1Q268.2 87.5 268.4 87.7Q268.5 87.9 268.8 88.1Q269.1 88.2 269.6 88.4L269.6 88.4Q270.2 88.6 270.6 88.9Q271.0 89.1 271.2 89.4Q271.4 89.8 271.4 90.3Z "/></g><defs><clipPath id="satori_bc-id-3" clip-path="url(#satori_cp-id)"><rect x="345" y="44" width="171" height="62"/></clipPath></defs><mask id="satori_om-id-3"><rect x="345" y="44" width="170" height="62" fill="#fff" mask="url(#satori_om-id)"/><path width="171" height="62" fill="none" stroke="#000" stroke-width="2" d="M516,44 A0,0 0 0 1 516,44 v62 A0,0 0 0 1 516,106"/></mask><path width="171" height="62" clip-path="url(#satori_bc-id-3)" fill="none" stroke="rgba(255,255,255,0.06)" stroke-width="2" d="M516,44 A0,0 0 0 1 516,44 v62 A0,0 0 0 1 516,106"/><mask id="satori_om-id-3-0"><rect x="402" y="56" width="56" height="22" fill="#fff" mask="url(#satori_om-id)"/></mask><g mask="url(#satori_om-id)" clip-path="url(#satori_cp-id)"><path fill="#f59e0b" d="M412.7 76L411.1 76L405.9 62.2L405.8 62.2Q405.9 62.9 405.9 64.1Q406.0 65.2 406.0 66.5L406.0 66.5L406.0 76L404.1 76L404.1 60.3L407.1 60.3L411.9 73.2L412.0 73.2L416.9 60.3L419.8 60.3L419.8 76L417.9 76L417.9 66.3Q417.9 65.2 417.9 64.1Q418.0 63.0 418.0 62.3L418.0 62.3L417.9 62.3L412.7 76ZM434.1 70.1L434.1 70.1Q434.1 73.0 432.6 74.6Q431.1 76.2 428.6 76.2L428.6 76.2Q427.0 76.2 425.8 75.5Q424.6 74.8 423.9 73.4Q423.2 72.0 423.2 70.1L423.2 70.1Q423.2 67.2 424.6 65.6Q426.1 64.0 428.6 64.0L428.6 64.0Q430.2 64.0 431.5 64.7Q432.7 65.4 433.4 66.8Q434.1 68.1 434.1 70.1ZM425.2 70.1L425.2 70.1Q425.2 72.2 426.0 73.4Q426.8 74.6 428.6 74.6L428.6 74.6Q430.4 74.6 431.2 73.4Q432.1 72.2 432.1 70.1L432.1 70.1Q432.1 68.0 431.2 66.8Q430.4 65.6 428.6 65.6L428.6 65.6Q426.8 65.6 426.0 66.8Q425.2 68.0 425.2 70.1ZM441.9 76.2L441.9 76.2Q440.3 76.2 439.1 75.6Q437.9 74.9 437.2 73.6Q436.5 72.3 436.5 70.2L436.5 70.2Q436.5 68.0 437.2 66.6Q437.9 65.3 439.2 64.6Q440.4 64.0 442.0 64.0L442.0 64.0Q442.9 64.0 443.7 64.2Q444.6 64.4 445.1 64.6L445.1 64.6L444.5 66.2Q444.0 66.0 443.3 65.9Q442.6 65.7 442.0 65.7L442.0 65.7Q438.5 65.7 438.5 70.1L438.5 70.1Q438.5 72.3 439.3 73.4Q440.2 74.5 441.8 74.5L441.8 74.5Q442.8 74.5 443.5 74.3Q444.3 74.2 444.9 73.9L444.9 73.9L444.9 75.6Q444.3 75.9 443.6 76.1Q442.9 76.2 441.9 76.2ZM449.6 59.3L449.6 68.0Q449.6 68.4 449.6 68.9Q449.5 69.5 449.5 69.9L449.5 69.9L449.6 69.9Q449.7 69.8 450.0 69.4Q450.3 69.1 450.5 68.8Q450.8 68.4 451.0 68.2L451.0 68.2L454.8 64.2L457.0 64.2L452.3 69.2L457.4 76L455.0 76L450.9 70.5L449.6 71.7L449.6 76L447.7 76L447.7 59.3L449.6 59.3Z "/></g><mask id="satori_om-id-3-1"><rect x="406" y="82" width="48" height="12" fill="#fff" mask="url(#satori_om-id)"/></mask><g mask="url(#satori_om-id)" clip-path="url(#satori_cp-id)"><path fill="rgba(200,195,225,0.45)" d="M409.6 86.2L409.6 86.2Q408.6 86.2 408.0 86.9Q407.4 87.6 407.4 88.8L407.4 88.8Q407.4 90.0 408.0 90.7Q408.5 91.4 409.6 91.4L409.6 91.4Q410.0 91.4 410.4 91.3Q410.8 91.2 411.2 91.1L411.2 91.1L411.2 91.8Q410.8 92.0 410.4 92.0Q410.0 92.1 409.5 92.1L409.5 92.1Q408.5 92.1 407.9 91.7Q407.2 91.3 406.9 90.5Q406.5 89.8 406.5 88.8L406.5 88.8Q406.5 87.8 406.9 87.1Q407.3 86.3 408.0 85.9Q408.6 85.5 409.6 85.5L409.6 85.5Q410.7 85.5 411.4 85.9L411.4 85.9L411.1 86.5Q410.8 86.4 410.4 86.3Q410.1 86.2 409.6 86.2ZM418.8 88.8L418.8 88.8Q418.8 89.8 418.5 90.5Q418.1 91.3 417.5 91.7Q416.8 92.1 415.8 92.1L415.8 92.1Q414.8 92.1 414.2 91.7Q413.5 91.3 413.2 90.5Q412.9 89.8 412.9 88.8L412.9 88.8Q412.9 87.8 413.2 87.0Q413.5 86.3 414.2 85.9Q414.8 85.5 415.8 85.5L415.8 85.5Q416.8 85.5 417.5 85.9Q418.1 86.3 418.5 87.0Q418.8 87.8 418.8 88.8ZM413.7 88.8L413.7 88.8Q413.7 90.0 414.2 90.7Q414.7 91.4 415.8 91.4L415.8 91.4Q416.9 91.4 417.4 90.7Q417.9 90.0 417.9 88.8L417.9 88.8Q417.9 87.6 417.4 86.9Q416.9 86.2 415.8 86.2L415.8 86.2Q414.7 86.2 414.2 86.9Q413.7 87.6 413.7 88.8ZM424.5 92L423.8 92L421.7 86.4L421.7 86.4Q421.7 86.6 421.7 87.1Q421.8 87.6 421.8 88.1L421.8 88.1L421.8 92L421.0 92L421.0 85.6L422.2 85.6L424.2 90.8L424.2 90.8L426.2 85.6L427.4 85.6L427.4 92L426.6 92L426.6 88.0Q426.6 87.6 426.6 87.1Q426.7 86.7 426.7 86.4L426.7 86.4L426.7 86.4L424.5 92ZM433.5 92L432.8 92L430.7 86.4L430.7 86.4Q430.7 86.6 430.7 87.1Q430.7 87.6 430.7 88.1L430.7 88.1L430.7 92L430.0 92L430.0 85.6L431.2 85.6L433.2 90.8L433.2 90.8L435.2 85.6L436.4 85.6L436.4 92L435.6 92L435.6 88.0Q435.6 87.6 435.6 87.1Q435.6 86.7 435.7 86.4L435.7 86.4L435.6 86.4L433.5 92ZM440.7 91.5L440.7 92L438.4 92L438.4 91.5L439.2 91.4L439.2 86.2L438.4 86.0L438.4 85.6L440.7 85.6L440.7 86.0L440.0 86.2L440.0 91.4L440.7 91.5ZM444.8 86.3L444.8 92L444.0 92L444.0 86.3L442.0 86.3L442.0 85.6L446.8 85.6L446.8 86.3L444.8 86.3ZM452.2 90.3L452.2 90.3Q452.2 91.1 451.6 91.6Q451.0 92.1 449.9 92.1L449.9 92.1Q449.4 92.1 448.9 92.0Q448.5 91.9 448.2 91.8L448.2 91.8L448.2 91.0Q448.5 91.2 449.0 91.3Q449.5 91.4 450.0 91.4L450.0 91.4Q450.7 91.4 451.1 91.1Q451.4 90.8 451.4 90.4L451.4 90.4Q451.4 90.0 451.3 89.8Q451.2 89.6 450.8 89.4Q450.5 89.2 449.9 89.0L449.9 89.0Q449.1 88.7 448.7 88.3Q448.3 87.9 448.3 87.1L448.3 87.1Q448.3 86.6 448.5 86.2Q448.8 85.9 449.2 85.7Q449.7 85.5 450.3 85.5L450.3 85.5Q450.8 85.5 451.3 85.6Q451.7 85.7 452.1 85.8L452.1 85.8L451.8 86.5Q451.5 86.4 451.1 86.3Q450.7 86.2 450.3 86.2L450.3 86.2Q449.7 86.2 449.4 86.5Q449.1 86.7 449.1 87.1L449.1 87.1Q449.1 87.5 449.2 87.7Q449.3 87.9 449.7 88.1Q450.0 88.2 450.5 88.4L450.5 88.4Q451.0 88.6 451.4 88.9Q451.8 89.1 452.0 89.4Q452.2 89.8 452.2 90.3Z "/></g><defs><clipPath id="satori_bc-id-4" clip-path="url(#satori_cp-id)"><rect x="516" y="44" width="172" height="62"/></clipPath></defs><mask id="satori_om-id-4"><rect x="516" y="44" width="171" height="62" fill="#fff" mask="url(#satori_om-id)"/><path width="172" height="62" fill="none" stroke="#000" stroke-width="2" d="M688,44 A0,0 0 0 1 688,44 v62 A0,0 0 0 1 688,106"/></mask><path width="172" height="62" clip-path="url(#satori_bc-id-4)" fill="none" stroke="rgba(255,255,255,0.06)" stroke-width="2" d="M688,44 A0,0 0 0 1 688,44 v62 A0,0 0 0 1 688,106"/><mask id="satori_om-id-4-0"><rect x="573" y="56" width="56" height="22" fill="#fff" mask="url(#satori_om-id)"/></mask><g mask="url(#satori_om-id)" clip-path="url(#satori_cp-id)"><path fill="#4ade80" d="M583.7 76L582.1 76L576.9 62.2L576.8 62.2Q576.9 62.9 576.9 64.1Q577.0 65.2 577.0 66.5L577.0 66.5L577.0 76L575.1 76L575.1 60.3L578.1 60.3L582.9 73.2L583.0 73.2L587.9 60.3L590.8 60.3L590.8 76L588.9 76L588.9 66.3Q588.9 65.2 588.9 64.1Q589.0 63.0 589.0 62.3L589.0 62.3L588.9 62.3L583.7 76ZM605.1 70.1L605.1 70.1Q605.1 73.0 603.6 74.6Q602.1 76.2 599.6 76.2L599.6 76.2Q598.0 76.2 596.8 75.5Q595.6 74.8 594.9 73.4Q594.2 72.0 594.2 70.1L594.2 70.1Q594.2 67.2 595.6 65.6Q597.1 64.0 599.6 64.0L599.6 64.0Q601.2 64.0 602.5 64.7Q603.7 65.4 604.4 66.8Q605.1 68.1 605.1 70.1ZM596.2 70.1L596.2 70.1Q596.2 72.2 597.0 73.4Q597.8 74.6 599.6 74.6L599.6 74.6Q601.4 74.6 602.2 73.4Q603.1 72.2 603.1 70.1L603.1 70.1Q603.1 68.0 602.2 66.8Q601.4 65.6 599.6 65.6L599.6 65.6Q597.8 65.6 597.0 66.8Q596.2 68.0 596.2 70.1ZM612.9 76.2L612.9 76.2Q611.3 76.2 610.1 75.6Q608.9 74.9 608.2 73.6Q607.5 72.3 607.5 70.2L607.5 70.2Q607.5 68.0 608.2 66.6Q608.9 65.3 610.2 64.6Q611.4 64.0 613.0 64.0L613.0 64.0Q613.9 64.0 614.7 64.2Q615.6 64.4 616.1 64.6L616.1 64.6L615.5 66.2Q615.0 66.0 614.3 65.9Q613.6 65.7 613.0 65.7L613.0 65.7Q609.5 65.7 609.5 70.1L609.5 70.1Q609.5 72.3 610.3 73.4Q611.2 74.5 612.8 74.5L612.8 74.5Q613.8 74.5 614.5 74.3Q615.3 74.2 615.9 73.9L615.9 73.9L615.9 75.6Q615.3 75.9 614.6 76.1Q613.9 76.2 612.9 76.2ZM620.6 59.3L620.6 68.0Q620.6 68.4 620.6 68.9Q620.5 69.5 620.5 69.9L620.5 69.9L620.6 69.9Q620.7 69.8 621.0 69.4Q621.3 69.1 621.5 68.8Q621.8 68.4 622.0 68.2L622.0 68.2L625.8 64.2L628.0 64.2L623.3 69.2L628.4 76L626.0 76L621.9 70.5L620.6 71.7L620.6 76L618.7 76L618.7 59.3L620.6 59.3Z "/></g><mask id="satori_om-id-4-1"><rect x="582" y="82" width="38" height="12" fill="#fff" mask="url(#satori_om-id)"/></mask><g mask="url(#satori_om-id)" clip-path="url(#satori_cp-id)"><path fill="rgba(200,195,225,0.45)" d="M586.5 92L582.9 92L582.9 85.6L583.7 85.6L583.7 91.3L586.5 91.3L586.5 92ZM590.2 91.5L590.2 92L587.9 92L587.9 91.5L588.6 91.4L588.6 86.2L587.9 86.0L587.9 85.6L590.2 85.6L590.2 86.0L589.4 86.2L589.4 91.4L590.2 91.5ZM597.3 85.6L597.3 92L596.4 92L593.0 86.7L592.9 86.7Q592.9 87.0 593.0 87.4Q593.0 87.9 593.0 88.4L593.0 88.4L593.0 92L592.2 92L592.2 85.6L593.2 85.6L596.6 90.9L596.6 90.9Q596.6 90.7 596.6 90.5Q596.6 90.2 596.6 89.8Q596.6 89.5 596.6 89.2L596.6 89.2L596.6 85.6L597.3 85.6ZM603.5 91.3L603.5 92L599.9 92L599.9 85.6L603.5 85.6L603.5 86.3L600.7 86.3L600.7 88.3L603.3 88.3L603.3 89.0L600.7 89.0L600.7 91.3L603.5 91.3ZM609.3 90.3L609.3 90.3Q609.3 91.1 608.7 91.6Q608.1 92.1 607.0 92.1L607.0 92.1Q606.5 92.1 606.0 92.0Q605.6 91.9 605.3 91.8L605.3 91.8L605.3 91.0Q605.6 91.2 606.1 91.3Q606.6 91.4 607.1 91.4L607.1 91.4Q607.8 91.4 608.2 91.1Q608.5 90.8 608.5 90.4L608.5 90.4Q608.5 90.0 608.4 89.8Q608.2 89.6 607.9 89.4Q607.6 89.2 607.0 89.0L607.0 89.0Q606.2 88.7 605.8 88.3Q605.4 87.9 605.4 87.1L605.4 87.1Q605.4 86.6 605.6 86.2Q605.9 85.9 606.3 85.7Q606.8 85.5 607.4 85.5L607.4 85.5Q607.9 85.5 608.4 85.6Q608.8 85.7 609.2 85.8L609.2 85.8L608.9 86.5Q608.6 86.4 608.2 86.3Q607.8 86.2 607.4 86.2L607.4 86.2Q606.8 86.2 606.5 86.5Q606.2 86.7 606.2 87.1L606.2 87.1Q606.2 87.5 606.3 87.7Q606.4 87.9 606.7 88.1Q607.1 88.2 607.6 88.4L607.6 88.4Q608.1 88.6 608.5 88.9Q608.9 89.1 609.1 89.4Q609.3 89.8 609.3 90.3Z M616.6 86.6L616.6 88.5L618.4 88.5L618.4 89.1L616.6 89.1L616.6 91.0L615.9 91.0L615.9 89.1L614.1 89.1L614.1 88.5L615.9 88.5L615.9 86.6L616.6 86.6Z "/></g><mask id="satori_om-id-5"><rect x="688" y="44" width="171" height="62" fill="#fff" mask="url(#satori_om-id)"/></mask><mask id="satori_om-id-5-0"><rect x="745" y="56" width="56" height="22" fill="#fff" mask="url(#satori_om-id)"/></mask><g mask="url(#satori_om-id)" clip-path="url(#satori_cp-id)"><path fill="#fb7185" d="M755.7 76L754.1 76L748.9 62.2L748.8 62.2Q748.9 62.9 748.9 64.1Q749.0 65.2 749.0 66.5L749.0 66.5L749.0 76L747.1 76L747.1 60.3L750.1 60.3L754.9 73.2L755.0 73.2L759.9 60.3L762.8 60.3L762.8 76L760.9 76L760.9 66.3Q760.9 65.2 760.9 64.1Q761.0 63.0 761.0 62.3L761.0 62.3L760.9 62.3L755.7 76ZM777.1 70.1L777.1 70.1Q777.1 73.0 775.6 74.6Q774.1 76.2 771.6 76.2L771.6 76.2Q770.0 76.2 768.8 75.5Q767.6 74.8 766.9 73.4Q766.2 72.0 766.2 70.1L766.2 70.1Q766.2 67.2 767.6 65.6Q769.1 64.0 771.6 64.0L771.6 64.0Q773.2 64.0 774.5 64.7Q775.7 65.4 776.4 66.8Q777.1 68.1 777.1 70.1ZM768.2 70.1L768.2 70.1Q768.2 72.2 769.0 73.4Q769.8 74.6 771.6 74.6L771.6 74.6Q773.4 74.6 774.2 73.4Q775.1 72.2 775.1 70.1L775.1 70.1Q775.1 68.0 774.2 66.8Q773.4 65.6 771.6 65.6L771.6 65.6Q769.8 65.6 769.0 66.8Q768.2 68.0 768.2 70.1ZM784.9 76.2L784.9 76.2Q783.3 76.2 782.1 75.6Q780.9 74.9 780.2 73.6Q779.5 72.3 779.5 70.2L779.5 70.2Q779.5 68.0 780.2 66.6Q780.9 65.3 782.2 64.6Q783.4 64.0 785.0 64.0L785.0 64.0Q785.9 64.0 786.7 64.2Q787.6 64.4 788.1 64.6L788.1 64.6L787.5 66.2Q787.0 66.0 786.3 65.9Q785.6 65.7 785.0 65.7L785.0 65.7Q781.5 65.7 781.5 70.1L781.5 70.1Q781.5 72.3 782.3 73.4Q783.2 74.5 784.8 74.5L784.8 74.5Q785.8 74.5 786.5 74.3Q787.3 74.2 787.9 73.9L787.9 73.9L787.9 75.6Q787.3 75.9 786.6 76.1Q785.9 76.2 784.9 76.2ZM792.6 59.3L792.6 68.0Q792.6 68.4 792.6 68.9Q792.5 69.5 792.5 69.9L792.5 69.9L792.6 69.9Q792.7 69.8 793.0 69.4Q793.3 69.1 793.5 68.8Q793.8 68.4 794.0 68.2L794.0 68.2L797.8 64.2L800.0 64.2L795.3 69.2L800.4 76L798.0 76L793.9 70.5L792.6 71.7L792.6 76L790.7 76L790.7 59.3L792.6 59.3Z "/></g><mask id="satori_om-id-5-1"><rect x="755" y="82" width="36" height="12" fill="#fff" mask="url(#satori_om-id)"/></mask><g mask="url(#satori_om-id)" clip-path="url(#satori_cp-id)"><path fill="rgba(200,195,225,0.45)" d="M759.5 92L755.9 92L755.9 85.6L756.7 85.6L756.7 91.3L759.5 91.3L759.5 92ZM763.2 91.5L763.2 92L760.9 92L760.9 91.5L761.6 91.4L761.6 86.2L760.9 86.0L760.9 85.6L763.2 85.6L763.2 86.0L762.4 86.2L762.4 91.4L763.2 91.5ZM770.3 85.6L770.3 92L769.4 92L766.0 86.7L765.9 86.7Q765.9 87.0 766.0 87.4Q766.0 87.9 766.0 88.4L766.0 88.4L766.0 92L765.2 92L765.2 85.6L766.2 85.6L769.6 90.9L769.6 90.9Q769.6 90.7 769.6 90.5Q769.6 90.2 769.6 89.8Q769.6 89.5 769.6 89.2L769.6 89.2L769.6 85.6L770.3 85.6ZM776.5 91.3L776.5 92L772.9 92L772.9 85.6L776.5 85.6L776.5 86.3L773.7 86.3L773.7 88.3L776.3 88.3L776.3 89.0L773.7 89.0L773.7 91.3L776.5 91.3ZM782.3 90.3L782.3 90.3Q782.3 91.1 781.7 91.6Q781.1 92.1 780.0 92.1L780.0 92.1Q779.5 92.1 779.0 92.0Q778.6 91.9 778.3 91.8L778.3 91.8L778.3 91.0Q778.6 91.2 779.1 91.3Q779.6 91.4 780.1 91.4L780.1 91.4Q780.8 91.4 781.2 91.1Q781.5 90.8 781.5 90.4L781.5 90.4Q781.5 90.0 781.4 89.8Q781.2 89.6 780.9 89.4Q780.6 89.2 780.0 89.0L780.0 89.0Q779.2 88.7 778.8 88.3Q778.4 87.9 778.4 87.1L778.4 87.1Q778.4 86.6 778.6 86.2Q778.9 85.9 779.3 85.7Q779.8 85.5 780.4 85.5L780.4 85.5Q780.9 85.5 781.4 85.6Q781.8 85.7 782.2 85.8L782.2 85.8L781.9 86.5Q781.6 86.4 781.2 86.3Q780.8 86.2 780.4 86.2L780.4 86.2Q779.8 86.2 779.5 86.5Q779.2 86.7 779.2 87.1L779.2 87.1Q779.2 87.5 779.3 87.7Q779.4 87.9 779.7 88.1Q780.1 88.2 780.6 88.4L780.6 88.4Q781.1 88.6 781.5 88.9Q781.9 89.1 782.1 89.4Q782.3 89.8 782.3 90.3Z M789.2 89.9L787.1 89.9L787.1 89.2L789.2 89.2L789.2 89.9Z "/></g></svg>